<svg width="96" height="27" viewBox="0 0 96 27" fill="none" xmlns="http://www.w3.org/2000/svg">
<g clip-path="url(#clip0_655_24)">
<path d="M24.9788 0H29.3493V27H24.9788V0ZM44.6462 18.387C44.6462 22.5191 41.1312 22.8485 40.0855 22.8485C37.473 22.8485 36.9977 20.4314 36.9977 18.9734V8.64H32.6272V18.9518C32.6272 21.5114 33.4401 23.6239 34.8649 25.0322C36.1236 26.2775 38.0095 26.9579 40.0528 26.9579C41.5016 26.9579 43.5536 26.5118 44.6462 25.5258V27H49.0167V8.64H44.6462V18.387ZM57.7578 2.16H53.3873V8.64H50.1094V12.96H53.3873V27H57.7578V12.96H61.0357V8.64H57.7578V2.16ZM74.7996 21.5104C73.8479 22.356 72.5914 22.8247 71.2125 22.8247C68.1728 22.8247 65.9405 20.6183 65.9405 17.5889C65.9405 14.5595 68.1018 12.4459 71.2125 12.4459C72.5674 12.4459 73.848 12.892 74.8237 13.7376L75.4869 14.3014L78.4337 11.3897L77.6962 10.732C75.9622 9.18432 73.66 8.316 71.2114 8.316C65.7482 8.316 61.7809 12.2126 61.7809 17.5662C61.7809 22.8971 65.8433 26.933 71.2114 26.933C73.7059 26.933 76.0321 26.0647 77.7443 24.4922L78.4567 23.8345L75.464 20.925L74.7996 21.5104ZM94.0333 10.2406C92.7746 8.9964 91.2995 8.316 89.2563 8.316C87.8075 8.316 86.1663 8.76204 85.0737 9.747V0H80.7031V27H85.0737V16.8858C85.0737 12.7537 88.0435 12.4254 89.0891 12.4254C91.7016 12.4254 91.6295 14.8435 91.6295 16.2994V27H96V16.322C96 13.7624 95.4592 11.65 94.0333 10.2406Z" fill="white"/>
<path d="M71.0682 14.5131C71.9063 14.5131 72.71 14.8421 73.3026 15.4279C73.8952 16.0136 74.2281 16.8081 74.2281 17.6364C74.2281 18.4648 73.8952 19.2592 73.3026 19.845C72.71 20.4307 71.9063 20.7598 71.0682 20.7598C70.2302 20.7598 69.4264 20.4307 68.8338 19.845C68.2412 19.2592 67.9083 18.4648 67.9083 17.6364C67.9083 16.8081 68.2412 16.0136 68.8338 15.4279C69.4264 14.8421 70.2302 14.5131 71.0682 14.5131Z" fill="#FF3D2E"/>
<path d="M18.86 20.2187C17.1981 21.9089 14.9407 22.8247 12.5653 22.8247C7.69652 22.8247 4.15638 19.0447 4.15638 13.8564C4.15638 8.6443 7.69652 4.8643 12.5653 4.8643C14.9177 4.8643 17.15 5.77906 18.837 7.44658L19.5014 8.1043L22.4231 5.21638L21.7817 4.55866C19.3593 2.09302 16.0814 0.755981 12.5653 0.755981C5.39215 0.755981 0 6.39034 0 13.8791C0 21.3451 5.41619 26.9568 12.5653 26.9568C16.1054 26.9568 19.3833 25.596 21.8057 23.1303L22.4471 22.4726L19.5494 19.5383L18.86 20.2187Z" fill="white"/>
</g>
<defs>
<clipPath id="clip0_655_24">
<rect width="96" height="27" fill="white"/>
</clipPath>
</defs>
</svg>
