<svg width="39" height="39" viewBox="0 0 39 39" fill="none" xmlns="http://www.w3.org/2000/svg">
<path fill-rule="evenodd" clip-rule="evenodd" d="M0 2C0 0.89543 0.895431 0 2 0H37C38.1046 0 39 0.895431 39 2V37C39 38.1046 38.1046 39 37 39H2C0.89543 39 0 38.1046 0 37V2ZM31.2002 29.3351C26.5846 34.6009 17.3237 35.4305 11.4235 30.6397C5.35531 25.7135 4.81037 16.1639 10.2692 10.5723C15.3386 5.37967 25.4209 4.79814 31.1986 10.8996L26.8155 15.153C24.8006 13.1329 22.2188 12.2271 19.2051 12.6458C17.2562 12.9167 15.5993 13.7601 14.343 15.2672C11.9229 18.1718 12.2276 22.92 14.946 25.6145C17.3881 28.0335 22.8438 29.1555 26.9694 25.0025L26.9878 25.0214L26.9981 25.032C28.3957 26.4638 29.7933 27.8957 31.1986 29.3351H31.2002ZM20.2807 15.634C17.7224 15.6584 15.717 17.6542 15.7327 20.1584H15.7342C15.7499 22.6855 17.8135 24.6721 20.4079 24.663C22.9614 24.6523 25.0894 22.5759 25.0674 20.1127C25.0439 17.572 22.9457 15.6082 20.2807 15.634Z" fill="white"/>
</svg>
