<svg width="282" height="63" viewBox="0 0 282 63" fill="none" xmlns="http://www.w3.org/2000/svg">
<path d="M119.636 20.6666L108.691 53.7333H98.4693L92.0083 33.6099L85.258 53.7333H75.0361L64.0909 20.6666H73.9271L80.7256 41.782L87.8617 20.6666H96.6371L103.436 41.971L110.523 20.6666H119.636Z" fill="white"/>
<path d="M147.267 42.6038H128.649C128.979 43.8774 129.765 44.9801 130.854 45.6964C131.942 46.417 133.307 46.7774 134.949 46.7774C136.033 46.8014 137.112 46.6225 138.131 46.2497C139.128 45.8368 140.048 45.2526 140.85 44.5226L145.576 49.5118C143.08 52.3262 139.444 53.7334 134.666 53.7334C131.673 53.7334 129.042 53.1577 126.774 52.0064C124.606 50.947 122.779 49.2831 121.507 47.2091C120.248 45.1168 119.6 42.7046 119.639 40.2531C119.594 37.8329 120.216 35.448 121.434 33.3675C122.648 31.3351 124.393 29.6836 126.475 28.5958C128.712 27.4199 131.202 26.8264 133.721 26.8688C136.123 26.8353 138.499 27.3834 140.652 28.4679C142.702 29.5156 144.416 31.1354 145.591 33.1372C146.801 35.1691 147.407 37.5763 147.409 40.3587C147.409 40.4162 147.362 41.1646 147.267 42.6038ZM130.281 34.5444C129.327 35.3838 128.698 36.54 128.507 37.8065H138.998C138.804 36.5414 138.177 35.3863 137.227 34.5444C136.253 33.7312 135.022 33.305 133.762 33.3451C132.496 33.299 131.257 33.7257 130.281 34.5444Z" fill="white"/>
<path d="M175.109 27.6782C177.105 28.81 178.744 30.4828 179.841 32.506C181.04 34.7495 181.642 37.267 181.588 39.8137C181.64 42.3675 181.038 44.8919 179.841 47.1445C178.746 49.1817 177.107 50.8709 175.109 52.0218C173.091 53.1701 170.806 53.7603 168.487 53.7324C164.984 53.7324 162.357 52.6922 160.606 50.6118V53.2866H151.682V16.5333H161.04V28.7514C162.846 26.9022 165.325 25.9776 168.477 25.9776C170.797 25.9519 173.084 26.5383 175.109 27.6782ZM170.545 44.5424C171.596 43.4021 172.121 41.8258 172.121 39.8137C172.121 37.8016 171.596 36.2495 170.545 35.1576C170.03 34.6041 169.403 34.1676 168.707 33.8772C168.01 33.5868 167.26 33.4491 166.507 33.4735C165.753 33.4491 165.003 33.5868 164.307 33.8772C163.61 34.1676 162.983 34.6041 162.468 35.1576C161.417 36.2804 160.892 37.8324 160.892 39.8137C160.892 41.828 161.417 43.4043 162.468 44.5424C162.979 45.1031 163.604 45.5462 164.301 45.8414C164.999 46.1366 165.751 46.277 166.507 46.2529C167.263 46.277 168.015 46.1366 168.712 45.8414C169.409 45.5462 170.034 45.1031 170.545 44.5424Z" fill="white"/>
<path d="M265.2 26.8674C268.353 26.8674 270.833 27.7623 272.639 29.5523V27.3149H282V53.3009H273.083V50.7119C271.331 52.7256 268.703 53.7324 265.2 53.7324C262.879 53.76 260.592 53.1887 258.572 52.0767C256.573 50.9635 254.935 49.3281 253.842 47.3558C252.642 45.176 252.041 42.7321 252.094 40.2599C252.039 37.7947 252.641 35.3576 253.842 33.1865C254.936 31.2277 256.576 29.6082 258.572 28.5135C260.596 27.4116 262.881 26.8441 265.2 26.8674ZM267.17 46.4768C267.927 46.5001 268.679 46.3642 269.376 46.0784C270.074 45.7927 270.699 45.3638 271.21 44.8211C272.261 43.7173 272.787 42.1916 272.787 40.244C272.787 38.2963 272.261 36.7941 271.21 35.7372C270.695 35.2014 270.068 34.7789 269.371 34.4978C268.675 34.2167 267.924 34.0834 267.17 34.107C266.417 34.0834 265.666 34.2167 264.97 34.4978C264.273 34.7789 263.646 35.2014 263.13 35.7372C262.079 36.8239 261.554 38.3262 261.554 40.244C261.554 42.1937 262.079 43.7194 263.13 44.8211C263.642 45.3638 264.267 45.7927 264.965 46.0784C265.662 46.3642 266.414 46.5001 267.17 46.4768Z" fill="white"/>
<path d="M199.443 27.7694C201.247 27.1418 203.163 26.8362 205.091 26.8691V35.2063C204.336 35.1188 203.575 35.0699 202.814 35.06C200.661 35.06 198.975 35.5963 197.756 36.6689C196.537 37.7416 195.926 39.383 195.924 41.5933V53.7334H185.864V27.3079H195.447V30.477C196.491 29.26 197.871 28.3246 199.443 27.7694Z" fill="white"/>
<path d="M209.364 26.8667H217.909V53.7334H209.364V26.8667Z" fill="white"/>
<path d="M236.034 44.2077L233.367 47.0654V53.7333H224.318V16.5333H233.367V36.0357L242.607 26.5603H253.322L242.607 38.1915L254.227 53.7333H243.273L236.034 44.2077Z" fill="white"/>
<path d="M213.636 24.8C215.996 24.8 217.909 22.9494 217.909 20.6667C217.909 18.3839 215.996 16.5333 213.636 16.5333C211.277 16.5333 209.364 18.3839 209.364 20.6667C209.364 22.9494 211.277 24.8 213.636 24.8Z" fill="white"/>
<path d="M36.3182 18.6L36.2776 18.9993V19.0201L35.3009 30.6572L29.6306 32.2985L26.3466 28.2494L25.5031 33.4943L19.835 35.1333L13.1091 25.8047V25.7932L12.8723 25.4746C12.8543 25.4492 12.8362 25.4238 12.8182 25.3938L17.1645 24.1403L21.4319 30.1424L23.0108 23.7825L26.7075 22.7114L31.3922 27.2591L31.9515 19.8419L36.3182 18.6Z" fill="white"/>
<path d="M38.7312 55.8976C39.1195 57.1436 38.9409 58.4769 38.2344 59.6049C37.5279 60.7329 36.3513 61.5634 34.9628 61.914C33.5762 62.2651 32.0909 62.1086 30.8326 61.479C29.5744 60.8493 28.6458 59.7979 28.2505 58.5551L38.7312 55.8976Z" fill="white"/>
<path d="M26.3611 55.8L20.431 51.0158L41.745 45.4016L39.024 52.3836L26.3611 55.8Z" fill="white"/>
<path d="M48.2043 17.535C49.7501 22.8686 49.3643 28.5628 47.1126 33.6489L47.093 33.6939L46.4183 35.1181V35.1309L43.9948 39.9026L36.0169 42.1149L41.0386 32.2225L41.4534 31.3659C43.1803 27.5266 43.4846 23.2159 42.3137 19.1798C41.8688 17.6337 41.2153 16.1528 40.3705 14.7765C39.627 13.5585 38.7371 12.4325 37.7199 11.4227C35.4033 9.11303 32.4961 7.457 29.3028 6.62805C26.1096 5.79911 22.7479 5.82775 19.5698 6.71099C16.3908 7.59053 13.5117 9.29301 11.2345 11.6398C8.95722 13.9867 7.36575 16.8914 6.627 20.0493C6.29915 21.4329 6.14155 22.8501 6.15759 24.2705C6.16986 25.8761 6.40041 27.4729 6.84315 29.0186C7.99873 33.0544 10.5548 36.5677 14.07 38.9517C14.3451 39.1401 14.6289 39.3222 14.9171 39.4935L14.9499 39.5128L24.4474 45.3188L16.4629 47.5333L11.4849 44.4922L11.4413 44.4643L10.8037 44.0553C5.99565 40.8776 2.49498 36.1275 0.926309 30.6527C0.913209 30.6113 0.902292 30.5706 0.893559 30.5306C-0.841645 24.3943 -0.0292844 17.8337 3.15302 12.2833C6.33532 6.73282 11.6286 2.64418 17.8756 0.911348C24.1239 -0.824156 30.8186 -0.061426 36.495 3.03268C42.1714 6.12678 46.3674 11.3003 48.165 17.4215C48.1825 17.4536 48.1934 17.4964 48.2043 17.535Z" fill="white"/>
</svg>
