<svg width="134" height="34" viewBox="0 0 134 34" fill="none" xmlns="http://www.w3.org/2000/svg">
<g clip-path="url(#clip0_655_28)">
<path d="M133.99 16.9836C133.99 21.7428 133.977 26.5023 134 31.2615C134.006 32.4432 133.441 33.1855 132.471 33.6861C132.045 33.9056 131.58 33.9982 131.099 33.9979C121.656 33.9968 112.214 33.9943 102.771 34C101.364 34.0011 100.723 33.0516 100.609 32.0619C100.578 31.7878 100.555 31.5107 100.555 31.2351C100.552 21.6925 100.554 12.1495 100.551 2.60698C100.551 1.63322 100.94 0.890248 101.752 0.37588C102.144 0.127377 102.581 0.0329681 103.034 0.00222178C103.093 -0.00175715 103.153 0.00149834 103.212 0.00149834C112.607 0.00149834 122.002 0.00149834 131.398 0.000774895C131.866 0.000774895 132.322 0.0695019 132.734 0.299918C133.551 0.755687 133.982 1.47334 133.987 2.41671C134 4.92272 133.991 7.42908 133.991 9.93509V16.9836H133.99ZM129.253 29.1812C129.263 29.0304 129.276 28.9244 129.276 28.8184C129.276 25.6371 129.286 22.4554 129.269 19.274C129.264 18.1993 129.114 17.1362 128.769 16.1133C128.293 14.7022 127.407 13.6832 126.008 13.1555C125.096 12.8111 124.144 12.7084 123.186 12.6943C122.32 12.6816 121.463 12.8126 120.644 13.1175C119.559 13.5219 118.588 14.0996 117.908 15.09C117.9 15.1008 117.867 15.0932 117.838 15.0947C117.805 14.3792 117.866 13.6605 117.8 12.9204C117.629 12.9102 117.489 12.8951 117.35 12.8947C116.141 12.8929 114.933 12.8929 113.724 12.894C113.233 12.894 113.232 12.8954 113.232 13.3913C113.231 16.5365 113.232 19.682 113.232 22.8272C113.232 24.8156 113.231 26.804 113.232 28.7923C113.232 29.1924 113.241 29.2011 113.628 29.2018C114.99 29.2036 116.353 29.2033 117.716 29.2011C117.84 29.2011 117.963 29.1801 118.114 29.1664V28.6563C118.114 26.1858 118.108 23.7156 118.118 21.245C118.122 20.4091 118.24 19.588 118.604 18.8229C119.002 17.9841 119.635 17.4318 120.525 17.1829C120.942 17.0664 121.364 17.04 121.791 17.0563C122.381 17.0791 122.896 17.2867 123.324 17.7107C123.836 18.2178 124.097 18.853 124.255 19.5453C124.382 20.1005 124.412 20.6645 124.412 21.2316C124.412 23.7141 124.411 26.1966 124.414 28.6791C124.414 28.8419 124.438 29.0047 124.453 29.1816H129.253L129.253 29.1812ZM105.324 12.9244C105.23 13.3233 105.246 28.8965 105.347 29.2029C105.472 29.2029 105.611 29.2029 105.751 29.2029C107.055 29.2029 108.358 29.2033 109.661 29.2029C109.984 29.2029 110.146 29.0364 110.147 28.7034C110.147 23.6056 110.147 18.5082 110.147 13.4105C110.147 13.3143 110.144 13.2177 110.143 13.1215C110.142 12.9721 110.063 12.9034 109.922 12.899C109.851 12.8969 109.78 12.8947 109.708 12.8947C108.37 12.8947 107.03 12.8936 105.691 12.8958C105.565 12.8958 105.439 12.9153 105.324 12.9247L105.324 12.9244ZM110.719 7.28114C110.797 5.64507 109.333 4.19204 107.718 4.19132C106.239 4.19059 104.658 5.37957 104.666 7.27969C104.674 9.20767 106.27 10.359 107.699 10.3518C109.435 10.3431 110.777 8.84522 110.719 7.2815V7.28114Z" fill="white"/>
<path d="M90.9682 14.8609C90.9799 14.6989 91.002 14.5368 91.0023 14.3748C91.0045 11.3989 91.0034 8.42336 91.0048 5.44748C91.0048 5.28254 91.0194 5.11723 91.0265 4.96278C91.3405 4.88356 95.2767 4.87488 95.621 4.94433C95.701 5.20585 95.7251 28.5882 95.6458 29.0267C95.4005 29.1164 91.8529 29.146 91.3341 29.0563C91.2562 28.4671 91.3522 27.8561 91.2726 27.1942C91.1552 27.2817 91.0752 27.3248 91.0158 27.3881C90.0496 28.4153 88.8299 28.9116 87.4843 29.1652C86.6984 29.3135 85.9057 29.3508 85.1163 29.3001C82.5687 29.1366 80.6207 27.9361 79.3106 25.7039C78.7203 24.6979 78.4013 23.5925 78.2733 22.4296C78.1272 21.1024 78.1609 19.7858 78.5148 18.4908C79.0002 16.7155 79.9301 15.2411 81.4148 14.161C82.4037 13.4415 83.5082 13.0089 84.7198 12.8552C85.899 12.7054 87.0565 12.7922 88.1927 13.1417C89.1507 13.4365 89.9931 13.9291 90.6723 14.6902C90.7338 14.7593 90.8092 14.815 90.8782 14.8772C90.9084 14.8718 90.9387 14.8663 90.9689 14.8609H90.9682ZM86.9267 25.7715C87.2549 25.7357 87.5881 25.7249 87.9103 25.6594C89.167 25.4037 90.1318 24.7204 90.7207 23.5516C91.4258 22.1529 91.4909 20.6854 91.0318 19.2037C90.6065 17.831 89.6912 16.9307 88.3221 16.5382C87.6087 16.3335 86.8822 16.2988 86.1451 16.4174C84.3595 16.7053 83.2742 17.7699 82.7871 19.5098C82.5527 20.3471 82.5367 21.1983 82.6804 22.0494C82.8226 22.8919 83.1231 23.6728 83.6793 24.3297C84.5324 25.3375 85.6344 25.7654 86.9263 25.7715H86.9267Z" fill="white"/>
<path d="M60.5132 13.0024C58.3788 15.4617 56.2914 17.8672 54.1812 20.2987C56.4105 23.2203 58.6228 26.1191 60.8667 29.0596C60.7393 29.0773 60.654 29.0997 60.569 29.0997C58.9339 29.1019 57.2988 29.0976 55.6637 29.1055C55.4379 29.1066 55.2957 29.0299 55.1623 28.8454C53.6322 26.7308 52.0941 24.622 50.5579 22.5117C50.2692 22.1149 49.9808 21.7177 49.6895 21.3227C49.6351 21.2489 49.5672 21.1853 49.4986 21.1093C49.3538 21.2402 49.4011 21.3936 49.4008 21.5282C49.3972 22.9982 49.3983 24.4682 49.3983 25.9383C49.3983 26.8299 49.399 27.7216 49.3972 28.6132C49.3972 28.7546 49.3844 28.8961 49.378 29.0267C49.0853 29.1164 45.1783 29.1345 44.7867 29.057C44.7782 29.0487 44.769 29.0408 44.7619 29.0314C44.7547 29.022 44.7462 29.0118 44.7444 29.001C44.7341 28.9301 44.7174 28.8588 44.7174 28.7876C44.7174 20.8952 44.7185 13.0028 44.7206 5.11037C44.7206 5.06371 44.7377 5.01668 44.7459 4.97364C45.0079 4.87995 48.9744 4.86331 49.3745 4.96025C49.3819 5.11435 49.3969 5.27929 49.3972 5.44424C49.3986 9.92669 49.3979 14.4091 49.3997 18.8916C49.3997 19.0515 49.4214 19.2114 49.4395 19.4635C49.5889 19.3134 49.6749 19.237 49.7493 19.1509C51.4341 17.194 53.1201 15.2382 54.7978 13.2751C54.9685 13.0755 55.1446 12.9941 55.407 12.9963C56.9827 13.0086 58.5584 13.0024 60.1345 13.0024C60.2369 13.0024 60.3396 13.0024 60.5132 13.0024V13.0024Z" fill="white"/>
<path d="M41.4177 29.0806H36.7397C36.7283 28.9106 36.7095 28.7586 36.7095 28.6067C36.7077 26.1007 36.7059 23.5944 36.7095 21.0883C36.7105 20.4231 36.687 19.7608 36.4801 19.1246C36.3766 18.8066 36.2525 18.4887 36.0886 18.1996C35.638 17.4064 34.9222 17.0049 34.0438 16.9604C32.9535 16.9054 31.9852 17.2281 31.2526 18.1045C30.8056 18.6395 30.5261 19.2631 30.4017 19.9471C30.3181 20.4061 30.2598 20.8771 30.2569 21.3434C30.2431 23.7651 30.2505 26.1868 30.2505 28.6085V29.0853C28.6699 29.1171 27.1283 29.0932 25.5622 29.1012V13.0292H29.9522C29.9995 13.7649 29.9426 14.5057 29.9874 15.2968C30.087 15.2281 30.1542 15.2039 30.1879 15.155C30.9554 14.0442 32.052 13.439 33.2974 13.073C34.7074 12.6588 36.1259 12.6885 37.5352 13.0737C39.1649 13.5193 40.2513 14.5799 40.8395 16.178C41.1275 16.9607 41.2918 17.7739 41.3445 18.6059C41.3885 19.3022 41.4127 20.001 41.4149 20.6988C41.4227 23.3375 41.4181 25.9759 41.4181 28.6147V29.0799L41.4177 29.0806Z" fill="white"/>
<path d="M76.4298 22.4691H65.1137C65.1137 22.6586 65.0927 22.8015 65.1169 22.9357C65.3459 24.214 66.1901 25.5998 67.7722 26.0208C68.7035 26.2686 69.6235 26.1937 70.5349 25.9112C71.4396 25.6305 72.2084 25.1317 72.8457 24.4224C72.909 24.3518 72.9662 24.2755 73.0171 24.2129C73.2824 24.3247 75.4658 26.0877 75.9437 26.5652C75.7798 26.8589 75.5266 27.076 75.2812 27.2955C74.4199 28.066 73.4075 28.5431 72.3155 28.8672C70.9005 29.2872 69.45 29.3935 67.9934 29.2882C65.8448 29.1331 63.9747 28.3348 62.5519 26.6249C61.6831 25.581 61.1618 24.3634 60.8947 23.0337C60.6006 21.568 60.553 20.0929 60.8741 18.6243C61.5042 15.7396 63.261 13.9419 66.04 13.1533C67.2253 12.8169 68.4407 12.7185 69.6619 12.8068C71.1267 12.9124 72.4982 13.3255 73.6792 14.2623C74.7165 15.0853 75.4359 16.1426 75.8883 17.3898C76.2471 18.378 76.4551 19.402 76.4867 20.4565C76.5035 21.02 76.4875 21.585 76.4818 22.149C76.4811 22.2307 76.4562 22.3121 76.4302 22.4687L76.4298 22.4691ZM71.9428 19.4313C72.0804 19.2031 71.9979 18.9861 71.9623 18.7795C71.6345 16.8816 69.9908 15.5707 67.9753 16.0344C66.3213 16.4149 65.3726 17.7186 65.1201 19.172C65.1066 19.249 65.1183 19.3304 65.1183 19.4313H71.9431H71.9428Z" fill="white"/>
<path d="M14.2197 29.0781H0.0793143C-0.00140879 28.8108 -0.0319911 5.52571 0.0419754 4.97192C0.2845 4.88402 4.24242 4.85942 4.70578 4.95021C4.71183 5.09273 4.72427 5.24465 4.72427 5.39694C4.72534 11.5057 4.72498 17.6148 4.72498 23.7236C4.72498 23.844 4.72214 23.9648 4.72747 24.0849C4.73067 24.1547 4.74703 24.2238 4.76339 24.3323C5.39353 24.3804 6.01798 24.3482 6.641 24.354C7.26901 24.3598 7.89701 24.3555 8.52466 24.3555H12.3279C12.9534 24.3555 13.5793 24.3555 14.1909 24.3555C14.2891 24.6528 14.3108 28.6115 14.2201 29.0785L14.2197 29.0781Z" fill="white"/>
<path d="M22.2177 29.0545C21.8799 29.1272 17.9021 29.1182 17.5959 29.0379V13.0299H22.2113C22.3063 13.3243 22.3091 28.7525 22.2181 29.0545H22.2177Z" fill="white"/>
<path d="M22.8052 7.28911C22.8247 8.86911 21.525 10.1655 19.9443 10.1471C18.6083 10.1315 17.1709 9.09627 17.162 7.27247C17.1531 5.48629 18.6072 4.36604 20.0485 4.39534C21.5787 4.42681 22.818 5.70838 22.8052 7.28911V7.28911Z" fill="white"/>
</g>
<defs>
<clipPath id="clip0_655_28">
<rect width="134" height="34" fill="white"/>
</clipPath>
</defs>
</svg>
