<svg width="39" height="39" viewBox="0 0 39 39" fill="none" xmlns="http://www.w3.org/2000/svg">
<path d="M38.9888 19.3565C38.9888 24.6756 38.973 29.9951 39 35.3142C39.0066 36.635 38.3486 37.4646 37.2167 38.0241C36.72 38.2695 36.1789 38.373 35.6175 38.3726C24.6081 38.3714 13.5983 38.3685 2.58888 38.375C0.948647 38.3762 0.200257 37.315 0.0679932 36.2089C0.0315066 35.9024 0.00455515 35.5928 0.00455515 35.2847C0.00123819 24.6194 0.00331696 13.9537 0 3.28842C0 2.2001 0.45401 1.36972 1.40059 0.794831C1.85791 0.517091 2.36664 0.411574 2.8957 0.37721C2.96452 0.372763 3.03377 0.376402 3.10301 0.376402C14.0573 0.376402 25.0115 0.376402 35.9658 0.375593C36.5118 0.375593 37.0434 0.452406 37.5243 0.709932C38.4767 1.21932 38.9788 2.02141 38.9842 3.07577C38.9995 5.87662 38.9892 8.67787 38.9896 11.4787V19.3565H38.9888ZM33.4656 32.9892C33.4772 32.8206 33.4926 32.7022 33.4926 32.5837C33.4926 29.0281 33.5037 25.472 33.4843 21.9164C33.4776 20.7153 33.3031 19.5271 32.9009 18.3838C32.3457 16.8067 31.3133 15.6679 29.6818 15.078C28.6179 14.6931 27.5088 14.5783 26.3914 14.5626C25.3814 14.5484 24.3825 14.6948 23.4281 15.0356C22.1623 15.4875 21.0307 16.1332 20.2372 17.2401C20.2285 17.2522 20.1895 17.2437 20.1559 17.2454C20.1178 16.4457 20.1887 15.6424 20.1111 14.8152C19.9117 14.8039 19.7496 14.7869 19.587 14.7865C18.1778 14.7845 16.7685 14.7845 15.3592 14.7857C14.787 14.7857 14.7857 14.7873 14.7853 15.3416C14.7849 18.8568 14.7853 22.3724 14.7853 25.8876C14.7853 28.11 14.7845 30.3323 14.7862 32.5546C14.7862 33.0017 14.7965 33.0114 15.2468 33.0122C16.8356 33.0143 18.4245 33.0139 20.0133 33.0114C20.158 33.0114 20.3023 32.988 20.4781 32.9726V32.4026C20.4781 29.6414 20.4702 26.8805 20.4826 24.1193C20.4868 23.185 20.6248 22.2673 21.0486 21.4123C21.5134 20.4747 22.2506 19.8574 23.2888 19.5793C23.7755 19.4491 24.2673 19.4196 24.7644 19.4378C25.4523 19.4632 26.053 19.6953 26.5522 20.1691C27.1493 20.7359 27.454 21.4458 27.6381 22.2196C27.7861 22.8402 27.821 23.4704 27.8206 24.1044C27.8206 26.8789 27.8197 29.6535 27.8226 32.4281C27.8226 32.61 27.8517 32.7919 27.8682 32.9896H33.4652L33.4656 32.9892ZM5.56544 14.8197C5.45598 15.2656 5.47463 32.671 5.59197 33.0135C5.7375 33.0135 5.90045 33.0135 6.06298 33.0135C7.58298 33.0135 9.10256 33.0139 10.6221 33.0135C10.9986 33.0135 11.1873 32.8274 11.1881 32.4551C11.1881 26.7576 11.1881 21.0605 11.1881 15.363C11.1881 15.2555 11.1852 15.1475 11.1844 15.04C11.1831 14.873 11.0907 14.7962 10.9261 14.7914C10.8431 14.789 10.7602 14.7865 10.6773 14.7865C9.11624 14.7865 7.55478 14.7853 5.99373 14.7877C5.84654 14.7877 5.69936 14.8096 5.56502 14.8201L5.56544 14.8197ZM11.856 8.51252C11.9464 6.68396 10.2394 5.05998 8.35707 5.05917C6.63225 5.05836 4.78886 6.38722 4.79798 8.5109C4.80751 10.6657 6.66791 11.9525 8.33427 11.9444C10.358 11.9347 11.9236 10.2606 11.856 8.51292V8.51252Z" fill="white"/>
</svg>
