<svg width="28" height="37" viewBox="0 0 28 37" fill="none" xmlns="http://www.w3.org/2000/svg">
<path d="M20.6956 10.9565L20.6725 11.1918V11.204L20.116 18.059L16.8848 19.0258L15.0134 16.6406L14.5327 19.7302L11.3028 20.6957L7.47012 15.2006V15.1938L7.33517 15.0061C7.32489 14.9912 7.3146 14.9762 7.30432 14.9585L9.78105 14.2201L12.2128 17.7557L13.1125 14.0094L15.2191 13.3784L17.8886 16.0573L18.2073 11.6881L20.6956 10.9565Z" fill="#3B485E"/>
<path d="M21.7984 32.8695C22.0197 33.6035 21.9179 34.3889 21.5153 35.0534C21.1127 35.7178 20.4422 36.207 19.651 36.4136C18.8609 36.6203 18.0145 36.5282 17.2975 36.1573C16.5805 35.7864 16.0513 35.167 15.826 34.435L21.7984 32.8695Z" fill="#3B485E"/>
<path d="M15.0216 32.8697L12.1738 29.8386L23.1304 26.7827L22.2374 30.8572L15.0216 32.8697Z" fill="#FFDC60"/>
<path d="M27.4689 10.3292C28.3497 13.471 28.1299 16.8252 26.8468 19.8212L26.8356 19.8477L26.4512 20.6867V20.6942L25.0701 23.505L20.524 24.8082L23.3855 18.981L23.6219 18.4764C24.606 16.2148 24.7794 13.6756 24.1121 11.298C23.8586 10.3873 23.4862 9.51497 23.0048 8.70426C22.5812 7.98678 22.0741 7.32349 21.4944 6.72864C20.1743 5.36812 18.5177 4.39262 16.698 3.90432C14.8784 3.41602 12.9627 3.4329 11.1517 3.95318C9.3402 4.47128 7.69956 5.47414 6.40188 6.85657C5.10421 8.239 4.19732 9.95005 3.77635 11.8102C3.58952 12.6253 3.49972 13.4601 3.50886 14.2968C3.51585 15.2426 3.64723 16.1832 3.89952 17.0937C4.55802 19.471 6.01459 21.5406 8.01769 22.9449C8.17445 23.0559 8.33619 23.1631 8.50042 23.2641L8.51909 23.2754L13.9312 26.6955L9.38129 28L6.5446 26.2086L6.51972 26.1922L6.15643 25.9512C3.41658 24.0793 1.42174 21.2813 0.52785 18.0563C0.520385 18.0319 0.514165 18.0079 0.509188 17.9844C-0.479605 14.3697 -0.0166875 10.5051 1.79672 7.23558C3.61013 3.96604 6.62649 1.55758 10.1863 0.536839C13.7468 -0.485477 17.5617 -0.0361836 20.7964 1.78643C24.0311 3.60904 26.4222 6.65658 27.4465 10.2623C27.4564 10.2812 27.4627 10.3065 27.4689 10.3292Z" fill="#FFDC60"/>
</svg>
