<svg width="135" height="36" viewBox="0 0 135 36" fill="none" xmlns="http://www.w3.org/2000/svg">
<g clip-path="url(#clip0_655_65)">
<path d="M0 7.95003H4.77224C4.77224 8.11832 4.77224 8.24739 4.77224 8.37519C4.76459 11.6119 4.75693 14.8474 4.74673 18.0841C4.74291 19.1242 4.88447 20.139 5.24666 21.1196C5.53105 21.8877 5.9366 22.5836 6.52325 23.1669C7.41597 24.0552 8.50509 24.4854 9.76 24.5348C10.3454 24.5575 10.9205 24.5006 11.4817 24.3285C12.4739 24.0236 13.2518 23.4289 13.8321 22.5798C14.4162 21.727 14.7235 20.7704 14.8855 19.7607C14.985 19.1394 15.0143 18.5156 15.013 17.8867C15.0105 14.7107 15.0118 11.536 15.0118 8.36V8.0095C15.2566 7.93738 22.7274 7.91334 23.2248 7.97914C23.8612 10.4048 24.5231 12.8393 25.7614 15.1042C25.792 15.0182 25.8265 14.9334 25.8507 14.8448C26.2384 13.4656 26.8569 12.199 27.7611 11.0779C29.2673 9.21157 31.2185 8.06898 33.5753 7.59194C34.5598 7.39329 35.5546 7.31231 36.5544 7.36418C41.3139 7.61472 45.0021 10.6933 46.1831 14.9018C47.0541 18.0069 46.7302 21.0057 45.0213 23.7781C43.4692 26.2961 41.1876 27.8512 38.2748 28.4459C35.4283 29.028 32.7425 28.5674 30.2595 27.0528C29.7136 26.72 29.1984 26.3379 28.6679 25.9785C28.6028 25.9342 28.5378 25.8925 28.4243 25.8178C27.8466 29.2253 27.3109 32.5987 26.7345 35.9949C25.1365 35.9949 23.5717 35.9974 21.9661 35.9924C22.0043 35.7368 22.0311 35.5292 22.0681 35.3243C22.4073 33.4035 22.7478 31.484 23.0883 29.5645C23.425 27.6639 23.7643 25.7647 24.1009 23.8641C24.2234 23.1783 24.3394 22.49 24.4682 21.8054C24.4925 21.6726 24.4644 21.5726 24.3892 21.4676C22.2823 18.465 20.854 15.1523 19.8465 11.6499C19.8248 11.5752 19.7942 11.5018 19.7088 11.4284C19.7037 11.5398 19.696 11.6499 19.696 11.7612C19.696 13.9249 19.7024 16.0899 19.6935 18.2536C19.6858 20.0036 19.367 21.6941 18.6082 23.2833C17.2742 26.0785 15.0959 27.8436 12.0313 28.4839C11.0404 28.6914 10.0342 28.7319 9.02032 28.642C7.51417 28.5092 6.09984 28.1017 4.80922 27.3134C2.83631 26.1088 1.52911 24.3753 0.756263 22.2293C0.415753 21.2829 0.210427 20.306 0.123706 19.3039C0.107127 19.1179 0.0433608 18.9357 0 18.7509V7.95003H0ZM41.9299 18.2486C41.9299 17.1629 41.7832 16.2721 41.5039 15.4889C40.5525 12.8292 38.1167 11.2159 35.1363 11.5917C33.597 11.7853 32.3841 12.5343 31.471 13.7731C30.8448 14.6234 30.4214 15.5711 30.0949 16.5657C29.6932 17.7893 29.4509 19.0483 29.2698 20.3199C29.2405 20.5262 29.2698 20.6881 29.391 20.8564C30.327 22.1445 31.4978 23.1606 32.9504 23.8363C34.1543 24.3968 35.4194 24.6461 36.7521 24.4778C38.3998 24.269 39.707 23.4883 40.6763 22.1597C41.5677 20.9362 41.9057 19.538 41.9299 18.2498V18.2486Z" fill="white"/>
<path d="M46.558 7.96658H51.2882C51.4769 8.74223 51.6657 9.51535 51.8544 10.2885C52.0432 11.0641 52.2332 11.8398 52.4219 12.6154C52.6107 13.3911 52.7969 14.1667 52.9844 14.9436C53.1718 15.7193 53.358 16.4962 53.5455 17.2718C53.733 18.0475 53.9166 18.8244 54.113 19.5988C54.3069 20.3643 54.4612 21.14 54.6895 21.8966L54.7673 21.8941C55.9775 17.2554 57.1865 12.6167 58.3994 7.96911H64.3984C64.642 8.90799 64.8818 9.83548 65.1228 10.763C65.3639 11.6917 65.6062 12.6205 65.8472 13.5505C66.0908 14.4894 66.3357 15.4283 66.5792 16.3671C66.8216 17.2959 67.06 18.2259 67.3062 19.1534C67.551 20.0746 67.7666 21.0033 68.0369 21.9169L68.1109 21.9131C69.2408 17.2744 70.3708 12.6344 71.4994 8.00328C71.7379 7.93875 76.0804 7.9223 76.4553 7.9805C76.4617 7.98683 76.4706 7.99316 76.4757 8.00075C76.4808 8.00961 76.4846 8.01973 76.4846 8.02985C76.4846 8.06022 76.4897 8.09185 76.4821 8.11969C74.6635 14.7146 72.8449 21.3108 71.025 27.9057C71.0148 27.9437 70.9906 27.9778 70.9625 28.0322H65.3243C64.0299 23.3012 62.738 18.5789 61.4448 13.8567L61.3708 13.8529C61.1158 14.6235 60.9296 15.4143 60.7064 16.195C60.4807 16.9821 60.269 17.7729 60.0522 18.5625C59.8354 19.3521 59.6186 20.1416 59.4005 20.9299C59.185 21.7094 58.9656 22.4876 58.7501 23.267C58.532 24.0553 58.3165 24.8461 58.0984 25.6344C57.8803 26.4227 57.6609 27.2123 57.4352 28.0284C57.3141 28.0373 57.1955 28.0525 57.0769 28.0525C55.4355 28.0538 53.7929 28.0538 52.1516 28.0525C51.7728 28.0525 51.7715 28.0525 51.6797 27.7007C50.8201 24.4058 49.9619 21.1109 49.1036 17.8147C48.2759 14.6362 47.4482 11.4589 46.6218 8.28039C46.5976 8.18549 46.581 8.08806 46.5568 7.96911L46.558 7.96658Z" fill="white"/>
<path d="M118.176 13.9136C118.417 13.9136 118.619 13.9237 118.819 13.9123C120.256 13.8238 121.616 13.4821 122.813 12.6521C124.138 11.7334 124.842 10.4466 125.046 8.87377C125.084 8.58401 125.101 8.29298 125.127 8.00322C125.346 7.93742 129.273 7.91338 129.774 7.97918C129.788 8.94842 129.626 9.89489 129.344 10.8236C129.06 11.7587 128.641 12.6318 128.098 13.4467C127.56 14.254 126.917 14.9663 126.167 15.5864C125.412 16.2102 124.57 16.6935 123.622 17.0845C126.148 20.7388 128.653 24.3602 131.18 28.0145C131.071 28.0296 131.004 28.0474 130.939 28.0474C129.349 28.0486 127.757 28.0448 126.167 28.0524C125.967 28.0524 125.856 27.9752 125.75 27.8158C123.675 24.693 121.595 21.5727 119.516 18.4523C119.472 18.3853 119.433 18.3094 119.376 18.255C119.321 18.2031 119.246 18.1449 119.178 18.1423C118.863 18.1309 118.548 18.1373 118.219 18.1373C118.202 18.2233 118.179 18.2891 118.175 18.3562C118.167 18.4574 118.172 18.5586 118.172 18.6599C118.171 21.6524 118.17 24.6461 118.168 27.6387C118.168 27.7576 118.168 27.8765 118.168 27.9866C117.887 28.0676 113.795 28.0714 113.497 27.9968V0.00631218C115.05 -0.00127982 116.593 0.00251618 118.176 0.00378151V13.9136Z" fill="white"/>
<path d="M87.0328 28.6801C84.0587 28.6333 81.5055 27.6868 79.4281 25.6193C77.7918 23.9908 76.8392 22.0105 76.5076 19.7405C76.1977 17.6135 76.4068 15.5384 77.2983 13.5695C78.7534 10.3543 81.2326 8.32595 84.7117 7.60471C88.0173 6.9189 91.0551 7.59459 93.7065 9.70643C95.6106 11.2236 96.7915 13.2101 97.3042 15.5738C97.8219 17.964 97.6523 20.3087 96.6244 22.5432C95.1438 25.7622 92.6187 27.721 89.1319 28.4599C88.7838 28.5333 88.4305 28.5865 88.076 28.6232C87.7112 28.6611 87.3439 28.6662 87.0315 28.6826L87.0328 28.6801ZM92.8916 18.0943C92.8788 16.9593 92.6964 15.9319 92.2501 14.9576C91.152 12.5623 88.8029 11.2375 86.1604 11.5968C84.1187 11.8739 82.638 12.9849 81.7632 14.826C80.8998 16.643 80.8449 18.5359 81.438 20.4428C82.1878 22.8532 84.3202 24.631 87.1705 24.5311C89.0325 24.4665 90.522 23.6757 91.6201 22.1864C92.5319 20.9502 92.8763 19.5305 92.8903 18.0931L92.8916 18.0943Z" fill="white"/>
<path d="M99.7234 7.9703H104.316V10.0632C104.418 9.98851 104.477 9.96067 104.516 9.91512C105.613 8.6675 107.017 8.01079 108.647 7.77038C109.438 7.65397 110.231 7.6527 111.027 7.66915C111.136 7.67168 111.245 7.69826 111.371 7.71597V12.2395C111.213 12.2395 111.074 12.2421 110.935 12.2395C110.129 12.2193 109.324 12.218 108.527 12.3673C107.526 12.5546 106.609 12.9114 105.886 13.658C105.312 14.2514 104.983 14.9739 104.771 15.7546C104.591 16.4202 104.485 17.1009 104.457 17.788C104.42 18.6965 104.392 19.6063 104.389 20.5161C104.38 22.8924 104.386 25.2687 104.386 27.645V28.0144H99.7222V7.9703H99.7234Z" fill="white"/>
<path d="M135 0.0202637V1.76895H134.658V0.622562L134.591 0.611174C134.409 0.97559 134.358 1.38809 134.199 1.75377C133.866 1.8183 133.865 1.8183 133.776 1.5336C133.68 1.22739 133.587 0.919916 133.458 0.61497C133.383 0.793382 133.408 0.976856 133.405 1.15653C133.401 1.3476 133.405 1.53993 133.405 1.76516L133.031 1.79173C133.008 1.19449 133.021 0.625093 133.022 0.029121H133.614C133.735 0.389741 133.862 0.76681 134.012 1.21221C134.237 0.795913 134.285 0.388476 134.464 0.021529H135.001L135 0.0202637Z" fill="white"/>
<path d="M131.736 1.76392V0.366987L131.194 0.340415C131.187 0.246781 131.179 0.151881 131.168 0.0152247C131.689 -0.00881664 132.19 -0.0037553 132.71 0.0139594V0.336619L132.183 0.365722C132.118 0.823773 132.187 1.28562 132.137 1.76392H131.736Z" fill="white"/>
</g>
<defs>
<clipPath id="clip0_655_65">
<rect width="135" height="36" fill="white"/>
</clipPath>
</defs>
</svg>
