<svg width="39" height="39" viewBox="0 0 39 39" fill="none" xmlns="http://www.w3.org/2000/svg">
<path fill-rule="evenodd" clip-rule="evenodd" d="M2 0C0.895431 0 0 0.89543 0 2V37C0 38.1046 0.89543 39 2 39H37C38.1046 39 39 38.1046 39 37V2C39 0.895431 38.1046 0 37 0H2ZM7.96664 12.3567H5V18.7664C5.0082 18.7998 5.01758 18.833 5.02695 18.8662C5.04836 18.9421 5.06973 19.0178 5.0769 19.0945C5.13081 19.6893 5.25845 20.2689 5.47013 20.8306C5.95056 22.1041 6.76317 23.1329 7.98963 23.8477C8.79193 24.3155 9.67114 24.5573 10.6074 24.6362C11.2377 24.6895 11.8632 24.6654 12.4792 24.5423C14.3843 24.1623 15.7384 23.1148 16.5677 21.4561C17.0394 20.513 17.2376 19.5098 17.2423 18.4713C17.2462 17.5649 17.2454 16.658 17.2446 15.7514C17.2443 15.3737 17.2439 14.996 17.2439 14.6185C17.2439 14.5691 17.2466 14.5201 17.2492 14.471C17.2501 14.4543 17.251 14.4377 17.2518 14.421C17.305 14.4645 17.324 14.5081 17.3375 14.5524C17.9638 16.6309 18.8517 18.5967 20.1614 20.3786C20.2082 20.4409 20.2256 20.5002 20.2106 20.5791C20.1575 20.8484 20.1079 21.1187 20.0583 21.3889C20.0331 21.5263 20.0079 21.6636 19.9822 21.8008C19.8776 22.3647 19.7725 22.9284 19.6675 23.4922C19.5624 24.0559 19.4574 24.6196 19.3527 25.1836C19.1411 26.3227 18.9294 27.4618 18.7185 28.6017C18.7024 28.6867 18.6895 28.7726 18.675 28.8684C18.6687 28.9096 18.6622 28.9525 18.6551 28.9981C19.403 29.0004 20.1367 29.0001 20.8755 28.9998C21.1227 28.9997 21.3704 28.9996 21.6193 28.9996C21.8 27.9838 21.9741 26.9714 22.1485 25.9581C22.32 24.961 22.4917 23.9631 22.6698 22.9602C22.6923 22.9743 22.7117 22.9864 22.729 22.9972C22.7661 23.0204 22.7937 23.0376 22.8212 23.0555C22.9271 23.124 23.0321 23.1939 23.137 23.2638C23.3587 23.4114 23.5803 23.559 23.8106 23.693C25.3542 24.5919 27.0238 24.8652 28.7933 24.5198C30.6041 24.1669 32.0224 23.244 32.9872 21.7497C34.0496 20.1045 34.2509 18.3249 33.7095 16.4822C32.9753 13.9847 30.6826 12.1578 27.7239 12.0091C27.1023 11.9783 26.4839 12.0264 25.8719 12.1442C24.4068 12.4273 23.1938 13.1054 22.2575 14.213C21.6955 14.8783 21.311 15.6299 21.0699 16.4484C21.0589 16.4868 21.0446 16.5239 21.0302 16.5611C21.0249 16.5748 21.0196 16.5885 21.0144 16.6023C20.2446 15.2582 19.8332 13.8135 19.4376 12.374C19.1284 12.335 14.4842 12.3492 14.332 12.392V12.6C14.332 13.0713 14.3319 13.5424 14.3319 14.0136C14.3317 15.4269 14.3316 16.84 14.3328 18.2535C14.3336 18.6267 14.3153 18.9969 14.2535 19.3656C14.1528 19.9648 13.9617 20.5325 13.5986 21.0386C13.2379 21.5425 12.7543 21.8954 12.1375 22.0764C11.7887 22.1785 11.4311 22.2123 11.0673 22.1988C10.2871 22.1695 9.6101 21.9142 9.05514 21.387C8.69046 21.0409 8.43835 20.6279 8.26156 20.1721C8.0364 19.5901 7.9484 18.9879 7.95078 18.3707C7.95712 16.4499 7.96188 14.5298 7.96664 12.6091V12.3567ZM30.8007 16.8306C30.9743 17.2954 31.0655 17.824 31.0655 18.4683V18.469C31.0504 19.2335 30.8403 20.0632 30.2862 20.7893C29.6837 21.5778 28.871 22.0411 27.8467 22.165C27.0183 22.2648 26.2318 22.1169 25.4834 21.7843C24.5804 21.3833 23.8527 20.7803 23.2707 20.0159C23.1954 19.916 23.1772 19.8199 23.1954 19.6975C23.308 18.9429 23.4586 18.1957 23.7084 17.4696C23.9113 16.8794 24.1745 16.317 24.5638 15.8124C25.1314 15.0772 25.8854 14.6327 26.8423 14.5178C28.695 14.2948 30.2093 15.2522 30.8007 16.8306Z" fill="white"/>
</svg>
