<svg width="289" height="53" viewBox="0 0 289 53" fill="none" xmlns="http://www.w3.org/2000/svg">
<path d="M74.6699 7.0437L59.9562 52.416H46.215L37.5294 24.8037L28.4549 52.416H14.7137L0 7.0437H13.2228L22.3621 35.9955L31.9551 7.0437H43.7518L52.8913 36.2764L62.3979 7.0437H74.6699Z" fill="white"/>
<path d="M111.794 37.9616H86.2557C86.708 39.6839 87.7866 41.1754 89.2805 42.1445C90.7727 43.1182 92.6453 43.6036 94.898 43.6008C96.3871 43.6337 97.8696 43.392 99.2711 42.8877C100.637 42.3288 101.897 41.5395 102.996 40.5543L109.478 47.2953C106.064 51.098 101.074 52.9993 94.5092 52.9993C90.4012 52.9993 86.8002 52.2215 83.7062 50.6659C80.7312 49.2336 78.2242 46.9858 76.4769 44.1841C74.7533 41.3559 73.8664 38.0972 73.9188 34.7856C73.8681 31.5142 74.7316 28.2936 76.4121 25.4864C78.0778 22.7395 80.4706 20.5067 83.326 19.0349C86.3878 17.4486 89.7952 16.6469 93.243 16.7015C96.5458 16.6527 99.8126 17.3934 102.771 18.862C105.58 20.2721 107.929 22.4529 109.543 25.1493C111.208 27.8919 112.04 31.1428 112.04 34.9022C112.014 34.9973 111.932 36.0171 111.794 37.9616ZM88.4897 27.0723C87.183 28.2069 86.3224 29.7691 86.0614 31.4799H100.451C100.184 29.77 99.3228 28.2091 98.018 27.0723C96.6831 25.9725 94.9934 25.3965 93.2647 25.4518C91.533 25.3939 89.8397 25.9701 88.5028 27.0723H88.4897Z" fill="white"/>
<path d="M148.525 18.9046C151.151 20.3864 153.308 22.5772 154.748 25.2265C156.329 28.1597 157.123 31.4532 157.051 34.7849C157.12 38.1274 156.327 41.4314 154.748 44.3779C153.31 47.0456 151.154 49.2579 148.525 50.7646C145.867 52.2664 142.858 53.0372 139.805 52.9987C135.196 52.9987 131.739 51.6375 129.434 48.9152V52.4153H117.707V4.32068H130.022V20.3306C132.393 17.9108 135.654 16.7008 139.805 16.7008C142.854 16.6628 145.86 17.4225 148.525 18.9046ZM142.527 40.9772C143.91 39.4849 144.603 37.4208 144.606 34.7849C144.606 32.1922 143.913 30.1613 142.527 28.6921C141.849 27.9678 141.024 27.3966 140.108 27.0165C139.191 26.6365 138.204 26.4564 137.212 26.4883C136.221 26.4562 135.235 26.6362 134.319 27.0163C133.403 27.3963 132.579 27.9677 131.901 28.6921C130.516 30.1613 129.824 32.1922 129.827 34.7849C129.827 37.4208 130.519 39.4849 131.901 40.9772C132.574 41.7095 133.397 42.2882 134.313 42.6737C135.23 43.0593 136.218 43.2426 137.212 43.2112C138.207 43.2432 139.196 43.0602 140.114 42.6747C141.031 42.2891 141.854 41.7101 142.527 40.9772Z" fill="white"/>
<path d="M266.38 16.7002C270.529 16.7002 273.791 17.9101 276.168 20.33V17.2836H288.483V52.4147H276.751V48.9145C274.461 51.6369 271.004 52.998 266.38 52.998C263.329 53.0359 260.322 52.2651 257.664 50.764C255.035 49.2572 252.88 47.045 251.442 44.3773C249.862 41.4308 249.069 38.1268 249.139 34.7843C249.067 31.4525 249.86 28.1591 251.442 25.2259C252.882 22.5765 255.038 20.3858 257.664 18.904C260.328 17.422 263.332 16.6623 266.38 16.7002ZM268.973 43.2106C269.967 43.2426 270.957 43.0596 271.874 42.674C272.792 42.2885 273.615 41.7095 274.288 40.9765C275.671 39.4843 276.362 37.4202 276.362 34.7843C276.362 32.1916 275.671 30.1607 274.288 28.6915C273.61 27.9672 272.785 27.3959 271.868 27.0159C270.952 26.6359 269.965 26.4558 268.973 26.4876C267.981 26.4558 266.994 26.6359 266.078 27.0159C265.161 27.3959 264.336 27.9672 263.658 28.6915C262.275 30.1607 261.584 32.1916 261.584 34.7843C261.584 37.4202 262.275 39.4843 263.658 40.9765C264.331 41.7095 265.154 42.2885 266.071 42.674C266.989 43.0596 267.978 43.2426 268.973 43.2106Z" fill="white"/>
<path d="M179.372 17.9032C181.579 17.0666 183.926 16.6589 186.286 16.7019V27.7857C185.361 27.6694 184.431 27.6045 183.499 27.5913C180.863 27.5913 178.8 28.3115 177.311 29.7519C175.822 31.1923 175.076 33.3744 175.073 36.2984V52.438H162.757V17.3069H174.489V21.52C175.762 19.8972 177.449 18.6477 179.372 17.9032Z" fill="white"/>
<path d="M191.333 17.2855H203.648V52.4166H191.333V17.2855Z" fill="white"/>
<path d="M227.563 40.1007L223.933 43.7953V52.4377H211.609V4.34302H223.925V29.5571L236.499 17.3065H251.083L236.499 32.3442L252.315 52.4377H237.407L227.563 40.1007Z" fill="white"/>
<path d="M197.688 13.8277C201.507 13.8277 204.602 10.7323 204.602 6.91387C204.602 3.09545 201.507 0 197.688 0C193.87 0 190.775 3.09545 190.775 6.91387C190.775 10.7323 193.87 13.8277 197.688 13.8277Z" fill="white"/>
</svg>
