<svg width="173" height="40" viewBox="0 0 173 40" fill="none" xmlns="http://www.w3.org/2000/svg">
<path d="M73.3939 13L66.6794 33.8H60.4085L56.4448 21.1417L52.3036 33.8H46.0328L39.3182 13H45.3524L49.5232 26.2823L53.9009 13H59.2844L63.4552 26.4011L67.8034 13H73.3939Z" fill="white"/>
<path d="M90.3448 26.799H78.9228C79.1253 27.6002 79.6077 28.2938 80.2756 28.7444C80.943 29.1977 81.7805 29.4244 82.7881 29.4244C83.4528 29.4395 84.1145 29.3269 84.7401 29.0924C85.3519 28.8327 85.9161 28.4652 86.408 28.0061L89.307 31.1444C87.7763 32.9147 85.5454 33.7999 82.6142 33.7999C80.7781 33.7999 79.1643 33.4378 77.7728 32.7136C76.4425 32.0472 75.3217 31.0006 74.5414 29.6959C73.769 28.3798 73.3716 26.8624 73.3953 25.3204C73.3677 23.798 73.7492 22.2978 74.4969 20.9891C75.2418 19.7107 76.3121 18.6718 77.5892 17.9876C78.9616 17.2479 80.4891 16.8746 82.0344 16.9012C83.5083 16.8801 84.9658 17.2249 86.2862 17.9071C87.5442 18.5661 88.5955 19.5851 89.3166 20.8443C90.0588 22.1224 90.4305 23.6366 90.4318 25.3868C90.4318 25.423 90.4028 25.8937 90.3448 26.799ZM79.9239 21.7294C79.3389 22.2574 78.9532 22.9847 78.8358 23.7814H85.2716C85.1529 22.9856 84.7683 22.259 84.1854 21.7294C83.5881 21.2179 82.8326 20.9498 82.0595 20.975C81.2829 20.946 80.5231 21.2144 79.9239 21.7294Z" fill="white"/>
<path d="M107.425 17.4104C108.649 18.1223 109.655 19.1746 110.328 20.4472C111.064 21.8585 111.433 23.4421 111.399 25.044C111.431 26.6504 111.062 28.2384 110.328 29.6553C109.656 30.9368 108.651 31.9994 107.425 32.7233C106.187 33.4456 104.785 33.8168 103.362 33.7993C101.214 33.7993 99.6023 33.145 98.528 31.8364V33.5189H93.053V10.3999H98.7938V18.0855C99.9017 16.9222 101.423 16.3406 103.356 16.3406C104.78 16.3245 106.183 16.6933 107.425 17.4104ZM104.625 28.0185C105.27 27.3012 105.592 26.3097 105.592 25.044C105.592 23.7783 105.27 22.802 104.625 22.1152C104.309 21.767 103.925 21.4924 103.497 21.3097C103.07 21.1271 102.61 21.0405 102.148 21.0558C101.685 21.0405 101.225 21.1271 100.798 21.3097C100.371 21.4924 99.9862 21.767 99.6701 22.1152C99.0255 22.8214 98.7032 23.7977 98.7032 25.044C98.7032 26.3111 99.0255 27.3026 99.6701 28.0185C99.9836 28.3712 100.367 28.6499 100.795 28.8356C101.222 29.0213 101.684 29.1096 102.148 29.0945C102.611 29.1096 103.073 29.0213 103.5 28.8356C103.928 28.6499 104.312 28.3712 104.625 28.0185Z" fill="white"/>
<path d="M162.693 16.9003C164.628 16.9003 166.149 17.4633 167.257 18.5892V17.1818H173V33.5279H167.529V31.8993C166.455 33.166 164.843 33.7993 162.693 33.7993C161.27 33.8166 159.867 33.4573 158.627 32.7578C157.401 32.0575 156.396 31.0289 155.726 29.7882C154.99 28.417 154.621 26.8797 154.654 25.3247C154.619 23.774 154.989 22.2409 155.726 20.8753C156.397 19.6431 157.403 18.6244 158.627 17.9358C159.869 17.2427 161.271 16.8857 162.693 16.9003ZM163.902 29.2353C164.366 29.2499 164.828 29.1644 165.256 28.9847C165.683 28.8049 166.067 28.5352 166.381 28.1938C167.026 27.4995 167.348 26.5397 167.348 25.3146C167.348 24.0895 167.026 23.1445 166.381 22.4797C166.065 22.1427 165.68 21.8769 165.253 21.7001C164.825 21.5233 164.365 21.4395 163.902 21.4543C163.44 21.4395 162.98 21.5233 162.552 21.7001C162.125 21.8769 161.74 22.1427 161.424 22.4797C160.779 23.1633 160.457 24.1083 160.457 25.3146C160.457 26.5411 160.779 27.5008 161.424 28.1938C161.738 28.5352 162.121 28.8049 162.549 28.9847C162.977 29.1644 163.439 29.2499 163.902 29.2353Z" fill="white"/>
<path d="M122.353 17.4678C123.46 17.0729 124.636 16.8807 125.818 16.9014V22.1458C125.355 22.0907 124.888 22.06 124.421 22.0538C123.1 22.0538 122.066 22.3911 121.318 23.0658C120.57 23.7405 120.196 24.7731 120.194 26.1634V33.7999H114.023V17.1774H119.902V19.1709C120.542 18.4054 121.389 17.817 122.353 17.4678Z" fill="white"/>
<path d="M128.439 16.8999H133.682V33.7999H128.439V16.8999Z" fill="white"/>
<path d="M144.801 27.808L143.165 29.6056V33.7999H137.614V10.3999H143.165V22.6676L148.833 16.7072H155.407L148.833 24.0236L155.962 33.7999H149.242L144.801 27.808Z" fill="white"/>
<path d="M131.061 15.5999C132.508 15.5999 133.682 14.4358 133.682 12.9999C133.682 11.564 132.508 10.3999 131.061 10.3999C129.613 10.3999 128.439 11.564 128.439 12.9999C128.439 14.4358 129.613 15.5999 131.061 15.5999Z" fill="white"/>
<path d="M22.2803 11.7L22.2554 11.9512V11.9642L21.6563 19.2843L18.1777 20.3168L16.163 17.7698L15.6455 21.069L12.1683 22.0999L8.04214 16.232V16.2247L7.89686 16.0243C7.88579 16.0084 7.87472 15.9924 7.86365 15.9735L10.53 15.185L13.148 18.9605L14.1165 14.9599L16.3844 14.2862L19.2583 17.1468L19.6015 12.4812L22.2803 11.7Z" fill="white"/>
<path d="M23.7606 35.1614C23.9988 35.9452 23.8892 36.7839 23.4558 37.4934C23.0224 38.203 22.3006 38.7253 21.4488 38.9459C20.5981 39.1667 19.687 39.0683 18.915 38.6722C18.1431 38.2762 17.5735 37.6148 17.3309 36.8331L23.7606 35.1614Z" fill="white"/>
<path d="M16.1719 35.1L12.5339 32.0906L25.6095 28.5591L23.9402 32.951L16.1719 35.1Z" fill="white"/>
<path d="M29.5721 11.0301C30.5205 14.3851 30.2838 17.9669 28.9024 21.1662L28.8904 21.1945L28.4765 22.0904V22.0985L26.9897 25.1L22.0955 26.4916L25.1762 20.269L25.4306 19.7302C26.4901 17.3151 26.6767 14.6036 25.9584 12.0647C25.6855 11.0921 25.2846 10.1606 24.7663 9.2949C24.3102 8.52874 23.7643 7.82044 23.1402 7.18522C21.719 5.73239 19.9355 4.69069 17.9766 4.16926C16.0176 3.64782 13.9553 3.66584 12.0056 4.22143C10.0554 4.77469 8.28911 5.8456 6.89207 7.32184C5.49503 8.79808 4.51871 10.6252 4.0655 12.6117C3.86437 13.482 3.76769 14.3735 3.77753 15.2669C3.78505 16.2769 3.92649 17.2813 4.1981 18.2536C4.90702 20.7923 6.47512 23.0023 8.6316 24.5019C8.80036 24.6204 8.97449 24.7349 9.15129 24.8427L9.17139 24.8548L14.9979 28.507L10.0996 29.9L7.04572 27.987L7.01893 27.9695L6.62782 27.7122C3.67818 25.7133 1.53061 22.7254 0.568267 19.2815C0.560231 19.2555 0.553534 19.2299 0.548176 19.2047C-0.516328 15.3448 -0.0179652 11.218 1.9343 7.72656C3.88656 4.23516 7.13388 1.66328 10.9662 0.573267C14.7994 -0.51842 18.9064 -0.0386389 22.3888 1.90765C25.8711 3.85394 28.4453 7.10828 29.548 10.9587C29.5588 10.9789 29.5654 11.0058 29.5721 11.0301Z" fill="white"/>
</svg>
