<svg width="651" height="355" viewBox="0 0 651 355" fill="none" xmlns="http://www.w3.org/2000/svg">
<path d="M101.056 112.784L100.992 112.994L99.1685 119.097L95.8951 119.315L94.5488 116.783L93.5073 119.487L90.234 119.706L87.5901 113.972L87.4961 113.776C87.4991 113.762 87.482 113.744 87.4769 113.725L89.9946 113.547L91.659 117.242L93.2223 114.024L95.3472 113.867L97.4042 116.821L98.5278 112.926L101.056 112.784Z" fill="#3B485E" fill-opacity="0.34"/>
<path d="M98.6769 134.335C98.7303 135.103 98.4768 135.861 97.9719 136.442C97.4671 137.023 96.7522 137.381 95.9842 137.435C95.2166 137.49 94.4586 137.238 93.8765 136.735C93.2944 136.232 92.9357 135.518 92.879 134.751L98.6769 134.335Z" fill="#3B485E" fill-opacity="0.34"/>
<path d="M92.0367 132.809L89.9767 129.394L100.795 128.622L99.163 132.301L92.0367 132.809Z" fill="#FFDC60" fill-opacity="0.17"/>
<path d="M87.1493 122.381L91.8168 126.83L87.0474 127.172L84.6016 124.839L84.5789 124.82L84.2693 124.51C81.9348 122.12 80.5253 118.979 80.2922 115.646L80.2892 115.574C80.0374 111.841 81.2745 108.16 83.7297 105.336C86.1849 102.512 89.6585 100.776 93.3906 100.507C94.2175 100.446 95.0481 100.458 95.8729 100.543L95.3377 101.165C94.8973 101.678 94.6161 102.308 94.5285 102.979L94.3963 104.006C94.1448 104.008 93.8951 104.016 93.643 104.036C91.7445 104.17 89.9172 104.812 88.3527 105.896C86.7882 106.98 85.5442 108.465 84.7513 110.195C84.401 110.952 84.1427 111.748 83.9818 112.567C83.8004 113.493 83.7422 114.438 83.8086 115.379C83.9818 117.836 85.0052 120.155 86.7029 121.939C86.8351 122.08 86.9736 122.219 87.1168 122.35L87.1493 122.381Z" fill="#FFDC60" fill-opacity="0.17"/>
<path d="M105.995 122.759L105.99 122.785L105.433 123.524L103.498 125.984L98.7311 126.326L102.748 121.222L103.085 120.775C104.515 118.768 105.2 116.324 105.022 113.866C104.955 112.924 104.762 111.995 104.449 111.105C104.176 110.318 103.808 109.566 103.355 108.867V108.867L103.266 108.735L104.145 107.942C104.631 107.507 104.978 106.937 105.142 106.305L105.325 105.592C107.2 107.844 108.325 110.624 108.543 113.546L108.547 113.615C108.781 116.867 107.879 120.099 105.995 122.759V122.759Z" fill="#FFDC60" fill-opacity="0.17"/>
<path d="M100.361 97.7089L105.236 100.267L106.12 98.582L101.245 96.0243L100.361 97.7089Z" fill="#FFDC60" fill-opacity="0.17"/>
<path d="M96.8075 102.265L99.711 98.8976L104.628 101.477L103.513 105.792C103.4 106.225 103.162 106.615 102.829 106.914L95.9707 113.085L99.8298 105.725C100.061 105.732 100.289 105.668 100.482 105.541C100.676 105.414 100.826 105.231 100.912 105.017C101.008 104.776 101.019 104.511 100.943 104.263C100.868 104.016 100.711 103.801 100.498 103.655C100.366 103.565 100.216 103.504 100.058 103.476C99.9008 103.449 99.7391 103.454 99.584 103.493C99.429 103.532 99.284 103.604 99.1583 103.703C99.0327 103.802 98.9295 103.926 98.8552 104.067C98.757 104.255 98.7133 104.467 98.7292 104.678C98.7451 104.89 98.8199 105.093 98.9451 105.264L95.0646 112.64L96.2375 103.516C96.2995 103.052 96.4979 102.617 96.8075 102.265V102.265Z" fill="#3B485E" fill-opacity="0.34"/>
<path d="M349.95 91.2705L349.731 91.2961L343.411 92.0832L341.894 89.1746L343.67 86.9229L340.775 87.0578L339.258 84.1494L343.442 79.4215L343.584 79.2566C343.598 79.2536 343.608 79.2305 343.623 79.2182L344.8 81.4514L342.087 84.4624L345.662 84.5983L346.661 86.4801L344.784 89.5523L348.802 89.0133L349.95 91.2705Z" fill="#3B485E" fill-opacity="0.34"/>
<path d="M329.264 97.7651C328.583 98.1231 327.787 98.1961 327.051 97.9679C326.316 97.7397 325.701 97.2291 325.342 96.548C324.983 95.8674 324.909 95.0722 325.135 94.3367C325.361 93.6013 325.87 92.9857 326.55 92.6249L329.264 97.7651Z" fill="#3B485E" fill-opacity="0.34"/>
<path d="M327.988 91.0726L330.286 87.8121L335.346 97.4049L331.321 97.3917L327.988 91.0726Z" fill="#FFDC60" fill-opacity="0.17"/>
<path d="M335.567 82.4026L333.372 88.4661L331.14 84.2376L332.291 81.0597L332.3 81.031L332.458 80.6232C333.707 77.5243 336.015 74.9695 338.972 73.4148L339.037 73.383C342.353 71.6499 346.221 71.3008 349.794 72.412C353.367 73.5232 356.354 76.0042 358.103 79.3124C358.492 80.0447 358.815 80.81 359.069 81.5993L358.285 81.3595C357.638 81.1628 356.947 81.1591 356.298 81.3487L355.304 81.6413C355.202 81.4119 355.094 81.1865 354.974 80.9635C354.087 79.2796 352.764 77.8655 351.142 76.8695C349.52 75.8734 347.66 75.3323 345.757 75.3027C344.923 75.2868 344.09 75.3709 343.276 75.553C342.356 75.7596 341.466 76.0869 340.632 76.5265C338.453 77.6737 336.741 79.544 335.792 81.816C335.716 81.9938 335.644 82.1766 335.582 82.3605L335.567 82.4026Z" fill="#FFDC60" fill-opacity="0.17"/>
<path d="M342.806 99.8057L342.78 99.8111L341.879 99.5993L338.849 98.8176L336.617 94.5919L342.906 96.2145L343.451 96.3437C345.864 96.8448 348.377 96.4882 350.556 95.3355C351.391 94.8954 352.163 94.3453 352.852 93.7C353.463 93.1329 354.003 92.4944 354.461 91.7982V91.7982L354.546 91.6634L355.625 92.1486C356.22 92.4189 356.881 92.5071 357.525 92.4021L358.251 92.2834C356.945 94.906 354.852 97.055 352.265 98.4305L352.203 98.4617C349.321 99.9846 346 100.46 342.806 99.8057V99.8057Z" fill="#FFDC60" fill-opacity="0.17"/>
<path d="M363.471 84.5674L363.092 90.0596L364.99 90.1907L365.369 84.6985L363.471 84.5674Z" fill="#FFDC60" fill-opacity="0.17"/>
<path d="M357.869 83.1468L362.12 84.4493L361.739 89.9888L357.34 90.7048C356.898 90.7755 356.445 90.7149 356.037 90.5305L347.627 86.7355L355.918 87.306C356.005 87.5204 356.155 87.7031 356.349 87.8293C356.543 87.9555 356.771 88.0191 357.002 88.0116C357.261 88.0023 357.508 87.9055 357.705 87.737C357.901 87.5685 358.034 87.3384 358.082 87.0843C358.111 86.927 358.106 86.7654 358.069 86.61C358.031 86.4547 357.96 86.3091 357.862 86.1828C357.764 86.0565 357.64 85.9525 357.499 85.8773C357.358 85.8021 357.203 85.7576 357.043 85.7467C356.832 85.7324 356.62 85.7776 356.433 85.8772C356.246 85.9769 356.091 86.1269 355.984 86.3104L347.67 85.727L356.494 83.1285C356.944 82.9984 357.423 83.0048 357.869 83.1468V83.1468Z" fill="#3B485E" fill-opacity="0.34"/>
<path d="M382.95 341.27L382.731 341.296L376.411 342.083L374.894 339.175L376.67 336.923L373.775 337.058L372.258 334.149L376.442 329.421L376.584 329.257C376.598 329.254 376.608 329.23 376.623 329.218L377.8 331.451L375.087 334.462L378.662 334.598L379.661 336.48L377.784 339.552L381.802 339.013L382.95 341.27Z" fill="#3B485E" fill-opacity="0.34"/>
<path d="M362.264 347.765C361.583 348.123 360.787 348.196 360.051 347.968C359.316 347.74 358.701 347.229 358.342 346.548C357.983 345.867 357.909 345.072 358.135 344.337C358.361 343.601 358.87 342.986 359.55 342.625L362.264 347.765Z" fill="#3B485E" fill-opacity="0.34"/>
<path d="M360.988 341.073L363.286 337.812L368.346 347.405L364.321 347.392L360.988 341.073Z" fill="#FFDC60" fill-opacity="0.17"/>
<path d="M368.567 332.403L366.372 338.466L364.14 334.238L365.291 331.06L365.3 331.031L365.458 330.623C366.707 327.524 369.015 324.97 371.972 323.415L372.037 323.383C375.353 321.65 379.221 321.301 382.794 322.412C386.367 323.523 389.354 326.004 391.103 329.312C391.492 330.045 391.815 330.81 392.069 331.599L391.285 331.359C390.638 331.163 389.947 331.159 389.298 331.349L388.304 331.641C388.202 331.412 388.094 331.186 387.974 330.964C387.087 329.28 385.764 327.865 384.142 326.869C382.52 325.873 380.66 325.332 378.757 325.303C377.923 325.287 377.09 325.371 376.276 325.553C375.356 325.76 374.466 326.087 373.632 326.527C371.453 327.674 369.741 329.544 368.792 331.816C368.716 331.994 368.644 332.177 368.582 332.361L368.567 332.403Z" fill="#FFDC60" fill-opacity="0.17"/>
<path d="M375.806 349.806L375.78 349.811L374.879 349.599L371.849 348.818L369.617 344.592L375.906 346.215L376.451 346.344C378.864 346.845 381.377 346.488 383.556 345.336C384.391 344.895 385.163 344.345 385.852 343.7C386.463 343.133 387.003 342.494 387.461 341.798V341.798L387.546 341.663L388.625 342.149C389.22 342.419 389.881 342.507 390.525 342.402L391.251 342.283C389.945 344.906 387.852 347.055 385.265 348.43L385.203 348.462C382.321 349.985 379 350.46 375.806 349.806V349.806Z" fill="#FFDC60" fill-opacity="0.17"/>
<path d="M396.471 334.567L396.092 340.06L397.99 340.191L398.369 334.699L396.471 334.567Z" fill="#FFDC60" fill-opacity="0.17"/>
<path d="M390.869 333.147L395.12 334.449L394.739 339.989L390.34 340.705C389.898 340.776 389.445 340.715 389.037 340.53L380.627 336.735L388.918 337.306C389.005 337.52 389.155 337.703 389.349 337.829C389.543 337.955 389.771 338.019 390.002 338.012C390.261 338.002 390.508 337.905 390.705 337.737C390.901 337.568 391.034 337.338 391.082 337.084C391.111 336.927 391.106 336.765 391.069 336.61C391.031 336.455 390.96 336.309 390.862 336.183C390.764 336.057 390.64 335.952 390.499 335.877C390.358 335.802 390.203 335.758 390.043 335.747C389.832 335.732 389.62 335.778 389.433 335.877C389.246 335.977 389.091 336.127 388.984 336.31L380.67 335.727L389.494 333.128C389.944 332.998 390.423 333.005 390.869 333.147V333.147Z" fill="#3B485E" fill-opacity="0.34"/>
<path d="M180.191 18.114L180.239 18.3271L181.709 24.5272L178.983 26.3711L176.551 24.848L176.998 27.7132L174.27 29.5422L169.108 25.8916L168.931 25.7674L168.887 25.7356L170.98 24.3203L174.274 26.6923L174.024 23.1181L175.794 21.9147L179.056 23.4488L178.084 19.5088L180.191 18.114Z" fill="#3B485E" fill-opacity="0.34"/>
<path d="M188.896 37.99C189.326 38.6294 189.485 39.4133 189.339 40.1699C189.192 40.9264 188.751 41.594 188.113 42.026C187.474 42.458 186.69 42.6188 185.933 42.4732C185.176 42.3275 184.508 41.8873 184.076 41.2492L188.896 37.99Z" fill="#3B485E" fill-opacity="0.34"/>
<path d="M182.383 39.9999L178.885 38.07L187.883 31.9895L188.307 35.9956L182.383 39.9999Z" fill="#FFDC60" fill-opacity="0.17"/>
<path d="M179.2 34.9187L175.235 37.5985L171.946 36.7979L171.921 36.8062L171.496 36.6896C168.278 35.7829 165.486 33.7633 163.618 30.9905C163.61 30.9654 163.602 30.9431 163.576 30.93C162.376 29.1451 161.599 27.11 161.303 24.9794C162.498 25.4244 163.763 25.6501 165.037 25.6455C165.107 25.9321 165.191 26.2141 165.286 26.4924C165.591 27.3866 166.013 28.2364 166.541 29.0199C167.924 31.0548 169.972 32.5446 172.334 33.2332C172.522 33.2858 172.709 33.3385 172.9 33.3809L172.917 33.3753L179.2 34.9187Z" fill="#FFDC60" fill-opacity="0.17"/>
<path d="M189.461 24.3044L189.47 24.3323L189.356 25.2525L188.906 28.3549L184.923 31.0468L185.854 24.6122L185.921 24.0574C186.16 21.6003 185.532 19.1371 184.147 17.0938C183.618 16.3107 182.987 15.6015 182.271 14.9848C181.639 14.439 180.944 13.9708 180.201 13.5902V13.5902C178.687 12.8146 177.01 12.4124 175.309 12.4175C175.249 12.1681 175.174 11.9139 175.092 11.6654C174.777 10.7061 174.326 9.79649 173.755 8.96387C176.314 8.67654 178.902 9.09145 181.243 10.1641C183.583 11.2368 185.588 12.9267 187.04 15.0524C187.048 15.0748 187.055 15.0971 187.081 15.1102C188.913 17.808 189.754 21.0568 189.461 24.3044V24.3044Z" fill="#FFDC60" fill-opacity="0.17"/>
<path d="M170.552 9.19014C170.818 9.05892 171.117 8.93248 171.39 8.78362C171.434 8.7494 171.484 8.72447 171.538 8.7103C171.592 8.69613 171.648 8.69303 171.703 8.7012C171.758 8.70936 171.811 8.72863 171.858 8.75782C171.906 8.787 171.947 8.82544 171.979 8.87093C172.216 9.15806 172.455 9.4415 172.704 9.71843C172.736 9.74726 172.762 9.78217 172.78 9.82106C172.798 9.85996 172.808 9.9021 172.809 9.94493C172.81 9.98776 172.803 10.0304 172.788 10.0704C172.773 10.1104 172.749 10.1469 172.72 10.1778C172.404 10.638 172.093 11.0937 171.798 11.5782C171.725 11.7363 171.707 11.9144 171.748 12.0838C171.893 12.776 172.289 13.1715 173.04 13.184C173.333 13.1896 173.618 13.303 173.916 13.3439C173.979 13.3441 174.042 13.3571 174.101 13.3821C174.159 13.4071 174.212 13.4436 174.256 13.4895C174.3 13.5353 174.335 13.5896 174.357 13.649C174.38 13.7084 174.39 13.7719 174.388 13.8354C174.535 15.0716 174.568 15.1508 173.387 15.494C172.539 15.7396 172.113 16.1837 172.055 17.0232C172.041 17.1834 172.083 17.3435 172.174 17.4764C172.522 17.894 172.898 18.2932 173.276 18.6858C173.313 18.7134 173.344 18.7482 173.367 18.788C173.391 18.8279 173.406 18.872 173.413 18.9178C173.419 18.9637 173.416 19.0103 173.403 19.055C173.391 19.0997 173.371 19.1414 173.342 19.1779C173.328 19.1984 173.315 19.2202 173.305 19.2429C172.676 20.4256 172.676 20.4256 171.391 20.0971C170.293 19.8185 170.288 19.8138 169.453 20.6127C169.361 20.72 169.315 20.8585 169.323 20.9991C169.361 21.5442 169.421 22.0846 169.486 22.6269C169.499 22.6745 169.502 22.7243 169.496 22.7733C169.489 22.8223 169.473 22.8695 169.448 22.9123C169.423 22.955 169.391 22.9924 169.351 23.0223C169.312 23.0521 169.267 23.074 169.219 23.0864C168.883 23.2118 168.55 23.3494 168.222 23.499C168.175 23.5286 168.123 23.5484 168.068 23.5573C168.014 23.5663 167.958 23.564 167.904 23.5508C167.85 23.5376 167.8 23.5137 167.755 23.4806C167.711 23.4474 167.674 23.4056 167.646 23.3577C167.321 22.9355 166.985 22.5198 166.621 22.129C166.478 22.0136 166.303 21.9439 166.119 21.9294C165.327 21.8284 164.823 22.1867 164.539 22.9213C164.406 23.1859 164.256 23.442 164.092 23.6881C164.057 23.7664 163.995 23.829 163.916 23.8639C163.838 23.8989 163.75 23.9037 163.668 23.8773C162.253 23.6693 162.254 23.6722 162.19 22.2688C162.154 21.2217 162.084 21.121 161.138 20.7025C161 20.6645 160.854 20.6776 160.726 20.7394C160.234 20.9511 159.75 21.175 159.272 21.4109C159.185 21.4713 159.078 21.4949 158.974 21.4765C158.87 21.4581 158.777 21.399 158.716 21.3124C158.489 21.0347 158.246 20.7681 158.008 20.4995C157.936 20.4317 157.893 20.3381 157.89 20.239C157.886 20.1399 157.922 20.0434 157.989 19.9704C158.298 19.5371 158.575 19.0804 158.883 18.6443C158.94 18.5597 158.974 18.4622 158.984 18.3606C158.993 18.2591 158.976 18.1568 158.936 18.0633C158.888 17.7507 158.725 17.4673 158.479 17.2688C158.233 17.0702 157.922 16.9711 157.606 16.9909C157.383 16.9679 157.163 16.9268 156.947 16.868C156.343 16.7573 156.344 16.7573 156.28 16.1155C156.182 15.1137 156.182 15.1138 157.125 14.7531L157.337 14.6831C158.428 14.2364 158.446 14.2337 158.666 13.0804C158.671 13.0165 158.663 12.9523 158.643 12.8914C158.623 12.8305 158.591 12.7742 158.549 12.7258C158.191 12.3146 157.823 11.9127 157.441 11.5247C157.399 11.4934 157.364 11.4539 157.338 11.4085C157.312 11.3631 157.296 11.3128 157.291 11.2608C157.285 11.2089 157.291 11.1563 157.306 11.1064C157.322 11.0566 157.348 11.0106 157.382 10.9712C157.593 10.6725 157.774 10.3681 157.958 10.06C158 9.97007 158.075 9.89987 158.168 9.86412C158.261 9.82837 158.363 9.82979 158.455 9.86803C158.992 10.0222 159.533 10.1624 160.074 10.2627C160.235 10.2727 160.395 10.235 160.534 10.1543C160.66 10.1128 160.728 9.95411 160.844 9.89403C161.374 9.62321 161.451 9.18916 161.333 8.65227C161.254 8.29125 161.262 7.91097 161.212 7.54352C161.186 7.44681 161.199 7.34396 161.249 7.25702C161.298 7.17008 161.38 7.106 161.476 7.07851L161.546 7.05548C162.758 6.46968 162.759 6.46961 163.6 7.48944C164.324 8.37131 164.326 8.37696 165.429 8.19252C165.564 8.14865 165.679 8.05576 165.749 7.93217C166.034 7.48207 166.307 7.02358 166.56 6.55293C166.58 6.50132 166.609 6.45407 166.647 6.41404C166.685 6.37401 166.73 6.34199 166.781 6.31986C166.831 6.29773 166.885 6.28602 166.94 6.28528C166.996 6.28455 167.05 6.29484 167.101 6.31562C167.414 6.3984 167.729 6.47094 168.045 6.52771C168.109 6.52931 168.172 6.54477 168.23 6.57289C168.288 6.601 168.339 6.64115 168.38 6.69072C168.421 6.74028 168.451 6.79807 168.468 6.86017C168.484 6.92227 168.488 6.98722 168.477 7.05068C168.469 7.53325 168.527 8.01884 168.531 8.50051C168.532 8.77575 168.592 8.98511 168.883 9.06876C168.894 9.07281 168.905 9.07883 168.914 9.08652C169.434 9.54654 169.977 9.61796 170.552 9.19014ZM163.772 11.2968C163.27 11.5004 162.813 11.8019 162.428 12.1836C162.044 12.5653 161.738 13.0198 161.531 13.5204C161.323 14.021 161.217 14.5579 161.219 15.0999C161.22 15.6419 161.33 16.1782 161.541 16.6775C161.746 17.1797 162.048 17.6364 162.43 18.0214C162.812 18.4064 163.266 18.7122 163.766 18.9211C164.267 19.1301 164.804 19.238 165.346 19.2388C165.889 19.2396 166.426 19.1332 166.927 18.9257C167.429 18.7177 167.886 18.4123 168.269 18.027C168.653 17.6418 168.956 17.1844 169.162 16.6812C169.368 16.1779 169.472 15.6389 169.469 15.0952C169.465 14.5515 169.354 14.0138 169.142 13.5133C168.938 13.0127 168.636 12.5577 168.255 12.1745C167.874 11.7914 167.42 11.4879 166.921 11.2816C166.421 11.0754 165.885 10.9705 165.345 10.9731C164.804 10.9758 164.27 11.0857 163.772 11.2968V11.2968Z" fill="#3B485E" fill-opacity="0.34"/>
<path d="M373.368 213.246L373.58 213.297L379.789 214.728L380.234 217.989L377.791 219.494L380.558 220.363L380.988 223.619L375.428 226.628L375.238 226.732L375.19 226.758L374.849 224.254L378.435 222.352L375.12 220.993L374.826 218.872L377.647 216.628L373.684 215.753L373.368 213.246Z" fill="#3B485E" fill-opacity="0.34"/>
<path d="M395.043 214.251C395.806 214.149 396.58 214.354 397.193 214.821C397.806 215.287 398.209 215.979 398.313 216.742C398.418 217.506 398.215 218.28 397.749 218.894C397.283 219.508 396.592 219.912 395.828 220.017L395.043 214.251Z" fill="#3B485E" fill-opacity="0.34"/>
<path d="M393.958 220.981L390.678 223.261L389.215 212.5L392.994 213.896L393.958 220.981Z" fill="#FFDC60" fill-opacity="0.17"/>
<path d="M387.993 221.583L388.638 226.325L386.463 228.918L386.459 228.945L386.166 229.274C383.927 231.757 380.879 233.365 377.566 233.811C377.54 233.807 377.516 233.804 377.493 233.821C375.361 234.106 373.192 233.901 371.151 233.222C372.08 232.348 372.843 231.314 373.403 230.169C373.691 230.234 373.981 230.284 374.273 230.322C375.209 230.445 376.158 230.443 377.095 230.317C379.532 229.979 381.775 228.803 383.439 226.991C383.569 226.846 383.7 226.701 383.822 226.549L383.825 226.532L387.993 221.583Z" fill="#FFDC60" fill-opacity="0.17"/>
<path d="M383.025 207.68L383.054 207.684L383.828 208.194L386.41 209.973L387.058 214.736L381.702 211.05L381.235 210.744C379.138 209.441 376.652 208.912 374.206 209.248C373.27 209.375 372.354 209.626 371.484 209.995C370.715 210.319 369.987 210.735 369.317 211.233V211.233C367.95 212.246 366.847 213.571 366.097 215.098C365.847 215.042 365.586 214.996 365.327 214.959C364.327 214.817 363.312 214.818 362.312 214.961C363.189 212.54 364.708 210.403 366.707 208.78C368.706 207.158 371.109 206.11 373.658 205.75C373.682 205.753 373.705 205.756 373.728 205.739C376.958 205.292 380.243 205.978 383.025 207.68V207.68Z" fill="#FFDC60" fill-opacity="0.17"/>
<path d="M361.096 217.933C361.096 217.636 361.115 217.312 361.103 217.002C361.092 216.947 361.092 216.891 361.103 216.836C361.114 216.782 361.136 216.73 361.168 216.684C361.2 216.638 361.24 216.6 361.288 216.57C361.335 216.54 361.387 216.521 361.442 216.512C361.805 216.427 362.165 216.338 362.524 216.237C362.564 216.222 362.606 216.214 362.649 216.215C362.692 216.216 362.734 216.226 362.773 216.244C362.812 216.262 362.847 216.287 362.876 216.318C362.905 216.35 362.928 216.387 362.942 216.427C363.215 216.914 363.485 217.395 363.789 217.874C363.898 218.01 364.05 218.104 364.22 218.143C364.905 218.32 365.435 218.14 365.779 217.473C365.914 217.212 366.142 217.007 366.311 216.758C366.339 216.701 366.378 216.65 366.427 216.609C366.475 216.568 366.531 216.536 366.592 216.517C366.653 216.498 366.716 216.491 366.78 216.497C366.843 216.504 366.904 216.523 366.96 216.553C368.134 216.968 368.219 216.974 368.003 218.185C367.848 219.054 368.057 219.633 368.784 220.057C368.922 220.14 369.084 220.173 369.243 220.151C369.772 220.024 370.296 219.864 370.815 219.699C370.857 219.678 370.902 219.666 370.948 219.662C370.994 219.659 371.04 219.665 371.084 219.679C371.128 219.694 371.168 219.718 371.203 219.748C371.238 219.779 371.266 219.816 371.286 219.858C371.298 219.88 371.312 219.901 371.328 219.92C372.109 221.008 372.109 221.008 371.245 222.014C370.509 222.875 370.503 222.877 370.849 223.98C370.904 224.11 371.008 224.213 371.138 224.268C371.643 224.476 372.154 224.661 372.669 224.843C372.717 224.853 372.763 224.872 372.804 224.899C372.846 224.927 372.881 224.962 372.908 225.003C372.935 225.045 372.954 225.091 372.964 225.139C372.973 225.188 372.973 225.238 372.963 225.286C372.926 225.643 372.902 226.002 372.891 226.363C372.896 226.418 372.891 226.473 372.875 226.526C372.858 226.579 372.832 226.628 372.796 226.671C372.76 226.713 372.717 226.748 372.667 226.773C372.618 226.798 372.564 226.813 372.509 226.817C371.986 226.921 371.465 227.037 370.953 227.191C370.786 227.268 370.646 227.394 370.551 227.552C370.11 228.217 370.208 228.828 370.74 229.408C370.919 229.645 371.082 229.892 371.23 230.149C371.284 230.215 371.313 230.298 371.31 230.384C371.306 230.47 371.271 230.551 371.212 230.612C370.398 231.789 370.401 231.79 369.115 231.225C368.16 230.793 368.039 230.811 367.244 231.474C367.149 231.58 367.096 231.717 367.095 231.86C367.066 232.394 367.052 232.928 367.052 233.46C367.068 233.565 367.042 233.672 366.979 233.757C366.916 233.842 366.822 233.899 366.718 233.915C366.368 233.996 366.021 234.096 365.675 234.189C365.582 234.224 365.48 234.221 365.389 234.18C365.299 234.14 365.228 234.065 365.192 233.972C364.941 233.503 364.654 233.053 364.4 232.583C364.349 232.495 364.277 232.42 364.19 232.367C364.103 232.314 364.004 232.283 363.902 232.278C363.601 232.182 363.275 232.203 362.988 232.335C362.701 232.468 362.474 232.703 362.352 232.995C362.232 233.184 362.098 233.364 361.949 233.532C361.583 234.023 361.583 234.023 360.979 233.795C360.038 233.439 360.038 233.44 360.133 232.434L360.164 232.213C360.247 231.037 360.252 231.02 359.316 230.311C359.261 230.279 359.2 230.257 359.136 230.248C359.073 230.239 359.008 230.243 358.946 230.259C358.419 230.398 357.896 230.55 357.378 230.72C357.332 230.744 357.281 230.758 357.229 230.761C357.177 230.764 357.124 230.756 357.075 230.738C357.026 230.72 356.982 230.692 356.944 230.656C356.906 230.62 356.876 230.576 356.856 230.528C356.682 230.206 356.489 229.909 356.294 229.608C356.233 229.53 356.203 229.432 356.212 229.333C356.221 229.234 356.268 229.142 356.343 229.077C356.719 228.664 357.085 228.241 357.414 227.8C357.494 227.661 357.531 227.501 357.521 227.34C357.539 227.209 357.427 227.078 357.425 226.947C357.417 226.352 357.062 226.091 356.528 225.959C356.17 225.869 355.832 225.694 355.481 225.576C355.383 225.556 355.296 225.498 355.24 225.415C355.184 225.333 355.163 225.231 355.181 225.133L355.191 225.06C355.204 223.713 355.204 223.713 356.491 223.411C357.602 223.153 357.608 223.154 357.932 222.083C357.952 221.942 357.92 221.799 357.84 221.681C357.563 221.226 357.273 220.778 356.963 220.342C356.925 220.302 356.896 220.255 356.877 220.203C356.858 220.151 356.849 220.096 356.852 220.041C356.854 219.986 356.868 219.932 356.892 219.883C356.915 219.833 356.949 219.789 356.99 219.752C357.203 219.509 357.407 219.259 357.598 219C357.628 218.943 357.67 218.894 357.721 218.854C357.772 218.815 357.83 218.787 357.893 218.772C357.956 218.757 358.021 218.756 358.084 218.769C358.147 218.781 358.207 218.807 358.259 218.844C358.688 219.065 359.149 219.229 359.582 219.438C359.83 219.56 360.044 219.599 360.248 219.375C360.256 219.367 360.266 219.36 360.277 219.355C360.92 219.093 361.225 218.637 361.096 217.933ZM359.98 224.944C359.94 225.484 360.008 226.028 360.179 226.542C360.351 227.056 360.623 227.531 360.98 227.939C361.337 228.347 361.771 228.68 362.258 228.918C362.744 229.157 363.273 229.297 363.814 229.329C364.355 229.368 364.899 229.299 365.413 229.128C365.928 228.956 366.403 228.684 366.812 228.328C367.221 227.972 367.556 227.538 367.797 227.053C368.038 226.567 368.181 226.038 368.217 225.497C368.253 224.954 368.182 224.41 368.006 223.895C367.831 223.381 367.555 222.906 367.196 222.498C366.836 222.091 366.399 221.758 365.91 221.521C365.421 221.283 364.889 221.144 364.347 221.113C363.808 221.074 363.266 221.142 362.754 221.314C362.241 221.486 361.768 221.758 361.362 222.115C360.955 222.471 360.624 222.905 360.387 223.391C360.15 223.876 360.011 224.404 359.98 224.944V224.944Z" fill="#3B485E" fill-opacity="0.34"/>
<path d="M545.818 306.276L546.024 306.204L552.027 304.069L554.157 306.578L552.908 309.161L555.707 308.405L557.822 310.918L554.755 316.446L554.651 316.636L554.624 316.684L552.989 314.757L554.989 311.224L551.463 311.862L550.074 310.233L551.244 306.824L547.433 308.218L545.818 306.276Z" fill="#3B485E" fill-opacity="0.34"/>
<path d="M564.629 295.459C565.218 294.962 565.98 294.718 566.748 294.782C567.516 294.846 568.227 295.211 568.726 295.799C569.225 296.387 569.47 297.148 569.408 297.917C569.345 298.685 568.981 299.397 568.393 299.896L564.629 295.459Z" fill="#3B485E" fill-opacity="0.34"/>
<path d="M567.335 301.715L565.797 305.402L558.774 297.119L562.71 296.262L567.335 301.715Z" fill="#FFDC60" fill-opacity="0.17"/>
<path d="M562.631 305.432L565.726 309.082L565.288 312.439L565.299 312.463L565.23 312.898C564.679 316.196 562.975 319.191 560.422 321.35C560.398 321.361 560.376 321.37 560.366 321.398C558.722 322.785 556.784 323.779 554.698 324.305C555.011 323.069 555.097 321.787 554.954 320.52C555.231 320.42 555.503 320.306 555.769 320.181C556.625 319.781 557.423 319.269 558.145 318.658C560.017 317.062 561.275 314.864 561.703 312.441C561.735 312.249 561.766 312.057 561.788 311.863L561.781 311.847L562.631 305.432Z" fill="#FFDC60" fill-opacity="0.17"/>
<path d="M550.962 296.387L550.989 296.374L551.916 296.388L555.049 296.498L558.158 300.164L551.661 299.939L551.102 299.933C548.634 299.963 546.253 300.854 544.373 302.454C543.652 303.065 543.016 303.769 542.48 304.548C542.007 305.235 541.617 305.977 541.319 306.758V306.758C540.713 308.347 540.496 310.058 540.686 311.748C540.445 311.835 540.2 311.937 539.962 312.046C539.043 312.464 538.187 313.01 537.422 313.669C536.858 311.157 536.989 308.538 537.8 306.095C538.612 303.651 540.074 301.475 542.029 299.8C542.05 299.79 542.071 299.78 542.082 299.753C544.564 297.639 547.702 296.449 550.962 296.387V296.387Z" fill="#FFDC60" fill-opacity="0.17"/>
<path d="M537.996 316.829C537.837 316.578 537.679 316.295 537.501 316.04C537.462 316 537.432 315.953 537.412 315.901C537.392 315.849 537.383 315.793 537.385 315.737C537.387 315.682 537.4 315.627 537.424 315.577C537.448 315.527 537.482 315.481 537.524 315.444C537.783 315.177 538.039 314.909 538.287 314.631C538.312 314.597 538.344 314.567 538.381 314.545C538.418 314.523 538.458 314.509 538.501 314.503C538.543 314.496 538.586 314.499 538.628 314.51C538.669 314.521 538.708 314.54 538.742 314.566C539.234 314.83 539.721 315.089 540.234 315.33C540.4 315.386 540.579 315.383 540.742 315.325C541.415 315.105 541.765 314.668 541.696 313.921C541.669 313.629 541.751 313.333 541.759 313.032C541.753 312.969 541.759 312.905 541.777 312.844C541.796 312.784 541.826 312.727 541.867 312.678C541.908 312.629 541.958 312.589 542.014 312.56C542.071 312.531 542.133 312.514 542.196 312.51C543.409 312.229 543.484 312.188 543.954 313.324C544.291 314.141 544.778 314.516 545.619 314.482C545.78 314.478 545.934 314.419 546.057 314.314C546.434 313.923 546.79 313.505 547.139 313.088C547.162 313.048 547.194 313.013 547.231 312.985C547.268 312.958 547.31 312.937 547.355 312.926C547.4 312.915 547.446 312.913 547.492 312.92C547.538 312.928 547.582 312.944 547.621 312.968C547.643 312.98 547.666 312.99 547.69 312.998C548.934 313.494 548.934 313.494 548.747 314.807C548.59 315.929 548.585 315.934 549.471 316.678C549.587 316.757 549.73 316.788 549.869 316.765C550.406 316.668 550.937 316.549 551.469 316.426C551.515 316.408 551.564 316.399 551.614 316.4C551.663 316.401 551.712 316.412 551.757 316.432C551.802 316.452 551.843 316.481 551.877 316.517C551.911 316.553 551.937 316.595 551.955 316.641C552.116 316.962 552.289 317.277 552.474 317.588C552.508 317.631 552.533 317.681 552.548 317.734C552.563 317.787 552.567 317.843 552.56 317.898C552.552 317.953 552.534 318.006 552.506 318.053C552.478 318.101 552.44 318.143 552.396 318.176C552.012 318.545 551.635 318.923 551.286 319.328C551.187 319.483 551.137 319.665 551.142 319.849C551.128 320.647 551.539 321.109 552.3 321.312C552.578 321.415 552.848 321.536 553.111 321.673C553.193 321.699 553.262 321.754 553.305 321.828C553.348 321.902 553.362 321.989 553.345 322.073C553.292 323.503 553.295 323.502 551.907 323.717C550.87 323.867 550.778 323.948 550.465 324.934C550.442 325.075 550.471 325.219 550.546 325.34C550.81 325.805 551.085 326.263 551.372 326.711C551.441 326.791 551.476 326.895 551.469 327.001C551.462 327.106 551.414 327.205 551.334 327.274C551.083 327.531 550.844 327.802 550.603 328.067C550.544 328.146 550.455 328.199 550.357 328.213C550.259 328.228 550.159 328.203 550.079 328.144C549.615 327.884 549.131 327.658 548.664 327.4C548.574 327.352 548.473 327.328 548.371 327.33C548.269 327.332 548.169 327.359 548.081 327.41C547.775 327.491 547.511 327.684 547.34 327.95C547.17 328.216 547.105 328.537 547.159 328.848C547.161 329.072 547.144 329.296 547.109 329.517C547.064 330.129 547.064 330.129 546.433 330.262C545.448 330.468 545.448 330.468 544.987 329.57L544.894 329.367C544.332 328.331 544.327 328.313 543.157 328.22C543.093 328.222 543.03 328.237 542.971 328.264C542.913 328.29 542.86 328.328 542.817 328.375C542.447 328.776 542.088 329.186 541.743 329.607C541.717 329.652 541.681 329.692 541.639 329.722C541.597 329.753 541.549 329.774 541.498 329.786C541.446 329.797 541.394 329.797 541.342 329.787C541.291 329.777 541.243 329.756 541.2 329.726C540.88 329.549 540.557 329.402 540.231 329.253C540.137 329.221 540.059 329.154 540.014 329.065C539.968 328.977 539.958 328.875 539.986 328.78C540.081 328.229 540.162 327.676 540.202 327.127C540.195 326.966 540.14 326.811 540.045 326.682C539.99 326.561 539.825 326.511 539.752 326.402C539.425 325.904 538.985 325.875 538.465 326.051C538.114 326.169 537.735 326.203 537.376 326.292C537.282 326.328 537.179 326.326 537.087 326.286C536.995 326.247 536.922 326.173 536.885 326.08L536.854 326.013C536.14 324.872 536.14 324.871 537.062 323.924C537.86 323.108 537.865 323.106 537.562 322.029C537.504 321.899 537.399 321.796 537.268 321.74C536.79 321.505 536.304 321.284 535.809 321.083C535.756 321.07 535.705 321.045 535.661 321.012C535.618 320.979 535.581 320.937 535.553 320.889C535.526 320.842 535.508 320.789 535.502 320.734C535.495 320.68 535.499 320.624 535.514 320.571C535.562 320.252 535.6 319.931 535.622 319.61C535.617 319.546 535.625 319.482 535.647 319.422C535.669 319.361 535.703 319.306 535.748 319.259C535.793 319.213 535.847 319.177 535.907 319.154C535.967 319.13 536.031 319.12 536.095 319.124C536.576 319.079 537.052 318.969 537.53 318.912C537.804 318.881 538.006 318.799 538.057 318.501C538.06 318.489 538.065 318.478 538.071 318.468C538.472 317.901 538.484 317.353 537.996 316.829ZM540.828 323.339C541.085 323.816 541.434 324.237 541.856 324.578C542.277 324.919 542.762 325.173 543.282 325.325C543.803 325.477 544.348 325.524 544.886 325.463C545.425 325.402 545.946 325.235 546.42 324.971C546.896 324.713 547.318 324.363 547.659 323.941C548 323.52 548.255 323.035 548.408 322.515C548.561 321.994 548.61 321.449 548.552 320.91C548.493 320.371 548.329 319.848 548.068 319.373C547.807 318.896 547.454 318.475 547.029 318.136C546.604 317.796 546.117 317.545 545.594 317.395C545.071 317.245 544.524 317.2 543.984 317.263C543.444 317.325 542.922 317.494 542.447 317.76C541.972 318.017 541.552 318.366 541.213 318.787C540.873 319.207 540.621 319.691 540.47 320.21C540.32 320.73 540.274 321.274 540.335 321.811C540.397 322.348 540.564 322.867 540.828 323.339V323.339Z" fill="#3B485E" fill-opacity="0.34"/>
<path d="M203.602 148.101L201.592 148.837C199.519 143.188 199.734 136.644 204.889 134.739C209.661 132.985 214.002 137.568 216.187 142.889L214.207 143.702C212.959 140.663 209.562 135.302 205.628 136.748C201.875 138.124 201.897 143.448 203.602 148.101Z" fill="#FFDC60" fill-opacity="0.17"/>
<path d="M198.17 148.339L207.645 175.189L230.651 165.741L218.532 139.977L198.17 148.339ZM223.096 164.439C222.755 164.802 222.284 165.014 221.787 165.031C221.289 165.047 220.806 164.865 220.442 164.526L223.017 161.783C223.38 162.125 223.592 162.597 223.606 163.095C223.621 163.593 223.437 164.076 223.096 164.439V164.439ZM222.363 160.61L219.196 163.978L216.717 163.258L221.524 158.144L222.363 160.61ZM214.059 157.009L212.603 158.559L208.83 156.99L208.699 156.937L208.667 156.923L209.785 155.731L212.199 156.761L211.529 154.546L212.477 153.534L214.758 154.038L213.583 151.691L214.704 150.5L214.763 150.626L216.572 154.326L215.109 155.864L213.366 155.262L214.059 157.009ZM221.425 153.074L221.435 153.091L221.492 153.686L221.651 155.707L219.536 157.966L219.21 153.778L219.172 153.418C218.974 151.835 218.228 150.371 217.064 149.281C216.619 148.862 216.12 148.504 215.581 148.216C215.104 147.964 214.599 147.768 214.077 147.633C213.194 147.406 212.276 147.357 211.374 147.487C210.473 147.618 209.606 147.926 208.824 148.393C208.28 148.719 207.785 149.119 207.351 149.581C206.505 150.478 205.916 151.587 205.646 152.791C205.376 153.995 205.436 155.249 205.818 156.422C205.985 156.935 206.213 157.427 206.497 157.887C206.817 158.4 207.205 158.868 207.651 159.277C208.81 160.37 210.314 161.025 211.904 161.128V161.128C212.028 161.137 212.153 161.141 212.278 161.141L212.29 161.133L216.462 161.203L214.344 163.463L212.16 163.426L212.145 163.435L211.862 163.424C209.707 163.309 207.664 162.433 206.093 160.954C206.085 160.942 206.077 160.929 206.07 160.915C204.315 159.248 203.29 156.955 203.221 154.535C203.152 152.115 204.044 149.767 205.702 148.003C207.36 146.235 209.651 145.196 212.073 145.114C214.495 145.032 216.852 145.913 218.625 147.566C218.625 147.566 218.64 147.59 218.659 147.595C220.186 149.047 221.164 150.983 221.425 153.074V153.074Z" fill="#3B485E" fill-opacity="0.34"/>
<path d="M464.342 42.0151L463.08 43.7447C458.216 40.2025 454.756 34.644 457.982 30.1938C460.973 26.0827 467.129 27.4786 471.904 30.6854L470.71 32.4628C467.983 30.6309 462.179 28.0636 459.713 31.4533C457.359 34.6836 460.337 39.0964 464.342 42.0151Z" fill="#FFDC60" fill-opacity="0.17"/>
<path d="M459.959 45.233L482.764 62.2815L496.632 41.6362L472.233 26.9609L459.959 45.233ZM489.628 44.7555C489.546 45.2463 489.273 45.6848 488.869 45.9749C488.465 46.265 487.962 46.3832 487.471 46.3036L488.086 42.5915C488.578 42.6741 489.016 42.9484 489.305 43.3542C489.595 43.7601 489.711 44.2641 489.628 44.7555V44.7555ZM486.89 41.9807L486.131 46.5408L483.67 47.3209L484.822 40.3965L486.89 41.9807ZM477.986 43.6043L477.637 45.7021L473.629 46.4966L473.491 46.5251L473.457 46.5309L473.723 44.9191L476.302 44.4322L474.513 42.9641L474.739 41.5959L476.914 40.7465L474.633 39.4492L474.903 37.8361L475.022 37.9079L478.583 39.9771L478.222 42.0691L476.439 42.5377L477.986 43.6043ZM481.92 36.2386L481.938 36.247L482.317 36.7099L483.572 38.3015L483.07 41.3549L480.47 38.0548L480.239 37.7769C479.194 36.5712 477.76 35.7694 476.186 35.5105C475.583 35.4099 474.97 35.3895 474.362 35.4503C473.825 35.5057 473.297 35.6236 472.787 35.8016C471.928 36.1038 471.137 36.5735 470.46 37.1834C469.783 37.7932 469.234 38.5311 468.844 39.3545C468.573 39.9273 468.384 40.5351 468.28 41.1602C468.076 42.3768 468.203 43.6259 468.648 44.7764C469.093 45.9269 469.84 46.9363 470.81 47.6984C471.234 48.0326 471.697 48.3148 472.188 48.5389C472.74 48.7879 473.323 48.9606 473.921 49.0525C475.492 49.3167 477.106 49.0246 478.485 48.2262V48.2262C478.593 48.1647 478.699 48.0989 478.803 48.0291L478.809 48.0164L482.315 45.7542L481.812 48.8102L479.976 49.9944L479.969 50.0097L479.727 50.1582C477.872 51.2602 475.687 51.6692 473.559 51.3124C473.545 51.3072 473.531 51.3008 473.518 51.2932C471.132 50.8841 469.005 49.5471 467.602 47.5744C466.2 45.6017 465.635 43.1538 466.032 40.766C466.427 38.3745 467.753 36.237 469.721 34.8218C471.689 33.4067 474.137 32.8294 476.53 33.2167C476.53 33.2167 476.556 33.2288 476.575 33.2221C478.651 33.5798 480.54 34.6456 481.92 36.2386V36.2386Z" fill="#3B485E" fill-opacity="0.34"/>
<path d="M630.317 225.408L628.651 224.063C632.425 219.378 638.145 216.192 642.434 219.631C646.394 222.818 644.701 228.899 641.265 233.512L639.548 232.233C641.51 229.599 644.357 223.927 641.091 221.298C637.979 218.79 633.427 221.55 630.317 225.408Z" fill="#FFDC60" fill-opacity="0.17"/>
<path d="M627.316 220.873L609.178 242.822L629.124 257.678L644.969 234.023L627.316 220.873ZM626.349 250.531C625.863 250.426 625.438 250.132 625.168 249.714C624.898 249.296 624.805 248.788 624.908 248.301L628.586 249.096C628.479 249.583 628.184 250.008 627.765 250.277C627.345 250.546 626.836 250.637 626.349 250.531V250.531ZM629.254 247.931L624.736 246.951L624.077 244.455L630.937 245.942L629.254 247.931ZM628.065 238.958L625.987 238.508L625.389 234.466L625.367 234.327L625.363 234.292L626.96 234.637L627.32 237.236L628.874 235.521L630.229 235.814L630.972 238.027L632.379 235.812L633.977 236.16L633.899 236.275L631.659 239.732L629.587 239.269L629.206 237.465L628.065 238.958ZM635.231 243.246L635.222 243.264L634.741 243.62L633.09 244.796L630.065 244.146L633.488 241.71L633.776 241.492C635.031 240.508 635.902 239.115 636.237 237.555C636.367 236.958 636.417 236.346 636.386 235.736C636.357 235.197 636.265 234.663 636.112 234.146C635.852 233.273 635.421 232.46 634.845 231.754C634.269 231.048 633.558 230.464 632.755 230.034C632.196 229.736 631.598 229.517 630.979 229.383C629.774 229.12 628.52 229.186 627.349 229.575C626.178 229.963 625.134 230.66 624.325 231.592C623.971 232 623.666 232.448 623.419 232.928C623.143 233.467 622.942 234.041 622.821 234.633C622.481 236.19 622.694 237.816 623.425 239.232V239.232C623.481 239.343 623.541 239.452 623.606 239.559L623.619 239.566L625.707 243.178L622.68 242.527L621.586 240.635L621.571 240.627L621.435 240.379C620.424 238.472 620.122 236.27 620.582 234.162C620.588 234.148 620.595 234.134 620.603 234.122C621.128 231.759 622.567 229.699 624.605 228.394C626.644 227.089 629.116 226.644 631.482 227.157C633.851 227.667 635.922 229.096 637.24 231.131C638.557 233.165 639.015 235.639 638.512 238.01C638.512 238.01 638.498 238.035 638.504 238.054C638.046 240.111 636.889 241.946 635.231 243.246V243.246Z" fill="#3B485E" fill-opacity="0.34"/>
<path d="M213.784 275.448L213.873 275.653L216.596 281.595L214.223 283.992L211.47 282.951L212.494 285.742L210.123 288.142L204.199 285.502L203.991 285.415C203.991 285.415 203.96 285.402 203.943 285.392L205.766 283.547L209.553 285.272L208.587 281.728L210.134 280.162L213.732 281.047L211.965 277.279L213.784 275.448Z" fill="#3B485E" fill-opacity="0.34"/>
<path d="M226.524 293.686C227.085 294.243 227.403 295.001 227.406 295.792C227.409 296.583 227.099 297.343 226.542 297.906C225.986 298.467 225.23 298.784 224.44 298.79C223.65 298.795 222.89 298.487 222.327 297.933L226.524 293.686Z" fill="#3B485E" fill-opacity="0.34"/>
<path d="M220.372 297.017L216.467 295.773L224.299 287.852L225.529 291.8L220.372 297.017Z" fill="#FFDC60" fill-opacity="0.17"/>
<path d="M216.153 292.542L212.715 296.038L209.246 295.893L209.226 295.905L208.775 295.874C205.356 295.607 202.143 294.136 199.707 291.722L199.654 291.667C197.122 289.138 195.613 285.765 195.414 282.192C195.216 278.62 196.342 275.099 198.577 272.306L200.73 275.525C199.891 276.844 199.345 278.328 199.129 279.876C198.913 281.424 199.032 283 199.478 284.498C199.719 285.32 200.059 286.11 200.492 286.849C200.977 287.688 201.572 288.457 202.261 289.137C204.058 290.915 206.417 292.013 208.935 292.242V292.242C209.132 292.262 209.339 292.272 209.538 292.287L209.555 292.277L216.153 292.542Z" fill="#FFDC60" fill-opacity="0.17"/>
<path d="M224.354 279.822L224.365 279.842L224.436 280.793L224.607 284.006L221.169 287.501L220.813 280.841L220.774 280.267C220.521 277.747 219.394 275.395 217.589 273.619C217.487 273.514 217.376 273.414 217.263 273.311L220.35 271.245C222.609 273.574 224.019 276.595 224.354 279.822V279.822Z" fill="#FFDC60" fill-opacity="0.17"/>
<path d="M211.587 256.478L199.043 264.873C198.818 265.028 198.627 265.226 198.479 265.456C198.331 265.685 198.23 265.941 198.181 266.21C198.132 266.478 198.137 266.754 198.194 267.02C198.252 267.287 198.362 267.54 198.517 267.764L204.424 276.586C204.572 276.815 204.763 277.013 204.987 277.168C205.211 277.323 205.464 277.432 205.73 277.49C205.997 277.547 206.272 277.551 206.54 277.501C206.808 277.452 207.064 277.35 207.292 277.202L208.61 276.324C209.279 277.299 209.082 276.985 209.489 277.629C209.499 277.645 209.512 277.657 209.528 277.664C209.545 277.672 209.563 277.674 209.58 277.671C209.598 277.667 209.614 277.659 209.626 277.646C209.639 277.634 209.648 277.617 209.651 277.6C210.25 276.738 211.072 275.579 212.448 273.751L219.83 268.795C220.055 268.639 220.246 268.441 220.394 268.212C220.542 267.983 220.643 267.727 220.692 267.458C220.741 267.19 220.736 266.914 220.679 266.648C220.621 266.381 220.511 266.128 220.356 265.904L214.449 257.082C214.149 256.623 213.679 256.301 213.143 256.188C212.606 256.075 212.047 256.179 211.587 256.478V256.478ZM206.426 262.335C206.726 262.134 207.063 261.994 207.417 261.923C207.772 261.852 208.137 261.852 208.491 261.922C208.846 261.992 209.183 262.131 209.484 262.332C209.785 262.532 210.043 262.79 210.244 263.091C210.65 263.698 210.798 264.442 210.656 265.159C210.514 265.875 210.094 266.506 209.487 266.913C208.88 267.318 208.137 267.466 207.421 267.324C206.705 267.182 206.074 266.762 205.668 266.155C205.464 265.855 205.322 265.517 205.249 265.161C205.177 264.805 205.175 264.439 205.245 264.082C205.314 263.726 205.454 263.387 205.655 263.085C205.856 262.782 206.115 262.523 206.417 262.321L206.426 262.335ZM215.969 267.929C216.121 268.156 216.177 268.435 216.124 268.704C216.071 268.973 215.913 269.21 215.685 269.362L209.394 273.573C209.166 273.725 208.887 273.78 208.619 273.727C208.35 273.674 208.113 273.517 207.96 273.29L207.465 272.545C207.253 272.23 207.105 271.876 207.03 271.504C206.955 271.131 206.955 270.748 207.029 270.375C207.102 270.003 207.249 269.648 207.46 269.333C207.671 269.017 207.942 268.746 208.258 268.535L208.555 268.336C209.09 268.251 209.6 268.052 210.051 267.751C210.5 267.449 210.88 267.053 211.163 266.591L211.46 266.392C212.097 265.966 212.877 265.81 213.629 265.959C214.381 266.108 215.043 266.549 215.47 267.186L215.969 267.929Z" fill="#3B485E" fill-opacity="0.34"/>
<path d="M28.8242 221.957L28.7214 222.155L25.8325 228.019L22.4755 227.692L21.5448 224.899L20.0264 227.455L16.6682 227.132L14.9759 220.872L14.9121 220.655C14.9121 220.655 14.9031 220.623 14.8998 220.603L17.4816 220.852L18.5346 224.878L20.6728 221.891L22.8639 222.103L24.4491 225.451L26.2554 221.702L28.8242 221.957Z" fill="#3B485E" fill-opacity="0.34"/>
<path d="M22.723 243.351C22.645 244.138 22.2577 244.862 21.6462 245.364C21.0348 245.866 20.2492 246.105 19.4618 246.029C18.6756 245.952 17.952 245.566 17.4494 244.957C16.9468 244.347 16.7059 243.563 16.7797 242.777L22.723 243.351Z" fill="#3B485E" fill-opacity="0.34"/>
<path d="M16.2552 240.683L14.7545 236.869L25.8417 237.943L23.5568 241.389L16.2552 240.683Z" fill="#FFDC60" fill-opacity="0.17"/>
<path d="M17.0631 234.585L12.1815 234.126L10.1039 231.345L10.0818 231.336L9.82107 230.967C7.86968 228.147 6.98244 224.727 7.31706 221.314L7.32531 221.238C7.68872 217.678 9.35208 214.378 11.9973 211.968C14.6426 209.559 18.0836 208.21 21.6615 208.18L20.5236 211.882C18.9712 212.064 17.4759 212.577 16.1389 213.387C14.8019 214.196 13.6547 215.284 12.7744 216.576C12.2887 217.281 11.8914 218.044 11.5914 218.847C11.2471 219.752 11.0257 220.699 10.9333 221.663C10.6887 224.179 11.3272 226.701 12.7391 228.798V228.798C12.848 228.964 12.9708 229.131 13.0841 229.295L13.1028 229.302L17.0631 234.585Z" fill="#FFDC60" fill-opacity="0.17"/>
<path d="M32.1056 232.916L32.097 232.938L31.404 233.593L29.0208 235.754L24.1392 235.294L29.0801 230.813L29.5009 230.421C31.2954 228.634 32.4079 226.275 32.6456 223.753C32.6625 223.608 32.6698 223.459 32.6786 223.307L36.2297 224.397C35.8497 227.619 34.3971 230.619 32.1056 232.916V232.916Z" fill="#FFDC60" fill-opacity="0.17"/>
<path d="M42.1489 208.278L27.7185 203.849C27.4564 203.773 27.1819 203.749 26.9107 203.78C26.6395 203.81 26.377 203.893 26.138 204.025C25.899 204.156 25.6881 204.334 25.5177 204.547C25.3472 204.76 25.2205 205.004 25.1446 205.266L22.0321 215.417C21.9475 215.676 21.9151 215.949 21.9364 216.221C21.9577 216.493 22.0322 216.758 22.1561 217C22.2799 217.243 22.4507 217.459 22.6582 217.636C22.8657 217.813 23.1059 217.947 23.3653 218.03L24.8783 218.498C24.5439 219.633 24.663 219.281 24.4208 220.004C24.4147 220.021 24.4138 220.039 24.4184 220.056C24.4229 220.073 24.4324 220.089 24.446 220.1C24.4595 220.112 24.4763 220.119 24.4941 220.121C24.5118 220.123 24.5299 220.119 24.5455 220.11C25.5923 220.031 27.0096 219.937 29.2958 219.85L37.8005 222.446C38.0626 222.522 38.3371 222.546 38.6083 222.516C38.8795 222.486 39.142 222.402 39.381 222.271C39.6201 222.139 39.8309 221.962 40.0014 221.749C40.1718 221.536 40.2985 221.291 40.3744 221.029L43.487 210.878C43.6536 210.356 43.6064 209.789 43.3555 209.301C43.1047 208.814 42.6708 208.446 42.1489 208.278V208.278ZM34.3474 207.973C34.6931 208.078 35.0146 208.251 35.2934 208.481C35.5721 208.712 35.8028 208.994 35.9722 209.314C36.1417 209.633 36.2467 209.982 36.281 210.342C36.3153 210.702 36.2782 211.065 36.1722 211.411C35.9574 212.109 35.4743 212.693 34.8289 213.036C34.1835 213.378 33.4287 213.451 32.73 213.237C32.0325 213.022 31.4488 212.539 31.107 211.894C30.7652 211.249 30.6931 210.494 30.9064 209.796C31.0111 209.449 31.1835 209.125 31.4136 208.844C31.6438 208.563 31.927 208.331 32.2474 208.16C32.5678 207.989 32.9187 207.883 33.2802 207.848C33.6416 207.813 34.0065 207.85 34.3536 207.957L34.3474 207.973ZM36.0342 218.905C35.9539 219.167 35.773 219.386 35.531 219.515C35.289 219.643 35.0057 219.67 34.7436 219.59L27.5059 217.369C27.2444 217.288 27.0258 217.107 26.8974 216.865C26.769 216.623 26.7411 216.34 26.8203 216.078L27.0854 215.224C27.1961 214.861 27.3773 214.523 27.6189 214.23C27.8604 213.937 28.1575 213.694 28.4929 213.516C28.8284 213.338 29.1958 213.228 29.5739 213.192C29.952 213.156 30.3334 213.196 30.6963 213.308L31.0385 213.412C31.4416 213.774 31.9183 214.044 32.4359 214.203C32.9542 214.361 33.5004 214.405 34.0373 214.333L34.3798 214.438C35.1125 214.663 35.7257 215.17 36.085 215.847C36.4443 216.524 36.5201 217.316 36.2959 218.049L36.0342 218.905Z" fill="#3B485E" fill-opacity="0.34"/>
<path d="M634.824 97.9568L634.721 98.1553L631.833 104.019L628.475 103.692L627.545 100.899L626.026 103.455L622.668 103.132L620.976 96.8715L620.912 96.655C620.912 96.655 620.903 96.6226 620.9 96.6032L623.482 96.8518L624.535 100.878L626.673 97.8913L628.864 98.1031L630.449 101.451L632.255 97.7025L634.824 97.9568Z" fill="#3B485E" fill-opacity="0.34"/>
<path d="M628.723 119.351C628.645 120.138 628.258 120.862 627.646 121.364C627.035 121.866 626.249 122.105 625.462 122.029C624.676 121.952 623.952 121.566 623.449 120.957C622.947 120.347 622.706 119.563 622.78 118.777L628.723 119.351Z" fill="#3B485E" fill-opacity="0.34"/>
<path d="M622.255 116.683L620.754 112.869L631.842 113.943L629.557 117.389L622.255 116.683Z" fill="#FFDC60" fill-opacity="0.17"/>
<path d="M623.063 110.585L618.181 110.126L616.104 107.345L616.082 107.336L615.821 106.967C613.87 104.147 612.982 100.727 613.317 97.3138L613.325 97.2375C613.689 93.6781 615.352 90.3776 617.997 87.9684C620.643 85.5591 624.084 84.2102 627.661 84.18L626.524 87.8822C624.971 88.064 623.476 88.5771 622.139 89.3868C620.802 90.1964 619.655 91.2839 618.774 92.5755C618.289 93.2814 617.891 94.0441 617.591 94.8467C617.247 95.7516 617.026 96.6987 616.933 97.6625C616.689 100.179 617.327 102.701 618.739 104.798V104.798C618.848 104.964 618.971 105.131 619.084 105.295L619.103 105.302L623.063 110.585Z" fill="#FFDC60" fill-opacity="0.17"/>
<path d="M638.106 108.916L638.097 108.938L637.404 109.593L635.021 111.754L630.139 111.294L635.08 106.813L635.501 106.421C637.295 104.634 638.408 102.275 638.646 99.7533C638.663 99.6081 638.67 99.4591 638.679 99.3071L642.23 100.397C641.85 103.619 640.397 106.619 638.106 108.916V108.916Z" fill="#FFDC60" fill-opacity="0.17"/>
<path d="M648.149 84.2775L633.719 79.849C633.456 79.773 633.182 79.7494 632.911 79.7795C632.64 79.8097 632.377 79.8929 632.138 80.0246C631.899 80.1562 631.688 80.3335 631.518 80.5466C631.347 80.7597 631.221 81.0043 631.145 81.2663L628.032 91.4169C627.948 91.676 627.915 91.9493 627.936 92.221C627.958 92.4928 628.032 92.7576 628.156 93.0004C628.28 93.2432 628.451 93.4592 628.658 93.6359C628.866 93.8127 629.106 93.9466 629.365 94.0303L630.878 94.4979C630.544 95.6326 630.663 95.2815 630.421 96.0039C630.415 96.0207 630.414 96.0389 630.418 96.0562C630.423 96.0734 630.432 96.0888 630.446 96.1003C630.46 96.1119 630.476 96.1191 630.494 96.1209C630.512 96.1227 630.53 96.1191 630.545 96.1104C631.592 96.031 633.01 95.9371 635.296 95.8498L643.801 98.4463C644.063 98.5223 644.337 98.5459 644.608 98.5158C644.88 98.4856 645.142 98.4024 645.381 98.2707C645.62 98.1391 645.831 97.9618 646.001 97.7487C646.172 97.5356 646.298 97.291 646.374 97.029L649.487 86.8784C649.654 86.3561 649.606 85.7889 649.356 85.3013C649.105 84.8138 648.671 84.4456 648.149 84.2775V84.2775ZM640.347 83.9727C640.693 84.0785 641.015 84.2514 641.293 84.4815C641.572 84.7116 641.803 84.9943 641.972 85.3135C642.142 85.6328 642.247 85.9824 642.281 86.3422C642.315 86.702 642.278 87.065 642.172 87.4106C641.957 88.1089 641.474 88.6935 640.829 89.036C640.184 89.3785 639.429 89.4509 638.73 89.2373C638.032 89.0219 637.449 88.5387 637.107 87.8936C636.765 87.2486 636.693 86.4945 636.906 85.7963C637.011 85.4486 637.183 85.125 637.414 84.8442C637.644 84.5633 637.927 84.3306 638.247 84.1597C638.568 83.9888 638.919 83.8828 639.28 83.848C639.642 83.8133 640.006 83.8503 640.354 83.957L640.347 83.9727ZM642.034 94.9047C641.954 95.1667 641.773 95.3862 641.531 95.5147C641.289 95.6433 641.006 95.6704 640.744 95.5903L633.506 93.369C633.244 93.2879 633.026 93.1068 632.897 92.865C632.769 92.6233 632.741 92.3405 632.82 92.0784L633.085 91.2239C633.196 90.8606 633.377 90.5227 633.619 90.2297C633.86 89.9366 634.157 89.6941 634.493 89.5161C634.828 89.3381 635.196 89.228 635.574 89.1923C635.952 89.1565 636.333 89.1956 636.696 89.3076L637.039 89.4122C637.442 89.774 637.918 90.0439 638.436 90.2034C638.954 90.361 639.5 90.4053 640.037 90.3332L640.38 90.438C641.112 90.6632 641.726 91.1699 642.085 91.847C642.444 92.524 642.52 93.3159 642.296 94.0489L642.034 94.9047Z" fill="#3B485E" fill-opacity="0.34"/>
<path d="M513.824 165.957L513.721 166.155L510.833 172.019L507.475 171.692L506.545 168.899L505.026 171.455L501.668 171.132L499.976 164.872L499.912 164.655C499.912 164.655 499.903 164.623 499.9 164.603L502.482 164.852L503.535 168.878L505.673 165.891L507.864 166.103L509.449 169.451L511.255 165.702L513.824 165.957Z" fill="#3B485E" fill-opacity="0.34"/>
<path d="M507.723 187.351C507.645 188.138 507.258 188.862 506.646 189.364C506.035 189.866 505.249 190.105 504.462 190.029C503.676 189.952 502.952 189.566 502.449 188.957C501.947 188.347 501.706 187.563 501.78 186.777L507.723 187.351Z" fill="#3B485E" fill-opacity="0.34"/>
<path d="M501.255 184.683L499.754 180.869L510.842 181.943L508.557 185.389L501.255 184.683Z" fill="#FFDC60" fill-opacity="0.17"/>
<path d="M502.063 178.585L497.181 178.126L495.104 175.345L495.082 175.336L494.821 174.967C492.87 172.147 491.982 168.727 492.317 165.314L492.325 165.238C492.689 161.678 494.352 158.378 496.997 155.968C499.643 153.559 503.084 152.21 506.661 152.18L505.524 155.882C503.971 156.064 502.476 156.577 501.139 157.387C499.802 158.196 498.655 159.284 497.774 160.576C497.289 161.281 496.891 162.044 496.591 162.847C496.247 163.752 496.026 164.699 495.933 165.663C495.689 168.179 496.327 170.701 497.739 172.798V172.798C497.848 172.964 497.971 173.131 498.084 173.295L498.103 173.302L502.063 178.585Z" fill="#FFDC60" fill-opacity="0.17"/>
<path d="M517.106 176.916L517.097 176.938L516.404 177.593L514.021 179.754L509.139 179.294L514.08 174.813L514.501 174.421C516.295 172.634 517.408 170.275 517.646 167.753C517.663 167.608 517.67 167.459 517.679 167.307L521.23 168.397C520.85 171.619 519.397 174.619 517.106 176.916V176.916Z" fill="#FFDC60" fill-opacity="0.17"/>
<path d="M527.149 152.278L512.719 147.849C512.456 147.773 512.182 147.749 511.911 147.78C511.64 147.81 511.377 147.893 511.138 148.025C510.899 148.156 510.688 148.334 510.518 148.547C510.347 148.76 510.221 149.004 510.145 149.266L507.032 159.417C506.948 159.676 506.915 159.949 506.936 160.221C506.958 160.493 507.032 160.758 507.156 161C507.28 161.243 507.451 161.459 507.658 161.636C507.866 161.813 508.106 161.947 508.365 162.03L509.878 162.498C509.544 163.633 509.663 163.281 509.421 164.004C509.415 164.021 509.414 164.039 509.418 164.056C509.423 164.073 509.432 164.089 509.446 164.1C509.46 164.112 509.476 164.119 509.494 164.121C509.512 164.123 509.53 164.119 509.545 164.11C510.592 164.031 512.01 163.937 514.296 163.85L522.801 166.446C523.063 166.522 523.337 166.546 523.608 166.516C523.88 166.486 524.142 166.402 524.381 166.271C524.62 166.139 524.831 165.962 525.001 165.749C525.172 165.536 525.298 165.291 525.374 165.029L528.487 154.878C528.654 154.356 528.606 153.789 528.356 153.301C528.105 152.814 527.671 152.446 527.149 152.278V152.278ZM519.347 151.973C519.693 152.078 520.015 152.251 520.293 152.481C520.572 152.712 520.803 152.994 520.972 153.314C521.142 153.633 521.247 153.982 521.281 154.342C521.315 154.702 521.278 155.065 521.172 155.411C520.957 156.109 520.474 156.693 519.829 157.036C519.184 157.378 518.429 157.451 517.73 157.237C517.032 157.022 516.449 156.539 516.107 155.894C515.765 155.249 515.693 154.494 515.906 153.796C516.011 153.449 516.183 153.125 516.414 152.844C516.644 152.563 516.927 152.331 517.247 152.16C517.568 151.989 517.919 151.883 518.28 151.848C518.642 151.813 519.006 151.85 519.354 151.957L519.347 151.973ZM521.034 162.905C520.954 163.167 520.773 163.386 520.531 163.515C520.289 163.643 520.006 163.67 519.744 163.59L512.506 161.369C512.244 161.288 512.026 161.107 511.897 160.865C511.769 160.623 511.741 160.34 511.82 160.078L512.085 159.224C512.196 158.861 512.377 158.523 512.619 158.23C512.86 157.937 513.157 157.694 513.493 157.516C513.828 157.338 514.196 157.228 514.574 157.192C514.952 157.156 515.333 157.196 515.696 157.308L516.039 157.412C516.442 157.774 516.918 158.044 517.436 158.203C517.954 158.361 518.5 158.405 519.037 158.333L519.38 158.438C520.112 158.663 520.726 159.17 521.085 159.847C521.444 160.524 521.52 161.316 521.296 162.049L521.034 162.905Z" fill="#3B485E" fill-opacity="0.34"/>
</svg>
