<svg width="1198" height="542" viewBox="0 0 1198 542" fill="none" xmlns="http://www.w3.org/2000/svg">
<path d="M877.994 29.4756C876.686 32.8205 872.907 34.4725 869.558 33.1631C866.21 31.8537 864.554 28.0762 865.863 24.7312C867.171 21.3862 870.95 19.7342 874.298 21.0437C877.646 22.3531 879.302 26.1306 877.994 29.4756Z" fill="#42E2B8" fill-opacity="0.12"/>
<path d="M873.226 5.90273C873.366 5.54415 873.771 5.36741 874.131 5.50797L879.546 7.62566C882.894 8.93511 884.55 12.7126 883.241 16.0576C881.933 19.4025 878.154 21.0545 874.806 19.7451L869.391 17.6274C869.032 17.4868 868.854 17.0822 868.994 16.7236L873.226 5.90273Z" fill="#42E2B8" fill-opacity="0.12"/>
<path d="M850.878 41.3276C854.226 42.6371 858.005 40.9851 859.314 37.6401L861.429 32.2296C861.57 31.8711 861.392 31.4664 861.033 31.3259L855.618 29.2082C852.269 27.8987 848.49 29.5508 847.182 32.8957C845.874 36.2407 847.53 40.0182 850.878 41.3276Z" fill="#42E2B8" fill-opacity="0.12"/>
<path d="M852.43 19.4778C853.738 16.1328 857.517 14.4808 860.865 15.7903L866.28 17.908C866.64 18.0485 866.817 18.4532 866.677 18.8117L862.445 29.6327C862.305 29.9912 861.9 30.168 861.54 30.0274L856.126 27.9097C852.777 26.6003 851.122 22.8228 852.43 19.4778Z" fill="#42E2B8" fill-opacity="0.12"/>
<path d="M857.677 6.05971C858.985 2.71475 862.764 1.06274 866.113 2.37219L871.527 4.48988C871.887 4.63043 872.065 5.03506 871.924 5.39363L867.692 16.2146C867.552 16.5731 867.147 16.7499 866.788 16.6093L861.373 14.4916C858.025 13.1822 856.369 9.40468 857.677 6.05971Z" fill="#42E2B8" fill-opacity="0.12"/>
<path d="M958 180.973C958 184.837 954.917 187.973 951.119 187.973C947.321 187.973 944.238 184.837 944.238 180.973C944.238 177.109 947.321 173.973 951.119 173.973C954.917 173.973 958 177.109 958 180.973Z" fill="#42E2B8" fill-opacity="0.12"/>
<path d="M944.238 159.223C944.238 158.808 944.569 158.473 944.977 158.473H951.119C954.917 158.473 958 161.609 958 165.473C958 169.337 954.917 172.473 951.119 172.473H944.977C944.569 172.473 944.238 172.137 944.238 171.723V159.223Z" fill="#42E2B8" fill-opacity="0.12"/>
<path d="M935.881 203.473C939.679 203.473 942.762 200.337 942.762 196.473V190.223C942.762 189.808 942.431 189.473 942.024 189.473H935.881C932.083 189.473 929 192.609 929 196.473C929 200.337 932.083 203.473 935.881 203.473Z" fill="#42E2B8" fill-opacity="0.12"/>
<path d="M929 180.973C929 177.109 932.083 173.973 935.881 173.973H942.024C942.431 173.973 942.762 174.308 942.762 174.723V187.223C942.762 187.637 942.431 187.973 942.024 187.973H935.881C932.083 187.973 929 184.837 929 180.973Z" fill="#42E2B8" fill-opacity="0.12"/>
<path d="M929 165.473C929 161.609 932.083 158.473 935.881 158.473H942.023C942.431 158.473 942.762 158.808 942.762 159.223V171.723C942.762 172.137 942.431 172.473 942.023 172.473H935.881C932.083 172.473 929 169.337 929 165.473Z" fill="#42E2B8" fill-opacity="0.12"/>
<path d="M112.548 181.515C111.867 186.442 107.334 189.89 102.431 189.212C97.5272 188.534 94.1002 183.986 94.7813 179.059C95.4624 174.132 99.995 170.684 104.899 171.362C109.802 172.04 113.229 176.589 112.548 181.515Z" fill="#42E2B8" fill-opacity="0.12"/>
<path d="M98.6152 151.327C98.6882 150.799 99.1741 150.43 99.7005 150.503L107.631 151.599C112.534 152.277 115.961 156.826 115.28 161.753C114.599 166.679 110.067 170.127 105.163 169.449L97.2327 168.353C96.7063 168.28 96.3388 167.793 96.4118 167.265L98.6152 151.327Z" fill="#42E2B8" fill-opacity="0.12"/>
<path d="M80.0258 206.255C84.9294 206.933 89.4619 203.485 90.143 198.558L91.2447 190.589C91.3177 190.061 90.9502 189.574 90.4239 189.501L82.4936 188.405C77.5899 187.727 73.0574 191.175 72.3763 196.102C71.6952 201.028 75.1221 205.577 80.0258 206.255Z" fill="#42E2B8" fill-opacity="0.12"/>
<path d="M75.1085 176.339C75.7896 171.413 80.3221 167.964 85.2258 168.642L93.1561 169.739C93.6824 169.811 94.0499 170.299 93.9769 170.827L91.7735 186.764C91.7005 187.292 91.2146 187.662 90.6883 187.589L82.758 186.492C77.8543 185.815 74.4274 181.266 75.1085 176.339Z" fill="#42E2B8" fill-opacity="0.12"/>
<path d="M77.8403 156.576C78.5214 151.65 83.054 148.202 87.9576 148.879L95.8879 149.976C96.4143 150.049 96.7818 150.536 96.7088 151.064L94.5054 167.002C94.4323 167.53 93.9465 167.899 93.4201 167.826L85.4898 166.73C80.5862 166.052 77.1592 161.503 77.8403 156.576Z" fill="#42E2B8" fill-opacity="0.12"/>
<path d="M395.854 28.3125C397.608 32.4672 395.667 37.2599 391.521 39.0105C387.376 40.7611 382.587 38.81 380.833 34.6554C379.078 30.5007 381.019 25.708 385.165 23.9574C389.311 22.2068 394.099 24.1579 395.854 28.3125Z" fill="#42E2B8" fill-opacity="0.12"/>
<path d="M370.958 11.2693C370.77 10.8239 370.978 10.3105 371.423 10.1226L378.128 7.29145C382.273 5.54083 387.062 7.49192 388.816 11.6466C390.571 15.8012 388.63 20.5939 384.484 22.3445L377.779 25.1757C377.334 25.3636 376.821 25.1549 376.633 24.7095L370.958 11.2693Z" fill="#42E2B8" fill-opacity="0.12"/>
<path d="M381.926 62.6997C386.072 60.949 388.013 56.1564 386.259 52.0017L383.421 45.2816C383.233 44.8362 382.72 44.6275 382.275 44.8154L375.57 47.6466C371.424 49.3972 369.483 54.1899 371.238 58.3446C372.992 62.4992 377.781 64.4503 381.926 62.6997Z" fill="#42E2B8" fill-opacity="0.12"/>
<path d="M364.2 41.6787C362.446 37.524 364.387 32.7314 368.533 30.9807L375.237 28.1496C375.682 27.9616 376.196 28.1704 376.384 28.6157L382.059 42.056C382.247 42.5014 382.039 43.0147 381.594 43.2027L374.889 46.0338C370.743 47.7845 365.955 45.8334 364.2 41.6787Z" fill="#42E2B8" fill-opacity="0.12"/>
<path d="M357.163 25.0129C355.408 20.8582 357.349 16.0655 361.495 14.3149L368.2 11.4837C368.645 11.2958 369.158 11.5045 369.346 11.9499L375.021 25.3901C375.209 25.8355 375.001 26.3489 374.556 26.5368L367.851 29.368C363.705 31.1186 358.917 29.1675 357.163 25.0129Z" fill="#42E2B8" fill-opacity="0.12"/>
<path d="M563.639 351.722C562.807 354.831 559.623 356.681 556.532 355.853C553.442 355.025 551.61 351.831 552.443 348.722C553.276 345.614 556.46 343.763 559.55 344.591C562.64 345.419 564.472 348.614 563.639 351.722Z" fill="#42E2B8" fill-opacity="0.12"/>
<path d="M557.131 331.225C557.22 330.892 557.562 330.694 557.893 330.783L562.891 332.122C565.981 332.95 567.813 336.145 566.981 339.253C566.148 342.362 562.964 344.212 559.873 343.384L554.876 342.045C554.544 341.956 554.347 341.614 554.437 341.281L557.131 331.225Z" fill="#42E2B8" fill-opacity="0.12"/>
<path d="M540.793 365C543.884 365.828 547.068 363.978 547.9 360.869L549.248 355.841C549.337 355.508 549.14 355.166 548.809 355.077L543.811 353.738C540.721 352.91 537.537 354.761 536.704 357.869C535.871 360.977 537.703 364.172 540.793 365Z" fill="#42E2B8" fill-opacity="0.12"/>
<path d="M540.045 345.4C540.878 342.292 544.062 340.441 547.152 341.269L552.15 342.608C552.481 342.697 552.678 343.039 552.589 343.372L549.894 353.428C549.805 353.761 549.464 353.959 549.132 353.87L544.134 352.531C541.044 351.703 539.212 348.508 540.045 345.4Z" fill="#42E2B8" fill-opacity="0.12"/>
<path d="M543.386 332.931C544.219 329.823 547.403 327.972 550.493 328.8L555.491 330.139C555.822 330.228 556.019 330.57 555.93 330.903L553.235 340.959C553.146 341.292 552.805 341.49 552.473 341.401L547.475 340.062C544.385 339.234 542.553 336.039 543.386 332.931Z" fill="#42E2B8" fill-opacity="0.12"/>
<path d="M691.072 102.128L673.33 91.8841C671.994 91.113 670.284 91.571 669.513 92.9067L659.27 110.649C658.499 111.984 658.957 113.694 660.292 114.465L678.035 124.708C679.37 125.48 681.08 125.022 681.851 123.686L692.094 105.944C692.865 104.608 692.407 102.899 691.072 102.128ZM673.031 115.193C671.762 117.391 669.893 117.649 668.013 116.563C666.314 115.583 665.837 114.138 665.947 112.784L668.279 112.738C668.271 113.52 668.285 114.194 669.016 114.616C669.712 115.017 670.312 115.001 670.926 113.938L675.091 106.725L677.213 107.95L673.031 115.193ZM676.203 121.292C674.232 120.154 673.498 118.481 673.589 116.893L675.894 116.893C675.919 117.896 676.197 118.789 677.24 119.391C678.117 119.897 678.935 119.785 679.287 119.175C679.706 118.449 679.28 117.86 678.555 116.87L678.156 116.338C676.999 114.803 676.461 113.396 677.459 111.668C678.378 110.075 680.292 109.566 682.182 110.658C683.532 111.438 684.23 112.465 684.215 114.096L681.951 114.2C681.963 113.341 681.719 112.857 681.109 112.505C680.489 112.147 679.869 112.313 679.572 112.827C679.205 113.462 679.45 113.946 680.132 114.871L680.53 115.403C681.89 117.216 682.446 118.593 681.422 120.367C680.322 122.272 678.214 122.453 676.203 121.292Z" fill="#42E2B8" fill-opacity="0.12"/>
<path d="M289 409.473L291.999 442.161L305.5 446.473L319.001 442.161L322 409.473H289ZM315.907 416.08L315.495 419.986L305.586 424.058L305.56 424.066H315.142L314.042 436.174L305.603 438.544L297.113 436.132L296.562 430.029H300.765L301.04 433.192L305.56 434.291L310.261 433.019L310.579 427.931L296.288 427.89V427.882L296.27 427.89L295.961 424.066L305.595 420.209L306.153 419.986H295.591L295.093 416.08H315.907Z" fill="#42E2B8" fill-opacity="0.12"/>
<path d="M560.272 220.476L560.255 220.459L557.351 217.976L560.255 215.493C560.573 215.218 560.609 214.737 560.326 214.427L560.308 214.41L558.767 212.812C558.466 212.503 557.97 212.494 557.669 212.778L552.56 217.426C552.233 217.727 552.233 218.234 552.56 218.526L557.669 223.174C557.811 223.303 558.006 223.38 558.201 223.38C558.413 223.38 558.626 223.294 558.767 223.14L560.308 221.542C560.6 221.241 560.582 220.76 560.272 220.476ZM579.752 198.893L572.323 191.684C571.526 190.911 570.446 190.473 569.321 190.473H551.25C548.904 190.481 547 192.329 547 194.605V212.477V230.348C547 232.625 548.904 234.473 551.25 234.473H576.75C579.096 234.473 581 232.625 581 230.348V201.814C581 200.723 580.548 199.666 579.752 198.893ZM569.667 194.941L576.405 201.479H569.667V194.941ZM576.75 230.348H551.25V194.605H565.417V203.541C565.417 204.684 566.364 205.603 567.542 205.603H576.75V230.348ZM565.558 208.868C565.142 208.748 564.717 208.98 564.593 209.384L559.75 225.545C559.626 225.949 559.865 226.37 560.281 226.482L562.442 227.092C562.858 227.212 563.292 226.972 563.407 226.577L568.25 210.406C568.374 210.002 568.135 209.581 567.719 209.47L565.558 208.868ZM567.728 215.476L567.745 215.493L570.649 217.976L567.745 220.459C567.427 220.734 567.391 221.215 567.674 221.524L567.692 221.542L569.233 223.14C569.525 223.44 570.021 223.458 570.331 223.174L575.44 218.526C575.767 218.225 575.767 217.718 575.44 217.426L570.331 212.778C570.021 212.494 569.525 212.503 569.233 212.812L567.692 214.41C567.4 214.711 567.418 215.192 567.728 215.476Z" fill="#42E2B8" fill-opacity="0.12"/>
<path d="M267.701 216.857L267.698 216.833L267.014 213.108L270.797 212.927C271.214 212.905 271.541 212.548 271.516 212.132L271.513 212.107L271.326 209.91C271.287 209.483 270.911 209.174 270.503 209.213L263.673 209.753C263.233 209.789 262.917 210.188 262.987 210.618L264.015 217.391C264.044 217.579 264.145 217.759 264.295 217.877C264.459 218.007 264.676 218.069 264.881 218.034L267.063 217.717C267.476 217.659 267.762 217.269 267.701 216.857ZM296.15 211.765L294.935 201.562C294.804 200.468 294.247 199.464 293.382 198.778L279.484 187.752C277.674 186.327 275.057 186.619 273.636 188.41L262.484 202.467L251.333 216.525C249.912 218.316 250.223 220.93 252.028 222.362L271.64 237.92C273.445 239.351 276.062 239.06 277.482 237.269L295.287 214.824C295.968 213.966 296.28 212.859 296.15 211.765ZM290.86 202.503L291.962 211.757L286.78 207.646L290.86 202.503ZM274.214 234.676L254.602 219.118L276.905 191.003L287.8 199.646L282.225 206.675C281.511 207.574 281.666 208.875 282.572 209.594L289.654 215.212L274.214 234.676ZM279.009 210.952C278.764 210.603 278.293 210.526 277.946 210.768L264.136 220.526C263.789 220.768 263.71 221.245 263.96 221.587L265.241 223.385C265.486 223.733 265.97 223.809 266.305 223.568L280.12 213.804C280.467 213.562 280.546 213.085 280.296 212.743L279.009 210.952ZM276.555 217.472L276.558 217.497L277.242 221.222L273.459 221.403C273.042 221.425 272.715 221.782 272.74 222.198L272.743 222.222L272.93 224.419C272.967 224.834 273.338 225.15 273.753 225.116L280.583 224.577C281.023 224.54 281.339 224.141 281.269 223.712L280.24 216.938C280.179 216.526 279.792 216.231 279.375 216.296L277.193 216.613C276.78 216.671 276.494 217.06 276.555 217.472Z" fill="#42E2B8" fill-opacity="0.12"/>
<path d="M797.706 299.907L797.686 299.892L794.477 297.88L796.9 294.968C797.165 294.646 797.123 294.164 796.8 293.901L796.78 293.887L795.033 292.541C794.692 292.281 794.21 292.349 793.963 292.677L789.746 298.076C789.476 298.425 789.557 298.927 789.921 299.166L795.609 302.984C795.767 303.09 795.968 303.137 796.157 303.107C796.363 303.074 796.555 302.956 796.668 302.78L797.909 300.957C798.144 300.614 798.051 300.14 797.706 299.907ZM813.173 275.493L804.831 269.495C803.936 268.852 802.819 268.584 801.729 268.758L784.21 271.555C781.937 271.927 780.384 274.053 780.744 276.31L783.573 294.03L786.401 311.749C786.762 314.006 788.9 315.543 791.174 315.18L815.895 311.234C818.17 310.87 819.723 308.744 819.362 306.487L814.846 278.196C814.673 277.114 814.068 276.136 813.173 275.493ZM802.771 273.135L810.338 278.575L803.806 279.618L802.771 273.135ZM815.242 307.145L790.521 311.091L784.864 275.653L798.598 273.46L800.012 282.32C800.193 283.453 801.257 284.218 802.399 284.035L811.326 282.61L815.242 307.145ZM800.993 287.58C800.57 287.525 800.195 287.82 800.139 288.24L798.001 305.013C797.945 305.433 798.244 305.813 798.665 305.86L800.856 306.13C801.278 306.185 801.661 305.879 801.71 305.47L803.846 288.688C803.902 288.268 803.603 287.888 803.182 287.842L800.993 287.58ZM804.141 293.795L804.161 293.809L807.37 295.822L804.947 298.733C804.682 299.055 804.724 299.537 805.047 299.8L805.067 299.815L806.814 301.161C807.145 301.414 807.628 301.354 807.884 301.025L812.101 295.625C812.371 295.277 812.29 294.774 811.926 294.535L806.238 290.717C805.893 290.484 805.413 290.569 805.179 290.921L803.938 292.744C803.703 293.087 803.796 293.562 804.141 293.795Z" fill="#42E2B8" fill-opacity="0.12"/>
<path d="M1157.58 179.066L1157.56 179.064L1154.67 178.871L1155.24 176.028C1155.3 175.715 1155.09 175.404 1154.78 175.344L1154.76 175.342L1153.1 175.068C1152.77 175.017 1152.47 175.238 1152.43 175.548L1151.55 180.721C1151.5 181.054 1151.74 181.364 1152.07 181.393L1157.29 181.903C1157.43 181.917 1157.59 181.875 1157.7 181.787C1157.83 181.69 1157.92 181.54 1157.93 181.381L1158.1 179.701C1158.13 179.384 1157.9 179.098 1157.58 179.066ZM1159.09 156.985L1151.29 155.968C1150.45 155.859 1149.61 156.085 1148.94 156.598L1138.16 164.844C1136.77 165.92 1136.5 167.918 1137.56 169.309L1145.92 180.233L1154.29 191.157C1155.35 192.548 1157.35 192.809 1158.75 191.738L1173.95 180.102C1175.35 179.031 1175.62 177.034 1174.55 175.642L1161.2 158.201C1160.69 157.534 1159.93 157.094 1159.09 156.985ZM1151.23 159.171L1158.31 160.093L1154.29 163.168L1151.23 159.171ZM1172.02 177.581L1156.82 189.217L1140.1 167.37L1148.54 160.905L1152.72 166.367C1153.26 167.066 1154.25 167.195 1154.95 166.658L1160.44 162.456L1172.02 177.581ZM1155.3 169.559C1154.99 169.675 1154.85 170.011 1154.96 170.314L1159.64 182.403C1159.75 182.706 1160.09 182.855 1160.39 182.733L1161.97 182.12C1162.27 182.004 1162.42 181.659 1162.3 181.364L1157.62 169.271C1157.51 168.967 1157.17 168.819 1156.87 168.941L1155.3 169.559ZM1159.68 172.608L1159.7 172.61L1162.6 172.802L1162.03 175.645C1161.96 175.959 1162.17 176.269 1162.48 176.329L1162.5 176.331L1164.17 176.605C1164.48 176.656 1164.79 176.44 1164.84 176.125L1165.71 170.953C1165.76 170.619 1165.53 170.31 1165.19 170.281L1159.97 169.771C1159.66 169.739 1159.36 169.97 1159.33 170.293L1159.16 171.972C1159.13 172.29 1159.37 172.576 1159.68 172.608Z" fill="#42E2B8" fill-opacity="0.12"/>
<path d="M1026.38 369.309L1037.52 399.536L1050.8 400.309L1061.93 392.894L1056.22 361.19L1026.38 369.309ZM1053.05 372.799L1038.77 376.685L1040.14 380.463L1053.79 376.751L1055.89 388.648L1048.86 392.83L1048.86 392.854L1048.78 392.877L1040.53 392.828L1038.45 387.025L1042.15 386.016L1043.24 388.923L1047.7 388.926L1051.57 386.656L1050.71 381.663L1037.74 385.192L1033.65 374.071L1052.38 368.974L1053.05 372.799Z" fill="#42E2B8" fill-opacity="0.12"/>
<path d="M946.884 314.421L944.823 312.869C944.606 312.708 944.566 312.404 944.727 312.189L956.681 296.492C956.841 296.278 957.147 296.24 957.364 296.401L959.425 297.953C959.642 298.114 959.682 298.418 959.521 298.633L947.567 314.33C947.403 314.543 947.099 314.586 946.884 314.421ZM944.173 308.545L946.492 307.432C946.738 307.315 946.839 307.017 946.71 306.774L944.419 302.46L949.006 300.78C949.264 300.685 949.392 300.397 949.284 300.145L948.301 297.767C948.2 297.521 947.915 297.4 947.663 297.501L940.249 300.483C939.988 300.585 939.871 300.89 939.997 301.141L943.52 308.316C943.64 308.561 943.932 308.664 944.173 308.545ZM956.584 313.325L963.999 310.339C964.261 310.237 964.377 309.932 964.251 309.681L960.729 302.502C960.612 302.263 960.321 302.16 960.077 302.274L957.757 303.386C957.512 303.503 957.411 303.801 957.54 304.044L959.829 308.363L955.242 310.042C954.984 310.137 954.857 310.425 954.964 310.678L955.947 313.055C956.047 313.304 956.333 313.423 956.584 313.325Z" fill="#42E2B8" fill-opacity="0.12"/>
<path d="M562.772 59.8861L559.814 58.0921C559.502 57.9069 559.408 57.5025 559.593 57.19L573.423 34.2926C573.608 33.9801 574.012 33.8845 574.323 34.0697L577.281 35.8637C577.592 36.049 577.686 36.4534 577.501 36.7659L563.671 59.6632C563.481 59.9743 563.081 60.0766 562.772 59.8861ZM558.363 52.3567L561.307 50.5203C561.618 50.3265 561.713 49.9105 561.508 49.6011L557.87 44.1171L563.763 41.1867C564.095 41.021 564.226 40.6149 564.048 40.29L562.417 37.2276C562.248 36.9108 561.852 36.7878 561.53 36.9616L552.041 42.0572C551.706 42.2335 551.592 42.6611 551.794 42.981L557.462 52.1435C557.654 52.4554 558.057 52.5519 558.363 52.3567ZM575.563 56.9995L585.053 51.8986C585.388 51.7224 585.502 51.2948 585.301 50.9748L579.634 41.8071C579.445 41.5019 579.043 41.4053 578.733 41.5939L575.789 43.4302C575.478 43.624 575.383 44.04 575.588 44.3494L579.224 49.8387L573.331 52.7692C573 52.9348 572.868 53.3409 573.046 53.6658L574.678 56.7283C574.845 57.0503 575.242 57.168 575.563 56.9995Z" fill="#42E2B8" fill-opacity="0.12"/>
<path d="M188.061 403.423L184.392 403.606C184.008 403.628 183.684 403.33 183.662 402.946L182.255 374.657C182.233 374.273 182.531 373.95 182.915 373.927L186.584 373.745C186.968 373.722 187.292 374.021 187.314 374.405L188.721 402.694C188.738 403.08 188.447 403.407 188.061 403.423ZM179.711 399.438L181.214 396.08C181.373 395.725 181.209 395.304 180.846 395.154L174.388 392.504L177.838 386.437C178.032 386.095 177.907 385.66 177.558 385.481L174.304 383.764C173.967 383.587 173.546 383.714 173.365 384.057L168.032 394.159C167.842 394.512 167.995 394.955 168.362 395.116L178.791 399.786C179.145 399.945 179.557 399.791 179.711 399.438ZM197.613 393.299L202.944 383.192C203.134 382.839 202.981 382.396 202.614 382.235L192.184 377.559C191.836 377.404 191.424 377.558 191.263 377.907L189.76 381.265C189.601 381.62 189.765 382.041 190.128 382.191L196.588 384.846L193.138 390.914C192.944 391.256 193.069 391.69 193.418 391.869L196.672 393.586C197.011 393.769 197.43 393.637 197.613 393.299Z" fill="#42E2B8" fill-opacity="0.12"/>
<path d="M783.307 469.098L778.571 470.235C778.076 470.358 777.581 470.048 777.458 469.554L768.694 433.037C768.571 432.542 768.881 432.047 769.376 431.924L774.112 430.787C774.607 430.664 775.101 430.974 775.224 431.469L783.988 467.986C784.105 468.484 783.806 468.982 783.307 469.098ZM771.45 465.95L772.586 461.207C772.706 460.705 772.39 460.197 771.879 460.091L762.816 458.22L765.825 449.469C765.994 448.975 765.725 448.44 765.225 448.292L760.565 446.852C760.082 446.703 759.565 446.972 759.413 447.464L754.939 461.933C754.778 462.44 755.086 462.979 755.604 463.099L770.336 466.629C770.838 466.75 771.336 466.448 771.45 465.95ZM793.274 453.565L797.743 439.09C797.905 438.583 797.597 438.043 797.079 437.924L782.343 434.386C781.852 434.269 781.353 434.571 781.229 435.065L780.093 439.809C779.972 440.31 780.289 440.819 780.799 440.925L789.867 442.802L786.857 451.554C786.689 452.047 786.958 452.582 787.457 452.73L792.118 454.17C792.604 454.326 793.118 454.051 793.274 453.565Z" fill="#42E2B8" fill-opacity="0.12"/>
<path d="M1028.87 520.058L1024.81 517.487C1024.39 517.222 1024.27 516.654 1024.53 516.22L1044.35 484.426C1044.61 483.992 1045.17 483.866 1045.6 484.132L1049.66 486.702C1050.09 486.968 1050.21 487.536 1049.94 487.97L1030.13 519.763C1029.85 520.195 1029.3 520.331 1028.87 520.058ZM1022.95 509.427L1027.09 506.913C1027.53 506.648 1027.67 506.067 1027.39 505.63L1022.49 497.879L1030.75 493.891C1031.21 493.665 1031.41 493.099 1031.17 492.641L1028.99 488.32C1028.76 487.873 1028.21 487.693 1027.76 487.93L1014.45 494.88C1013.98 495.12 1013.81 495.716 1014.08 496.168L1021.71 509.111C1021.97 509.551 1022.52 509.694 1022.95 509.427ZM1046.71 516.267L1060.02 509.31C1060.49 509.07 1060.66 508.473 1060.39 508.021L1052.77 495.071C1052.52 494.64 1051.96 494.497 1051.52 494.755L1047.39 497.269C1046.95 497.534 1046.81 498.115 1047.08 498.552L1051.99 506.311L1043.73 510.299C1043.26 510.524 1043.07 511.09 1043.31 511.549L1045.49 515.869C1045.71 516.324 1046.26 516.496 1046.71 516.267Z" fill="#42E2B8" fill-opacity="0.12"/>
<path fillRule="evenodd" clipRule="evenodd" d="M1169.34 346.003L1191.83 350.596C1195.24 351.292 1197.44 354.612 1196.74 358.023L1192.32 379.645C1191.63 383.054 1188.31 385.249 1184.9 384.552L1162.4 379.959C1158.99 379.263 1156.8 375.943 1157.5 372.532L1161.91 350.911C1162.61 347.501 1165.93 345.306 1169.34 346.003ZM1175.89 368.564L1170.49 367.461L1168.7 370.646C1168.64 370.771 1168.51 370.834 1168.38 370.792L1165.65 370.235C1165.49 370.203 1165.46 370.107 1165.54 369.941L1172.96 357.444C1172.98 357.408 1173 357.371 1173.02 357.333L1173.02 357.332C1173.08 357.227 1173.14 357.114 1173.21 356.995C1173.33 356.702 1173.42 356.389 1173.49 356.069C1173.49 355.993 1173.56 355.932 1173.64 355.933L1173.68 355.942L1177.39 356.701C1177.51 356.724 1177.56 356.78 1177.56 356.855L1179.8 372.883C1179.81 373.051 1179.76 373.115 1179.61 373.085L1176.58 372.466C1176.47 372.46 1176.39 372.367 1176.38 372.259L1175.89 368.564ZM1171.94 364.687L1175.62 365.44C1175.6 365.117 1175.56 364.731 1175.5 364.327C1175.45 363.908 1175.41 363.461 1175.37 362.999C1175.34 362.759 1175.32 362.524 1175.29 362.289C1175.27 362.053 1175.25 361.818 1175.22 361.578C1175.16 361.099 1175.12 360.651 1175.09 360.207C1175.08 360.012 1175.06 359.825 1175.05 359.643L1175.05 359.643C1175.03 359.423 1175.02 359.212 1175 359.009L1174.97 359.003C1174.72 359.6 1174.43 360.191 1174.1 360.774C1173.96 361.02 1173.83 361.27 1173.69 361.522L1173.69 361.523L1173.69 361.523C1173.46 361.94 1173.23 362.364 1172.99 362.786C1172.64 363.484 1172.28 364.122 1171.94 364.687ZM1184.35 360.178C1184.63 360.582 1185.06 360.866 1185.54 360.949C1186.02 361.079 1186.56 360.991 1186.96 360.711C1187.38 360.419 1187.66 359.976 1187.74 359.48C1187.85 359.004 1187.77 358.504 1187.53 358.09C1187.28 357.691 1186.88 357.428 1186.31 357.313C1185.83 357.215 1185.33 357.294 1184.91 357.557C1184.5 357.82 1184.21 358.245 1184.13 358.742C1184.01 359.232 1184.09 359.746 1184.35 360.178ZM1183.62 362.04L1181.34 373.213C1181.31 373.357 1181.36 373.459 1181.51 373.49L1184.35 374.071C1184.48 374.098 1184.56 374.037 1184.59 373.877L1186.87 362.703C1186.9 362.573 1186.86 362.489 1186.72 362.462L1183.85 361.875C1183.72 361.849 1183.65 361.894 1183.62 362.04Z" fill="#42E2B8" fill-opacity="0.12"/>
<path fillRule="evenodd" clipRule="evenodd" d="M780.333 155.013L800.268 143.629C803.29 141.903 807.129 142.951 808.855 145.974L819.799 165.137C821.525 168.159 820.477 171.998 817.454 173.725L797.52 185.109C794.498 186.835 790.659 185.787 788.933 182.764L777.989 163.601C776.263 160.579 777.31 156.739 780.333 155.013ZM800.148 167.651L795.363 170.383L796.112 173.963C796.152 174.094 796.093 174.23 795.97 174.282L793.552 175.663C793.411 175.744 793.328 175.689 793.279 175.512L790.612 161.225C790.602 161.185 790.593 161.144 790.582 161.102C790.554 160.986 790.525 160.862 790.498 160.727C790.395 160.427 790.259 160.13 790.098 159.847C790.048 159.79 790.062 159.696 790.12 159.647L790.158 159.625L793.451 157.744C793.553 157.686 793.627 157.695 793.677 157.752L805.936 168.317C806.055 168.437 806.053 168.523 805.924 168.597L803.236 170.132C803.154 170.196 803.027 170.183 802.95 170.108L800.148 167.651ZM794.618 167.345L797.885 165.48C797.653 165.254 797.367 164.991 797.06 164.723C796.746 164.442 796.417 164.135 796.082 163.815C795.903 163.653 795.73 163.492 795.557 163.33C795.384 163.169 795.211 163.008 795.033 162.845C794.676 162.52 794.348 162.213 794.032 161.899C793.893 161.763 793.759 161.63 793.63 161.502L793.63 161.502C793.473 161.347 793.322 161.198 793.176 161.057L793.15 161.071C793.35 161.69 793.524 162.324 793.66 162.981C793.72 163.255 793.783 163.532 793.846 163.813L793.846 163.813C793.95 164.277 794.055 164.748 794.156 165.222C794.35 165.98 794.503 166.695 794.618 167.345ZM800.97 155.77C801.447 155.89 801.954 155.822 802.371 155.567C802.823 155.343 803.164 154.926 803.285 154.448C803.409 153.95 803.322 153.438 803.059 153.008C802.829 152.576 802.439 152.253 801.98 152.106C801.529 151.972 801.055 152.038 800.553 152.324C800.129 152.567 799.805 152.956 799.665 153.428C799.526 153.9 799.593 154.407 799.856 154.837C800.093 155.281 800.49 155.618 800.97 155.77ZM801.651 157.65L807.306 167.553C807.379 167.681 807.487 167.722 807.617 167.649L810.137 166.209C810.253 166.143 810.268 166.049 810.187 165.908L804.532 156.005C804.466 155.889 804.378 155.854 804.262 155.921L801.716 157.375C801.6 157.441 801.577 157.521 801.651 157.65Z" fill="#42E2B8" fill-opacity="0.12"/>
<path fillRule="evenodd" clipRule="evenodd" d="M904.393 375.25L930.571 385.964C934.539 387.588 936.436 392.11 934.811 396.08L924.512 421.245C922.888 425.214 918.366 427.11 914.396 425.485L888.218 414.772C884.249 413.147 882.353 408.626 883.978 404.656L894.277 379.491C895.901 375.522 900.423 373.626 904.393 375.25ZM907.159 404.064L900.877 401.493L897.969 404.936C897.872 405.075 897.696 405.12 897.552 405.041L894.376 403.742C894.191 403.666 894.181 403.544 894.315 403.361L906.162 389.931C906.193 389.892 906.226 389.851 906.259 389.81L906.259 389.81C906.35 389.694 906.448 389.571 906.559 389.443C906.772 389.116 906.957 388.758 907.109 388.386C907.127 388.295 907.229 388.238 907.321 388.256L907.371 388.277L911.695 390.046C911.83 390.101 911.877 390.18 911.859 390.271L910.905 410.19C910.879 410.396 910.794 410.46 910.625 410.391L907.095 408.946C906.97 408.915 906.886 408.782 906.9 408.65L907.159 404.064ZM903.26 398.465L907.55 400.22C907.594 399.824 907.631 399.347 907.659 398.846C907.693 398.328 907.742 397.775 907.797 397.207C907.82 396.911 907.845 396.621 907.87 396.33L907.87 396.33L907.87 396.329C907.896 396.039 907.921 395.749 907.943 395.453C907.988 394.86 908.037 394.308 908.103 393.763C908.129 393.524 908.156 393.294 908.183 393.071C908.214 392.801 908.245 392.542 908.271 392.293L908.237 392.279C907.787 392.943 907.305 393.593 906.77 394.223C906.55 394.489 906.327 394.761 906.103 395.035L906.103 395.035C905.732 395.488 905.354 395.948 904.971 396.405C904.382 397.169 903.803 397.86 903.26 398.465ZM919.318 395.849C919.564 396.403 920.014 396.844 920.579 397.055C921.139 397.324 921.803 397.339 922.358 397.093C922.936 396.836 923.366 396.362 923.584 395.781C923.83 395.23 923.847 394.606 923.642 394.049C923.43 393.509 923.006 393.099 922.347 392.829C921.79 392.601 921.166 392.583 920.602 392.805C920.037 393.028 919.597 393.478 919.379 394.06C919.128 394.627 919.102 395.267 919.318 395.849ZM918.01 397.936L912.688 410.94C912.619 411.109 912.661 411.245 912.83 411.315L916.14 412.67C916.292 412.732 916.395 412.675 916.471 412.49L921.793 399.484C921.855 399.333 921.822 399.221 921.67 399.158L918.326 397.79C918.174 397.728 918.079 397.767 918.01 397.936Z" fill="#42E2B8" fill-opacity="0.12"/>
<path fillRule="evenodd" clipRule="evenodd" d="M4.26262 356.587L19.8079 347.464C22.1647 346.081 25.1887 346.868 26.5721 349.226L35.3421 364.17C36.7252 366.526 35.9383 369.55 33.581 370.934L18.0357 380.057C15.679 381.44 12.655 380.653 11.2716 378.296L2.50155 363.351C1.11846 360.995 1.90532 357.971 4.26262 356.587ZM19.9281 366.326L16.1971 368.515L16.818 371.319C16.8507 371.422 16.8056 371.529 16.7098 371.571L14.8243 372.678C14.7141 372.742 14.6484 372.7 14.608 372.562L12.3816 361.369C12.3739 361.338 12.3658 361.306 12.3575 361.273L12.3575 361.273C12.3345 361.182 12.3099 361.085 12.2879 360.979C12.2043 360.745 12.0948 360.513 11.9651 360.292C11.9255 360.247 11.9361 360.174 11.9807 360.134L12.0107 360.117L14.5782 358.61C14.6584 358.563 14.7161 358.569 14.7558 358.614L24.4789 366.795C24.5735 366.888 24.5731 366.956 24.4725 367.015L22.3762 368.245C22.3121 368.296 22.2125 368.287 22.1511 368.229L19.9281 366.326ZM15.584 366.137L18.1312 364.642C17.9476 364.467 17.7205 364.264 17.4769 364.056C17.2277 363.838 16.9665 363.6 16.7002 363.352C16.5588 363.226 16.4214 363.101 16.284 362.976C16.1466 362.851 16.0092 362.726 15.8678 362.6C15.5848 362.348 15.3242 362.11 15.0732 361.866C14.9625 361.761 14.8563 361.658 14.7536 361.559L14.7535 361.559C14.6289 361.438 14.5094 361.322 14.3935 361.213L14.3732 361.225C14.5358 361.709 14.6787 362.205 14.7913 362.719C14.8411 362.934 14.8926 363.151 14.9446 363.371L14.9447 363.371C15.0307 363.734 15.118 364.103 15.2013 364.474C15.3607 365.068 15.4873 365.628 15.584 366.137ZM20.4698 356.991C20.8458 357.08 21.2433 357.022 21.5684 356.818C21.9211 356.638 22.1852 356.307 22.2751 355.931C22.3685 355.539 22.2949 355.138 22.0845 354.802C21.9003 354.465 21.5911 354.215 21.2294 354.104C20.8738 354.003 20.502 354.059 20.111 354.289C19.7799 354.483 19.5296 354.792 19.4242 355.163C19.3191 355.536 19.3766 355.933 19.587 356.268C19.7773 356.615 20.092 356.875 20.4698 356.991ZM21.0221 358.46L25.554 366.182C25.6127 366.282 25.698 366.314 25.7988 366.255L27.7646 365.101C27.855 365.048 27.8656 364.975 27.8009 364.864L23.2687 357.141C23.216 357.052 23.1463 357.025 23.0559 357.078L21.0704 358.243C20.98 358.296 20.9631 358.359 21.0221 358.46Z" fill="#42E2B8" fill-opacity="0.12"/>
<path fillRule="evenodd" clipRule="evenodd" d="M648.949 307.878L665.062 315.957C667.504 317.182 668.489 320.147 667.264 322.591L659.497 338.08C658.272 340.522 655.307 341.507 652.864 340.282L636.751 332.203C634.309 330.978 633.324 328.013 634.549 325.569L642.316 310.08C643.541 307.637 646.506 306.652 648.949 307.878ZM649.297 326.319L645.43 324.38L643.415 326.427C643.347 326.51 643.232 326.53 643.145 326.473L641.19 325.493C641.076 325.436 641.076 325.358 641.17 325.249L649.35 317.291C649.372 317.267 649.394 317.243 649.417 317.218C649.481 317.15 649.549 317.076 649.626 317C649.777 316.802 649.912 316.584 650.027 316.355C650.043 316.298 650.11 316.267 650.167 316.283L650.198 316.298L652.86 317.633C652.943 317.675 652.969 317.726 652.953 317.784L651.379 330.393C651.352 330.523 651.295 330.56 651.191 330.507L649.018 329.418C648.94 329.392 648.894 329.303 648.909 329.22L649.297 326.319ZM647.091 322.572L649.731 323.896C649.779 323.646 649.826 323.345 649.868 323.028C649.915 322.7 649.972 322.352 650.035 321.993C650.064 321.806 650.094 321.623 650.124 321.44L650.124 321.44C650.155 321.256 650.185 321.073 650.213 320.886C650.271 320.511 650.329 320.163 650.397 319.82C650.425 319.67 650.454 319.524 650.481 319.384L650.481 319.384C650.514 319.214 650.546 319.051 650.575 318.894L650.554 318.884C650.236 319.283 649.898 319.673 649.528 320.047C649.375 320.206 649.221 320.367 649.065 320.53L649.064 320.531C648.806 320.8 648.544 321.074 648.278 321.346C647.867 321.803 647.466 322.214 647.091 322.572ZM657.421 321.69C657.55 322.054 657.815 322.356 658.164 322.518C658.506 322.716 658.927 322.758 659.292 322.629C659.672 322.494 659.968 322.214 660.135 321.855C660.318 321.517 660.359 321.121 660.256 320.757C660.147 320.404 659.898 320.122 659.492 319.919C659.149 319.747 658.754 319.705 658.385 319.819C658.015 319.933 657.713 320.198 657.546 320.557C657.359 320.905 657.312 321.31 657.421 321.69ZM656.488 322.953L652.475 330.957C652.423 331.061 652.443 331.149 652.547 331.202L654.584 332.224C654.678 332.271 654.746 332.24 654.803 332.125L658.817 324.121C658.864 324.028 658.848 323.955 658.754 323.908L656.696 322.876C656.603 322.829 656.541 322.849 656.488 322.953Z" fill="#42E2B8" fill-opacity="0.12"/>
<path fillRule="evenodd" clipRule="evenodd" d="M474.978 468.437L491.436 461.089C493.932 459.975 496.85 461.091 497.964 463.587L505.029 479.409C506.143 481.904 505.026 484.822 502.531 485.937L486.072 493.285C483.577 494.399 480.658 493.283 479.544 490.787L472.48 474.965C471.366 472.47 472.482 469.551 474.978 468.437ZM489.477 479.847L485.527 481.611L485.834 484.467C485.855 484.572 485.798 484.673 485.698 484.705L483.702 485.596C483.585 485.648 483.525 485.599 483.5 485.457L482.524 474.087C482.52 474.055 482.516 474.022 482.511 473.989L482.511 473.989L482.511 473.989C482.498 473.896 482.485 473.797 482.474 473.689C482.417 473.447 482.334 473.204 482.23 472.97C482.195 472.922 482.214 472.85 482.262 472.816L482.294 472.801L485.012 471.588C485.097 471.55 485.154 471.563 485.189 471.611L493.948 480.817C494.031 480.92 494.023 480.987 493.917 481.035L491.698 482.026C491.628 482.07 491.53 482.049 491.476 481.985L489.477 479.847ZM485.18 479.18L487.877 477.976C487.714 477.781 487.511 477.554 487.291 477.32C487.068 477.076 486.835 476.811 486.597 476.535C486.471 476.395 486.348 476.255 486.225 476.116C486.102 475.976 485.98 475.837 485.853 475.696C485.6 475.415 485.367 475.149 485.144 474.879C485.046 474.762 484.952 474.648 484.861 474.538L484.861 474.538C484.75 474.404 484.644 474.276 484.541 474.154L484.52 474.164C484.628 474.663 484.715 475.172 484.77 475.695C484.796 475.914 484.823 476.136 484.85 476.36L484.85 476.36C484.896 476.731 484.942 477.107 484.984 477.485C485.076 478.093 485.14 478.663 485.18 479.18ZM491.04 470.629C491.404 470.759 491.805 470.746 492.151 470.578C492.521 470.439 492.82 470.14 492.951 469.775C493.088 469.396 493.059 468.989 492.887 468.633C492.741 468.277 492.461 467.995 492.114 467.844C491.772 467.704 491.396 467.719 490.982 467.904C490.631 468.06 490.349 468.34 490.203 468.697C490.057 469.056 490.07 469.457 490.242 469.813C490.393 470.179 490.677 470.472 491.04 470.629ZM491.427 472.15L495.077 480.326C495.124 480.432 495.206 480.473 495.312 480.426L497.393 479.496C497.489 479.454 497.508 479.381 497.456 479.265L493.805 471.088C493.763 470.993 493.696 470.959 493.601 471.002L491.498 471.94C491.403 471.983 491.379 472.044 491.427 472.15Z" fill="#42E2B8" fill-opacity="0.12"/>
<path fillRule="evenodd" clipRule="evenodd" d="M410.095 243.08L431.81 251.343C435.103 252.596 436.752 256.27 435.499 259.563L427.556 280.439C426.303 283.731 422.629 285.38 419.336 284.127L397.62 275.865C394.328 274.612 392.679 270.937 393.932 267.644L401.875 246.769C403.128 243.477 406.802 241.827 410.095 243.08ZM402.958 266.684L408.444 252.268C408.481 252.17 408.544 252.13 408.643 252.168C408.881 252.258 409.105 252.344 409.433 252.452C409.609 252.511 409.787 252.574 409.971 252.64L409.971 252.64C410.144 252.702 410.322 252.766 410.508 252.829C410.707 252.896 410.911 252.97 411.123 253.046L411.123 253.046L411.123 253.046C411.321 253.118 411.526 253.191 411.738 253.264C412.177 253.415 412.598 253.575 413.018 253.735C414.167 254.172 415.066 254.675 415.739 255.267C416.349 255.772 416.844 256.41 417.178 257.131C417.456 257.749 417.599 258.429 417.593 259.117C417.58 259.785 417.462 260.431 417.222 261.062C416.764 262.266 416.105 263.155 415.246 263.726C414.387 264.297 413.378 264.588 412.34 264.577C411.254 264.565 410.155 264.291 409.006 263.854C408.67 263.726 408.446 263.64 408.311 263.573C408.176 263.505 407.98 263.431 407.714 263.329L406.002 267.827C405.979 267.93 405.877 267.988 405.774 267.964L405.718 267.943L403.057 266.93C402.945 266.888 402.91 266.81 402.958 266.684ZM410.528 255.98L408.736 260.687L408.78 260.707C408.954 260.789 409.116 260.864 409.272 260.923L410.014 261.206C410.561 261.414 411.139 261.538 411.722 261.566C412.218 261.611 412.711 261.494 413.153 261.261C413.581 261.022 413.902 260.6 414.137 259.983C414.316 259.555 414.369 259.078 414.289 258.614C414.189 258.158 413.959 257.751 413.613 257.442C413.174 257.035 412.646 256.737 412.066 256.533C411.702 256.394 411.38 256.271 411.108 256.184C410.833 256.063 410.632 256.003 410.528 255.98ZM424.176 265.038C424.616 265.318 425.005 265.643 425.34 266.027C425.385 266.077 425.455 266.103 425.594 266.124C425.647 266.112 425.696 266.067 425.717 266.011L426.586 263.727C426.608 263.671 426.616 263.61 426.623 263.548C426.616 263.482 426.581 263.404 426.53 263.369C426.21 263.071 425.846 262.804 425.448 262.588C424.905 262.285 424.333 262.019 423.758 261.801C422.764 261.422 421.878 261.262 421.092 261.347C420.382 261.398 419.694 261.649 419.13 262.076C418.624 262.478 418.237 262.988 418.008 263.59C417.808 264.075 417.733 264.608 417.787 265.142C417.871 265.72 418.081 266.265 418.398 266.738C418.854 267.392 419.385 267.979 420.004 268.503C420.589 269.031 420.972 269.417 421.126 269.684C421.281 269.952 421.324 270.177 421.249 270.373C421.153 270.625 420.909 270.805 420.647 270.818C420.348 270.847 419.943 270.774 419.41 270.571C418.85 270.358 418.316 270.075 417.837 269.732C417.274 269.357 416.785 268.914 416.361 268.384C416.329 268.34 416.293 268.31 416.24 268.322C416.188 268.335 416.152 268.385 416.136 268.427L415.209 270.864C415.152 270.971 415.185 271.096 415.262 271.189C415.63 271.57 416.062 271.91 416.52 272.181C417.102 272.547 417.711 272.843 418.356 273.088C419.364 273.472 420.264 273.638 421.062 273.605C421.789 273.592 422.5 273.366 423.106 272.955C423.678 272.546 424.125 271.963 424.361 271.299C424.567 270.8 424.642 270.267 424.588 269.734C424.503 269.157 424.274 268.62 423.924 268.15C423.412 267.474 422.815 266.846 422.155 266.306C421.872 266.038 421.595 265.756 421.337 265.465C421.192 265.298 421.072 265.108 421.004 264.906C420.962 264.761 420.954 264.614 421.002 264.488C421.05 264.362 421.145 264.237 421.258 264.152C421.409 264.05 421.601 264.01 421.799 264.037C422.092 264.068 422.402 264.138 422.677 264.259C423.209 264.461 423.701 264.729 424.176 265.038Z" fill="#42E2B8" fill-opacity="0.12"/>
<path fillRule="evenodd" clipRule="evenodd" d="M1077.75 273.336L1104.2 283.403C1108.21 284.929 1110.22 289.406 1108.7 293.418L1099.02 318.851C1097.49 322.862 1093.02 324.872 1089.01 323.346L1062.55 313.279C1058.54 311.752 1056.53 307.275 1058.05 303.263L1067.73 277.83C1069.26 273.819 1073.73 271.809 1077.75 273.336ZM1069.05 302.093L1075.74 284.53C1075.78 284.411 1075.86 284.362 1075.98 284.407C1076.27 284.518 1076.54 284.622 1076.94 284.754C1077.16 284.825 1077.37 284.903 1077.6 284.983L1077.6 284.983L1077.6 284.983C1077.81 285.059 1078.03 285.136 1078.25 285.213C1078.49 285.295 1078.74 285.384 1079 285.478C1079.24 285.565 1079.49 285.654 1079.75 285.743C1080.29 285.927 1080.8 286.122 1081.31 286.317C1082.71 286.85 1083.8 287.462 1084.62 288.184C1085.37 288.799 1085.97 289.575 1086.38 290.454C1086.72 291.208 1086.89 292.036 1086.88 292.874C1086.87 293.688 1086.72 294.475 1086.43 295.243C1085.87 296.711 1085.07 297.793 1084.02 298.49C1082.98 299.186 1081.75 299.539 1080.48 299.527C1079.16 299.512 1077.82 299.178 1076.42 298.645C1076.01 298.489 1075.74 298.385 1075.57 298.303C1075.41 298.22 1075.17 298.13 1074.85 298.006L1072.76 303.486C1072.73 303.612 1072.61 303.682 1072.48 303.653L1072.42 303.627L1069.17 302.393C1069.04 302.341 1069 302.247 1069.05 302.093ZM1078.28 289.052L1076.09 294.787L1076.15 294.812C1076.36 294.911 1076.56 295.003 1076.75 295.075L1077.65 295.419C1078.32 295.672 1079.02 295.824 1079.73 295.858C1080.34 295.912 1080.94 295.77 1081.48 295.486C1082 295.196 1082.39 294.681 1082.67 293.929C1082.89 293.407 1082.96 292.826 1082.86 292.261C1082.74 291.706 1082.46 291.21 1082.03 290.833C1081.5 290.337 1080.86 289.974 1080.15 289.726C1079.71 289.556 1079.31 289.407 1078.98 289.301C1078.65 289.154 1078.4 289.08 1078.28 289.052ZM1094.91 300.088C1095.44 300.43 1095.92 300.825 1096.32 301.293C1096.38 301.353 1096.46 301.386 1096.63 301.411C1096.7 301.397 1096.76 301.341 1096.78 301.273L1097.84 298.491C1097.87 298.422 1097.88 298.348 1097.89 298.273C1097.88 298.192 1097.84 298.097 1097.77 298.054C1097.38 297.691 1096.94 297.366 1096.45 297.103C1095.79 296.734 1095.1 296.41 1094.4 296.144C1093.18 295.683 1092.11 295.487 1091.15 295.591C1090.28 295.653 1089.44 295.959 1088.76 296.48C1088.14 296.968 1087.67 297.59 1087.39 298.324C1087.15 298.915 1087.06 299.564 1087.12 300.214C1087.22 300.918 1087.48 301.582 1087.87 302.159C1088.42 302.956 1089.07 303.671 1089.82 304.31C1090.54 304.952 1091 305.423 1091.19 305.749C1091.38 306.075 1091.43 306.349 1091.34 306.587C1091.22 306.895 1090.92 307.114 1090.61 307.129C1090.24 307.166 1089.75 307.076 1089.1 306.829C1088.42 306.569 1087.77 306.225 1087.18 305.807C1086.5 305.35 1085.9 304.81 1085.38 304.165C1085.35 304.11 1085.3 304.074 1085.24 304.089C1085.17 304.104 1085.13 304.166 1085.11 304.217L1083.98 307.186C1083.91 307.316 1083.95 307.468 1084.04 307.582C1084.49 308.046 1085.02 308.46 1085.58 308.79C1086.29 309.237 1087.03 309.597 1087.81 309.896C1089.04 310.364 1090.14 310.566 1091.11 310.525C1092 310.51 1092.86 310.234 1093.6 309.733C1094.3 309.236 1094.84 308.525 1095.13 307.716C1095.38 307.108 1095.47 306.459 1095.41 305.809C1095.3 305.106 1095.03 304.453 1094.6 303.879C1093.97 303.055 1093.25 302.291 1092.44 301.633C1092.1 301.306 1091.76 300.962 1091.45 300.608C1091.27 300.404 1091.12 300.173 1091.04 299.927C1090.99 299.751 1090.98 299.571 1091.04 299.417C1091.1 299.264 1091.21 299.112 1091.35 299.008C1091.53 298.884 1091.77 298.835 1092.01 298.868C1092.37 298.906 1092.74 298.992 1093.08 299.139C1093.73 299.385 1094.33 299.711 1094.91 300.088Z" fill="#42E2B8" fill-opacity="0.12"/>
<path fillRule="evenodd" clipRule="evenodd" d="M198.503 54.2685L219.354 44.0186C222.515 42.4646 226.328 43.7636 227.882 46.9255L237.735 66.9702C239.289 70.1313 237.99 73.944 234.828 75.4983L213.977 85.7482C210.816 87.3022 207.004 86.0032 205.449 82.8413L195.596 62.7966C194.042 59.6354 195.341 55.8228 198.503 54.2685ZM210.905 75.5841L204.1 61.7419C204.054 61.6479 204.068 61.5744 204.163 61.5278C204.391 61.4153 204.607 61.3095 204.909 61.1439C205.072 61.0551 205.24 60.9682 205.414 60.8786L205.414 60.8786C205.577 60.7941 205.745 60.7072 205.918 60.614C206.102 60.5147 206.296 60.4154 206.496 60.3124L206.496 60.3124L206.497 60.3124C206.684 60.2163 206.877 60.117 207.075 60.0115C207.485 59.793 207.889 59.5944 208.292 59.3962C209.396 58.8538 210.376 58.5393 211.268 58.4509C212.054 58.349 212.857 58.4216 213.613 58.6685C214.255 58.8873 214.849 59.2464 215.349 59.7196C215.828 60.1851 216.22 60.7112 216.518 61.3168C217.087 62.4733 217.287 63.5612 217.12 64.5791C216.952 65.597 216.476 66.5327 215.761 67.2855C215.011 68.0716 214.062 68.688 212.958 69.2305C212.635 69.3892 212.42 69.495 212.279 69.5477C212.137 69.6004 211.949 69.6928 211.694 69.8183L213.816 74.1368C213.876 74.2241 213.849 74.3383 213.761 74.3974L213.707 74.4239L211.152 75.6798C211.045 75.7327 210.964 75.7053 210.905 75.5841ZM208.236 62.7485L210.458 67.2686L210.502 67.2506C210.681 67.1784 210.847 67.1113 210.996 67.038L211.709 66.6874C212.233 66.4296 212.718 66.0914 213.137 65.6845C213.508 65.3516 213.759 64.9111 213.89 64.4289C214.007 63.9535 213.916 63.4305 213.625 62.8386C213.434 62.415 213.122 62.0511 212.727 61.7931C212.327 61.5555 211.872 61.4459 211.409 61.4889C210.812 61.532 210.234 61.7155 209.69 62C209.34 62.1721 209.03 62.3241 208.782 62.4633C208.505 62.5823 208.324 62.6883 208.236 62.7485ZM224.169 58.9399C224.674 58.8096 225.177 58.7458 225.686 58.7628C225.753 58.7636 225.821 58.7305 225.93 58.6436C225.958 58.5962 225.958 58.5294 225.931 58.4756L224.853 56.283C224.827 56.2292 224.788 56.1817 224.748 56.1346C224.694 56.0942 224.614 56.0668 224.553 56.0796C224.117 56.1107 223.673 56.1949 223.244 56.3393C222.652 56.5295 222.068 56.7668 221.516 57.0381C220.561 57.5075 219.84 58.0457 219.366 58.6793C218.919 59.233 218.634 59.9079 218.562 60.6114C218.51 61.255 218.62 61.8861 218.904 62.4644C219.122 62.9417 219.461 63.3595 219.888 63.6841C220.368 64.0163 220.91 64.2345 221.473 64.3252C222.262 64.4378 223.053 64.4496 223.859 64.3549C224.643 64.2862 225.187 64.2695 225.488 64.3388C225.789 64.408 225.983 64.5302 226.075 64.7182C226.195 64.9607 226.159 65.2622 225.99 65.462C225.808 65.7014 225.478 65.9473 224.966 66.1988C224.428 66.4633 223.857 66.6611 223.28 66.7773C222.622 66.9334 221.964 66.9894 221.288 66.938C221.234 66.9308 221.187 66.9369 221.16 66.9839C221.133 67.0309 221.146 67.0915 221.166 67.1316L222.316 69.472C222.355 69.5863 222.469 69.6472 222.59 69.6548C223.119 69.6448 223.662 69.5612 224.173 69.4109C224.838 69.2345 225.469 68.991 226.089 68.6866C227.057 68.2105 227.792 67.6659 228.312 67.0591C228.798 66.5189 229.118 65.8443 229.23 65.121C229.321 64.424 229.199 63.6992 228.875 63.0738C228.651 62.5828 228.312 62.1651 227.885 61.8404C227.405 61.5089 226.856 61.3107 226.273 61.2463C225.429 61.1598 224.564 61.1683 223.718 61.2827C223.329 61.3065 222.934 61.3174 222.545 61.308C222.324 61.3001 222.103 61.2582 221.909 61.17C221.775 61.1022 221.662 61.0074 221.602 60.8862C221.543 60.7656 221.517 60.611 221.531 60.4702C221.559 60.2899 221.66 60.1225 221.816 59.9963C222.038 59.8033 222.301 59.6241 222.577 59.5055C223.088 59.2544 223.619 59.077 224.169 58.9399Z" fill="#42E2B8" fill-opacity="0.12"/>
<path fillRule="evenodd" clipRule="evenodd" d="M1046.14 55.8795L1073.39 61.5016C1077.52 62.3539 1080.17 66.3825 1079.32 70.5141L1073.91 96.7056C1073.06 100.836 1069.03 103.487 1064.9 102.635L1037.65 97.0128C1033.52 96.1604 1030.87 92.1318 1031.73 88.0003L1037.13 61.8087C1037.98 57.6782 1042.01 55.027 1046.14 55.8795ZM1042.21 85.1422L1045.94 67.0553C1045.97 66.9325 1046.03 66.873 1046.16 66.8985C1046.46 66.9602 1046.74 67.0183 1047.15 67.0838C1047.36 67.1195 1047.59 67.1608 1047.82 67.2035L1047.82 67.2035C1048.03 67.2437 1048.26 67.285 1048.49 67.3239C1048.74 67.3653 1048.99 67.4134 1049.26 67.4634C1049.5 67.51 1049.76 67.5581 1050.03 67.6038C1050.57 67.6984 1051.1 67.8073 1051.63 67.916C1053.07 68.2135 1054.23 68.6362 1055.14 69.2078C1055.95 69.6883 1056.66 70.3472 1057.19 71.1356C1057.64 71.8142 1057.94 72.5902 1058.06 73.4048C1058.17 74.1969 1058.16 74.9825 1058 75.7738C1057.68 77.285 1057.08 78.4612 1056.17 79.3004C1055.26 80.1397 1054.13 80.6753 1052.9 80.8614C1051.61 81.0544 1050.26 80.9399 1048.82 80.6424C1048.4 80.5553 1048.11 80.4973 1047.94 80.4431C1047.77 80.3889 1047.52 80.3383 1047.19 80.2694L1046.03 85.9121C1046.02 86.0386 1045.91 86.1264 1045.78 86.1179L1045.71 86.1034L1042.37 85.4145C1042.23 85.3855 1042.18 85.3007 1042.21 85.1422ZM1049.11 71.0446L1047.89 76.9508L1047.95 76.9664C1048.17 77.0292 1048.38 77.0876 1048.57 77.1278L1049.5 77.3201C1050.19 77.4615 1050.9 77.498 1051.59 77.4203C1052.19 77.378 1052.75 77.1458 1053.22 76.786C1053.68 76.4225 1053.98 75.8615 1054.14 75.0881C1054.27 74.5471 1054.24 73.9734 1054.06 73.4401C1053.86 72.9209 1053.51 72.4832 1053.04 72.1841C1052.44 71.7864 1051.76 71.5354 1051.04 71.4046C1050.58 71.3102 1050.18 71.2268 1049.84 71.1758C1049.49 71.0852 1049.24 71.0524 1049.11 71.0446ZM1066.98 79.1467C1067.55 79.3939 1068.07 79.7031 1068.54 80.093C1068.61 80.1432 1068.69 80.1614 1068.86 80.1598C1068.92 80.1352 1068.97 80.072 1068.99 80.0017L1069.58 77.1367C1069.59 77.0664 1069.59 76.9926 1069.59 76.9186C1069.56 76.841 1069.51 76.7561 1069.44 76.7238C1069.01 76.4326 1068.53 76.1868 1068.01 76.0077C1067.31 75.753 1066.59 75.5483 1065.87 75.3995C1064.62 75.142 1063.54 75.121 1062.63 75.3724C1061.8 75.5679 1061.03 75.9963 1060.45 76.6087C1059.93 77.1794 1059.57 77.8568 1059.41 78.6124C1059.27 79.2238 1059.28 79.8678 1059.45 80.4883C1059.66 81.1553 1060.01 81.7597 1060.47 82.2583C1061.14 82.9446 1061.88 83.5371 1062.71 84.0389C1063.5 84.5504 1064.03 84.9336 1064.26 85.2204C1064.49 85.5072 1064.59 85.7649 1064.54 86.0106C1064.47 86.3274 1064.22 86.5866 1063.91 86.6514C1063.56 86.7437 1063.07 86.734 1062.4 86.596C1061.7 86.4509 1061.01 86.2187 1060.38 85.9047C1059.64 85.5688 1058.98 85.1388 1058.38 84.5934C1058.33 84.5467 1058.28 84.5181 1058.22 84.5428C1058.16 84.5676 1058.13 84.6343 1058.12 84.6868L1057.49 87.7449C1057.44 87.8818 1057.51 88.0228 1057.61 88.1185C1058.12 88.498 1058.7 88.818 1059.29 89.0508C1060.05 89.3725 1060.83 89.6059 1061.63 89.7729C1062.9 90.034 1063.99 90.0586 1064.93 89.867C1065.79 89.7134 1066.59 89.3101 1067.22 88.7085C1067.82 88.1165 1068.24 87.3415 1068.39 86.5119C1068.54 85.8827 1068.53 85.2387 1068.36 84.6182C1068.15 83.9521 1067.78 83.3621 1067.27 82.873C1066.54 82.171 1065.71 81.5435 1064.83 81.0308C1064.45 80.7675 1064.06 80.4874 1063.7 80.1931C1063.5 80.023 1063.32 79.8211 1063.2 79.5953C1063.13 79.4328 1063.09 79.2598 1063.12 79.1014C1063.15 78.9439 1063.24 78.7785 1063.36 78.6561C1063.52 78.5061 1063.74 78.4222 1063.98 78.4169C1064.33 78.3976 1064.71 78.4214 1065.06 78.5117C1065.72 78.6495 1066.36 78.8718 1066.98 79.1467Z" fill="#42E2B8" fill-opacity="0.12"/>
<path fillRule="evenodd" clipRule="evenodd" d="M388.5 142.156L406.166 127.065C408.845 124.777 412.86 125.092 415.149 127.771L429.656 144.754C431.944 147.432 431.629 151.447 428.95 153.736L411.284 168.827C408.606 171.115 404.59 170.8 402.302 168.121L387.794 151.138C385.506 148.46 385.821 144.444 388.5 142.156ZM405.794 159.74L395.775 148.012C395.707 147.933 395.702 147.858 395.783 147.79C395.976 147.624 396.159 147.468 396.411 147.233C396.547 147.107 396.688 146.981 396.834 146.851L396.834 146.851C396.972 146.729 397.113 146.603 397.257 146.47C397.411 146.328 397.574 146.184 397.743 146.034L397.743 146.034L397.743 146.034C397.901 145.895 398.063 145.751 398.229 145.6C398.572 145.286 398.915 144.994 399.256 144.702C400.191 143.904 401.063 143.356 401.906 143.05C402.641 142.757 403.438 142.628 404.231 142.68C404.907 142.734 405.572 142.934 406.174 143.269C406.753 143.602 407.263 144.014 407.702 144.527C408.539 145.507 409.002 146.512 409.092 147.539C409.181 148.567 408.952 149.591 408.445 150.498C407.913 151.445 407.146 152.277 406.211 153.076C405.937 153.31 405.755 153.465 405.631 153.552C405.507 153.638 405.347 153.774 405.131 153.958L408.256 157.617C408.336 157.687 408.338 157.805 408.267 157.884L408.222 157.922L406.057 159.772C405.966 159.849 405.881 159.843 405.794 159.74ZM400.031 147.964L403.303 151.794L403.341 151.766C403.496 151.651 403.64 151.545 403.767 151.437L404.371 150.921C404.815 150.542 405.202 150.094 405.506 149.596C405.783 149.182 405.917 148.693 405.925 148.193C405.921 147.704 405.704 147.219 405.275 146.718C404.985 146.355 404.592 146.079 404.147 145.927C403.699 145.796 403.232 145.802 402.794 145.959C402.226 146.148 401.712 146.469 401.255 146.879C400.958 147.133 400.696 147.356 400.49 147.553C400.251 147.737 400.102 147.884 400.031 147.964ZM414.529 140.331C414.985 140.08 415.457 139.893 415.954 139.784C416.02 139.768 416.077 139.719 416.162 139.608C416.177 139.555 416.16 139.49 416.121 139.445L414.534 137.587C414.495 137.542 414.445 137.505 414.395 137.47C414.333 137.444 414.248 137.437 414.193 137.465C413.778 137.603 413.369 137.794 412.989 138.04C412.462 138.371 411.955 138.745 411.487 139.145C410.678 139.836 410.112 140.536 409.811 141.267C409.515 141.914 409.405 142.639 409.509 143.338C409.619 143.974 409.881 144.559 410.3 145.049C410.629 145.457 411.061 145.778 411.555 145.987C412.102 146.19 412.682 146.267 413.249 146.216C414.041 146.13 414.811 145.945 415.568 145.654C416.311 145.393 416.833 145.243 417.143 145.235C417.452 145.228 417.67 145.298 417.806 145.458C417.981 145.663 418.021 145.964 417.907 146.199C417.79 146.477 417.531 146.796 417.097 147.167C416.641 147.556 416.137 147.889 415.607 148.144C415.008 148.459 414.384 148.676 413.716 148.793C413.662 148.8 413.618 148.817 413.604 148.869C413.589 148.922 413.617 148.977 413.646 149.011L415.34 150.994C415.406 151.095 415.531 151.126 415.65 151.103C416.16 150.963 416.666 150.747 417.124 150.475C417.724 150.14 418.276 149.748 418.8 149.299C419.621 148.598 420.198 147.889 420.552 147.172C420.89 146.529 421.032 145.796 420.962 145.067C420.878 144.369 420.58 143.697 420.111 143.172C419.772 142.751 419.34 142.431 418.846 142.222C418.299 142.019 417.719 141.963 417.138 142.045C416.299 142.17 415.462 142.392 414.672 142.712C414.301 142.832 413.92 142.94 413.541 143.027C413.325 143.074 413.1 143.088 412.891 143.051C412.744 143.018 412.611 142.955 412.523 142.852C412.436 142.75 412.372 142.606 412.351 142.466C412.334 142.285 412.391 142.097 412.51 141.937C412.677 141.695 412.888 141.456 413.126 141.273C413.559 140.903 414.029 140.6 414.529 140.331Z" fill="#42E2B8" fill-opacity="0.12"/>
<path fillRule="evenodd" clipRule="evenodd" d="M201.501 490.247L232.517 493.639C237.219 494.153 240.606 498.371 240.092 503.074L236.831 532.89C236.317 537.593 232.1 540.979 227.396 540.465L196.38 537.073C191.678 536.559 188.291 532.342 188.806 527.639L192.066 497.822C192.58 493.12 196.798 489.733 201.501 490.247ZM200.2 523.337L202.451 502.747C202.467 502.607 202.535 502.533 202.676 502.549C203.017 502.586 203.337 502.621 203.799 502.651C204.047 502.668 204.301 502.69 204.562 502.713L204.562 502.713C204.808 502.735 205.061 502.758 205.324 502.777C205.605 502.797 205.895 502.824 206.197 502.851L206.197 502.851C206.478 502.877 206.769 502.904 207.069 502.927C207.692 502.974 208.292 503.04 208.892 503.105C210.534 503.285 211.871 503.634 212.946 504.176C213.91 504.626 214.769 505.287 215.447 506.111C216.018 506.821 216.433 507.656 216.659 508.552C216.867 509.425 216.933 510.304 216.834 511.205C216.646 512.925 216.091 514.303 215.168 515.336C214.245 516.369 213.032 517.087 211.679 517.425C210.263 517.777 208.743 517.792 207.102 517.613C206.621 517.56 206.301 517.525 206.103 517.483C205.904 517.441 205.625 517.41 205.245 517.369L204.542 523.792C204.547 523.934 204.434 524.044 204.292 524.048L204.212 524.039L200.411 523.624C200.251 523.606 200.18 523.517 200.2 523.337ZM206.415 506.865L205.68 513.589L205.743 513.6L205.743 513.6C205.997 513.647 206.234 513.69 206.455 513.715L207.516 513.831C208.296 513.916 209.09 513.882 209.857 513.721C210.517 513.611 211.119 513.292 211.614 512.84C212.089 512.386 212.363 511.728 212.46 510.847C212.548 510.229 212.455 509.592 212.194 509.016C211.911 508.458 211.474 508.006 210.919 507.722C210.211 507.341 209.424 507.133 208.602 507.063C208.081 507.006 207.621 506.956 207.239 506.935C206.84 506.871 206.558 506.86 206.415 506.865ZM227.22 514.019C227.886 514.235 228.502 514.524 229.067 514.91C229.143 514.959 229.243 514.97 229.43 514.951C229.495 514.917 229.543 514.841 229.552 514.761L229.909 511.5C229.917 511.42 229.907 511.338 229.895 511.255C229.864 511.171 229.792 511.082 229.715 511.053C229.197 510.774 228.634 510.55 228.043 510.405C227.236 510.194 226.402 510.043 225.582 509.953C224.161 509.798 222.956 509.888 221.963 510.266C221.058 510.572 220.248 511.131 219.66 511.877C219.139 512.569 218.809 513.364 218.715 514.224C218.618 514.922 218.701 515.64 218.952 516.315C219.257 517.037 219.714 517.675 220.286 518.182C221.1 518.878 221.989 519.462 222.97 519.934C223.909 520.421 224.537 520.793 224.828 521.089C225.12 521.384 225.252 521.662 225.221 521.942C225.182 522.302 224.925 522.619 224.589 522.724C224.21 522.863 223.659 522.905 222.898 522.822C222.098 522.734 221.308 522.547 220.57 522.263C219.712 521.967 218.926 521.557 218.196 521.011C218.14 520.964 218.082 520.937 218.018 520.971C217.954 521.005 217.925 521.083 217.918 521.143L217.537 524.624C217.5 524.782 217.585 524.933 217.716 525.028C218.323 525.398 218.999 525.695 219.686 525.892C220.567 526.171 221.458 526.349 222.379 526.45C223.82 526.607 225.045 526.519 226.071 526.205C227.012 525.943 227.86 525.409 228.507 524.669C229.113 523.945 229.496 523.035 229.579 522.093C229.678 521.375 229.594 520.657 229.344 519.982C229.038 519.26 228.56 518.641 227.945 518.148C227.05 517.443 226.063 516.829 225.023 516.35C224.564 516.097 224.108 515.825 223.674 515.534C223.429 515.366 223.209 515.159 223.053 514.92C222.949 514.747 222.889 514.558 222.909 514.377C222.928 514.198 223.01 514.004 223.128 513.855C223.29 513.67 223.525 513.554 223.792 513.522C224.183 513.463 224.61 513.45 225.008 513.514C225.768 513.597 226.497 513.778 227.22 514.019Z" fill="#42E2B8" fill-opacity="0.12"/>
</svg>
