<svg width="1440" height="700" viewBox="0 0 1440 700" fill="none" xmlns="http://www.w3.org/2000/svg">
<path d="M509.626 47.2076C509.645 47.115 509.629 47.0186 509.582 46.935C509.534 46.8513 509.458 46.7858 509.367 46.7496C509.195 46.6905 506.199 45.583 506.199 45.583C506.199 45.583 504.961 43.2372 504.51 42.3438L491.749 77.8145L503.443 78.9744C503.443 78.9744 509.589 47.4162 509.626 47.2076ZM502.074 41.5033C502.088 40.95 502.055 40.3959 501.975 39.8465C501.671 37.8976 500.655 36.5474 499.076 36.0026C498.962 35.959 498.843 35.9302 498.721 35.9171C498.711 35.8397 498.654 35.7833 498.643 35.7059C498.216 34.7504 497.443 34.1149 496.367 33.7779C494.286 33.1337 491.722 33.8338 489.163 35.7916C487.358 37.1613 485.665 39.0852 484.798 40.7412C482.182 40.6129 480.358 40.5374 480.312 40.5583C478.983 40.5049 478.936 40.5256 478.41 41.5606C478.012 42.3448 466.547 64.3571 466.547 64.3571L490.936 77.6077L503.862 41.6779C503.734 41.6389 503.605 41.6064 503.473 41.5806C503.473 41.5806 502.946 41.5461 502.074 41.5033ZM496.831 41.281C495.318 41.2013 493.642 41.1389 492.013 41.057C492.979 39.6563 494.358 38.3987 495.684 37.7162C496.19 37.4857 496.859 37.2364 497.537 37.1752C497.696 38.5545 497.255 40.2101 496.831 41.281ZM495.882 35.1255C496.319 35.2616 496.71 35.5101 497.013 35.8438C496.37 35.9168 495.667 36.1543 494.976 36.4687C493.188 37.3648 491.439 39.1182 490.306 40.9804C488.94 40.9154 487.575 40.8499 486.328 40.7883C488.211 37.9005 492.702 34.1018 495.882 35.1255ZM485.41 51.7996C484.792 53.9462 490.425 56.4068 488.986 61.4793C487.821 65.4672 484.463 67.296 480.926 66.2978C476.646 65.1159 475.197 61.9604 475.197 61.9604L477.386 58.6613C477.386 58.6613 479.083 61.1283 480.983 61.6366C482.207 61.985 482.997 61.1878 483.198 60.519C484.018 57.7041 479.224 56.2343 480.544 51.5998C481.639 47.6985 485.628 44.7595 491.523 46.387C493.798 47.0248 494.743 47.9415 494.743 47.9415L491.741 52.2131C491.741 52.2131 490.502 51.0483 488.704 50.5756C486.106 49.8643 485.517 51.3935 485.41 51.7996ZM498.345 41.3603C498.699 40.3766 499.07 38.9178 499.014 37.5707C500.487 38.4106 500.64 40.343 500.617 41.4805C499.94 41.4313 499.183 41.3912 498.345 41.3603Z" fill="#66E1FF" fill-opacity="0.2"/>
<path d="M1430.08 310.758C1430.04 310.667 1429.96 310.592 1429.87 310.548C1429.78 310.503 1429.68 310.49 1429.57 310.512C1429.39 310.56 1426.13 311.34 1426.13 311.34C1426.13 311.34 1423.64 310.03 1422.71 309.519L1433.13 347.59L1443.94 341.811C1443.94 341.811 1430.17 310.959 1430.08 310.758ZM1420.1 310.205C1419.77 309.719 1419.41 309.259 1419.01 308.83C1417.57 307.322 1415.87 306.743 1414.18 307.188C1414.05 307.216 1413.93 307.26 1413.82 307.32C1413.76 307.259 1413.68 307.243 1413.62 307.182C1412.68 306.604 1411.62 306.503 1410.49 306.835C1408.3 307.485 1406.51 309.578 1405.48 312.755C1404.75 314.986 1404.45 317.631 1404.7 319.566C1402.36 320.972 1400.73 321.965 1400.71 322.01C1399.53 322.735 1399.5 322.78 1399.67 323.979C1399.8 324.888 1403.2 350.571 1403.2 350.571L1432.3 347.883L1421.75 309.319C1421.61 309.36 1421.48 309.407 1421.35 309.461C1421.35 309.461 1420.88 309.736 1420.1 310.205ZM1415.43 313.054C1414.07 313.862 1412.58 314.781 1411.13 315.655C1411.11 313.883 1411.55 311.996 1412.28 310.637C1412.58 310.144 1413.01 309.54 1413.55 309.095C1414.53 310.194 1415.15 311.882 1415.43 313.054ZM1410.88 308.282C1411.35 308.146 1411.83 308.134 1412.3 308.247C1411.79 308.683 1411.32 309.296 1410.91 309.969C1409.91 311.781 1409.46 314.311 1409.6 316.578C1408.38 317.314 1407.16 318.049 1406.05 318.719C1405.93 315.13 1407.52 309.241 1410.88 308.282ZM1411.91 328.773C1412.68 330.988 1419.04 329.848 1420.86 335.069C1422.26 339.192 1420.47 342.721 1416.8 343.909C1412.39 345.37 1409.23 343.482 1409.23 343.482L1409.13 339.36C1409.13 339.36 1412.08 340.509 1414.03 339.846C1415.3 339.437 1415.5 338.29 1415.27 337.595C1414.28 334.686 1409.25 336.195 1407.59 331.422C1406.17 327.414 1407.84 322.559 1413.93 320.548C1416.28 319.779 1417.65 320.024 1417.65 320.024L1417.64 325.458C1417.64 325.458 1415.86 325.17 1414.02 325.804C1411.34 326.696 1411.76 328.36 1411.91 328.773ZM1416.79 312.244C1416.5 311.188 1415.93 309.712 1415.07 308.58C1416.85 308.452 1418.15 310.034 1418.82 311.031C1418.21 311.381 1417.53 311.785 1416.79 312.244Z" fill="#66E1FF" fill-opacity="0.2"/>
<path d="M233.772 311.966C233.743 311.901 233.692 311.848 233.627 311.816C233.561 311.784 233.486 311.775 233.414 311.79C233.283 311.825 230.959 312.381 230.959 312.381C230.959 312.381 229.184 311.447 228.521 311.083L235.947 338.223L243.655 334.103C243.655 334.103 233.839 312.109 233.772 311.966ZM226.658 311.572C226.428 311.225 226.168 310.897 225.882 310.591C224.854 309.516 223.646 309.104 222.438 309.421C222.349 309.441 222.263 309.473 222.183 309.515C222.143 309.471 222.083 309.46 222.043 309.417C221.368 309.004 220.618 308.933 219.809 309.17C218.249 309.633 216.97 311.125 216.237 313.389C215.715 314.98 215.501 316.866 215.68 318.245C214.013 319.247 212.856 319.955 212.836 319.987C211.994 320.504 211.974 320.536 212.096 321.391C212.189 322.039 214.611 340.347 214.611 340.347L235.357 338.431L227.835 310.94C227.739 310.969 227.645 311.003 227.553 311.041C227.553 311.041 227.214 311.238 226.658 311.572ZM223.33 313.603C222.363 314.179 221.303 314.834 220.264 315.457C220.255 314.194 220.563 312.848 221.086 311.88C221.299 311.528 221.604 311.098 221.995 310.78C222.688 311.564 223.13 312.767 223.33 313.603ZM220.091 310.201C220.419 310.104 220.768 310.095 221.098 310.176C220.733 310.487 220.402 310.924 220.112 311.403C219.396 312.695 219.074 314.499 219.178 316.115C218.308 316.64 217.439 317.164 216.644 317.641C216.559 315.083 217.69 310.885 220.091 310.201ZM220.825 324.808C221.369 326.387 225.902 325.574 227.202 329.296C228.203 332.236 226.921 334.752 224.311 335.599C221.164 336.64 218.91 335.294 218.91 335.294L218.837 332.355C218.837 332.355 220.946 333.174 222.337 332.702C223.241 332.411 223.385 331.593 223.22 331.097C222.512 329.023 218.923 330.099 217.739 326.697C216.733 323.839 217.924 320.379 222.259 318.945C223.937 318.397 224.915 318.571 224.915 318.571L224.905 322.445C224.905 322.445 223.639 322.24 222.328 322.692C220.419 323.328 220.716 324.513 220.825 324.808ZM224.298 313.025C224.092 312.273 223.691 311.22 223.076 310.413C224.346 310.322 225.273 311.45 225.749 312.16C225.311 312.41 224.827 312.698 224.298 313.025Z" fill="#66E1FF" fill-opacity="0.2"/>
<path d="M670.103 320.574C670.083 320.456 670.013 320.347 669.906 320.267C669.798 320.187 669.66 320.141 669.516 320.135C669.249 320.136 664.551 320.057 664.551 320.057C664.551 320.057 661.664 317.775 660.594 316.897L660.688 364.433L677.444 360.974C677.444 360.974 670.157 320.837 670.103 320.574ZM656.804 316.905C656.547 316.24 656.224 315.593 655.839 314.972C654.442 312.777 652.362 311.589 649.905 311.593C649.726 311.588 649.547 311.604 649.372 311.638C649.319 311.55 649.212 311.507 649.158 311.419C648.089 310.458 646.702 310.021 645.045 310.065C641.845 310.159 638.648 312.054 636.087 315.446C634.277 317.824 632.897 320.817 632.526 323.149C628.844 324.078 626.284 324.744 626.231 324.788C624.365 325.274 624.31 325.319 624.101 326.769C623.943 327.868 619.097 358.835 619.097 358.835L659.46 364.524L659.365 316.372C659.168 316.379 658.973 316.394 658.778 316.418C658.778 316.418 658.032 316.595 656.804 316.905ZM649.441 318.81C647.308 319.342 644.958 319.961 642.664 320.538C643.3 318.469 644.578 316.401 646.07 315.039C646.656 314.554 647.456 313.981 648.362 313.627C649.274 315.204 649.491 317.359 649.441 318.81ZM645.049 311.871C645.721 311.852 646.387 311.986 646.973 312.258C646.12 312.611 645.266 313.185 644.467 313.846C642.443 315.653 640.9 318.466 640.265 321.153C638.343 321.641 636.422 322.128 634.667 322.571C635.827 318.352 640.137 311.968 645.049 311.871ZM638.905 336.068C639.124 338.881 648.147 339.48 648.694 346.119C649.077 351.351 645.348 354.92 639.956 355.195C633.445 355.559 629.862 352.4 629.862 352.4L631.24 347.563C631.24 347.563 634.821 349.8 637.704 349.619C639.57 349.527 640.264 348.25 640.208 347.371C639.934 343.678 632.567 343.912 632.075 337.844C631.638 332.744 635.685 327.592 644.652 327.09C648.119 326.908 649.885 327.609 649.885 327.609L647.869 333.94C647.869 333.94 645.572 333.065 642.85 333.246C638.9 333.475 638.851 335.54 638.905 336.068ZM651.575 318.278C651.572 316.96 651.355 315.068 650.604 313.487C653.061 313.878 654.239 316.116 654.777 317.481C653.816 317.702 652.749 317.968 651.575 318.278Z" fill="#66E1FF" fill-opacity="0.2"/>
<path d="M1118.77 196.967C1118.74 196.902 1118.69 196.849 1118.63 196.817C1118.56 196.785 1118.49 196.776 1118.41 196.791C1118.28 196.826 1115.96 197.382 1115.96 197.382C1115.96 197.382 1114.18 196.448 1113.52 196.084L1120.95 223.223L1128.66 219.104C1128.66 219.104 1118.84 197.11 1118.77 196.967ZM1111.66 196.573C1111.43 196.226 1111.17 195.898 1110.88 195.592C1109.85 194.517 1108.65 194.105 1107.44 194.422C1107.35 194.442 1107.26 194.474 1107.18 194.516C1107.14 194.472 1107.08 194.461 1107.04 194.418C1106.37 194.005 1105.62 193.934 1104.81 194.171C1103.25 194.634 1101.97 196.126 1101.24 198.39C1100.72 199.981 1100.5 201.867 1100.68 203.246C1099.01 204.248 1097.86 204.956 1097.84 204.988C1096.99 205.505 1096.97 205.537 1097.1 206.392C1097.19 207.04 1099.61 225.348 1099.61 225.348L1120.36 223.432L1112.84 195.941C1112.74 195.97 1112.65 196.004 1112.55 196.042C1112.55 196.042 1112.21 196.239 1111.66 196.573ZM1108.33 198.603C1107.36 199.18 1106.3 199.835 1105.26 200.457C1105.26 199.195 1105.56 197.849 1106.09 196.881C1106.3 196.529 1106.6 196.099 1106.99 195.781C1107.69 196.565 1108.13 197.768 1108.33 198.603ZM1105.09 195.202C1105.42 195.105 1105.77 195.096 1106.1 195.177C1105.73 195.488 1105.4 195.925 1105.11 196.404C1104.4 197.696 1104.07 199.5 1104.18 201.116C1103.31 201.641 1102.44 202.165 1101.64 202.642C1101.56 200.084 1102.69 195.886 1105.09 195.202ZM1105.82 209.809C1106.37 211.388 1110.9 210.575 1112.2 214.297C1113.2 217.237 1111.92 219.753 1109.31 220.599C1106.16 221.641 1103.91 220.295 1103.91 220.295L1103.84 217.356C1103.84 217.356 1105.95 218.175 1107.34 217.703C1108.24 217.412 1108.38 216.594 1108.22 216.098C1107.51 214.024 1103.92 215.1 1102.74 211.698C1101.73 208.84 1102.92 205.38 1107.26 203.946C1108.94 203.398 1109.91 203.572 1109.91 203.572L1109.91 207.446C1109.91 207.446 1108.64 207.241 1107.33 207.693C1105.42 208.328 1105.72 209.514 1105.82 209.809ZM1109.3 198.026C1109.09 197.274 1108.69 196.221 1108.08 195.414C1109.35 195.323 1110.27 196.451 1110.75 197.161C1110.31 197.411 1109.83 197.699 1109.3 198.026Z" fill="#66E1FF" fill-opacity="0.2"/>
<path d="M41.7463 77.6859L27.0206 84.1759C26.0858 84.5802 25.0258 84.6072 24.0698 84.2511C23.1138 83.895 22.3387 83.1844 21.9121 82.2731L13.108 63.1147C12.6881 62.1984 12.6558 61.1566 13.0183 60.218C13.3807 59.2794 14.1084 58.5207 15.0415 58.1084L29.7672 51.6185C30.7012 51.2079 31.7636 51.1777 32.7213 51.5345C33.6791 51.8912 34.4539 52.6057 34.8757 53.5212L43.6798 72.6796C44.0997 73.5959 44.132 74.6377 43.7695 75.5763C43.407 76.5149 42.6794 77.2736 41.7463 77.6859V77.6859ZM15.8408 59.8478C15.3772 60.0522 15.0156 60.4288 14.8356 60.895C14.6556 61.3611 14.6719 61.8785 14.8809 62.3334L23.685 81.4917C23.7885 81.717 23.9362 81.92 24.1196 82.0894C24.3031 82.2588 24.5188 82.3911 24.7543 82.4788C24.9898 82.5666 25.2406 82.608 25.4923 82.6007C25.7439 82.5934 25.9916 82.5376 26.2212 82.4364L40.9469 75.9465C41.1765 75.8453 41.3834 75.7008 41.5559 75.5211C41.7284 75.3414 41.8631 75.1302 41.9522 74.8994C42.0413 74.6686 42.0832 74.4227 42.0754 74.1759C42.0676 73.9291 42.0104 73.6862 41.9069 73.461L33.1028 54.3026C32.8938 53.8477 32.5092 53.4926 32.0335 53.3155C31.5579 53.1383 31.0302 53.1536 30.5666 53.3579L15.8408 59.8478Z" fill="#66E1FF" fill-opacity="0.2"/>
<path d="M33.4508 62.6923L21.1397 68.118C20.7635 68.2838 20.3354 68.2962 19.9495 68.1524C19.5636 68.0087 19.2515 67.7206 19.0819 67.3515L16.9237 62.655C16.7541 62.2859 16.7408 61.8661 16.8869 61.4879C17.033 61.1097 17.3263 60.8041 17.7025 60.6383L30.0135 55.2126C30.3897 55.0468 30.8178 55.0345 31.2038 55.1782C31.5897 55.3219 31.9017 55.61 32.0713 55.9791L34.2296 60.6756C34.3992 61.0447 34.4124 61.4645 34.2664 61.8427C34.1203 62.2209 33.8269 62.5265 33.4508 62.6923ZM20.7056 66.2176L32.2862 61.1138L30.4589 57.1374L18.8783 62.2412L20.7056 66.2176Z" fill="#66E1FF" fill-opacity="0.2"/>
<path d="M23.7462 68.672L20.672 70.0268C20.3489 70.1692 20.205 70.5417 20.3507 70.8587L21.1245 72.5425C21.2702 72.8595 21.6502 73.0011 21.9733 72.8587L25.0475 71.5038C25.3706 71.3614 25.5145 70.9889 25.3688 70.6719L24.595 68.9881C24.4493 68.6711 24.0693 68.5295 23.7462 68.672Z" fill="#66E1FF" fill-opacity="0.2"/>
<path d="M29.3331 66.2088L26.2589 67.5637C25.9358 67.7061 25.7919 68.0785 25.9376 68.3956L26.7114 70.0793C26.8571 70.3964 27.2371 70.5379 27.5602 70.3955L30.6344 69.0407C30.9576 68.8982 31.1014 68.5258 30.9557 68.2088L30.1819 66.525C30.0363 66.208 29.6562 66.0664 29.3331 66.2088Z" fill="#66E1FF" fill-opacity="0.2"/>
<path d="M34.9269 63.744L31.8526 65.0988C31.5295 65.2412 31.3857 65.6137 31.5314 65.9307L32.3051 67.6145C32.4508 67.9315 32.8309 68.0731 33.154 67.9307L36.2282 66.5758C36.5513 66.4334 36.6951 66.061 36.5495 65.7439L35.7757 64.0601C35.63 63.7431 35.25 63.6016 34.9269 63.744Z" fill="#66E1FF" fill-opacity="0.2"/>
<path d="M25.7169 72.9608L22.6427 74.3156C22.3196 74.458 22.1757 74.8305 22.3214 75.1475L23.0952 76.8313C23.2409 77.1483 23.6209 77.2899 23.944 77.1475L27.0182 75.7926C27.3414 75.6502 27.4852 75.2778 27.3395 74.9607L26.5657 73.2769C26.42 72.9599 26.04 72.8184 25.7169 72.9608Z" fill="#66E1FF" fill-opacity="0.2"/>
<path d="M31.3067 70.4981L28.2325 71.853C27.9094 71.9954 27.7656 72.3678 27.9112 72.6849L28.685 74.3687C28.8307 74.6857 29.2107 74.8272 29.5339 74.6848L32.6081 73.33C32.9312 73.1876 33.075 72.8151 32.9293 72.4981L32.1556 70.8143C32.0099 70.4973 31.6299 70.3557 31.3067 70.4981Z" fill="#66E1FF" fill-opacity="0.2"/>
<path d="M36.8976 68.0338L33.8233 69.3886C33.5002 69.531 33.3564 69.9035 33.5021 70.2205L34.2758 71.9043C34.4215 72.2213 34.8016 72.3629 35.1247 72.2205L38.1989 70.8656C38.522 70.7232 38.6659 70.3508 38.5202 70.0337L37.7464 68.3499C37.6007 68.0329 37.2207 67.8914 36.8976 68.0338Z" fill="#66E1FF" fill-opacity="0.2"/>
<path d="M27.5313 76.9093L24.4571 78.2641C24.134 78.4065 23.9902 78.779 24.1359 79.096L24.9096 80.7798C25.0553 81.0968 25.4354 81.2384 25.7585 81.096L28.8327 79.7411C29.1558 79.5987 29.2996 79.2262 29.154 78.9092L28.3802 77.2254C28.2345 76.9084 27.8545 76.7669 27.5313 76.9093Z" fill="#66E1FF" fill-opacity="0.2"/>
<path d="M33.1202 74.4466L30.046 75.8015C29.7229 75.9439 29.579 76.3163 29.7247 76.6333L30.4985 78.3171C30.6442 78.6342 31.0242 78.7757 31.3473 78.6333L34.4216 77.2784C34.7447 77.136 34.8885 76.7636 34.7428 76.4466L33.9691 74.7628C33.8234 74.4458 33.4433 74.3042 33.1202 74.4466Z" fill="#66E1FF" fill-opacity="0.2"/>
<path d="M38.712 71.9823L35.6378 73.3371C35.3147 73.4795 35.1708 73.852 35.3165 74.169L36.0903 75.8528C36.236 76.1698 36.616 76.3114 36.9391 76.169L40.0133 74.8141C40.3365 74.6717 40.4803 74.2992 40.3346 73.9822L39.5609 72.2984C39.4152 71.9814 39.0351 71.8398 38.712 71.9823Z" fill="#66E1FF" fill-opacity="0.2"/>
<path d="M40.1713 79.0658L42.4942 84.1206C42.6184 84.391 42.6281 84.6985 42.5211 84.9755C42.4141 85.2525 42.1992 85.4764 41.9237 85.5978L40.7961 86.0948L38.0048 80.0206L34.7604 81.4505L37.5517 87.5247L32.7223 89.6531C32.4468 89.7745 32.1332 89.7836 31.8505 89.6783C31.5678 89.573 31.3392 89.362 31.215 89.0916L28.892 84.0368L27.1191 84.8181L29.4421 89.873C29.7791 90.6039 30.3979 91.1744 31.1626 91.4593C31.9274 91.7441 32.7758 91.7201 33.5216 91.3925L42.7407 87.3295C43.4858 87 44.0667 86.3941 44.3562 85.6446C44.6456 84.8951 44.62 84.0633 44.2848 83.3315L41.9619 78.2766L40.1713 79.0658Z" fill="#66E1FF" fill-opacity="0.2"/>
<path d="M40.6588 59.7784C40.4804 59.3903 40.0151 59.217 39.6196 59.3914C39.224 59.5657 39.0479 60.0217 39.2263 60.4098L45.3365 73.7062C45.5148 74.0943 45.9801 74.2676 46.3757 74.0932C46.7713 73.9189 46.9474 73.4629 46.769 73.0748L40.6588 59.7784Z" fill="#66E1FF" fill-opacity="0.2"/>
<path d="M706.465 487.892L681.879 498.728C680.318 499.403 678.548 499.448 676.952 498.854C675.356 498.259 674.062 497.073 673.35 495.551L658.65 463.565C657.949 462.035 657.895 460.295 658.501 458.728C659.106 457.161 660.321 455.895 661.879 455.206L686.464 444.371C688.024 443.685 689.798 443.635 691.397 444.23C692.996 444.826 694.289 446.019 694.994 447.547L709.693 479.534C710.394 481.064 710.448 482.803 709.843 484.37C709.237 485.937 708.022 487.204 706.465 487.892V487.892ZM663.213 458.11C662.439 458.451 661.835 459.08 661.535 459.858C661.234 460.637 661.261 461.501 661.61 462.26L676.31 494.247C676.482 494.623 676.729 494.962 677.035 495.244C677.342 495.527 677.702 495.748 678.095 495.895C678.488 496.041 678.907 496.11 679.327 496.098C679.747 496.086 680.161 495.993 680.544 495.824L705.13 484.988C705.513 484.819 705.859 484.578 706.147 484.278C706.435 483.978 706.659 483.625 706.808 483.24C706.957 482.855 707.027 482.444 707.014 482.032C707.001 481.62 706.905 481.215 706.733 480.838L692.034 448.852C691.685 448.093 691.042 447.5 690.248 447.204C689.454 446.908 688.573 446.934 687.799 447.275L663.213 458.11Z" fill="#66E1FF" fill-opacity="0.2"/>
<path d="M692.611 462.859L672.057 471.918C671.429 472.195 670.714 472.216 670.07 471.976C669.425 471.736 668.904 471.255 668.621 470.638L665.018 462.797C664.735 462.181 664.713 461.48 664.956 460.849C665.2 460.217 665.69 459.707 666.318 459.43L686.873 450.372C687.501 450.095 688.215 450.074 688.86 450.314C689.504 450.554 690.025 451.035 690.308 451.651L693.912 459.492C694.195 460.109 694.217 460.81 693.973 461.441C693.729 462.072 693.239 462.583 692.611 462.859ZM671.332 468.745L690.667 460.224L687.616 453.585L668.281 462.106L671.332 468.745Z" fill="#66E1FF" fill-opacity="0.2"/>
<path d="M676.411 472.842L671.279 475.104C670.739 475.342 670.499 475.964 670.742 476.493L672.034 479.304C672.277 479.834 672.912 480.07 673.451 479.832L678.584 477.57C679.123 477.332 679.364 476.711 679.12 476.181L677.828 473.37C677.585 472.841 676.951 472.604 676.411 472.842Z" fill="#66E1FF" fill-opacity="0.2"/>
<path d="M685.741 468.73L680.609 470.992C680.069 471.23 679.829 471.851 680.072 472.381L681.364 475.192C681.607 475.721 682.242 475.958 682.781 475.72L687.914 473.458C688.453 473.22 688.694 472.598 688.45 472.069L687.159 469.258C686.915 468.728 686.281 468.492 685.741 468.73Z" fill="#66E1FF" fill-opacity="0.2"/>
<path d="M695.078 464.615L689.946 466.877C689.406 467.115 689.166 467.737 689.409 468.266L690.701 471.077C690.944 471.607 691.579 471.843 692.118 471.605L697.251 469.343C697.79 469.106 698.031 468.484 697.787 467.954L696.495 465.143C696.252 464.614 695.618 464.378 695.078 464.615Z" fill="#66E1FF" fill-opacity="0.2"/>
<path d="M679.702 480.004L674.57 482.266C674.03 482.504 673.79 483.125 674.033 483.655L675.325 486.466C675.568 486.995 676.203 487.232 676.742 486.994L681.875 484.732C682.414 484.494 682.655 483.872 682.411 483.343L681.119 480.532C680.876 480.002 680.242 479.766 679.702 480.004Z" fill="#66E1FF" fill-opacity="0.2"/>
<path d="M689.032 475.892L683.9 478.154C683.36 478.392 683.12 479.014 683.363 479.543L684.655 482.354C684.898 482.883 685.533 483.12 686.072 482.882L691.205 480.62C691.744 480.382 691.985 479.76 691.741 479.231L690.45 476.42C690.206 475.89 689.572 475.654 689.032 475.892Z" fill="#66E1FF" fill-opacity="0.2"/>
<path d="M698.369 471.777L693.237 474.039C692.697 474.277 692.457 474.899 692.7 475.428L693.992 478.24C694.235 478.769 694.87 479.005 695.409 478.767L700.542 476.505C701.081 476.268 701.322 475.646 701.078 475.117L699.786 472.305C699.543 471.776 698.909 471.54 698.369 471.777Z" fill="#66E1FF" fill-opacity="0.2"/>
<path d="M682.733 486.596L677.6 488.859C677.06 489.096 676.82 489.718 677.063 490.247L678.355 493.059C678.599 493.588 679.233 493.824 679.773 493.587L684.905 491.324C685.445 491.087 685.685 490.465 685.442 489.936L684.15 487.124C683.907 486.595 683.272 486.359 682.733 486.596Z" fill="#66E1FF" fill-opacity="0.2"/>
<path d="M692.061 482.484L686.928 484.746C686.389 484.984 686.148 485.606 686.392 486.135L687.683 488.946C687.927 489.476 688.561 489.712 689.101 489.474L694.233 487.212C694.773 486.974 695.013 486.353 694.77 485.823L693.478 483.012C693.235 482.483 692.6 482.246 692.061 482.484Z" fill="#66E1FF" fill-opacity="0.2"/>
<path d="M701.398 478.37L696.265 480.632C695.725 480.87 695.485 481.491 695.728 482.021L697.02 484.832C697.264 485.361 697.898 485.598 698.438 485.36L703.57 483.098C704.11 482.86 704.35 482.238 704.107 481.709L702.815 478.898C702.572 478.368 701.937 478.132 701.398 478.37Z" fill="#66E1FF" fill-opacity="0.2"/>
<path d="M703.836 490.197L707.714 498.636C707.921 499.087 707.937 499.601 707.759 500.063C707.58 500.526 707.221 500.9 706.761 501.102L704.879 501.932L700.218 491.791L694.802 494.178L699.462 504.319L691.399 507.873C690.939 508.076 690.415 508.091 689.943 507.915C689.471 507.739 689.09 507.387 688.882 506.936L685.004 498.496L682.044 499.801L685.922 508.24C686.485 509.46 687.518 510.413 688.795 510.889C690.072 511.364 691.488 511.324 692.733 510.777L708.126 503.993C709.369 503.443 710.339 502.432 710.823 501.18C711.306 499.929 711.263 498.54 710.703 497.318L706.825 488.879L703.836 490.197Z" fill="#66E1FF" fill-opacity="0.2"/>
<path d="M704.65 457.994C704.352 457.346 703.576 457.057 702.915 457.348C702.255 457.639 701.961 458.401 702.258 459.049L712.46 481.248C712.758 481.896 713.535 482.185 714.195 481.894C714.855 481.603 715.149 480.842 714.852 480.194L704.65 457.994Z" fill="#66E1FF" fill-opacity="0.2"/>
<path d="M876.465 671.892L851.879 682.728C850.318 683.403 848.548 683.448 846.952 682.853C845.356 682.259 844.062 681.072 843.35 679.551L828.65 647.564C827.949 646.034 827.895 644.295 828.501 642.728C829.106 641.161 830.321 639.894 831.879 639.206L856.464 628.37C858.024 627.685 859.798 627.635 861.397 628.23C862.996 628.826 864.289 630.019 864.994 631.547L879.693 663.534C880.394 665.064 880.448 666.803 879.843 668.37C879.237 669.937 878.022 671.204 876.465 671.892V671.892ZM833.213 642.11C832.439 642.451 831.835 643.08 831.535 643.858C831.234 644.636 831.261 645.5 831.61 646.26L846.31 678.246C846.482 678.622 846.729 678.961 847.035 679.244C847.342 679.527 847.702 679.748 848.095 679.894C848.488 680.041 848.907 680.11 849.327 680.098C849.747 680.086 850.161 679.992 850.544 679.824L875.13 668.988C875.513 668.819 875.859 668.578 876.147 668.278C876.435 667.978 876.659 667.625 876.808 667.24C876.957 666.854 877.027 666.444 877.014 666.032C877.001 665.62 876.905 665.214 876.733 664.838L862.034 632.852C861.685 632.092 861.042 631.499 860.248 631.204C859.454 630.908 858.573 630.933 857.799 631.274L833.213 642.11Z" fill="#66E1FF" fill-opacity="0.2"/>
<path d="M862.611 646.859L842.057 655.918C841.429 656.195 840.714 656.215 840.07 655.975C839.425 655.735 838.904 655.254 838.621 654.638L835.018 646.797C834.735 646.181 834.713 645.48 834.956 644.848C835.2 644.217 835.69 643.707 836.318 643.43L856.873 634.371C857.501 634.095 858.215 634.074 858.86 634.314C859.504 634.554 860.025 635.035 860.308 635.651L863.912 643.492C864.195 644.108 864.217 644.809 863.973 645.441C863.729 646.072 863.239 646.582 862.611 646.859ZM841.332 652.745L860.667 644.224L857.616 637.585L838.281 646.106L841.332 652.745Z" fill="#66E1FF" fill-opacity="0.2"/>
<path d="M846.411 656.842L841.279 659.104C840.739 659.342 840.499 659.964 840.742 660.493L842.034 663.304C842.277 663.833 842.912 664.07 843.451 663.832L848.584 661.57C849.123 661.332 849.364 660.71 849.12 660.181L847.828 657.37C847.585 656.84 846.951 656.604 846.411 656.842Z" fill="#66E1FF" fill-opacity="0.2"/>
<path d="M855.741 652.73L850.609 654.992C850.069 655.229 849.829 655.851 850.072 656.38L851.364 659.192C851.607 659.721 852.242 659.957 852.781 659.72L857.914 657.458C858.453 657.22 858.694 656.598 858.45 656.069L857.159 653.257C856.915 652.728 856.281 652.492 855.741 652.73Z" fill="#66E1FF" fill-opacity="0.2"/>
<path d="M865.078 648.615L859.946 650.877C859.406 651.115 859.166 651.737 859.409 652.266L860.701 655.077C860.944 655.607 861.579 655.843 862.118 655.605L867.251 653.343C867.79 653.105 868.031 652.483 867.787 651.954L866.495 649.143C866.252 648.614 865.618 648.377 865.078 648.615Z" fill="#66E1FF" fill-opacity="0.2"/>
<path d="M849.702 664.003L844.57 666.266C844.03 666.503 843.79 667.125 844.033 667.654L845.325 670.466C845.568 670.995 846.203 671.231 846.742 670.994L851.875 668.731C852.414 668.494 852.655 667.872 852.411 667.343L851.119 664.531C850.876 664.002 850.242 663.766 849.702 664.003Z" fill="#66E1FF" fill-opacity="0.2"/>
<path d="M859.032 659.892L853.9 662.154C853.36 662.391 853.12 663.013 853.363 663.543L854.655 666.354C854.898 666.883 855.533 667.119 856.072 666.882L861.205 664.62C861.744 664.382 861.985 663.76 861.741 663.231L860.45 660.42C860.206 659.89 859.572 659.654 859.032 659.892Z" fill="#66E1FF" fill-opacity="0.2"/>
<path d="M868.369 655.777L863.237 658.039C862.697 658.277 862.457 658.899 862.7 659.428L863.992 662.239C864.235 662.769 864.87 663.005 865.409 662.767L870.542 660.505C871.081 660.267 871.322 659.646 871.078 659.116L869.786 656.305C869.543 655.776 868.909 655.539 868.369 655.777Z" fill="#66E1FF" fill-opacity="0.2"/>
<path d="M852.733 670.596L847.6 672.858C847.06 673.096 846.82 673.718 847.063 674.247L848.355 677.058C848.599 677.588 849.233 677.824 849.773 677.586L854.905 675.324C855.445 675.086 855.685 674.465 855.442 673.935L854.15 671.124C853.907 670.595 853.272 670.358 852.733 670.596Z" fill="#66E1FF" fill-opacity="0.2"/>
<path d="M862.061 666.484L856.928 668.746C856.389 668.984 856.148 669.606 856.392 670.135L857.683 672.946C857.927 673.475 858.561 673.712 859.101 673.474L864.233 671.212C864.773 670.974 865.013 670.352 864.77 669.823L863.478 667.012C863.235 666.483 862.6 666.246 862.061 666.484Z" fill="#66E1FF" fill-opacity="0.2"/>
<path d="M871.398 662.369L866.265 664.632C865.725 664.869 865.485 665.491 865.728 666.02L867.02 668.832C867.264 669.361 867.898 669.597 868.438 669.36L873.57 667.097C874.11 666.86 874.35 666.238 874.107 665.709L872.815 662.897C872.572 662.368 871.937 662.132 871.398 662.369Z" fill="#66E1FF" fill-opacity="0.2"/>
<path d="M873.836 674.196L877.714 682.636C877.921 683.087 877.937 683.601 877.759 684.063C877.58 684.526 877.221 684.899 876.761 685.102L874.879 685.932L870.218 675.79L864.802 678.178L869.462 688.319L861.399 691.873C860.939 692.075 860.415 692.091 859.943 691.915C859.471 691.739 859.09 691.387 858.882 690.935L855.004 682.496L852.044 683.8L855.922 692.24C856.485 693.46 857.518 694.413 858.795 694.888C860.072 695.364 861.488 695.324 862.733 694.777L878.126 687.993C879.369 687.443 880.339 686.432 880.823 685.18C881.306 683.929 881.263 682.54 880.703 681.318L876.825 672.879L873.836 674.196Z" fill="#66E1FF" fill-opacity="0.2"/>
<path d="M874.65 641.994C874.352 641.346 873.576 641.057 872.915 641.348C872.255 641.639 871.961 642.4 872.258 643.048L882.46 665.248C882.758 665.896 883.535 666.185 884.195 665.894C884.855 665.603 885.149 664.842 884.852 664.194L874.65 641.994Z" fill="#66E1FF" fill-opacity="0.2"/>
<path d="M894.559 353.06L876.498 346.897C875.358 346.499 874.424 345.677 873.898 344.608C873.372 343.539 873.297 342.31 873.688 341.186L882.049 317.689C882.45 316.566 883.288 315.644 884.381 315.126C885.473 314.608 886.73 314.536 887.875 314.926L905.936 321.089C907.08 321.481 908.019 322.303 908.546 323.373C909.073 324.444 909.145 325.676 908.746 326.8L900.385 350.297C899.984 351.42 899.145 352.342 898.053 352.86C896.961 353.378 895.704 353.45 894.559 353.06V353.06ZM887.116 317.059C886.547 316.865 885.923 316.901 885.381 317.158C884.838 317.415 884.422 317.873 884.223 318.431L875.862 341.928C875.764 342.204 875.722 342.497 875.739 342.789C875.756 343.081 875.831 343.367 875.961 343.63C876.09 343.893 876.271 344.129 876.494 344.323C876.716 344.518 876.976 344.667 877.257 344.763L895.318 350.927C895.6 351.023 895.898 351.064 896.195 351.047C896.493 351.03 896.785 350.956 897.053 350.828C897.322 350.701 897.562 350.523 897.761 350.304C897.959 350.086 898.112 349.831 898.21 349.555L906.572 326.058C906.77 325.5 906.735 324.888 906.473 324.356C906.211 323.825 905.745 323.417 905.176 323.223L887.116 317.059Z" fill="#66E1FF" fill-opacity="0.2"/>
<path d="M899.893 333.55L884.794 328.397C884.333 328.239 883.954 327.909 883.742 327.477C883.53 327.046 883.501 326.549 883.662 326.096L885.712 320.336C885.873 319.884 886.21 319.512 886.65 319.303C887.091 319.095 887.597 319.066 888.058 319.223L903.157 324.376C903.619 324.534 903.997 324.864 904.21 325.296C904.422 325.727 904.451 326.224 904.29 326.677L902.24 332.437C902.079 332.889 901.741 333.261 901.301 333.47C900.861 333.678 900.354 333.707 899.893 333.55ZM886.001 326.416L900.204 331.263L901.94 326.387L887.737 321.539L886.001 326.416Z" fill="#66E1FF" fill-opacity="0.2"/>
<path d="M886.576 330.952L882.805 329.665C882.409 329.53 881.976 329.735 881.837 330.124L881.103 332.189C880.964 332.578 881.173 333.003 881.57 333.138L885.34 334.425C885.736 334.56 886.17 334.354 886.308 333.966L887.043 331.9C887.181 331.512 886.972 331.087 886.576 330.952Z" fill="#66E1FF" fill-opacity="0.2"/>
<path d="M893.43 333.291L889.659 332.004C889.263 331.869 888.83 332.074 888.691 332.463L887.957 334.528C887.818 334.917 888.027 335.342 888.424 335.477L892.194 336.764C892.59 336.899 893.024 336.694 893.162 336.305L893.897 334.24C894.035 333.851 893.826 333.426 893.43 333.291Z" fill="#66E1FF" fill-opacity="0.2"/>
<path d="M900.288 335.631L896.518 334.345C896.122 334.209 895.688 334.415 895.55 334.804L894.815 336.869C894.677 337.258 894.886 337.683 895.282 337.818L899.052 339.105C899.449 339.24 899.882 339.034 900.02 338.645L900.755 336.58C900.894 336.192 900.685 335.767 900.288 335.631Z" fill="#66E1FF" fill-opacity="0.2"/>
<path d="M884.703 336.212L880.933 334.926C880.537 334.79 880.103 334.996 879.965 335.385L879.23 337.45C879.092 337.839 879.301 338.263 879.697 338.399L883.467 339.685C883.864 339.821 884.297 339.615 884.435 339.226L885.17 337.161C885.309 336.772 885.1 336.348 884.703 336.212Z" fill="#66E1FF" fill-opacity="0.2"/>
<path d="M891.557 338.551L887.787 337.264C887.391 337.129 886.957 337.335 886.819 337.724L886.084 339.789C885.946 340.177 886.155 340.602 886.551 340.738L890.321 342.024C890.718 342.16 891.151 341.954 891.289 341.565L892.024 339.5C892.163 339.111 891.954 338.686 891.557 338.551Z" fill="#66E1FF" fill-opacity="0.2"/>
<path d="M898.416 340.892L894.646 339.606C894.249 339.47 893.816 339.676 893.678 340.065L892.943 342.13C892.804 342.519 893.014 342.944 893.41 343.079L897.18 344.366C897.577 344.501 898.01 344.295 898.148 343.906L898.883 341.841C899.022 341.453 898.812 341.028 898.416 340.892Z" fill="#66E1FF" fill-opacity="0.2"/>
<path d="M882.981 341.055L879.21 339.769C878.814 339.633 878.381 339.839 878.242 340.228L877.507 342.293C877.369 342.682 877.578 343.106 877.974 343.242L881.745 344.528C882.141 344.664 882.574 344.458 882.713 344.069L883.448 342.004C883.586 341.615 883.377 341.191 882.981 341.055Z" fill="#66E1FF" fill-opacity="0.2"/>
<path d="M889.835 343.394L886.064 342.108C885.668 341.972 885.235 342.178 885.096 342.567L884.361 344.632C884.223 345.021 884.432 345.446 884.828 345.581L888.599 346.868C888.995 347.003 889.428 346.797 889.567 346.408L890.302 344.343C890.44 343.954 890.231 343.53 889.835 343.394Z" fill="#66E1FF" fill-opacity="0.2"/>
<path d="M896.692 345.735L892.922 344.449C892.525 344.313 892.092 344.519 891.954 344.908L891.219 346.973C891.08 347.362 891.289 347.787 891.686 347.922L895.456 349.209C895.852 349.344 896.286 349.138 896.424 348.749L897.159 346.684C897.297 346.296 897.088 345.871 896.692 345.735Z" fill="#66E1FF" fill-opacity="0.2"/>
<path d="M892.057 352.991L889.851 359.191C889.733 359.523 889.485 359.795 889.163 359.948C888.84 360.101 888.47 360.122 888.132 360.006L886.749 359.534L889.4 352.085L885.42 350.727L882.77 358.176L876.846 356.155C876.509 356.04 876.231 355.797 876.076 355.481C875.92 355.165 875.899 354.802 876.017 354.47L878.223 348.27L876.049 347.528L873.843 353.728C873.525 354.625 873.582 355.609 874.003 356.464C874.424 357.319 875.173 357.975 876.087 358.288L887.394 362.147C888.309 362.458 889.312 362.4 890.185 361.987C891.057 361.573 891.726 360.837 892.047 359.94L894.253 353.741L892.057 352.991Z" fill="#66E1FF" fill-opacity="0.2"/>
<path d="M908.516 336.794C908.686 336.318 908.43 335.798 907.944 335.632C907.459 335.466 906.929 335.718 906.759 336.194L900.956 352.502C900.787 352.978 901.043 353.498 901.528 353.663C902.013 353.829 902.544 353.577 902.713 353.101L908.516 336.794Z" fill="#66E1FF" fill-opacity="0.2"/>
<path d="M488.746 238.257L474.021 244.747C473.086 245.151 472.026 245.178 471.07 244.822C470.114 244.466 469.339 243.755 468.912 242.844L460.108 223.686C459.688 222.769 459.656 221.727 460.018 220.789C460.381 219.85 461.108 219.092 462.041 218.679L476.767 212.189C477.701 211.779 478.764 211.749 479.721 212.105C480.679 212.462 481.454 213.177 481.876 214.092L490.68 233.25C491.1 234.167 491.132 235.209 490.77 236.147C490.407 237.086 489.679 237.844 488.746 238.257V238.257ZM462.841 220.419C462.377 220.623 462.016 221 461.836 221.466C461.656 221.932 461.672 222.449 461.881 222.904L470.685 242.063C470.788 242.288 470.936 242.491 471.12 242.66C471.303 242.83 471.519 242.962 471.754 243.05C471.99 243.137 472.241 243.179 472.492 243.171C472.744 243.164 472.992 243.108 473.221 243.007L487.947 236.517C488.177 236.416 488.383 236.272 488.556 236.092C488.728 235.912 488.863 235.701 488.952 235.47C489.041 235.239 489.083 234.994 489.075 234.747C489.068 234.5 489.01 234.257 488.907 234.032L480.103 214.873C479.894 214.419 479.509 214.063 479.034 213.886C478.558 213.709 478.03 213.724 477.567 213.929L462.841 220.419Z" fill="#66E1FF" fill-opacity="0.2"/>
<path d="M480.449 223.263L468.138 228.689C467.762 228.855 467.333 228.867 466.948 228.723C466.562 228.58 466.25 228.292 466.08 227.923L463.922 223.226C463.752 222.857 463.739 222.437 463.885 222.059C464.031 221.681 464.324 221.375 464.701 221.209L477.012 215.784C477.388 215.618 477.816 215.605 478.202 215.749C478.588 215.893 478.9 216.181 479.069 216.55L481.228 221.247C481.397 221.616 481.41 222.036 481.264 222.414C481.118 222.792 480.825 223.098 480.449 223.263ZM467.704 226.789L479.284 221.685L477.457 217.708L465.876 222.812L467.704 226.789Z" fill="#66E1FF" fill-opacity="0.2"/>
<path d="M470.746 229.243L467.672 230.597C467.349 230.74 467.205 231.112 467.351 231.429L468.124 233.113C468.27 233.43 468.65 233.572 468.973 233.429L472.048 232.074C472.371 231.932 472.514 231.559 472.369 231.242L471.595 229.559C471.449 229.242 471.069 229.1 470.746 229.243Z" fill="#66E1FF" fill-opacity="0.2"/>
<path d="M476.332 226.78L473.258 228.135C472.935 228.277 472.791 228.65 472.937 228.967L473.71 230.65C473.856 230.967 474.236 231.109 474.559 230.967L477.633 229.612C477.957 229.469 478.1 229.097 477.955 228.78L477.181 227.096C477.035 226.779 476.655 226.637 476.332 226.78Z" fill="#66E1FF" fill-opacity="0.2"/>
<path d="M481.925 224.315L478.851 225.67C478.528 225.812 478.384 226.185 478.529 226.502L479.303 228.186C479.449 228.503 479.829 228.644 480.152 228.502L483.226 227.147C483.549 227.004 483.693 226.632 483.548 226.315L482.774 224.631C482.628 224.314 482.248 224.173 481.925 224.315Z" fill="#66E1FF" fill-opacity="0.2"/>
<path d="M472.716 233.533L469.642 234.887C469.319 235.03 469.175 235.402 469.32 235.719L470.094 237.403C470.24 237.72 470.62 237.862 470.943 237.719L474.017 236.364C474.34 236.222 474.484 235.85 474.339 235.533L473.565 233.849C473.419 233.532 473.039 233.39 472.716 233.533Z" fill="#66E1FF" fill-opacity="0.2"/>
<path d="M478.305 231.069L475.231 232.424C474.907 232.567 474.764 232.939 474.909 233.256L475.683 234.94C475.829 235.257 476.209 235.399 476.532 235.256L479.606 233.901C479.929 233.759 480.073 233.386 479.927 233.069L479.154 231.386C479.008 231.069 478.628 230.927 478.305 231.069Z" fill="#66E1FF" fill-opacity="0.2"/>
<path d="M483.897 228.605L480.822 229.96C480.499 230.102 480.355 230.475 480.501 230.792L481.275 232.476C481.421 232.793 481.801 232.934 482.124 232.792L485.198 231.437C485.521 231.294 485.665 230.922 485.519 230.605L484.745 228.921C484.6 228.604 484.22 228.463 483.897 228.605Z" fill="#66E1FF" fill-opacity="0.2"/>
<path d="M474.53 237.481L471.456 238.836C471.133 238.978 470.989 239.351 471.135 239.668L471.909 241.352C472.054 241.669 472.434 241.81 472.757 241.668L475.832 240.313C476.155 240.17 476.299 239.798 476.153 239.481L475.379 237.797C475.234 237.48 474.853 237.339 474.53 237.481Z" fill="#66E1FF" fill-opacity="0.2"/>
<path d="M480.118 235.018L477.044 236.373C476.721 236.515 476.577 236.888 476.723 237.205L477.497 238.888C477.642 239.205 478.022 239.347 478.345 239.205L481.42 237.85C481.743 237.707 481.887 237.335 481.741 237.018L480.967 235.334C480.821 235.017 480.441 234.875 480.118 235.018Z" fill="#66E1FF" fill-opacity="0.2"/>
<path d="M485.711 232.554L482.637 233.909C482.314 234.051 482.17 234.424 482.316 234.741L483.089 236.425C483.235 236.742 483.615 236.883 483.938 236.741L487.012 235.386C487.335 235.243 487.479 234.871 487.334 234.554L486.56 232.87C486.414 232.553 486.034 232.412 485.711 232.554Z" fill="#66E1FF" fill-opacity="0.2"/>
<path d="M487.17 239.638L489.493 244.693C489.617 244.963 489.627 245.271 489.52 245.548C489.413 245.825 489.198 246.048 488.923 246.17L487.795 246.667L485.004 240.593L481.759 242.023L484.551 248.097L479.721 250.225C479.446 250.347 479.132 250.356 478.849 250.25C478.567 250.145 478.338 249.934 478.214 249.664L475.891 244.609L474.118 245.39L476.441 250.445C476.778 251.176 477.397 251.746 478.162 252.031C478.926 252.316 479.775 252.292 480.521 251.965L489.74 247.901C490.485 247.572 491.066 246.966 491.355 246.217C491.645 245.467 491.619 244.635 491.284 243.903L488.961 238.849L487.17 239.638Z" fill="#66E1FF" fill-opacity="0.2"/>
<path d="M487.658 220.349C487.479 219.961 487.014 219.788 486.619 219.962C486.223 220.137 486.047 220.593 486.225 220.981L492.336 234.277C492.514 234.665 492.979 234.839 493.375 234.664C493.77 234.49 493.946 234.034 493.768 233.646L487.658 220.349Z" fill="#66E1FF" fill-opacity="0.2"/>
<path d="M271.617 122.8L240.069 115.462C238.32 115.055 236.575 116.072 236.166 117.731L230.74 139.767C230.332 141.426 231.414 143.101 233.163 143.507L264.711 150.845C266.46 151.252 268.205 150.235 268.614 148.576L274.04 126.541C274.448 124.882 273.366 123.207 271.617 122.8ZM239.724 118.559L270.482 125.713C270.699 125.764 270.835 125.974 270.784 126.181L270.137 128.81L238.589 121.472L239.237 118.843C239.287 118.636 239.507 118.508 239.724 118.559ZM265.056 147.749L234.298 140.594C234.081 140.544 233.945 140.334 233.995 140.127L236.616 129.485L268.164 136.823L265.543 147.465C265.492 147.672 265.273 147.799 265.056 147.749ZM244.906 136.443L244.29 138.947C244.188 139.36 243.75 139.616 243.316 139.515L238.581 138.414C238.148 138.313 237.876 137.892 237.977 137.479L238.594 134.975C238.696 134.562 239.134 134.306 239.568 134.407L244.302 135.509C244.736 135.609 245.008 136.03 244.906 136.443ZM257.531 139.38L256.914 141.884C256.812 142.297 256.374 142.552 255.94 142.451L246.998 140.371C246.564 140.271 246.292 139.85 246.394 139.437L247.01 136.933C247.112 136.52 247.55 136.264 247.984 136.365L256.927 138.445C257.361 138.546 257.632 138.967 257.531 139.38Z" fill="#66E1FF" fill-opacity="0.2"/>
<path d="M288.004 127.607C287.707 117.362 279.277 109.173 268.74 108.884C268.344 108.873 268.014 109.186 268.011 109.572L267.997 111.621C267.994 111.989 268.292 112.287 268.67 112.299C277.311 112.576 284.206 119.275 284.491 127.675C284.503 128.042 284.81 128.332 285.188 128.329L287.297 128.315C287.693 128.313 288.015 127.992 288.004 127.607ZM281.023 127.719C280.683 121.196 275.328 115.999 268.625 115.669C268.223 115.649 267.885 115.964 267.884 116.355L267.875 118.412C267.873 118.77 268.156 119.069 268.524 119.091C273.36 119.383 277.203 123.127 277.501 127.816C277.524 128.174 277.832 128.449 278.201 128.447L280.316 128.439C280.719 128.437 281.043 128.109 281.023 127.719Z" fill="#66E1FF" fill-opacity="0.2"/>
<path d="M326.617 613.8L295.069 606.462C293.32 606.055 291.575 607.072 291.166 608.731L285.74 630.767C285.332 632.426 286.414 634.101 288.163 634.507L319.711 641.845C321.46 642.252 323.205 641.235 323.614 639.576L329.04 617.541C329.448 615.882 328.366 614.207 326.617 613.8ZM294.724 609.559L325.482 616.713C325.699 616.764 325.835 616.974 325.784 617.181L325.137 619.81L293.589 612.472L294.237 609.843C294.287 609.636 294.507 609.508 294.724 609.559ZM320.056 638.749L289.298 631.594C289.081 631.544 288.945 631.334 288.995 631.127L291.616 620.485L323.164 627.823L320.543 638.465C320.492 638.672 320.273 638.799 320.056 638.749ZM299.906 627.443L299.29 629.947C299.188 630.36 298.75 630.616 298.316 630.515L293.581 629.414C293.148 629.313 292.876 628.892 292.977 628.479L293.594 625.975C293.696 625.562 294.134 625.306 294.568 625.407L299.302 626.509C299.736 626.609 300.008 627.03 299.906 627.443ZM312.531 630.38L311.914 632.884C311.812 633.297 311.374 633.552 310.94 633.451L301.998 631.371C301.564 631.271 301.292 630.85 301.394 630.437L302.01 627.933C302.112 627.52 302.55 627.264 302.984 627.365L311.927 629.445C312.361 629.546 312.632 629.967 312.531 630.38Z" fill="#66E1FF" fill-opacity="0.2"/>
<path d="M343.004 618.607C342.707 608.362 334.277 600.173 323.74 599.884C323.344 599.873 323.014 600.186 323.011 600.572L322.997 602.621C322.994 602.989 323.292 603.287 323.67 603.299C332.311 603.576 339.206 610.275 339.491 618.675C339.503 619.042 339.81 619.332 340.188 619.329L342.297 619.315C342.693 619.313 343.015 618.992 343.004 618.607ZM336.023 618.719C335.683 612.196 330.328 606.999 323.625 606.669C323.223 606.649 322.885 606.964 322.884 607.355L322.875 609.412C322.873 609.77 323.156 610.069 323.524 610.091C328.36 610.383 332.203 614.127 332.501 618.816C332.524 619.174 332.832 619.449 333.201 619.447L335.316 619.439C335.719 619.437 336.043 619.109 336.023 618.719Z" fill="#66E1FF" fill-opacity="0.2"/>
<path d="M439.513 353.452L415.22 347.759C413.874 347.443 412.53 348.232 412.215 349.519L408.037 366.616C407.723 367.903 408.556 369.203 409.903 369.518L434.195 375.212C435.542 375.527 436.886 374.738 437.2 373.451L441.378 356.354C441.693 355.067 440.859 353.768 439.513 353.452ZM414.954 350.161L438.639 355.712C438.806 355.751 438.911 355.915 438.872 356.075L438.373 358.115L414.081 352.421L414.579 350.382C414.619 350.221 414.787 350.122 414.954 350.161ZM434.461 372.809L410.776 367.258C410.609 367.219 410.505 367.056 410.544 366.895L412.562 358.638L436.854 364.332L434.836 372.589C434.797 372.749 434.628 372.848 434.461 372.809ZM418.945 364.037L418.47 365.98C418.392 366.301 418.055 366.499 417.72 366.421L414.075 365.566C413.741 365.488 413.532 365.162 413.61 364.841L414.085 362.898C414.163 362.578 414.501 362.379 414.835 362.458L418.48 363.312C418.814 363.39 419.024 363.717 418.945 364.037ZM428.666 366.316L428.191 368.258C428.113 368.579 427.776 368.777 427.441 368.699L420.556 367.085C420.222 367.007 420.012 366.68 420.091 366.36L420.565 364.417C420.644 364.097 420.981 363.898 421.315 363.977L428.201 365.59C428.535 365.669 428.744 365.995 428.666 366.316Z" fill="#66E1FF" fill-opacity="0.2"/>
<path d="M452.131 357.182C451.902 349.233 445.411 342.879 437.297 342.655C436.992 342.647 436.738 342.889 436.736 343.188L436.725 344.779C436.723 345.064 436.952 345.295 437.243 345.304C443.897 345.519 449.206 350.717 449.426 357.235C449.435 357.52 449.671 357.744 449.962 357.742L451.586 357.731C451.892 357.729 452.139 357.48 452.131 357.182ZM446.755 357.268C446.494 352.208 442.371 348.175 437.209 347.919C436.899 347.904 436.639 348.149 436.638 348.452L436.631 350.047C436.63 350.325 436.848 350.557 437.131 350.575C440.855 350.801 443.814 353.706 444.044 357.344C444.061 357.621 444.298 357.835 444.582 357.834L446.211 357.827C446.521 357.826 446.771 357.571 446.755 357.268Z" fill="#66E1FF" fill-opacity="0.2"/>
<path d="M474.637 470.362L451.363 488.11C450.072 489.094 449.825 490.889 450.805 492.123L463.829 508.503C464.81 509.736 466.648 509.942 467.939 508.958L491.213 491.21C492.503 490.226 492.751 488.431 491.77 487.197L478.746 470.817C477.766 469.584 475.927 469.378 474.637 470.362ZM453.43 490.122L476.122 472.818C476.282 472.696 476.513 472.722 476.635 472.875L478.189 474.83L454.915 492.577L453.361 490.623C453.238 490.469 453.27 490.244 453.43 490.122ZM489.146 489.198L466.454 506.502C466.294 506.624 466.063 506.598 465.941 506.445L459.651 498.534L482.925 480.786L489.215 488.697C489.337 488.851 489.306 489.076 489.146 489.198ZM469.443 496.748L470.923 498.609C471.167 498.916 471.105 499.367 470.785 499.611L467.292 502.275C466.972 502.519 466.51 502.467 466.266 502.16L464.786 500.299C464.542 499.992 464.604 499.54 464.924 499.296L468.417 496.633C468.737 496.389 469.199 496.441 469.443 496.748ZM478.757 489.646L480.237 491.507C480.481 491.814 480.419 492.265 480.099 492.509L473.501 497.54C473.181 497.784 472.719 497.733 472.475 497.425L470.995 495.564C470.751 495.257 470.813 494.806 471.133 494.562L477.731 489.531C478.051 489.287 478.513 489.339 478.757 489.646Z" fill="#66E1FF" fill-opacity="0.2"/>
<path d="M487.454 461.713C479.798 456.059 469.027 457.238 462.833 464.402C462.6 464.672 462.642 465.08 462.922 465.303L464.412 466.485C464.679 466.698 465.066 466.661 465.289 466.405C470.398 460.552 479.208 459.589 485.51 464.196C485.785 464.397 486.171 464.35 486.384 464.085L487.571 462.61C487.794 462.333 487.742 461.925 487.454 461.713ZM483.572 466.633C478.613 463.138 471.774 463.889 467.727 468.364C467.484 468.632 467.523 469.047 467.808 469.272L469.306 470.455C469.566 470.661 469.946 470.635 470.171 470.392C473.129 467.195 478.048 466.664 481.644 469.139C481.919 469.327 482.294 469.271 482.503 469.013L483.697 467.536C483.925 467.256 483.869 466.842 483.572 466.633Z" fill="#66E1FF" fill-opacity="0.2"/>
<path d="M16.3833 322.966L-18.3837 314.818C-20.3112 314.366 -22.2344 315.495 -22.6846 317.337L-28.6642 341.806C-29.1144 343.648 -27.9217 345.508 -25.9942 345.96L8.77276 354.108C10.7002 354.56 12.6234 353.431 13.0736 351.588L19.0532 327.119C19.5034 325.277 18.3107 323.418 16.3833 322.966ZM-18.7644 318.256L15.1331 326.201C15.3722 326.257 15.522 326.49 15.4659 326.72L14.7524 329.639L-20.0146 321.491L-19.3011 318.571C-19.245 318.342 -19.0035 318.2 -18.7644 318.256ZM9.1534 350.67L-24.7441 342.725C-24.9832 342.669 -25.133 342.435 -25.0769 342.206L-22.189 330.389L12.578 338.537L9.6901 350.354C9.63404 350.584 9.39253 350.726 9.1534 350.67ZM-13.0529 338.116L-13.7324 340.896C-13.8445 341.355 -14.3275 341.639 -14.8058 341.527L-20.023 340.304C-20.5012 340.192 -20.8008 339.725 -20.6887 339.266L-20.0092 336.485C-19.897 336.026 -19.414 335.743 -18.9358 335.855L-13.7185 337.078C-13.2403 337.19 -12.9407 337.657 -13.0529 338.116ZM0.859741 341.376L0.180232 344.157C0.0681131 344.616 -0.414912 344.899 -0.893158 344.787L-10.7479 342.478C-11.2262 342.365 -11.5257 341.898 -11.4136 341.44L-10.7341 338.659C-10.622 338.2 -10.1389 337.917 -9.6607 338.029L0.194056 340.338C0.672302 340.45 0.97186 340.918 0.859741 341.376Z" fill="#66E1FF" fill-opacity="0.2"/>
<path d="M997.188 51.3982L1003.6 21.6298C1003.94 20.4005 1004.93 19.4419 1006.18 19.106L1036.61 12.9538C1037.68 12.5991 1038.85 13.1212 1039.22 14.1919C1039.38 14.6202 1039.38 15.088 1039.21 15.5175L1038.35 19.497C1022.93 16.1608 1007.54 25.709 1003.94 40.8285C1002.99 44.8864 1002.94 49.0774 1003.84 53.1481L999.755 54.001C998.658 54.3363 997.508 53.7556 997.158 52.7043C997.042 52.2759 997.045 51.8081 997.188 51.3982ZM1016.73 32.0694C1011.47 37.2343 1009.22 44.6495 1010.82 51.7195L1017.82 50.3104C1015.97 42.793 1020.72 35.1738 1028.4 33.2944C1030.68 32.7405 1033.03 32.732 1035.29 33.2696L1036.76 26.4225C1029.57 24.7721 1021.98 26.9045 1016.73 32.0694ZM1026.76 41.9354C1024.92 43.7744 1024.2 46.4084 1024.88 48.8815L1029.56 47.9095C1030.42 47.848 1031.2 47.4748 1031.8 46.8879C1032.4 46.3009 1032.78 45.5004 1032.85 44.7009L1033.86 40.1166C1031.34 39.4045 1028.63 40.1159 1026.76 41.9354Z" fill="#66E1FF" fill-opacity="0.2"/>
<path d="M913.926 489.113L939.619 486.475C940.701 486.431 941.727 486.948 942.319 487.836L955.062 509.842C955.624 510.587 955.501 511.627 954.73 512.187C954.424 512.417 954.045 512.534 953.656 512.518L950.219 512.862C948.976 500.059 937.331 490.577 924.192 491.646C920.671 491.948 917.271 492.978 914.212 494.717L912.479 491.768C911.928 491.003 912.103 489.963 912.863 489.424C913.18 489.224 913.559 489.108 913.926 489.113ZM934.537 499.32C929.021 496.566 922.454 496.718 917.149 499.76L920.075 504.824C925.677 501.469 933.049 503.21 936.53 508.681C937.558 510.301 938.165 512.119 938.309 514.012L944.217 513.4C943.713 507.405 940.054 502.074 934.537 499.32ZM929.128 509.616C927.17 508.655 924.858 508.772 923.033 509.928L925.015 513.311C925.283 513.959 925.784 514.468 926.412 514.784C927.04 515.101 927.785 515.194 928.448 515.041L932.411 514.654C932.342 512.518 931.074 510.597 929.128 509.616Z" fill="#66E1FF" fill-opacity="0.2"/>
<path d="M778.235 210.568L793.922 200.509C794.605 200.128 795.443 200.128 796.126 200.509L811.813 210.568C812.428 210.866 812.701 211.578 812.394 212.19C812.274 212.438 812.069 212.637 811.813 212.753L809.711 214.093C804.567 206.234 793.836 203.901 785.72 208.864C783.55 210.204 781.704 211.975 780.32 214.093L778.201 212.753C777.586 212.438 777.347 211.71 777.654 211.114C777.791 210.883 777.996 210.684 778.235 210.568ZM794.998 210.453C790.504 210.469 786.318 212.703 783.926 216.393L787.531 218.709C790.009 214.721 795.357 213.447 799.458 215.847C800.671 216.558 801.68 217.534 802.414 218.709L806.02 216.393C803.662 212.686 799.492 210.436 794.998 210.453ZM794.998 218.858C793.409 218.874 791.957 219.702 791.171 221.042L793.597 222.581C793.99 222.911 794.486 223.077 794.998 223.077C795.511 223.077 796.024 222.895 796.399 222.581L798.826 221.042C798.057 219.685 796.587 218.858 794.998 218.858Z" fill="#66E1FF" fill-opacity="0.2"/>
<path d="M225.424 499.609L236.438 484.743C236.939 484.149 237.721 483.858 238.499 483.976L256.816 487.917C257.5 487.981 258.013 488.551 257.948 489.231C257.926 489.504 257.807 489.761 257.609 489.959L256.131 491.944C248.469 486.388 237.589 487.944 231.803 495.41C230.26 497.419 229.178 499.716 228.652 502.178L226.185 501.663C225.496 501.583 225.008 500.986 225.079 500.322C225.123 500.058 225.242 499.801 225.424 499.609ZM241.054 493.664C236.858 495.244 233.755 498.79 232.858 503.072L237.07 503.982C237.939 499.392 242.477 496.339 247.182 497.153C248.575 497.396 249.871 497.957 250.985 498.8L253.515 495.379C249.965 492.735 245.25 492.084 241.054 493.664ZM244.105 501.521C242.626 502.09 241.568 503.369 241.32 504.896L244.147 505.489C244.635 505.662 245.158 505.644 245.637 505.465C246.116 505.287 246.53 504.938 246.767 504.513L248.477 502.23C247.265 501.229 245.591 500.968 244.105 501.521Z" fill="#66E1FF" fill-opacity="0.2"/>
<path d="M1311.77 118.267L1312.05 118.205C1312.28 118.29 1312.5 118.363 1312.74 118.423C1318.56 119.644 1324.39 120.858 1330.22 122.066C1330.87 122.2 1331.45 122.352 1331.67 123.053C1331.67 123.067 1331.75 123.061 1331.81 123.064C1331.84 122.877 1331.86 122.688 1331.87 122.498C1331.84 122.053 1332.01 121.812 1332.47 121.676C1333.25 121.448 1334 121.137 1334.76 120.862C1336.94 120.067 1339.13 119.272 1341.32 118.475C1343.9 117.539 1346.48 116.605 1349.06 115.674C1349.58 115.486 1350.1 115.315 1350.63 115.137C1350.66 115.204 1350.68 115.276 1350.7 115.349C1350.53 116.706 1350.37 118.052 1350.21 119.406C1350.17 119.721 1349.97 119.833 1349.69 119.929C1348.56 120.322 1347.43 120.724 1346.3 121.129C1342.2 122.604 1338.09 124.079 1333.99 125.555C1333.71 125.655 1333.41 125.724 1333.25 126.056L1350.19 119.981C1350.98 122.028 1351.74 123.99 1352.49 125.951C1353.25 127.911 1354 129.888 1354.75 131.856C1355.51 133.824 1356.3 135.754 1356.99 137.787L1338.45 144.538C1336.74 140.088 1335.06 135.716 1333.32 131.197C1333.23 131.511 1333.17 131.661 1333.14 131.813C1332.14 136.615 1331.14 141.418 1330.14 146.221C1330.11 146.359 1330.11 146.503 1330.1 146.644L1329.81 146.707C1329.57 146.647 1329.34 146.576 1329.1 146.529C1323.75 145.448 1318.39 144.369 1313.04 143.293C1312.39 143.163 1311.74 143.038 1311.06 142.903C1310.96 144.226 1311.16 145.51 1311 146.795C1310 144.421 1309.05 142.041 1308.11 139.662C1307.1 137.123 1306.11 134.58 1305.09 132.051C1304.54 130.715 1304.02 129.389 1304.13 127.908C1304.17 127.46 1304.12 127.002 1304.11 126.549C1304.08 125.528 1304.06 124.506 1304.04 123.484L1304.17 123.455C1305.61 127.098 1307.04 130.741 1308.53 134.518C1309.58 129.147 1310.52 123.894 1311.57 118.558C1311.65 118.646 1311.72 118.738 1311.79 118.835C1312.71 120.412 1313.61 121.994 1314.55 123.562C1314.7 123.822 1314.67 124.062 1314.61 124.316C1314.39 125.393 1314.16 126.472 1313.94 127.549C1312.99 132.07 1312.05 136.591 1311.1 141.11C1311.06 141.297 1311.03 141.485 1311.01 141.675C1311 141.856 1311.01 142.04 1311.01 142.222L1311.1 142.225L1314.91 123.982C1315.43 124.079 1315.88 124.157 1316.33 124.249C1321.92 125.366 1327.52 126.484 1333.12 127.601C1333.32 127.642 1333.54 127.753 1333.86 127.605C1333.61 127.539 1333.47 127.496 1333.33 127.468C1330.64 126.919 1327.96 126.374 1325.27 125.83C1322.03 125.175 1318.79 124.524 1315.54 123.876C1315.18 123.807 1314.87 123.728 1314.66 123.347C1313.72 121.629 1312.74 119.952 1311.77 118.267ZM1323.83 143.511C1324.57 143.191 1325.34 142.935 1326.03 142.541C1329.64 140.48 1331.26 135.776 1329.78 131.806C1327.81 126.563 1321.45 125.377 1317.52 128.702C1314.45 131.3 1313.91 136.034 1314.98 138.705C1316.39 142.197 1320.02 144.225 1323.83 143.511ZM1347.45 132.609C1347.55 132.773 1347.64 132.943 1347.72 133.117C1348.24 134.408 1348.73 135.707 1349.26 136.992C1349.42 137.438 1349.66 137.858 1349.94 138.242C1350.37 138.78 1350.98 138.812 1351.62 138.599C1352.26 138.385 1352.62 137.985 1352.64 137.339C1352.65 137.006 1352.6 136.675 1352.5 136.358C1352.28 135.7 1352 135.062 1351.75 134.414C1350.59 131.425 1349.42 128.436 1348.25 125.447C1348.01 124.795 1347.73 124.16 1347.4 123.548C1347.01 122.87 1346.34 122.662 1345.64 122.881C1344.91 123.112 1344.48 123.64 1344.49 124.377C1344.5 124.663 1344.55 124.947 1344.66 125.216C1345.06 126.293 1345.49 127.358 1345.9 128.432C1346.09 128.934 1346.26 129.445 1346.44 129.939C1344.51 130.817 1341.53 131.858 1340.96 131.858C1340.59 130.887 1340.22 129.902 1339.83 128.924C1339.54 128.192 1339.28 127.439 1338.9 126.751C1338.49 126.005 1337.76 125.797 1337.01 126.081C1336.22 126.382 1335.85 127.031 1336 127.856C1336.04 128.092 1336.11 128.324 1336.19 128.55C1336.55 129.488 1336.92 130.426 1337.28 131.364C1338.45 134.352 1339.61 137.343 1340.79 140.328C1340.92 140.686 1341.11 141.024 1341.33 141.334C1341.48 141.542 1341.69 141.702 1341.93 141.795C1342.17 141.889 1342.44 141.911 1342.69 141.86C1343.88 141.682 1344.42 140.778 1344 139.631C1343.76 138.949 1343.47 138.297 1343.21 137.628C1342.83 136.654 1342.45 135.679 1342.04 134.63L1347.45 132.609Z" fill="#66E1FF" fill-opacity="0.2"/>
<path d="M1285.3 136.923C1286.22 136.602 1287.15 136.295 1288.07 135.953C1290.7 134.969 1293.33 133.971 1295.97 132.977L1303.93 129.968C1304.04 130.11 1304.14 130.263 1304.22 130.424C1305.44 133.496 1306.64 136.572 1307.86 139.644C1308.84 142.138 1309.84 144.627 1310.83 147.12C1310.87 147.229 1310.9 147.343 1310.96 147.544C1304.82 149.902 1298.68 152.241 1292.48 154.591C1292.12 153.71 1291.77 152.901 1291.43 152.086C1290 148.587 1288.57 145.086 1287.14 141.584C1286.65 140.386 1286.16 139.187 1285.67 137.991C1285.61 137.864 1285.54 137.742 1285.46 137.624L1285.3 136.923ZM1297.91 136.811C1298.13 137.332 1298.14 137.917 1297.93 138.446C1297.7 139.075 1297.42 139.687 1297.14 140.298C1296.49 141.717 1295.79 143.119 1295.18 144.554C1294.75 145.598 1294.51 146.713 1294.5 147.84C1294.48 148.863 1294.67 149.84 1295.24 150.717C1295.63 151.323 1296.01 151.482 1296.74 151.334C1297.15 151.255 1297.55 151.145 1297.94 151.003C1299.84 150.274 1301.73 149.545 1303.61 148.778C1304.27 148.513 1304.89 148.184 1305.48 147.795C1305.72 147.642 1305.9 147.412 1305.99 147.144C1306.07 146.875 1306.06 146.587 1305.94 146.33C1305.71 145.719 1305.28 145.391 1304.6 145.41C1304.21 145.413 1303.82 145.476 1303.45 145.597C1302.28 146.016 1301.12 146.481 1299.95 146.93C1299.26 147.198 1298.56 147.471 1297.76 147.783C1297.77 147.462 1297.8 147.142 1297.85 146.825C1297.96 146.312 1298.11 145.807 1298.31 145.315C1298.77 144.207 1299.3 143.126 1299.76 142.017C1300.2 140.956 1300.68 139.897 1301 138.8C1301.46 137.229 1301.23 135.663 1300.53 134.19C1300.12 133.306 1299.6 133.096 1298.62 133.345C1298.48 133.38 1298.34 133.424 1298.2 133.476C1296.1 134.303 1294 135.118 1291.92 135.967C1291.54 136.13 1291.18 136.345 1290.87 136.608C1290.37 137.01 1290.32 137.537 1290.54 138.108C1290.76 138.679 1291.18 138.973 1291.77 138.955C1292.21 138.938 1292.65 138.853 1293.06 138.702C1293.98 138.372 1294.88 137.984 1295.79 137.626C1296.47 137.359 1297.15 137.101 1297.91 136.811Z" fill="#66E1FF" fill-opacity="0.2"/>
<path d="M1285.14 136.223C1285.15 135.395 1285.17 134.566 1285.17 133.738C1285.16 132.524 1285.13 131.31 1285.11 130.039L1303.77 122.857C1303.8 123.545 1303.83 124.107 1303.84 124.667C1303.89 126.169 1303.92 127.672 1303.96 129.176C1303.97 129.698 1303.95 129.736 1303.46 129.917C1299.41 131.441 1295.36 132.964 1291.31 134.488C1289.29 135.248 1287.28 136.018 1285.27 136.783L1285.14 136.223Z" fill="#66E1FF" fill-opacity="0.2"/>
<path d="M1381.01 132.542L1378.8 135.788C1378.7 135.514 1378.63 135.358 1378.59 135.188C1377.13 128.71 1375.67 122.232 1374.2 115.753C1374.15 115.57 1374.14 115.379 1374.17 115.193C1374.2 115.006 1374.27 114.826 1374.37 114.666C1375.02 113.626 1375.64 112.57 1376.27 111.521L1381.01 132.542Z" fill="#66E1FF" fill-opacity="0.2"/>
<path d="M1358.62 140.306L1357.55 135.569L1357.4 135.574L1357.18 137.133C1357.03 136.964 1356.92 136.886 1356.88 136.781C1355.74 133.808 1354.61 130.831 1353.47 127.858C1352.56 125.488 1351.64 123.121 1350.72 120.757C1350.46 120.164 1350.38 119.513 1350.48 118.876C1350.67 117.772 1350.77 116.654 1350.98 115.535C1351.89 117.688 1352.65 119.89 1353.45 122.078C1354.25 124.266 1355.05 126.434 1355.95 128.592L1353.97 119.819C1354.53 119.525 1372.84 115.518 1373.8 115.454C1374.09 115.98 1378.46 135.325 1378.44 136.027L1358.62 140.306ZM1358.32 129.79C1359.05 133.511 1362.59 136.589 1366.87 136.104C1369.62 135.793 1371.76 134.532 1373.08 132.146C1374.59 129.442 1374.46 126.661 1372.98 124.048C1369.86 118.572 1362.94 118.982 1359.85 122.787C1358.18 124.851 1357.7 127.189 1358.32 129.787L1358.32 129.79Z" fill="#66E1FF" fill-opacity="0.2"/>
<path d="M1354.11 119.408C1354.17 119.234 1354.24 119.064 1354.32 118.899C1354.91 117.905 1355.51 116.918 1356.09 115.918C1356.17 115.783 1356.27 115.666 1356.4 115.576C1356.53 115.487 1356.68 115.428 1356.83 115.403C1363.07 114.062 1369.31 112.714 1375.54 111.358C1375.67 111.329 1375.81 111.329 1376.07 111.304C1375.8 111.758 1375.59 112.127 1375.37 112.496C1374.96 113.205 1374.53 113.905 1374.15 114.628C1374.07 114.798 1373.94 114.945 1373.79 115.057C1373.63 115.169 1373.45 115.242 1373.26 115.27C1371.24 115.689 1369.22 116.135 1367.21 116.571L1354.1 119.406L1354.11 119.408Z" fill="#66E1FF" fill-opacity="0.2"/>
<path d="M1317.96 137.063C1317.74 135.295 1318.02 133.313 1319.24 131.541C1320.78 129.298 1323.36 129.486 1324.9 130.381C1326.12 131.082 1326.68 132.211 1326.82 133.526C1326.98 135.08 1326.7 136.648 1326.01 138.059C1325.89 138.298 1325.76 138.526 1325.6 138.742C1324.57 140.198 1323.17 140.843 1321.35 140.506C1319.58 140.179 1318.42 139.094 1317.96 137.063Z" fill="#66E1FF" fill-opacity="0.2"/>
<path d="M1361.74 128.97C1361.48 127.996 1361.46 126.975 1361.68 125.989C1362.08 124.304 1363.19 123.302 1364.9 122.923C1366.62 122.543 1368.1 122.966 1369.15 124.355C1369.77 125.147 1370.21 126.058 1370.43 127.028C1370.66 127.998 1370.68 129.004 1370.47 129.981C1370.14 131.711 1368.98 132.746 1367.24 133.122C1365.49 133.497 1364.03 133.047 1362.93 131.644C1362.33 130.854 1361.92 129.939 1361.74 128.97V128.97Z" fill="#66E1FF" fill-opacity="0.2"/>
<path d="M1173.48 385.97C1174.7 387.868 1175.91 389.768 1177.22 391.8C1180.34 391.429 1183.5 391.718 1186.48 392.646C1188.92 393.434 1191.39 394.621 1191.92 397.575C1192.4 400.174 1191.05 402.216 1189.25 403.866C1187.78 405.199 1186.03 406.23 1184.28 407.489C1185.53 410.774 1184.71 414.168 1183.36 417.453C1182.83 418.734 1183.28 419.289 1184.23 419.961C1185.68 420.984 1187.06 422.063 1187.56 423.936C1188.06 425.808 1187.5 427.309 1186.18 428.631C1185.63 429.185 1185.25 431.528 1185.78 431.989C1187.31 433.393 1187.02 434.996 1186.27 436.546C1184.75 439.782 1182.33 442.529 1179.28 444.463C1174.57 447.454 1169.38 448.385 1163.88 447.685C1162.5 447.507 1161.13 447.246 1159.76 447.026L1155.43 445.463C1154.4 444.9 1153.32 444.392 1152.33 443.759C1145.89 439.649 1141.8 434.026 1140.91 426.377C1140.83 425.672 1140.57 425.372 1139.93 425.041C1137.74 423.925 1136.27 422.145 1135.36 419.886C1133.92 416.328 1134.97 413.201 1137.03 410.25C1135.93 408.586 1135.07 406.845 1135.03 404.823L1136.28 401.509C1137.23 400.394 1138.12 399.208 1139.14 398.176C1141.9 395.369 1145.09 393.121 1148.52 391.127C1152.52 388.802 1156.81 386.992 1161.28 385.741C1164.19 384.908 1167.13 384.683 1170.13 384.76L1173.48 385.97ZM1181.5 434.364C1181.16 434.778 1181.03 435.076 1180.82 435.148C1179.52 435.59 1178.22 436.152 1176.87 436.357C1172.45 437.052 1167.93 436.321 1163.98 434.271C1162.42 433.482 1161.05 432.362 1160.37 430.639C1159.73 429.008 1160.25 427.591 1161.31 426.398C1162.31 425.274 1163.59 425.16 1164.96 425.852C1167.8 427.305 1170.88 428.237 1174.06 428.602C1177.25 428.948 1180.41 429.011 1183.41 427.577C1185.34 426.656 1185.98 425 1184.3 423.357C1183.33 422.411 1182.2 421.618 1181.21 420.688C1180.82 420.317 1180.38 419.773 1180.37 419.293C1180.34 418.58 1180.64 417.848 1180.85 417.135C1181.29 415.659 1181.89 414.218 1182.18 412.717C1182.36 411.8 1182.26 410.851 1181.9 409.991C1181.27 408.665 1179.94 408.526 1178.05 409.221C1176.09 409.937 1174.23 409.728 1172.39 408.73C1171.26 408.113 1170.07 407.441 1168.83 407.218C1164.55 406.452 1160.74 409.955 1161.07 413.844C1161.22 415.615 1161.87 417.338 1162.32 419.079C1162.51 419.802 1162.63 420.33 1161.71 420.791C1158.32 422.497 1156.35 425.425 1155.72 428.964C1154.43 436.134 1159.82 440.418 1164.93 442.121C1166.93 442.785 1169.21 442.927 1171.35 442.853C1176.44 442.674 1180.72 440.688 1183.58 436.373C1184.16 435.503 1185.15 434.264 1183.5 433.25C1183.3 433.131 1183.33 432.581 1183.34 432.232C1183.35 431.514 1183.41 430.799 1183.44 430.358C1180.52 430.445 1177.69 430.731 1174.9 430.564C1171.56 430.386 1168.32 429.473 1165.39 427.892C1164.62 427.47 1163.63 426.732 1162.55 427.797C1165.27 429.753 1168.09 431.333 1171.34 432.15C1169.55 432.748 1168.03 432.054 1166.51 431.452C1164.99 430.849 1163.52 430.145 1162 429.472C1162.32 430.972 1162.51 431.421 1164.23 432.45C1169.54 435.663 1175.33 435.503 1181.5 434.364ZM1173.93 392.049C1173.86 391.68 1173.82 391.357 1173.73 391.041C1173.18 388.956 1171.72 387.405 1169.79 387.419C1167.3 387.437 1164.74 387.5 1162.33 388.054C1157.56 389.169 1153.01 391.079 1148.88 393.702C1145.3 395.951 1141.85 398.367 1139.3 401.779C1137.33 404.406 1136.93 406.358 1138.69 408.258C1140.72 407.938 1142.51 407.672 1144.3 407.354C1144.64 407.277 1144.95 407.101 1145.19 406.849C1151.04 400.638 1157.89 396.046 1166.35 394.015C1168.86 393.404 1171.36 392.719 1173.93 392.049V392.049ZM1148.29 419.136C1148.51 418.212 1148.84 417.298 1148.93 416.364C1149.2 413.575 1147.94 411.397 1145.75 410.322C1144.07 409.503 1140.8 409.834 1139.09 411.879C1135.97 415.602 1136.93 420.02 1140.96 422.737C1141.77 423.276 1143.07 423.416 1144.08 423.286C1146.45 422.975 1147.51 421.168 1148.29 419.136V419.136ZM1169.55 397.127L1169.44 396.744L1161.88 399.184L1161.94 399.568C1167.72 398.631 1173.24 399.279 1178.42 402.08L1178.6 401.705L1174.74 399.334L1176.03 398.544L1175.99 398.201L1168.83 398.309L1169.55 397.127Z" fill="#66E1FF" fill-opacity="0.2"/>
<path d="M1178.47 419.277C1177.99 418.803 1177.09 418.31 1177.11 417.857C1177.16 416.617 1177.57 415.386 1177.93 414.177C1177.99 414.037 1178.69 413.899 1178.92 414.037C1179.25 414.247 1179.67 414.727 1179.63 415.046C1179.47 416.416 1179.15 417.763 1178.91 419.128L1178.47 419.277Z" fill="#66E1FF" fill-opacity="0.2"/>
<path d="M1170.72 418.084C1169.13 416.11 1167.16 415.347 1164.75 415.654L1164.57 415.32C1164.89 415.005 1165.16 414.543 1165.54 414.402C1167.12 413.824 1169.39 414.444 1170.42 415.775C1170.89 416.372 1171.59 417.068 1170.72 418.084Z" fill="#66E1FF" fill-opacity="0.2"/>
<path d="M1166.1 418.014C1166.42 416.978 1167.35 416.978 1168.12 417.11C1169.12 417.28 1170.11 417.666 1170.4 419.014L1166.1 418.014Z" fill="#66E1FF" fill-opacity="0.2"/>
<path d="M1178.64 421.703L1176.95 422.36C1176.78 421.871 1176.34 421.26 1176.5 420.925C1176.69 420.516 1177.39 420.337 1177.87 420.058L1178.64 421.703Z" fill="#66E1FF" fill-opacity="0.2"/>
<path d="M1174.36 419.888C1174.62 420.761 1174.85 421.304 1174.87 421.855C1174.87 421.98 1173.85 422.335 1173.78 422.238C1173.42 421.751 1173.17 421.201 1173.02 420.618C1173.01 420.521 1173.66 420.26 1174.36 419.888Z" fill="#66E1FF" fill-opacity="0.2"/>
<path d="M1146.1 420.237C1145.6 420.537 1145.23 420.933 1144.99 420.868C1144.38 420.702 1143.63 420.47 1143.31 420.013C1142.76 419.236 1142.85 418.323 1143.5 417.492C1143.92 416.944 1144.43 416.303 1144.45 415.682C1144.49 415.155 1144 414.294 1143.55 414.148C1143.02 413.977 1142.24 414.328 1141.64 414.611C1141.16 414.836 1140.79 415.296 1140.25 415.754C1139.7 414.441 1140.42 413.701 1141.02 413.044C1141.74 412.255 1142.67 411.772 1143.85 412.051C1147.05 412.814 1147.27 415.481 1145.32 417.778C1144.06 419.257 1144.03 419.238 1146.1 420.237Z" fill="#66E1FF" fill-opacity="0.2"/>
<path d="M1266.46 557.98C1265.51 559.554 1264.56 561.129 1263.53 562.814C1261.02 562.461 1258.48 562.659 1256.08 563.397C1254.13 564.024 1252.16 564.985 1251.77 567.453C1251.42 569.625 1252.54 571.354 1254.02 572.761C1255.22 573.898 1256.64 574.786 1258.07 575.865C1257.11 578.6 1257.82 581.455 1258.95 584.226C1259.4 585.307 1259.04 585.766 1258.29 586.316C1257.13 587.154 1256.03 588.04 1255.66 589.602C1255.29 591.164 1255.76 592.429 1256.84 593.555C1257.29 594.027 1257.63 595.995 1257.21 596.374C1255.99 597.53 1256.25 598.877 1256.88 600.186C1258.15 602.919 1260.14 605.253 1262.62 606.915C1266.46 609.486 1270.65 610.336 1275.07 609.825C1276.18 609.694 1277.28 609.494 1278.38 609.329L1281.84 608.078C1282.67 607.62 1283.53 607.209 1284.32 606.692C1289.45 603.335 1292.66 598.679 1293.27 592.282C1293.32 591.692 1293.53 591.444 1294.04 591.175C1295.79 590.27 1296.95 588.798 1297.65 586.918C1298.76 583.956 1297.86 581.322 1296.17 578.821C1297.03 577.441 1297.7 575.994 1297.7 574.3L1296.64 571.506C1295.86 570.559 1295.13 569.553 1294.3 568.674C1292.03 566.285 1289.43 564.358 1286.64 562.64C1283.39 560.638 1279.91 559.062 1276.29 557.953C1273.93 557.216 1271.56 556.988 1269.14 557.011L1266.46 557.98ZM1260.69 598.422C1260.97 598.774 1261.07 599.025 1261.25 599.089C1262.3 599.477 1263.36 599.965 1264.45 600.156C1268.02 600.798 1271.65 600.247 1274.8 598.583C1276.04 597.943 1277.13 597.023 1277.65 595.588C1278.15 594.23 1277.71 593.036 1276.84 592.021C1276.02 591.067 1274.98 590.953 1273.89 591.515C1271.63 592.694 1269.15 593.433 1266.6 593.696C1264.03 593.942 1261.49 593.952 1259.05 592.709C1257.49 591.912 1256.95 590.515 1258.28 589.161C1259.05 588.381 1259.94 587.733 1260.73 586.967C1261.04 586.661 1261.38 586.211 1261.39 585.809C1261.4 585.212 1261.15 584.594 1260.97 583.994C1260.59 582.751 1260.09 581.536 1259.84 580.274C1259.68 579.503 1259.74 578.709 1260.02 577.994C1260.51 576.891 1261.58 576.792 1263.11 577.401C1264.7 578.028 1266.2 577.877 1267.66 577.066C1268.56 576.564 1269.51 576.018 1270.51 575.848C1273.95 575.264 1277.06 578.251 1276.86 581.505C1276.76 582.988 1276.26 584.422 1275.92 585.875C1275.78 586.478 1275.69 586.919 1276.44 587.318C1279.19 588.794 1280.82 591.274 1281.38 594.248C1282.52 600.274 1278.24 603.79 1274.15 605.148C1272.54 605.677 1270.71 605.765 1268.99 605.674C1264.88 605.455 1261.4 603.733 1259.04 600.077C1258.56 599.341 1257.74 598.289 1259.06 597.462C1259.22 597.365 1259.19 596.904 1259.18 596.611C1259.16 596.009 1259.1 595.409 1259.07 595.039C1261.42 595.152 1263.7 595.43 1265.95 595.328C1268.64 595.224 1271.24 594.503 1273.57 593.218C1274.19 592.875 1274.97 592.27 1275.86 593.178C1273.7 594.779 1271.45 596.065 1268.84 596.706C1270.29 597.231 1271.51 596.67 1272.72 596.186C1273.93 595.702 1275.11 595.132 1276.32 594.588C1276.09 595.841 1275.94 596.214 1274.58 597.053C1270.34 599.673 1265.67 599.461 1260.69 598.422ZM1266.18 563.068C1266.24 562.759 1266.27 562.489 1266.33 562.226C1266.74 560.486 1267.9 559.206 1269.46 559.244C1271.47 559.293 1273.53 559.38 1275.47 559.878C1279.33 560.877 1283.03 562.539 1286.39 564.793C1289.3 566.726 1292.12 568.798 1294.22 571.691C1295.84 573.92 1296.19 575.561 1294.8 577.129C1293.16 576.834 1291.71 576.586 1290.27 576.295C1289.99 576.226 1289.74 576.074 1289.55 575.86C1284.75 570.576 1279.16 566.634 1272.32 564.818C1270.29 564.272 1268.27 563.664 1266.18 563.068V563.068ZM1287.22 586.113C1287.03 585.337 1286.76 584.566 1286.67 583.782C1286.41 581.441 1287.39 579.633 1289.15 578.763C1290.49 578.099 1293.12 578.421 1294.53 580.158C1297.09 583.32 1296.39 587.009 1293.18 589.231C1292.54 589.671 1291.49 589.771 1290.67 589.649C1288.76 589.355 1287.88 587.827 1287.22 586.113V586.113ZM1269.79 567.382L1269.87 567.063L1275.99 569.21L1275.95 569.531C1271.28 568.667 1266.85 569.135 1262.71 571.412L1262.56 571.095L1265.64 569.161L1264.59 568.481L1264.62 568.194L1270.38 568.382L1269.79 567.382Z" fill="#66E1FF" fill-opacity="0.2"/>
<path d="M1262.92 585.822C1263.3 585.431 1264.02 585.03 1263.99 584.65C1263.93 583.61 1263.58 582.573 1263.28 581.555C1263.23 581.437 1262.66 581.312 1262.48 581.425C1262.21 581.596 1261.88 581.993 1261.92 582.261C1262.07 583.41 1262.34 584.543 1262.56 585.691L1262.92 585.822Z" fill="#66E1FF" fill-opacity="0.2"/>
<path d="M1269.14 584.927C1270.39 583.294 1271.97 582.682 1273.92 582.972L1274.06 582.695C1273.79 582.426 1273.57 582.036 1273.26 581.913C1271.98 581.406 1270.16 581.895 1269.35 582.996C1268.98 583.49 1268.43 584.064 1269.14 584.927Z" fill="#66E1FF" fill-opacity="0.2"/>
<path d="M1272.86 584.932C1272.59 584.058 1271.84 584.046 1271.22 584.146C1270.42 584.275 1269.63 584.585 1269.41 585.711L1272.86 584.932Z" fill="#66E1FF" fill-opacity="0.2"/>
<path d="M1262.81 587.852L1264.18 588.426C1264.32 588.019 1264.66 587.512 1264.53 587.229C1264.36 586.884 1263.8 586.725 1263.41 586.484L1262.81 587.852Z" fill="#66E1FF" fill-opacity="0.2"/>
<path d="M1266.23 586.389C1266.04 587.117 1265.86 587.569 1265.85 588.03C1265.85 588.136 1266.68 588.447 1266.74 588.366C1267.02 587.963 1267.22 587.506 1267.32 587.019C1267.33 586.938 1266.8 586.711 1266.23 586.389Z" fill="#66E1FF" fill-opacity="0.2"/>
<path d="M1289.01 587.066C1289.41 587.324 1289.71 587.661 1289.9 587.61C1290.39 587.479 1290.99 587.295 1291.25 586.916C1291.68 586.272 1291.59 585.507 1291.06 584.802C1290.71 584.337 1290.29 583.792 1290.26 583.271C1290.23 582.83 1290.61 582.115 1290.97 581.998C1291.4 581.862 1292.03 582.167 1292.52 582.412C1292.91 582.607 1293.21 582.998 1293.65 583.389C1294.07 582.297 1293.48 581.667 1292.99 581.108C1292.4 580.437 1291.64 580.019 1290.7 580.237C1288.13 580.833 1287.99 583.065 1289.6 585.016C1290.64 586.273 1290.65 586.257 1289.01 587.066Z" fill="#66E1FF" fill-opacity="0.2"/>
<path d="M732.363 9.29422C732.894 10.5102 733.424 11.7268 733.994 13.0291C735.847 13.0933 737.662 13.5456 739.317 14.3559C740.662 15.0339 741.992 15.9487 742.024 17.7185C742.06 19.2771 741.084 20.3463 739.875 21.1457C738.895 21.7906 737.779 22.2345 736.641 22.8115C737.058 24.8382 736.263 26.7432 735.168 28.5369C734.74 29.2365 734.95 29.6007 735.439 30.0774C736.189 30.8045 736.895 31.5583 737.009 32.6947C737.124 33.8312 736.657 34.6557 735.765 35.3077C735.391 35.5814 734.95 36.9132 735.216 37.2298C735.979 38.1861 735.655 39.094 735.075 39.9305C733.885 41.6806 732.214 43.0638 730.258 43.9177C727.23 45.2373 724.115 45.313 720.974 44.4101C720.186 44.1822 719.412 43.9069 718.634 43.6555L716.26 42.3554C715.708 41.9334 715.129 41.5409 714.61 41.0823C711.239 38.1065 709.387 34.4611 709.583 29.9215C709.602 29.5029 709.481 29.3051 709.135 29.0538C707.966 28.2071 707.274 27.0364 706.954 25.6373C706.449 23.4335 707.359 21.706 708.835 20.1703C708.349 19.101 708.009 18.0084 708.18 16.8266L709.219 15.0072C709.876 14.442 710.504 13.8302 711.196 13.3206C713.071 11.9331 715.141 10.9092 717.324 10.0547C719.877 9.0595 722.546 8.38987 725.268 8.06227C727.045 7.83895 728.782 7.97266 730.524 8.28733L732.363 9.29422ZM732.499 38.2291C732.259 38.4398 732.159 38.6023 732.03 38.6255C731.228 38.7658 730.417 38.9764 729.611 38.9745C726.969 38.9823 724.401 38.1489 722.291 36.5989C721.458 35.999 720.764 35.2223 720.529 34.1568C720.307 33.1479 720.745 32.3688 721.476 31.7687C722.16 31.2034 722.921 31.252 723.655 31.779C725.172 32.8816 726.882 33.7023 728.702 34.2012C730.531 34.6895 732.366 35.0107 734.251 34.4445C735.461 34.0813 735.987 33.1725 735.161 32.0635C734.684 31.4246 734.102 30.8614 733.61 30.2299C733.417 29.9783 733.215 29.6218 733.252 29.3413C733.303 28.9226 733.546 28.5228 733.733 28.1258C734.129 27.305 734.614 26.5192 734.924 25.67C735.117 25.1516 735.149 24.5896 735.017 24.0555C734.772 23.2256 734.012 23.025 732.843 23.2599C731.636 23.5019 730.571 23.2123 729.593 22.465C728.991 22.0036 728.361 21.505 727.658 21.2634C725.233 20.4312 722.687 22.1312 722.509 24.4277C722.431 25.474 722.649 26.5367 722.751 27.5926C722.793 28.0312 722.812 28.3494 722.234 28.5358C720.097 29.2254 718.673 30.7553 717.972 32.7616C716.55 36.8262 719.289 39.8081 722.11 41.2611C723.215 41.8283 724.531 42.1164 725.783 42.2651C728.771 42.6195 731.453 41.8467 733.525 39.5879C733.943 39.1327 734.638 38.4998 733.768 37.7597C733.665 37.6727 733.734 37.3548 733.769 37.1516C733.843 36.7339 733.947 36.3229 734.003 36.0678C732.297 35.8567 730.619 35.7688 729.005 35.4202C727.078 35.0162 725.27 34.1916 723.716 33.0072C723.305 32.6919 722.797 32.1723 722.068 32.6965C723.469 34.0811 724.966 35.2563 726.785 36.025C725.686 36.2128 724.861 35.6707 724.033 35.1831C723.205 34.6955 722.414 34.1527 721.591 33.6233C721.635 34.5261 721.704 34.805 722.606 35.5592C725.405 37.9108 728.797 38.3388 732.499 38.2291ZM732.056 12.8789C732.048 12.6571 732.052 12.4646 732.033 12.2731C731.909 11.0082 731.203 9.97231 730.072 9.80605C728.619 9.59287 727.122 9.39924 725.666 9.50602C722.778 9.72649 719.946 10.4308 717.293 11.5885C714.997 12.5775 712.756 13.6756 710.95 15.4354C709.559 16.7906 709.143 17.8927 709.986 19.1578C711.2 19.1542 712.273 19.1606 713.347 19.1364C713.552 19.1218 713.748 19.0469 713.909 18.9214C717.901 15.8265 722.326 13.7653 727.449 13.3426C728.972 13.2126 730.492 13.0378 732.056 12.8789V12.8789ZM714.565 26.3635C714.78 25.845 715.055 25.3412 715.197 24.805C715.62 23.2037 715.088 21.8203 713.909 20.9965C713.007 20.3678 711.072 20.2671 709.883 21.3054C707.715 23.1953 707.859 25.8574 709.956 27.804C710.374 28.1904 711.118 28.389 711.72 28.4044C713.134 28.4365 713.918 27.4779 714.565 26.3635V26.3635ZM729.024 15.4447L728.994 15.2114L724.359 15.954L724.357 16.1833C727.814 16.1567 730.972 17.031 733.732 19.1309L733.871 18.928L731.842 17.1983L732.667 16.8536L732.676 16.6499L728.494 16.0692L729.024 15.4447Z" fill="#66E1FF" fill-opacity="0.2"/>
<path d="M732.145 29.1608C731.911 28.8408 731.432 28.4726 731.486 28.2102C731.633 27.4922 731.989 26.8116 732.312 26.139C732.356 26.0622 732.781 26.0454 732.9 26.1464C733.075 26.2985 733.274 26.6163 733.22 26.7987C733.001 27.583 732.687 28.3393 732.418 29.1136L732.145 29.1608Z" fill="#66E1FF" fill-opacity="0.2"/>
<path d="M727.742 27.7682C726.998 26.474 725.923 25.8526 724.485 25.8142L724.412 25.603C724.629 25.4481 724.827 25.2031 725.066 25.1557C726.043 24.9608 727.303 25.5259 727.781 26.3949C727.997 26.7847 728.342 27.254 727.742 27.7682Z" fill="#66E1FF" fill-opacity="0.2"/>
<path d="M725.053 27.3115C725.338 26.7361 725.877 26.8194 726.313 26.9658C726.88 27.155 727.423 27.4692 727.467 28.2813L725.053 27.3115Z" fill="#66E1FF" fill-opacity="0.2"/>
<path d="M732.019 30.5906L730.97 30.8212C730.915 30.5208 730.716 30.125 730.842 29.9443C730.994 29.7233 731.418 29.6818 731.725 29.5626L732.019 30.5906Z" fill="#66E1FF" fill-opacity="0.2"/>
<path d="M729.696 29.1476C729.761 29.6791 729.847 30.0168 729.806 30.3398C729.797 30.4135 729.167 30.5284 729.132 30.4649C728.971 30.149 728.874 29.8054 728.844 29.4525C728.849 29.3954 729.253 29.3017 729.696 29.1476Z" fill="#66E1FF" fill-opacity="0.2"/>
<path d="M713.182 26.8081C712.864 26.9381 712.612 27.1356 712.48 27.0767C712.14 26.925 711.723 26.7221 711.577 26.4265C711.33 25.924 711.47 25.4005 711.925 24.9741C712.222 24.6926 712.578 24.3641 712.651 24.0045C712.721 23.7006 712.517 23.1546 712.268 23.0288C711.974 22.881 711.486 23.0159 711.111 23.1268C710.81 23.2148 710.553 23.4501 710.196 23.6685C709.998 22.8539 710.486 22.487 710.896 22.1575C711.388 21.7621 711.981 21.565 712.639 21.8334C714.437 22.5665 714.315 24.1411 712.958 25.3043C712.084 26.0531 712.073 26.0399 713.182 26.8081Z" fill="#66E1FF" fill-opacity="0.2"/>
<path d="M1419.3 476.001C1420.31 476.759 1421.31 477.519 1422.39 478.33C1423.94 477.551 1425.64 477.107 1427.37 477.028C1428.79 476.981 1430.31 477.133 1431.17 478.57C1431.93 479.832 1431.63 481.147 1431.01 482.345C1430.51 483.314 1429.8 484.179 1429.14 485.163C1430.43 486.637 1430.67 488.556 1430.61 490.519C1430.59 491.284 1430.93 491.489 1431.55 491.66C1432.51 491.919 1433.44 492.22 1434.07 493.101C1434.69 493.981 1434.7 494.867 1434.27 495.802C1434.09 496.194 1434.35 497.484 1434.72 497.624C1435.79 498.066 1435.95 498.956 1435.87 499.902C1435.71 501.871 1434.99 503.756 1433.79 505.334C1431.92 507.776 1429.4 509.236 1426.4 509.906C1425.65 510.073 1424.89 510.195 1424.13 510.338H1421.58C1420.93 510.24 1420.27 510.178 1419.63 510.035C1415.47 509.109 1412.25 506.951 1410.28 503.141C1410.1 502.79 1409.91 502.682 1409.51 502.631C1408.15 502.462 1407.04 501.813 1406.12 500.809C1404.67 499.229 1404.61 497.404 1405.1 495.482C1404.2 494.823 1403.41 494.08 1403 493.035V491.077C1403.27 490.318 1403.5 489.535 1403.83 488.806C1404.72 486.826 1405.94 485.057 1407.33 483.377C1408.95 481.415 1410.83 479.667 1412.91 478.176C1414.26 477.195 1415.75 476.525 1417.32 476.001H1419.3ZM1432.96 499.664C1432.86 499.944 1432.86 500.122 1432.76 500.199C1432.17 500.674 1431.6 501.211 1430.94 501.571C1428.78 502.764 1426.28 503.234 1423.83 502.91C1422.86 502.792 1421.93 502.467 1421.24 501.699C1420.58 500.971 1420.58 500.136 1420.9 499.316C1421.19 498.545 1421.84 498.244 1422.69 498.346C1424.45 498.569 1426.24 498.474 1427.96 498.066C1429.69 497.645 1431.34 497.084 1432.62 495.774C1433.45 494.933 1433.45 493.952 1432.26 493.413C1431.57 493.103 1430.82 492.903 1430.13 492.606C1429.85 492.487 1429.52 492.285 1429.42 492.038C1429.26 491.672 1429.27 491.235 1429.24 490.826C1429.18 489.975 1429.21 489.113 1429.07 488.277C1428.98 487.766 1428.75 487.29 1428.39 486.912C1427.8 486.341 1427.08 486.518 1426.23 487.236C1425.36 487.976 1424.35 488.217 1423.2 488.043C1422.49 487.935 1421.74 487.809 1421.05 487.927C1418.67 488.333 1417.38 490.87 1418.31 492.833C1418.73 493.726 1419.41 494.5 1419.99 495.32C1420.23 495.66 1420.39 495.913 1420.01 496.325C1418.58 497.85 1418.12 499.744 1418.49 501.703C1419.23 505.674 1422.87 506.89 1425.86 506.814C1427.03 506.783 1428.25 506.428 1429.34 505.988C1431.96 504.937 1433.8 503.099 1434.44 500.317C1434.57 499.756 1434.84 498.925 1433.78 498.709C1433.66 498.684 1433.56 498.392 1433.5 498.21C1433.36 497.834 1433.25 497.45 1433.18 497.216C1431.68 497.809 1430.27 498.49 1428.78 498.929C1427.01 499.463 1425.14 499.599 1423.31 499.326C1422.83 499.252 1422.17 499.054 1421.82 499.811C1423.61 500.317 1425.39 500.608 1427.24 500.422C1426.43 501.07 1425.5 500.995 1424.59 500.967C1423.69 500.939 1422.78 500.85 1421.86 500.785C1422.32 501.506 1422.51 501.703 1423.6 501.916C1426.99 502.588 1429.98 501.416 1432.96 499.664ZM1420.73 479.078C1420.62 478.9 1420.53 478.74 1420.43 478.591C1419.73 477.61 1418.67 477.077 1417.66 477.449C1416.37 477.927 1415.05 478.44 1413.91 479.181C1411.65 480.659 1409.65 482.508 1408.02 484.648C1406.6 486.49 1405.28 488.396 1404.62 490.65C1404.11 492.386 1404.29 493.476 1405.57 494.135C1406.57 493.587 1407.45 493.11 1408.32 492.609C1408.48 492.505 1408.6 492.355 1408.68 492.18C1410.5 487.85 1413.17 484.173 1417.17 481.526C1418.36 480.736 1419.52 479.91 1420.73 479.078V479.078ZM1412.7 497.987C1412.63 497.466 1412.62 496.929 1412.49 496.426C1412.09 494.923 1411 494.027 1409.65 493.881C1408.62 493.771 1406.98 494.557 1406.49 495.942C1405.6 498.465 1406.96 500.583 1409.6 501.238C1410.12 501.367 1410.82 501.196 1411.32 500.938C1412.5 500.329 1412.69 499.191 1412.7 497.987V497.987ZM1419.44 482.543L1419.31 482.365L1415.86 485.055L1415.96 485.244C1418.78 483.67 1421.78 482.969 1425.03 483.451L1425.05 483.223L1422.58 482.715L1423.09 482.062L1423 481.891L1419.3 483.293L1419.44 482.543Z" fill="#66E1FF" fill-opacity="0.2"/>
<path d="M1417.94 598.887C1417.6 598.73 1417.04 598.643 1416.96 598.403C1416.74 597.749 1416.72 597.031 1416.67 596.334C1416.67 596.252 1417.01 596.047 1417.15 596.076C1417.37 596.123 1417.68 596.294 1417.72 596.467C1417.91 597.209 1418 597.97 1418.15 598.726L1417.94 598.887Z" fill="#66E1FF" fill-opacity="0.2"/>
<path d="M1413.68 599.722C1412.47 598.995 1411.29 598.968 1410.1 599.582L1409.94 599.442C1410.04 599.218 1410.09 598.928 1410.26 598.782C1410.97 598.183 1412.27 598.081 1413.07 598.579C1413.43 598.801 1413.93 599.031 1413.68 599.722Z" fill="#66E1FF" fill-opacity="0.2"/>
<path d="M1411.26 600.555C1411.23 599.955 1411.71 599.781 1412.13 599.706C1412.69 599.606 1413.28 599.62 1413.7 600.266L1411.26 600.555Z" fill="#66E1FF" fill-opacity="0.2"/>
<path d="M1418.51 600.116L1417.76 600.776C1417.57 600.555 1417.22 600.319 1417.24 600.115C1417.26 599.865 1417.59 599.641 1417.79 599.406L1418.51 600.116Z" fill="#66E1FF" fill-opacity="0.2"/>
<path d="M1415.93 599.976C1416.23 600.383 1416.46 600.621 1416.58 600.904C1416.61 600.969 1416.14 601.346 1416.08 601.309C1415.8 601.122 1415.56 600.885 1415.37 600.608C1415.35 600.559 1415.64 600.301 1415.93 599.976Z" fill="#66E1FF" fill-opacity="0.2"/>
<path d="M1401.3 605.472C1401.1 605.722 1400.98 605.996 1400.85 606.008C1400.5 606.036 1400.06 606.057 1399.8 605.88C1399.36 605.579 1399.23 605.087 1399.41 604.533C1399.52 604.168 1399.66 603.74 1399.55 603.412C1399.46 603.131 1399.04 602.775 1398.78 602.784C1398.47 602.795 1398.13 603.124 1397.87 603.383C1397.67 603.591 1397.57 603.899 1397.38 604.239C1396.83 603.66 1397.06 603.14 1397.24 602.685C1397.46 602.14 1397.86 601.713 1398.52 601.637C1400.34 601.431 1400.98 602.777 1400.41 604.339C1400.04 605.346 1400.03 605.34 1401.3 605.472Z" fill="#66E1FF" fill-opacity="0.2"/>
<path d="M5.30143 478C6.30651 478.758 7.31018 479.518 8.38767 480.33C9.93685 479.55 11.6366 479.106 13.3734 479.027C14.793 478.98 16.312 479.133 17.1666 480.569C17.9261 481.831 17.6265 483.146 17.009 484.344C16.5079 485.313 15.8009 486.178 15.1379 487.162C16.4284 488.636 16.6683 490.555 16.6101 492.518C16.5874 493.283 16.9295 493.488 17.5541 493.659C18.5095 493.918 19.4408 494.22 20.0668 495.1C20.6929 495.98 20.6957 496.866 20.2699 497.801C20.091 498.194 20.3536 499.483 20.7199 499.623C21.7931 500.065 21.9521 500.955 21.8683 501.901C21.7117 503.871 20.9892 505.755 19.7858 507.333C17.9204 509.775 15.402 511.235 12.4038 511.905C11.6514 512.072 10.8876 512.194 10.1324 512.337H7.57707C6.92689 512.239 6.26819 512.177 5.62795 512.034C1.47131 511.108 -1.75404 508.951 -3.71879 505.141C-3.89908 504.789 -4.09074 504.681 -4.49249 504.63C-5.8468 504.461 -6.96262 503.812 -7.87969 502.808C-9.32628 501.228 -9.38875 499.403 -8.89756 497.481C-9.79618 496.823 -10.5869 496.08 -11 495.034V493.076C-10.726 492.317 -10.4975 491.534 -10.1681 490.805C-9.28085 488.826 -8.06282 487.057 -6.67302 485.376C-5.04594 483.414 -3.17043 481.666 -1.0925 480.176C0.260388 479.194 1.74672 478.524 3.32249 478H5.30143ZM18.9596 501.663C18.8616 501.943 18.8559 502.121 18.7608 502.198C18.1688 502.674 17.6024 503.21 16.9408 503.571C14.7781 504.763 12.2826 505.233 9.82716 504.909C8.86324 504.792 7.93056 504.466 7.23921 503.698C6.58476 502.971 6.57908 502.135 6.89707 501.315C7.19377 500.544 7.8397 500.243 8.68863 500.345C10.4488 500.568 12.2353 500.473 13.9611 500.065C15.6887 499.644 17.344 499.084 18.6245 497.773C19.4465 496.932 19.4521 495.951 18.2554 495.413C17.5655 495.103 16.8244 494.902 16.126 494.605C15.8492 494.486 15.517 494.284 15.4162 494.037C15.2614 493.672 15.2742 493.234 15.2416 492.825C15.1819 491.974 15.2118 491.112 15.0684 490.277C14.9837 489.765 14.747 489.29 14.3884 488.911C13.7992 488.341 13.0823 488.517 12.2334 489.235C11.3575 489.975 10.3482 490.216 9.19686 490.042C8.48705 489.934 7.73749 489.808 7.04756 489.926C4.66971 490.333 3.37785 492.87 4.3077 494.832C4.73358 495.725 5.40933 496.499 5.98711 497.319C6.22703 497.66 6.3917 497.912 6.00557 498.324C4.57602 499.849 4.12457 501.743 4.48941 503.702C5.22619 507.674 8.86751 508.889 11.8615 508.813C13.0327 508.782 14.2464 508.428 15.3424 507.988C17.9587 506.936 19.7957 505.099 20.4374 502.316C20.5665 501.755 20.8405 500.924 19.7801 500.708C19.6551 500.683 19.5629 500.392 19.4962 500.209C19.3613 499.834 19.2548 499.45 19.181 499.215C17.6833 499.808 16.2665 500.49 14.7802 500.928C13.0108 501.463 11.1427 501.598 9.31326 501.325C8.82917 501.251 8.16906 501.053 7.817 501.81C9.61423 502.316 11.3916 502.608 13.2428 502.421C12.4293 503.069 11.4995 502.995 10.5923 502.967C9.6852 502.938 8.78233 502.849 7.85958 502.784C8.31811 503.505 8.5055 503.702 9.5986 503.916C12.9943 504.587 15.9755 503.415 18.9596 501.663ZM6.72815 481.077C6.61742 480.899 6.53082 480.739 6.42577 480.59C5.73158 479.609 4.66829 479.077 3.6632 479.448C2.37135 479.926 1.05394 480.439 -0.0902656 481.181C-2.35485 482.658 -4.34688 484.507 -5.98025 486.647C-7.39986 488.489 -8.72293 490.396 -9.38021 492.65C-9.8856 494.385 -9.71099 495.476 -8.42766 496.134C-7.43393 495.586 -6.55093 495.11 -5.68213 494.608C-5.52104 494.504 -5.39539 494.354 -5.32154 494.179C-3.49734 489.849 -0.834133 486.172 3.16776 483.526C4.35598 482.735 5.52006 481.909 6.72815 481.077V481.077ZM-1.29978 499.986C-1.3665 499.465 -1.37644 498.928 -1.5113 498.425C-1.91447 496.922 -2.99764 496.026 -4.35053 495.881C-5.38401 495.77 -7.01798 496.556 -7.50633 497.941C-8.39927 500.464 -7.03502 502.582 -4.40448 503.237C-3.88064 503.366 -3.17792 503.195 -2.6768 502.937C-1.50278 502.329 -1.3083 501.191 -1.29978 499.986V499.986ZM5.44339 484.542L5.30995 484.364L1.85744 487.054L1.96249 487.243C4.78469 485.669 7.78291 484.968 11.0296 485.45L11.048 485.222L8.57507 484.714L9.09039 484.061L9.00237 483.89L5.30143 485.292L5.44339 484.542Z" fill="#66E1FF" fill-opacity="0.2"/>
<path d="M14.4232 494.387C14.081 494.23 13.516 494.143 13.438 493.903C13.2222 493.249 13.1952 492.531 13.1455 491.834C13.1455 491.752 13.4862 491.547 13.631 491.576C13.8454 491.623 14.1577 491.794 14.1989 491.967C14.3863 492.709 14.4828 493.47 14.6248 494.226L14.4232 494.387Z" fill="#66E1FF" fill-opacity="0.2"/>
<path d="M10.1625 495.222C8.94728 494.495 7.77468 494.468 6.57794 495.082L6.41895 494.942C6.524 494.718 6.57227 494.427 6.74546 494.282C7.45527 493.683 8.7528 493.581 9.55204 494.078C9.91121 494.301 10.4137 494.531 10.1625 495.222Z" fill="#66E1FF" fill-opacity="0.2"/>
<path d="M7.74306 496.055C7.70757 495.455 8.18882 495.281 8.61471 495.205C9.16836 495.106 9.76034 495.12 10.1763 495.766L7.74306 496.055Z" fill="#66E1FF" fill-opacity="0.2"/>
<path d="M14.9901 495.616L14.2377 496.276C14.0517 496.055 13.7039 495.819 13.7224 495.615C13.7437 495.365 14.0716 495.141 14.2675 494.905L14.9901 495.616Z" fill="#66E1FF" fill-opacity="0.2"/>
<path d="M12.4099 495.476C12.7122 495.882 12.9408 496.12 13.0586 496.404C13.0856 496.468 12.6228 496.845 12.5646 496.809C12.2848 496.622 12.0439 496.384 11.8548 496.108C11.8321 496.059 12.1188 495.801 12.4099 495.476Z" fill="#66E1FF" fill-opacity="0.2"/>
</svg>
