<svg width="1278" height="674" viewBox="0 0 1278 674" fill="none" xmlns="http://www.w3.org/2000/svg">
<path d="M978.433 474.627C976.773 471.083 972.581 469.761 968.961 471.316L967.543 471.923L967.024 470.471C965.706 466.762 961.881 464.586 958.154 465.78C953.881 467.153 951.59 471.963 953.066 476.115L958.154 490.401C958.483 491.323 959.48 491.759 960.38 491.372L974.313 485.385C978.366 483.644 980.333 478.693 978.433 474.627V474.627Z" fill="#698ADC" fill-opacity="0.08"/>
<path d="M329.148 543.537C325.453 542.248 321.579 544.324 320.162 548.001L319.606 549.44L318.205 548.796C314.63 547.149 310.401 548.365 308.652 551.866C306.649 555.882 308.49 560.882 312.492 562.727L326.268 569.066C327.158 569.475 328.167 569.065 328.519 568.151L333.967 554C335.553 549.884 333.385 545.017 329.148 543.537Z" fill="#698ADC" fill-opacity="0.08"/>
<path d="M273.066 471.625C270.821 470.843 268.468 472.104 267.607 474.337L267.269 475.211L266.418 474.821C264.246 473.82 261.677 474.559 260.615 476.685C259.398 479.125 260.516 482.163 262.948 483.283L271.316 487.134C271.857 487.383 272.47 487.134 272.683 486.579L275.993 477.982C276.957 475.481 275.64 472.525 273.066 471.625Z" fill="#698ADC" fill-opacity="0.08"/>
<path d="M922.471 168.046C920.155 165.44 916.241 165.374 913.543 167.62L912.487 168.498L911.675 167.39C909.609 164.556 905.791 163.668 902.911 165.633C899.61 167.888 898.873 172.577 901.187 175.749L909.154 186.658C909.668 187.362 910.631 187.481 911.301 186.923L921.681 178.277C924.701 175.763 925.125 171.036 922.471 168.046Z" fill="#698ADC" fill-opacity="0.08"/>
<path d="M1016.07 313.553C1013.59 313.056 1011.29 314.727 1010.71 317.205L1010.49 318.175L1009.53 317.888C1007.1 317.15 1004.5 318.303 1003.69 320.698C1002.77 323.445 1004.39 326.481 1007.11 327.306L1016.49 330.142C1017.09 330.325 1017.7 329.973 1017.85 329.357L1020.08 319.82C1020.73 317.046 1018.91 314.125 1016.07 313.553Z" fill="#698ADC" fill-opacity="0.08"/>
<path d="M194.027 163.941C193.218 161.546 190.623 160.395 188.187 161.13L187.233 161.418L187.005 160.448C186.427 157.972 184.13 156.299 181.651 156.796C178.809 157.368 176.991 160.289 177.638 163.061L179.87 172.598C180.014 173.214 180.623 173.566 181.229 173.383L190.604 170.548C193.332 169.724 194.952 166.688 194.027 163.941Z" fill="#698ADC" fill-opacity="0.08"/>
<path d="M642.105 184.016C638.196 182.418 633.904 184.434 632.168 188.316L631.487 189.834L630.014 189.062C626.255 187.083 621.629 188.153 619.546 191.826C617.159 196.04 618.859 201.532 623.067 203.747L637.55 211.361C638.486 211.852 639.595 211.468 640.027 210.503L646.703 195.564C648.646 191.219 646.585 185.852 642.105 184.016Z" fill="#698ADC" fill-opacity="0.08"/>
<path d="M272.899 302.938C270.558 299.424 265.873 298.688 262.26 300.929L260.845 301.805L260.058 300.339C258.055 296.593 253.624 294.886 249.84 296.76C245.501 298.912 243.83 304.412 246.073 308.605L253.798 323.03C254.298 323.961 255.432 324.265 256.33 323.708L270.233 315.079C274.277 312.57 275.58 306.971 272.899 302.938Z" fill="#698ADC" fill-opacity="0.08"/>
<path d="M99.4485 495.868C96.4278 494.373 92.8959 495.734 91.2925 498.725L90.6642 499.895L89.535 499.196C86.6554 497.406 82.9118 497.994 81.0435 500.8C78.9035 504.018 79.9432 508.488 83.167 510.491L94.2636 517.378C94.9804 517.823 95.8859 517.58 96.2843 516.837L102.451 505.324C104.245 501.976 102.911 497.586 99.4485 495.868Z" fill="#698ADC" fill-opacity="0.08"/>
<path d="M682.292 454.762C679.007 455.52 677.138 458.811 677.793 462.14L678.048 463.444L676.732 463.618C673.37 464.059 670.847 466.887 671.18 470.241C671.564 474.087 675.2 476.885 678.964 476.392L691.912 474.687C692.749 474.577 693.295 473.816 693.132 472.988L690.607 460.174C689.873 456.447 686.059 453.896 682.292 454.762Z" fill="#698ADC" fill-opacity="0.08"/>
<path d="M792.58 454.679H784.325V446.423C784.325 445.41 783.503 444.589 782.49 444.589H780.656C779.643 444.589 778.821 445.41 778.821 446.423V454.679H770.566C769.553 454.679 768.731 455.5 768.731 456.513V458.348C768.731 459.361 769.553 460.182 770.566 460.182H778.821V468.438C778.821 469.451 779.643 470.272 780.656 470.272H782.49C783.503 470.272 784.325 469.451 784.325 468.438V460.182H792.58C793.593 460.182 794.415 459.361 794.415 458.348V456.513C794.415 455.5 793.593 454.679 792.58 454.679Z" fill="#698ADC" fill-opacity="0.08"/>
<path d="M603.37 572.5H596.538V565.668C596.538 564.829 595.859 564.149 595.02 564.149H593.502C592.664 564.149 591.984 564.829 591.984 565.668V572.5H585.152C584.313 572.5 583.633 573.18 583.633 574.018V575.536C583.633 576.374 584.313 577.054 585.152 577.054H591.984V583.886C591.984 584.725 592.664 585.405 593.502 585.405H595.02C595.859 585.405 596.538 584.725 596.538 583.886V577.054H603.37C604.209 577.054 604.889 576.374 604.889 575.536V574.018C604.889 573.18 604.209 572.5 603.37 572.5Z" fill="#698ADC" fill-opacity="0.08"/>
<path d="M507.722 111.969H500.89V105.137C500.89 104.299 500.21 103.619 499.372 103.619H497.853C497.015 103.619 496.335 104.299 496.335 105.137V111.969H489.503C488.665 111.969 487.985 112.649 487.985 113.488V115.006C487.985 115.844 488.665 116.524 489.503 116.524H496.335V123.356C496.335 124.194 497.015 124.874 497.853 124.874H499.372C500.21 124.874 500.89 124.194 500.89 123.356V116.524H507.722C508.56 116.524 509.24 115.844 509.24 115.006V113.488C509.24 112.649 508.56 111.969 507.722 111.969Z" fill="#698ADC" fill-opacity="0.08"/>
<path d="M1054.16 661.063H1047.33V654.231C1047.33 653.393 1046.65 652.713 1045.81 652.713H1044.29C1043.45 652.713 1042.77 653.393 1042.77 654.231V661.063H1035.94C1035.1 661.063 1034.42 661.743 1034.42 662.581V664.1C1034.42 664.938 1035.1 665.618 1035.94 665.618H1042.77V672.45C1042.77 673.288 1043.45 673.968 1044.29 673.968H1045.81C1046.65 673.968 1047.33 673.288 1047.33 672.45V665.618H1054.16C1055 665.618 1055.68 664.938 1055.68 664.1V662.581C1055.68 661.743 1055 661.063 1054.16 661.063Z" fill="#698ADC" fill-opacity="0.08"/>
<path d="M388.541 390.558H379.431V381.448C379.431 380.33 378.525 379.424 377.407 379.424H375.383C374.265 379.424 373.358 380.33 373.358 381.448V390.558H364.249C363.131 390.558 362.225 391.464 362.225 392.582V394.606C362.225 395.724 363.131 396.63 364.249 396.63H373.358V405.74C373.358 406.858 374.265 407.764 375.383 407.764H377.407C378.525 407.764 379.431 406.858 379.431 405.74V396.63H388.541C389.658 396.63 390.565 395.724 390.565 394.606V392.582C390.565 391.464 389.658 390.558 388.541 390.558Z" fill="#698ADC" fill-opacity="0.08"/>
<path d="M26.316 331.733H17.2066V322.624C17.2066 321.506 16.3001 320.6 15.1823 320.6H13.158C12.0402 320.6 11.1337 321.506 11.1337 322.624V331.733H2.02431C0.906511 331.733 0 332.64 0 333.758V335.782C0 336.9 0.906511 337.806 2.02431 337.806H11.1337V346.916C11.1337 348.033 12.0402 348.94 13.158 348.94H15.1823C16.3001 348.94 17.2066 348.033 17.2066 346.916V337.806H26.316C27.4338 337.806 28.3403 336.9 28.3403 335.782V333.758C28.3403 332.64 27.4338 331.733 26.316 331.733Z" fill="#698ADC" fill-opacity="0.08"/>
<path d="M590.276 454.924H584.298V448.946C584.298 448.212 583.703 447.617 582.969 447.617H581.641C580.907 447.617 580.312 448.212 580.312 448.946V454.924H574.334C573.601 454.924 573.006 455.519 573.006 456.252V457.581C573.006 458.314 573.601 458.909 574.334 458.909H580.312V464.887C580.312 465.621 580.907 466.216 581.641 466.216H582.969C583.703 466.216 584.298 465.621 584.298 464.887V458.909H590.276C591.009 458.909 591.604 458.314 591.604 457.581V456.252C591.604 455.519 591.009 454.924 590.276 454.924Z" fill="#698ADC" fill-opacity="0.08"/>
<path d="M1161.7 392.284H1154.02V384.598C1154.02 383.655 1153.25 382.89 1152.31 382.89H1150.6C1149.66 382.89 1148.89 383.655 1148.89 384.598V392.284H1141.21C1140.26 392.284 1139.5 393.049 1139.5 393.992V395.7C1139.5 396.643 1140.26 397.408 1141.21 397.408H1148.89V405.094C1148.89 406.037 1149.66 406.802 1150.6 406.802H1152.31C1153.25 406.802 1154.02 406.037 1154.02 405.094V397.408H1161.7C1162.64 397.408 1163.41 396.643 1163.41 395.7V393.992C1163.41 393.049 1162.64 392.284 1161.7 392.284Z" fill="#698ADC" fill-opacity="0.08"/>
<path d="M554.196 315.58C544.197 312.252 533.356 317.79 529.973 327.952C526.591 338.115 531.951 349.045 541.95 352.373C551.949 355.701 562.79 350.163 566.173 340.001C569.555 329.838 564.195 318.908 554.196 315.58ZM554.902 347.9C551.21 349.786 547.032 350.11 543.135 348.812C539.238 347.515 536.088 344.753 534.262 341.031C532.437 337.308 532.158 333.079 533.476 329.118C534.795 325.157 537.552 321.938 541.244 320.053C544.936 318.167 549.114 317.843 553.011 319.141C556.908 320.438 560.058 323.2 561.884 326.922C563.709 330.645 563.988 334.874 562.67 338.835C561.351 342.796 558.594 346.014 554.902 347.9ZM556.532 331.848L559.979 329.675C560.861 329.12 560.314 327.743 559.299 327.965L552.276 329.583C551.59 329.742 551.314 330.573 551.767 331.111L556.42 336.615C557.092 337.399 558.36 336.634 557.989 335.654L556.532 331.848ZM539.81 331.086L546.833 329.469C547.519 329.31 547.795 328.479 547.342 327.941L542.688 322.437C542.012 321.643 540.747 322.425 541.12 323.398L542.577 327.203L539.13 329.377C538.238 329.937 538.795 331.309 539.81 331.086ZM555.632 339.129L538.934 333.571C538.335 333.372 537.703 333.738 537.578 334.356C536.664 338.93 539.284 343.576 543.824 345.087L544.816 345.417C549.356 346.928 554.238 344.779 556.247 340.57C556.518 340.001 556.231 339.328 555.632 339.129Z" fill="#698ADC" fill-opacity="0.08"/>
<path d="M1141.26 150.746C1129.99 148.196 1118.75 155.412 1116.16 166.869C1113.57 178.326 1120.6 189.675 1131.88 192.225C1143.15 194.775 1154.38 187.558 1156.97 176.101C1159.56 164.644 1152.53 153.296 1141.26 150.746ZM1145.53 185.942C1141.7 188.4 1137.18 189.205 1132.78 188.211C1128.39 187.217 1124.65 184.543 1122.26 180.678C1119.86 176.814 1119.1 172.228 1120.11 167.763C1121.12 163.297 1123.78 159.486 1127.61 157.029C1131.43 154.571 1135.96 153.766 1140.35 154.76C1144.74 155.754 1148.48 158.428 1150.88 162.292C1153.27 166.157 1154.03 170.742 1153.02 175.208C1152.01 179.674 1149.35 183.485 1145.53 185.942ZM1145.57 168.247L1149.1 165.502C1150 164.801 1149.25 163.358 1148.17 163.71L1140.68 166.235C1139.95 166.483 1139.74 167.42 1140.29 167.958L1145.96 173.461C1146.78 174.244 1148.08 173.272 1147.57 172.243L1145.57 168.247ZM1127.24 169.225L1134.73 166.7C1135.46 166.452 1135.67 165.515 1135.12 164.977L1129.44 159.474C1128.62 158.681 1127.32 159.671 1127.83 160.693L1129.84 164.688L1126.31 167.433C1125.4 168.141 1126.15 169.578 1127.24 169.225ZM1145.37 176.291L1126.55 172.032C1125.87 171.879 1125.22 172.348 1125.15 173.035C1124.65 178.126 1128.01 182.912 1133.13 184.07L1134.25 184.323C1139.37 185.481 1144.46 182.608 1146.2 177.796C1146.44 177.146 1146.05 176.443 1145.37 176.291Z" fill="#698ADC" fill-opacity="0.08"/>
<path d="M319.626 158.35C307.933 165.101 304.019 180.201 310.88 192.086C317.742 203.971 332.776 208.13 344.469 201.379C356.162 194.628 360.077 179.529 353.215 167.644C346.353 155.759 331.32 151.599 319.626 158.35ZM351.199 185.163C349.866 190.305 346.623 194.584 342.065 197.215C337.507 199.846 332.181 200.516 327.061 199.099C321.941 197.683 317.652 194.353 314.977 189.72C312.303 185.088 311.564 179.708 312.897 174.566C314.23 169.424 317.473 165.146 322.03 162.514C326.588 159.883 331.915 159.214 337.034 160.63C342.154 162.047 346.444 165.377 349.118 170.009C351.793 174.642 352.532 180.021 351.199 185.163ZM337.202 169.949L338.052 164.797C338.27 163.479 336.485 162.833 335.836 163.994L331.412 172.1C330.981 172.893 331.542 173.864 332.443 173.888L341.676 174.109C342.998 174.133 343.343 172.267 342.089 171.789L337.202 169.949ZM322.249 185.325L326.674 177.219C327.104 176.427 326.543 175.455 325.642 175.432L316.409 175.21C315.074 175.183 314.747 177.06 315.997 177.53L320.883 179.371L320.033 184.522C319.812 185.853 321.6 186.487 322.249 185.325ZM343.415 177.003L323.886 188.278C323.186 188.682 322.999 189.6 323.485 190.245C327.09 195.011 333.771 196.451 339.08 193.386L340.241 192.716C345.55 189.651 347.643 183.145 345.318 177.639C345.003 176.896 344.115 176.599 343.415 177.003Z" fill="#698ADC" fill-opacity="0.08"/>
<path d="M1235.58 343.91C1221.77 348.721 1214.47 363.81 1219.28 377.624C1224.09 391.438 1239.18 398.732 1252.99 393.922C1266.81 389.112 1274.1 374.022 1269.29 360.209C1264.48 346.395 1249.39 339.1 1235.58 343.91ZM1263.51 378.209C1261.02 383.347 1256.69 387.207 1251.31 389.082C1245.92 390.957 1240.13 390.623 1234.99 388.138C1229.86 385.654 1226 381.323 1224.12 375.939C1222.25 370.554 1222.58 364.762 1225.06 359.624C1227.55 354.485 1231.88 350.625 1237.26 348.75C1242.65 346.875 1248.44 347.21 1253.58 349.694C1258.72 352.178 1262.58 356.51 1264.45 361.894C1266.33 367.278 1265.99 373.07 1263.51 378.209ZM1248.7 355.621C1246.3 356.457 1244.42 360.426 1245.56 364.787C1245.79 365.678 1247.07 365.607 1247.22 364.717L1247.58 362.669C1247.88 361.018 1248.76 359.817 1250 359.386C1251.24 358.954 1252.68 359.346 1253.94 360.457L1255.49 361.838C1256.16 362.44 1257.2 361.694 1256.83 360.861C1255.04 356.725 1251.1 354.785 1248.7 355.621ZM1231.1 370.331L1231.46 368.284C1231.76 366.632 1232.64 365.432 1233.88 365C1235.12 364.568 1236.56 364.961 1237.81 366.072L1239.37 367.452C1240.04 368.055 1241.08 367.308 1240.71 366.475C1238.9 362.346 1234.96 360.407 1232.56 361.242C1230.16 362.078 1228.27 366.047 1229.42 370.408C1229.66 371.286 1230.94 371.225 1231.1 370.331ZM1256.94 368.126L1233.88 376.16C1233.05 376.448 1232.66 377.375 1233.04 378.146C1235.88 383.852 1242.67 386.665 1248.94 384.481L1250.31 384.004C1256.58 381.82 1260.16 375.397 1258.83 369.165C1258.65 368.323 1257.77 367.838 1256.94 368.126Z" fill="#698ADC" fill-opacity="0.08"/>
<path d="M636.956 2.95574C626.863 4.58836 620.008 14.0888 621.641 24.182C623.273 34.2751 632.774 41.13 642.867 39.4974C652.96 37.8648 659.815 28.3643 658.182 18.2712C656.55 8.17801 647.049 1.32312 636.956 2.95574ZM652.014 29.9588C649.679 33.1941 646.229 35.3247 642.295 35.9611C638.361 36.5975 634.414 35.6633 631.179 33.3289C627.944 30.9946 625.813 27.5441 625.177 23.6099C624.54 19.6758 625.475 15.7296 627.809 12.4943C630.143 9.25901 633.594 7.12839 637.528 6.49203C641.462 5.85567 645.408 6.78983 648.644 9.1242C651.879 11.4586 654.01 14.9091 654.646 18.8432C655.282 22.7773 654.348 26.7235 652.014 29.9588ZM644.566 12.6113C642.812 12.8949 641.032 15.3979 641.291 18.5388C641.342 19.1808 642.229 19.2868 642.442 18.6928L642.94 17.3271C643.344 16.2261 644.097 15.507 645.003 15.3604C645.909 15.2139 646.851 15.6588 647.581 16.5764L648.484 17.7156C648.874 18.2119 649.681 17.8244 649.528 17.2065C648.798 14.1418 646.319 12.3276 644.566 12.6113ZM630.662 20.5983L631.159 19.2327C631.563 18.1316 632.317 17.4125 633.223 17.2659C634.129 17.1194 635.07 17.5643 635.801 18.4819L636.703 19.6211C637.094 20.1174 637.9 19.7299 637.747 19.112C637.003 16.0497 634.524 14.2355 632.771 14.5191C631.017 14.8028 629.237 17.3058 629.496 20.4467C629.553 21.0801 630.441 21.1935 630.662 20.5983ZM648.721 22.2208L631.865 24.9474C631.26 25.0451 630.88 25.6359 631.049 26.2134C632.307 30.4854 636.639 33.2471 641.222 32.5058L642.224 32.3438C646.806 31.6025 650.047 27.6158 649.894 23.165C649.873 22.5637 649.325 22.1231 648.721 22.2208Z" fill="#698ADC" fill-opacity="0.08"/>
<path d="M998.444 384.756C988.596 379.07 976.009 382.443 970.323 392.291C964.636 402.14 968.009 414.727 977.858 420.413C987.707 426.1 1000.29 422.727 1005.98 412.878C1011.67 403.029 1008.29 390.442 998.444 384.756ZM979.85 416.963C971.921 412.385 969.195 402.213 973.773 394.284C978.351 386.354 988.523 383.629 996.452 388.207C1004.38 392.785 1007.11 402.957 1002.53 410.886C997.951 418.815 987.779 421.541 979.85 416.963ZM983.064 398.114C984.336 398.849 985.958 398.414 986.693 397.142C987.427 395.869 986.993 394.248 985.72 393.513C984.448 392.779 982.826 393.213 982.092 394.486C981.357 395.758 981.792 397.38 983.064 398.114ZM994.566 404.755C995.839 405.49 997.46 405.055 998.195 403.783C998.93 402.51 998.495 400.889 997.223 400.154C995.95 399.419 994.329 399.854 993.594 401.126C992.859 402.399 993.294 404.02 994.566 404.755ZM991.841 410.14C989.308 411.074 986.503 410.835 984.167 409.486C981.83 408.137 980.217 405.835 979.763 403.167C979.575 402.081 978.537 401.357 977.462 401.542C976.376 401.729 975.656 402.761 975.836 403.843C976.499 407.676 978.814 410.987 982.178 412.93C985.543 414.872 989.568 415.222 993.219 413.879C994.254 413.498 994.78 412.355 994.399 411.32C994.022 410.297 992.875 409.76 991.841 410.14Z" fill="#698ADC" fill-opacity="0.08"/>
<path d="M39.9943 428.919C39.5867 427.398 36.8677 426.232 33.4853 426.926C33.1805 426.974 32.9592 427.271 32.9775 427.589C32.988 427.909 33.2268 428.176 33.5393 428.22L35.0099 428.437C36.1403 428.601 36.9183 429.072 37.0881 429.706C37.258 430.34 36.8196 431.137 35.9305 431.842L34.7579 432.767C34.3644 433.077 34.549 433.859 35.0721 433.94L36.5426 434.157C37.673 434.322 38.451 434.792 38.6209 435.426C38.7907 436.06 38.3524 436.857 37.4633 437.562L36.2906 438.488C36.0418 438.682 35.9686 439.033 36.1195 439.315C36.2583 439.583 36.5708 439.72 36.8593 439.643L36.8982 439.633C40.1824 438.54 41.9467 436.174 41.5391 434.653C41.2631 433.623 39.9148 432.77 38.0303 432.536C39.5291 431.362 40.2703 429.949 39.9943 428.919ZM43.7187 420.83L44.6399 421.305C45.0062 421.487 45.4499 421.428 45.7421 421.146C46.0342 420.864 46.123 420.415 45.9544 420.036C45.1076 418.123 42.3941 417.415 40.398 417.95C38.4019 418.485 36.3982 420.457 36.629 422.535C36.6728 422.947 36.9739 423.291 37.3679 423.39C37.886 423.514 38.256 423.211 38.4022 422.977L38.9624 422.105C39.8362 420.75 42.2845 420.094 43.7187 420.83ZM24.7722 424.506C25.148 425.908 26.5665 426.742 27.9466 426.373C29.3267 426.003 30.1381 424.571 29.7624 423.169C29.3866 421.766 27.9681 420.932 26.588 421.302C25.2079 421.672 24.3964 423.103 24.7722 424.506ZM57.3581 432.248C56.2927 430.767 54.2332 430.411 52.6679 431.306L52.0597 431.655L51.702 431.038C50.7877 429.466 48.8219 428.71 47.1809 429.447C45.3009 430.291 44.6224 432.561 45.6465 434.325L49.1856 440.391C49.415 440.779 49.9118 440.918 50.3031 440.694L56.3183 437.257C58.0637 436.254 58.5828 433.95 57.3581 432.248ZM45.0466 438.417C43.2769 439.953 41.1608 441.131 38.7592 441.775C30.159 444.079 21.2607 438.847 18.9191 430.108C16.5775 421.369 21.6673 412.388 30.2676 410.084C38.8678 407.779 47.7661 413.012 50.1077 421.751C50.5769 423.502 50.7384 425.259 50.6385 426.975C51.4761 427.294 52.2655 427.745 52.908 428.397C53.4092 428.271 53.9202 428.244 54.4199 428.238C54.6775 425.8 54.5176 423.269 53.8426 420.75C50.942 409.894 39.9307 403.418 29.2486 406.281C18.5665 409.143 12.2681 420.256 15.1765 431.111C18.0848 441.965 29.0961 448.44 39.7782 445.578C42.5384 444.838 44.9913 443.544 47.0849 441.845C46.735 441.319 47.7853 443.118 45.0466 438.417Z" fill="#698ADC" fill-opacity="0.08"/>
<path d="M820.955 348.426C820.547 346.904 817.828 345.739 814.446 346.433C814.141 346.481 813.92 346.778 813.938 347.096C813.948 347.416 814.187 347.683 814.5 347.727L815.97 347.944C817.101 348.108 817.879 348.579 818.049 349.213C818.218 349.847 817.78 350.643 816.891 351.349L815.718 352.274C815.325 352.584 815.509 353.366 816.033 353.447L817.503 353.664C818.633 353.828 819.411 354.299 819.581 354.933C819.751 355.567 819.313 356.364 818.424 357.069L817.251 357.995C817.002 358.189 816.929 358.539 817.08 358.822C817.219 359.09 817.531 359.227 817.82 359.15L817.859 359.139C821.143 358.047 822.907 355.681 822.5 354.16C822.224 353.13 820.875 352.277 818.991 352.043C820.49 350.868 821.231 349.456 820.955 348.426ZM824.679 340.337L825.6 340.812C825.967 340.994 826.41 340.935 826.703 340.653C826.995 340.371 827.083 339.922 826.915 339.543C826.068 337.63 823.355 336.922 821.358 337.457C819.362 337.991 817.359 339.963 817.589 342.041C817.633 342.454 817.934 342.798 818.328 342.896C818.846 343.021 819.216 342.718 819.363 342.483L819.923 341.612C820.797 340.256 823.245 339.6 824.679 340.337ZM805.733 344.013C806.108 345.415 807.527 346.249 808.907 345.879C810.287 345.51 811.099 344.078 810.723 342.676C810.347 341.273 808.929 340.439 807.548 340.809C806.168 341.179 805.357 342.61 805.733 344.013ZM838.319 351.755C837.253 350.274 835.194 349.918 833.628 350.812L833.02 351.162L832.662 350.545C831.748 348.973 829.782 348.217 828.141 348.954C826.261 349.797 825.583 352.068 826.607 353.832L830.146 359.898C830.375 360.286 830.872 360.425 831.264 360.201L837.279 356.764C839.024 355.761 839.543 353.456 838.319 351.755ZM826.007 357.924C824.237 359.46 822.121 360.638 819.72 361.282C811.119 363.586 802.221 358.353 799.88 349.615C797.538 340.876 802.628 331.895 811.228 329.59C819.828 327.286 828.727 332.519 831.068 341.258C831.537 343.009 831.699 344.765 831.599 346.482C832.437 346.801 833.226 347.252 833.868 347.903C834.37 347.778 834.881 347.751 835.38 347.745C835.638 345.306 835.478 342.776 834.803 340.257C831.902 329.4 820.891 322.925 810.209 325.787C799.527 328.65 793.229 339.763 796.137 350.617C799.045 361.472 810.057 367.947 820.739 365.085C823.499 364.345 825.952 363.051 828.045 361.352C827.695 360.826 828.746 362.625 826.007 357.924Z" fill="#698ADC" fill-opacity="0.08"/>
</svg>
