<svg width="132" height="30" viewBox="0 0 132 30" fill="none" xmlns="http://www.w3.org/2000/svg">
<path d="M56 10L50.8767 26H46.092L43.0677 16.2629L39.908 26H35.1233L30 10H34.6042L37.7865 20.2171L41.1267 10H45.2344L48.4167 20.3086L51.7344 10H56Z" fill="#3B485E"/>
<path d="M68.9336 20.6147H60.2185C60.3731 21.231 60.7412 21.7646 61.2508 22.1111C61.76 22.4598 62.399 22.6342 63.1678 22.6342C63.675 22.6458 64.1799 22.5593 64.6572 22.3789C65.124 22.1791 65.5545 21.8964 65.9298 21.5432L68.1418 23.9573C66.9738 25.3191 65.2716 26 63.0351 26C61.6342 26 60.4029 25.7214 59.3411 25.1643C58.3261 24.6517 57.4709 23.8467 56.8755 22.8431C56.2862 21.8307 55.983 20.6635 56.0011 19.4773C55.98 18.3062 56.2711 17.1522 56.8416 16.1455C57.4099 15.1621 58.2266 14.363 59.201 13.8367C60.2482 13.2677 61.4136 12.9805 62.5927 13.001C63.7173 12.9848 64.8294 13.25 65.8369 13.7748C66.7968 14.2817 67.5989 15.0655 68.1491 16.0341C68.7154 17.0173 68.999 18.182 69 19.5284C69 19.5562 68.9779 19.9183 68.9336 20.6147ZM60.9824 16.715C60.536 17.1212 60.2418 17.6806 60.1522 18.2935H65.0627C64.9722 17.6813 64.6787 17.1224 64.234 16.715C63.7782 16.3215 63.2017 16.1153 62.6119 16.1347C62.0193 16.1124 61.4396 16.3189 60.9824 16.715Z" fill="#3B485E"/>
<path d="M81.966 13.3927C82.9002 13.9403 83.6676 14.7497 84.1808 15.7287C84.7422 16.8143 85.0238 18.0324 84.9984 19.2647C85.0228 20.5004 84.7413 21.7219 84.1808 22.8119C83.6683 23.7976 82.9013 24.615 81.966 25.1719C81.0211 25.7275 79.9515 26.013 78.866 25.9995C77.2266 25.9995 75.9971 25.4962 75.1774 24.4896V25.7838H71V8H75.3803V13.912C76.2256 13.0172 77.386 12.5698 78.8614 12.5698C79.9477 12.5574 81.0181 12.8411 81.966 13.3927ZM79.8297 21.5528C80.3215 21.001 80.5674 20.2383 80.5674 19.2647C80.5674 18.2911 80.3215 17.5401 79.8297 17.0118C79.5885 16.7439 79.2951 16.5327 78.9691 16.3922C78.6431 16.2517 78.292 16.1851 77.9393 16.1969C77.5865 16.1851 77.2354 16.2517 76.9095 16.3922C76.5835 16.5327 76.29 16.7439 76.0488 17.0118C75.557 17.555 75.3111 18.306 75.3111 19.2647C75.3111 20.2394 75.557 21.0021 76.0488 21.5528C76.2881 21.8241 76.5808 22.0385 76.9071 22.1813C77.2333 22.3242 77.5854 22.3921 77.9393 22.3805C78.2931 22.3921 78.6452 22.3242 78.9715 22.1813C79.2977 22.0385 79.5905 21.8241 79.8297 21.5528Z" fill="#3B485E"/>
<path d="M124.136 13.0003C125.612 13.0003 126.773 13.4334 127.618 14.2995V13.2169H132V25.7907H127.826V24.538C127.006 25.5124 125.776 25.9995 124.136 25.9995C123.05 26.0129 121.979 25.7365 121.033 25.1984C120.098 24.6597 119.331 23.8684 118.82 22.9141C118.258 21.8593 117.976 20.6768 118.002 19.4806C117.975 18.2878 118.257 17.1085 118.82 16.058C119.332 15.1101 120.099 14.3266 121.033 13.7968C121.981 13.2637 123.05 12.9891 124.136 13.0003ZM125.058 22.4887C125.412 22.5 125.765 22.4343 126.091 22.296C126.417 22.1577 126.71 21.9502 126.95 21.6876C127.442 21.1535 127.688 20.4153 127.688 19.4729C127.688 18.5305 127.442 17.8036 126.95 17.2922C126.708 17.0329 126.415 16.8285 126.089 16.6925C125.763 16.5564 125.411 16.492 125.058 16.5034C124.706 16.492 124.354 16.5564 124.028 16.6925C123.702 16.8285 123.409 17.0329 123.167 17.2922C122.675 17.818 122.429 18.5449 122.429 19.4729C122.429 20.4163 122.675 21.1545 123.167 21.6876C123.407 21.9502 123.7 22.1577 124.026 22.296C124.352 22.4343 124.705 22.5 125.058 22.4887Z" fill="#3B485E"/>
<path d="M93.3563 13.4368C94.2005 13.1331 95.0977 12.9852 96 13.0012V17.0353C95.6464 16.9929 95.2906 16.9693 94.9343 16.9645C93.9264 16.9645 93.1371 17.224 92.5666 17.743C91.996 18.262 91.7101 19.0563 91.709 20.1258V26H87V13.2135H91.486V14.7469C91.9743 14.158 92.6204 13.7054 93.3563 13.4368Z" fill="#3B485E"/>
<path d="M98 13H102V26H98V13Z" fill="#3B485E"/>
<path d="M110.484 21.3908L109.236 22.7736V26H105V8H109.236V17.4367L113.561 12.8518H118.576L113.561 18.4798L119 26H113.873L110.484 21.3908Z" fill="#3B485E"/>
<path d="M100 12C101.105 12 102 11.1046 102 10C102 8.89543 101.105 8 100 8C98.8954 8 98 8.89543 98 10C98 11.1046 98.8954 12 100 12Z" fill="#FFDC60"/>
<path d="M17 9L16.981 9.19324V9.2033L16.5239 14.8341L13.8697 15.6283L12.3325 13.6691L11.9376 16.2069L9.28448 17L6.13619 12.4862V12.4806L6.02534 12.3264C6.01689 12.3142 6.00845 12.3019 6 12.2873L8.03446 11.6808L10.032 14.585L10.771 11.5077L12.5014 10.9894L14.6942 13.1899L14.956 9.60095L17 9Z" fill="#3B485E"/>
<path d="M18.4063 26.8689C18.5881 27.4718 18.5045 28.117 18.1738 28.6628C17.8431 29.2086 17.2924 29.6104 16.6424 29.7801C15.9934 29.9499 15.2981 29.8742 14.7092 29.5696C14.1202 29.2649 13.6855 28.7561 13.5005 28.1548L18.4063 26.8689Z" fill="#3B485E"/>
<path d="M12.3392 27L10 24.5102L19 22L18.2665 25.3469L12.3392 27Z" fill="#FFDC60"/>
<path d="M22.5637 8.48467C23.2873 11.0655 23.1067 13.8207 22.0527 16.2817L22.0435 16.3035L21.7277 16.9926V16.9988L20.5933 19.3077L16.859 20.3782L19.2096 15.5916L19.4037 15.177C20.2121 13.3193 20.3545 11.2335 19.8064 9.28054C19.5982 8.53242 19.2923 7.81587 18.8968 7.14992C18.5488 6.56057 18.1323 6.01572 17.6561 5.52709C16.5717 4.40953 15.2109 3.60822 13.7162 3.20712C12.2215 2.80602 10.6479 2.81988 9.16035 3.24725C7.67231 3.67284 6.32464 4.49662 5.25869 5.63218C4.19274 6.76775 3.4478 8.17325 3.102 9.70127C2.94854 10.3708 2.87477 11.0565 2.88227 11.7438C2.88802 12.5207 2.99594 13.2933 3.20318 14.0413C3.74409 15.9941 4.94056 17.694 6.58596 18.8476C6.71473 18.9388 6.84759 19.0269 6.98249 19.1098L6.99782 19.1191L11.4435 21.9285L7.70606 23L5.37592 21.5285L5.35549 21.515L5.05706 21.3171C2.80648 19.7795 1.16786 17.4811 0.433591 14.832C0.427459 14.8119 0.42235 14.7922 0.418262 14.7729C-0.393961 11.8037 -0.0137076 8.6292 1.47588 5.94351C2.96547 3.25782 5.44319 1.27944 8.36728 0.440975C11.292 -0.398785 14.4257 -0.0297223 17.0828 1.46742C19.7398 2.96457 21.7039 5.46791 22.5453 8.42974C22.5535 8.44529 22.5586 8.46601 22.5637 8.48467Z" fill="#FFDC60"/>
</svg>
