<svg width="41" height="60" viewBox="0 0 41 60" fill="none" xmlns="http://www.w3.org/2000/svg">
<path d="M28.8264 23.7886L28.7975 24.0975L28.0273 33.0278L23.5786 34.2635L21.0001 31.1577L20.3368 35.1821L15.8882 36.4178L10.6075 29.2711L10.4221 29.0281C10.4221 29.0075 10.3932 28.9869 10.3809 28.9622L13.7999 27.9983L17.1487 32.6159L18.3844 27.7347L21.2678 26.9109L24.9462 30.3956L25.3827 24.7071L28.8264 23.7886Z" fill="#3B485E"/>
<path d="M31.6997 54.1675C31.9926 55.2108 31.8596 56.3276 31.3298 57.2729C30.8001 58.2182 29.9168 58.9146 28.8741 59.2093C27.8319 59.5039 26.7154 59.3732 25.7694 58.8458C24.8235 58.3184 24.1254 57.4373 23.8281 56.3959L31.6997 54.1675Z" fill="#3B485E"/>
<path d="M22.1121 53.9612L18.2979 49.842L32.9867 45.6899L31.788 51.2261L22.1121 53.9612Z" fill="#42E2B8"/>
<path d="M12.4013 40.9863L20.1042 45.7851L13.6288 47.6181L9.59217 45.1013L9.55516 45.0807L9.04027 44.743C5.14072 42.1159 2.30122 38.1889 1.02849 33.6625L1.00375 33.5636C-0.409255 28.4906 0.244638 23.0643 2.82216 18.4721C5.39968 13.8798 9.69104 10.4953 14.7576 9.05895C15.8796 8.73844 17.0279 8.5179 18.1888 8.3999L17.6287 9.40909C17.1683 10.242 16.9606 11.191 17.0313 12.1401L17.1426 13.5941C16.7966 13.6683 16.4547 13.7506 16.1128 13.8495C13.5348 14.5765 11.1999 15.9839 9.35323 17.9241C7.50654 19.8642 6.21611 22.2657 5.61725 24.8764C5.35077 26.0199 5.22209 27.1912 5.2341 28.3653C5.24843 29.693 5.43823 31.0129 5.79847 32.2908C6.73843 35.6267 8.811 38.5309 11.66 40.5044C11.8824 40.6609 12.1131 40.8133 12.3478 40.9534L12.4013 40.9863Z" fill="#42E2B8"/>
<path d="M38.4804 36.1254V36.1624L37.9245 37.3405L35.9596 41.2825L29.4883 43.1155L33.5664 34.9349L33.9041 34.2223C35.3017 31.0473 35.5479 27.4841 34.6002 24.1469C34.2394 22.8681 33.7087 21.6435 33.0225 20.5057C32.421 19.4988 31.7005 18.5681 30.8765 17.7335V17.7335L30.716 17.5769L31.7003 16.2341C32.2467 15.495 32.5621 14.6107 32.6066 13.6926L32.6561 12.6587C35.8829 15.2259 38.2273 18.7368 39.3619 22.7011L39.3867 22.7959C40.6376 27.2099 40.3172 31.9213 38.4804 36.1254V36.1254Z" fill="#42E2B8"/>
<path d="M23.565 3.21019L31.0137 5.34326L31.7508 2.76929L24.3021 0.636223L23.565 3.21019Z" fill="#42E2B8"/>
<path d="M19.9662 10.5049L23.0061 5.03467L30.5193 7.18487L30.2146 13.4501C30.1823 14.0792 29.9659 14.6851 29.5925 15.1925L21.9021 25.655L25.1192 14.4098C25.4398 14.3534 25.7353 14.1999 25.9659 13.97C26.1965 13.7402 26.3509 13.4451 26.4084 13.1246C26.4714 12.7661 26.4108 12.3968 26.2364 12.0772C26.0621 11.7577 25.7844 11.5068 25.4488 11.3658C25.2408 11.28 25.0169 11.239 24.7919 11.2457C24.567 11.2524 24.3459 11.3065 24.1433 11.4045C23.9407 11.5025 23.7612 11.6422 23.6163 11.8144C23.4714 11.9866 23.3646 12.1874 23.3028 12.4038C23.2211 12.6908 23.2213 12.9949 23.3036 13.2817C23.3858 13.5686 23.5468 13.8266 23.7682 14.0267L20.5264 25.3008L19.5378 12.3915C19.4907 11.7341 19.6398 11.0774 19.9662 10.5049V10.5049Z" fill="#3B485E"/>
</svg>
