<svg width="16" height="24" viewBox="0 0 16 24" fill="none" xmlns="http://www.w3.org/2000/svg">
<path d="M11.2645 9.13367L11.2531 9.25554L10.9492 12.7786L9.19415 13.2661L8.17691 12.0409L7.91522 13.6285L6.16021 14.116L4.07694 11.2966L4.00378 11.2007C4.00378 11.1926 3.99239 11.1845 3.98752 11.1747L5.33635 10.7945L6.65749 12.6161L7.145 10.6905L8.28252 10.3654L9.73371 11.7402L9.9059 9.49605L11.2645 9.13367Z" fill="#3B485E"/>
<path d="M12.3982 21.1184C12.5137 21.53 12.4612 21.9706 12.2522 22.3435C12.0432 22.7165 11.6948 22.9912 11.2834 23.1075C10.8722 23.2237 10.4318 23.1721 10.0586 22.9641C9.68541 22.756 9.41 22.4084 9.29272 21.9975L12.3982 21.1184Z" fill="#3B485E"/>
<path d="M8.61601 21.037L7.11127 19.412L12.9062 17.7739L12.4333 19.958L8.61601 21.037Z" fill="#3B485E"/>
<path d="M4.78458 15.9181L7.82344 17.8112L5.26884 18.5344L3.67634 17.5415L3.66174 17.5333L3.45861 17.4001C1.92019 16.3637 0.79998 14.8144 0.297874 13.0287L0.288115 12.9897C-0.269329 10.9884 -0.0113615 8.84765 1.0055 7.03595C2.02235 5.22424 3.71534 3.88902 5.71414 3.32238C6.1568 3.19593 6.6098 3.10893 7.06781 3.06238L6.84683 3.46051C6.66519 3.7891 6.58327 4.1635 6.61117 4.53791L6.65505 5.11155C6.51854 5.1408 6.38366 5.1733 6.24879 5.2123C5.23174 5.49909 4.31061 6.05433 3.58207 6.81975C2.85353 7.58518 2.34444 8.53257 2.10819 9.56253C2.00306 10.0137 1.95229 10.4757 1.95703 10.9389C1.96269 11.4627 2.03756 11.9834 2.17968 12.4876C2.5505 13.8036 3.36816 14.9494 4.49211 15.7279C4.57986 15.7897 4.67085 15.8498 4.76348 15.9051L4.78458 15.9181Z" fill="#3B485E"/>
<path d="M15.0729 14.0005V14.0151L14.8535 14.4799L14.0784 16.0351L11.5254 16.7582L13.1342 13.5309L13.2675 13.2498C13.8188 11.9972 13.916 10.5914 13.5421 9.27491C13.3997 8.77041 13.1904 8.28727 12.9197 7.83838C12.6824 7.44118 12.3981 7.07398 12.073 6.74472L12.0097 6.68297L12.3981 6.15321C12.6136 5.86162 12.738 5.51275 12.7556 5.15056L12.7751 4.74268C14.0481 5.75547 14.973 7.14057 15.4206 8.70452L15.4304 8.7419C15.9239 10.4833 15.7975 12.342 15.0729 14.0005Z" fill="#3B485E"/>
<path d="M9.18879 1.01542L12.1274 1.85693L12.4182 0.841475L9.47959 -4.19511e-05L9.18879 1.01542Z" fill="#3B485E"/>
<path d="M7.76948 3.89304L8.96874 1.73499L11.9328 2.58326L11.8126 5.05495C11.7998 5.30316 11.7145 5.54218 11.5671 5.74234L8.5332 9.86994L9.80237 5.43357C9.92886 5.4113 10.0455 5.35074 10.1364 5.26007C10.2274 5.1694 10.2883 5.05298 10.311 4.92656C10.3358 4.78511 10.3119 4.63942 10.2431 4.51335C10.1744 4.38728 10.0648 4.28833 9.93242 4.23268C9.85034 4.19882 9.76201 4.18268 9.67327 4.18531C9.58452 4.18794 9.4973 4.20929 9.41737 4.24794C9.33745 4.2866 9.26664 4.34171 9.20948 4.40964C9.15233 4.47758 9.11019 4.55682 9.08578 4.64218C9.05357 4.75541 9.05364 4.87539 9.0861 4.98854C9.11855 5.1017 9.18206 5.20351 9.26939 5.28245L7.99046 9.73018L7.60047 4.63731C7.58187 4.37796 7.6407 4.11892 7.76948 3.89304Z" fill="#3B485E"/>
</svg>
