<svg width="22" height="32" viewBox="0 0 22 32" fill="none" xmlns="http://www.w3.org/2000/svg">
<path d="M15.7219 12.6495L15.7063 12.8162L15.2908 17.6338L12.8908 18.3005L11.4998 16.625L11.1419 18.796L8.74205 19.4627L5.89328 15.6072L5.79324 15.4761C5.79324 15.465 5.77766 15.4539 5.771 15.4406L7.61546 14.9206L9.42205 17.4116L10.0887 14.7784L11.6442 14.3339L13.6286 16.2139L13.8641 13.1451L15.7219 12.6495Z" fill="#3B485E"/>
<path d="M17.2719 29.0379C17.4299 29.6007 17.3582 30.2032 17.0724 30.7132C16.7866 31.2231 16.3101 31.5988 15.7475 31.7578C15.1853 31.9168 14.583 31.8462 14.0727 31.5617C13.5624 31.2772 13.1858 30.8019 13.0254 30.2401L17.2719 29.0379Z" fill="#3B485E"/>
<path d="M12.0992 28.9268L10.0415 26.7047L17.9658 24.4647L17.3191 27.4513L12.0992 28.9268Z" fill="#42E2B8"/>
<path d="M6.86105 21.9267L11.0165 24.5156L7.52325 25.5044L5.34557 24.1467L5.32561 24.1356L5.04784 23.9533C2.94413 22.5361 1.41229 20.4176 0.725688 17.9757L0.712342 17.9224C-0.0499355 15.1856 0.302823 12.2583 1.69333 9.78088C3.08383 7.30346 5.39891 5.4776 8.13217 4.70275C8.73749 4.52985 9.35694 4.41087 9.98325 4.34721L9.68106 4.89165C9.43268 5.34096 9.32067 5.85295 9.35881 6.36493L9.41881 7.14936C9.23215 7.18936 9.04771 7.2338 8.86327 7.28713C7.4725 7.67931 6.21291 8.43857 5.21667 9.48524C4.22043 10.5319 3.52427 11.8274 3.20121 13.2359C3.05745 13.8528 2.98803 14.4846 2.99451 15.118C3.00224 15.8343 3.10463 16.5463 3.29897 17.2358C3.80605 19.0353 4.92415 20.6021 6.4611 21.6667C6.5811 21.7512 6.70552 21.8334 6.83218 21.9089L6.86105 21.9267Z" fill="#42E2B8"/>
<path d="M20.9301 19.3046V19.3246L20.6302 19.9602L19.5702 22.0868L16.0791 23.0757L18.2791 18.6624L18.4613 18.278C19.2153 16.5651 19.3481 14.6429 18.8368 12.8426C18.6422 12.1527 18.3559 11.492 17.9857 10.8782C17.6612 10.3351 17.2725 9.83294 16.828 9.38269L16.7414 9.29825L17.2724 8.57382C17.5672 8.17509 17.7373 7.69802 17.7613 7.20275L17.788 6.64499C19.5288 8.02993 20.7936 9.92399 21.4057 12.0626L21.419 12.1137C22.0939 14.495 21.921 17.0367 20.9301 19.3046Z" fill="#42E2B8"/>
<path d="M12.8835 1.54777L16.9019 2.6985L17.2995 1.30991L13.2811 0.159178L12.8835 1.54777Z" fill="#42E2B8"/>
<path d="M10.9421 5.4828L12.5821 2.53176L16.6352 3.69174L16.4708 7.07165C16.4534 7.41107 16.3367 7.73791 16.1352 8.01162L11.9865 13.6559L13.722 7.5894C13.895 7.55895 14.0544 7.47614 14.1788 7.35215C14.3032 7.22815 14.3865 7.06896 14.4175 6.89609C14.4515 6.70266 14.4188 6.50343 14.3247 6.33104C14.2307 6.15865 14.0809 6.02333 13.8998 5.94724C13.7876 5.90094 13.6668 5.87886 13.5455 5.88246C13.4241 5.88606 13.3048 5.91525 13.1955 5.96811C13.0863 6.02097 12.9894 6.09632 12.9113 6.18923C12.8331 6.28213 12.7755 6.39048 12.7421 6.50721C12.6981 6.66204 12.6982 6.82611 12.7425 6.98084C12.7869 7.13558 12.8738 7.2748 12.9932 7.38274L11.2443 13.4648L10.711 6.50055C10.6856 6.1459 10.766 5.79168 10.9421 5.4828Z" fill="#3B485E"/>
</svg>
