<svg width="17" height="24" viewBox="0 0 17 24" fill="none" xmlns="http://www.w3.org/2000/svg">
<path d="M12.4802 9.25122L12.4686 9.37376L12.1605 12.9491L10.3771 13.4541L9.34531 12.2105L9.0788 13.8218L7.29699 14.3186L5.18059 11.4553L5.10765 11.3576L5.08954 11.3328L6.45897 10.9453L7.80204 12.7951L8.29883 10.8393L9.45803 10.5081L10.9318 11.9041L11.1074 9.62548L12.4802 9.25122Z" fill="#3B485E"/>
<path d="M13.6286 21.4175C13.7459 21.8354 13.6928 22.2827 13.4808 22.6614C13.2688 23.0402 12.9151 23.3194 12.4975 23.4378C12.0799 23.5562 11.6323 23.5039 11.2531 23.2925C10.874 23.081 10.5943 22.7276 10.4756 22.3101L13.6286 21.4175Z" fill="#3B485E"/>
<path d="M9.79037 21.3431L8.26019 19.6937L14.1456 18.0294L13.6655 20.2468L9.79037 21.3431Z" fill="#3B485E"/>
<path d="M8.98489 18.0643L6.39158 18.7979L4.77376 17.7894H4.75888L4.55188 17.652C2.99076 16.5992 1.85402 15.0265 1.3442 13.2139C1.3442 13.199 1.34415 13.1857 1.33256 13.1741C1.00558 12.0078 0.948946 10.7822 1.16696 9.59058C1.72725 10.0394 2.36392 10.3832 3.04644 10.6057C3.0332 10.7713 3.02829 10.9369 3.02995 11.1025C3.03526 11.6345 3.11105 12.1635 3.25522 12.6757C3.63566 14.008 4.46826 15.1662 5.61 15.9513C5.70108 16.0125 5.79215 16.0738 5.88654 16.1301H5.89656L8.98489 18.0643Z" fill="#3B485E"/>
<path d="M16.3458 14.1977V14.2143L16.1223 14.6862L15.3341 16.2661L12.7292 17.003L14.362 13.7258L14.4961 13.4409C15.0573 12.169 15.1564 10.7409 14.776 9.40362C14.6314 8.89148 14.4191 8.40086 14.145 7.94469C13.9033 7.54129 13.6142 7.16825 13.2839 6.83352C12.6111 6.1516 11.785 5.64057 10.8744 5.34313C10.886 5.19906 10.8911 5.05001 10.8911 4.90263C10.8917 4.33388 10.8113 3.76795 10.6526 3.2218C12.0717 3.5196 13.3829 4.19828 14.4455 5.18498C15.508 6.17168 16.2818 7.42914 16.6837 8.82236C16.6837 8.83561 16.6837 8.84887 16.6953 8.86046C17.1989 10.6265 17.0754 12.5124 16.3458 14.1977Z" fill="#3B485E"/>
<path d="M8.89929 2.7778C9.06489 2.75461 9.24699 2.73971 9.41922 2.70825C9.44875 2.6977 9.48009 2.69325 9.5114 2.69518C9.5427 2.6971 9.57329 2.70536 9.60131 2.71945C9.62933 2.73353 9.65419 2.75316 9.67441 2.77714C9.69462 2.80112 9.70989 2.82895 9.71904 2.85895C9.79522 3.05436 9.87296 3.2481 9.95741 3.44019C9.96929 3.46121 9.97681 3.48439 9.97957 3.50837C9.98233 3.53235 9.98022 3.55664 9.97342 3.5798C9.96663 3.60296 9.95538 3.62451 9.94011 3.6432C9.92484 3.66189 9.90598 3.67732 9.88464 3.68859C9.63459 3.87903 9.38773 4.06782 9.1443 4.27482C9.0774 4.34656 9.0367 4.43872 9.02851 4.53647C8.98379 4.93225 9.12621 5.21377 9.5253 5.35287C9.68097 5.40752 9.81331 5.51847 9.96566 5.59299C9.99964 5.6043 10.031 5.62234 10.0578 5.64603C10.0847 5.66972 10.1066 5.69858 10.122 5.73088C10.1375 5.76318 10.1463 5.79826 10.1479 5.83404C10.1495 5.86981 10.1438 5.90554 10.1313 5.93909C9.99216 6.62633 9.99547 6.67435 9.30326 6.64951C8.80647 6.63129 8.50016 6.79358 8.32131 7.23242C8.28557 7.31565 8.27979 7.40868 8.30482 7.49573C8.41742 7.78056 8.54817 8.06042 8.68065 8.33697C8.69564 8.35828 8.70616 8.38238 8.7117 8.40784C8.71724 8.4333 8.71778 8.45962 8.71299 8.48523C8.70821 8.51085 8.69824 8.53525 8.68388 8.557C8.66953 8.57874 8.65105 8.5974 8.62938 8.61187C8.61814 8.62037 8.60754 8.62978 8.59785 8.64002C8.05303 9.16166 8.05305 9.16166 7.42378 8.75925C6.88558 8.41646 6.88399 8.41315 6.29612 8.69301C6.22833 8.73429 6.17908 8.80013 6.15866 8.87682C6.08248 9.1749 6.01956 9.47464 5.95829 9.77603C5.95681 9.80381 5.94981 9.83102 5.93775 9.85609C5.92568 9.88115 5.90873 9.90358 5.88794 9.92206C5.86715 9.94054 5.84293 9.95472 5.81662 9.96376C5.79031 9.97281 5.76239 9.97654 5.73463 9.97475C5.5326 9.98248 5.33054 9.99738 5.12851 10.0195C5.09826 10.027 5.06681 10.0284 5.03601 10.0235C5.00521 10.0187 4.97577 10.0076 4.94933 9.99109C4.92289 9.97455 4.90007 9.95285 4.88222 9.92727C4.86436 9.9017 4.85176 9.87279 4.84534 9.84227C4.74598 9.5591 4.64 9.27758 4.51415 9.00434C4.45771 8.91723 4.37648 8.84914 4.28079 8.80893C3.87507 8.61518 3.54219 8.71785 3.26067 9.06064C3.14288 9.17866 3.01776 9.28927 2.88629 9.39184C2.85387 9.42757 2.80945 9.45005 2.76144 9.45495C2.71344 9.45984 2.66537 9.4468 2.62641 9.41834C1.90605 9.05733 1.90596 9.05898 2.11959 8.29723C2.28518 7.73088 2.2654 7.66464 1.83318 7.27382C1.76647 7.22927 1.68584 7.21043 1.60629 7.22083C1.30601 7.24733 1.00735 7.28155 0.710374 7.3235C0.653279 7.3405 0.591728 7.3342 0.539276 7.30595C0.486824 7.27771 0.447835 7.22984 0.430602 7.17281C0.357738 6.98403 0.27479 6.79855 0.195302 6.61308C0.168587 6.56405 0.162333 6.50645 0.177836 6.45281C0.19334 6.39917 0.229349 6.35382 0.278102 6.3266C0.519877 6.14941 0.748533 5.954 0.990308 5.77515C1.03572 5.73999 1.07142 5.69392 1.09429 5.64124C1.11716 5.58855 1.12647 5.53095 1.12114 5.47376C1.15096 5.29823 1.11387 5.1179 1.01731 4.96831C0.920758 4.81872 0.771672 4.71073 0.599435 4.66563C0.484262 4.61403 0.373494 4.55311 0.268237 4.48348C-0.03481 4.31788 -0.0347453 4.31788 0.0447424 3.96349C0.168942 3.41039 0.16889 3.41039 0.736896 3.3839H0.862712C1.52511 3.33753 1.53505 3.33918 1.85631 2.76124C1.8702 2.72792 1.87733 2.69218 1.87733 2.65608C1.87733 2.61999 1.8702 2.58424 1.85631 2.55093C1.73708 2.26775 1.61125 1.98789 1.47546 1.71299C1.45859 1.68888 1.44683 1.66155 1.44102 1.6327C1.4352 1.60385 1.43544 1.57412 1.44166 1.54535C1.44788 1.51659 1.46003 1.48941 1.47724 1.46555C1.49445 1.44168 1.51644 1.42162 1.54177 1.40664C1.70737 1.2841 1.85791 1.15327 2.01026 1.02079C2.04867 0.980156 2.10142 0.955928 2.15727 0.953151C2.21311 0.950374 2.26784 0.969269 2.31009 1.00589C2.57008 1.18308 2.83497 1.35365 3.10655 1.50269C3.19064 1.53641 3.28294 1.54447 3.37161 1.52587C3.44613 1.52587 3.51059 1.45301 3.58346 1.44142C3.91466 1.39008 4.0323 1.17148 4.06376 0.863469C4.08529 0.656469 4.1565 0.454445 4.19459 0.249102C4.19801 0.192872 4.2233 0.140224 4.2651 0.102454C4.30689 0.064683 4.3618 0.0447944 4.41808 0.047065H4.45948C5.21131 -0.0522946 5.21145 -0.0522901 5.48138 0.641571C5.71322 1.24104 5.71308 1.24435 6.33574 1.3404C6.41584 1.34081 6.4933 1.31128 6.55276 1.2576C6.7846 1.06716 7.01145 0.870099 7.23004 0.6631C7.24945 0.638897 7.27357 0.618835 7.30087 0.604103C7.32817 0.589371 7.35812 0.580263 7.38901 0.577329C7.41989 0.574395 7.45095 0.577694 7.48054 0.587022C7.51013 0.596349 7.53762 0.61152 7.56124 0.631636C7.71359 0.730995 7.8693 0.825387 8.02828 0.911499C8.06239 0.923706 8.09334 0.943087 8.11933 0.968333C8.14531 0.993578 8.16566 1.0241 8.17884 1.05784C8.19202 1.09159 8.19781 1.12777 8.19582 1.16394C8.19383 1.20011 8.18416 1.23543 8.16736 1.26753C8.07793 1.52421 8.02327 1.79415 7.94047 2.05248C7.89244 2.19986 7.88752 2.3224 8.02828 2.41845C8.03355 2.42259 8.03805 2.42764 8.04154 2.43336C8.2386 2.77118 8.51676 2.90531 8.89929 2.7778ZM4.90178 2.70825C4.59722 2.72854 4.2997 2.80916 4.02657 2.94543C3.75343 3.08169 3.51002 3.27088 3.31064 3.502C3.11126 3.73312 2.95984 4.00157 2.86511 4.29173C2.77037 4.58189 2.73426 4.88799 2.75886 5.19224C2.77984 5.49697 2.86088 5.79454 2.99723 6.06787C3.13358 6.3412 3.32255 6.58489 3.55338 6.78494C3.7842 6.98499 4.05231 7.13746 4.34224 7.23358C4.63217 7.32969 4.93823 7.36757 5.24285 7.34503C5.54823 7.32246 5.84617 7.23961 6.11936 7.10127C6.39255 6.96293 6.63555 6.77185 6.83448 6.53905C7.0334 6.30624 7.18419 6.03634 7.27823 5.74492C7.37227 5.4535 7.40771 5.14634 7.38238 4.84117C7.36168 4.53746 7.28081 4.2409 7.14449 3.96872C7.00817 3.69654 6.81916 3.45417 6.58834 3.2557C6.35752 3.05724 6.08951 2.90664 5.79997 2.81266C5.51042 2.71867 5.20516 2.68318 4.90178 2.70825Z" fill="#3B485E"/>
</svg>
