<svg width="31" height="42" viewBox="0 0 31 42" fill="none" xmlns="http://www.w3.org/2000/svg">
<path d="M22.4336 16.563L22.413 16.7806L21.8659 23.129L18.6992 24.0258L16.8672 21.8175L16.394 24.6786L13.2302 25.5607L9.47221 20.4767L9.34271 20.3032L9.31055 20.2591L11.7421 19.571L14.1269 22.8555L15.0091 19.3829L17.0674 18.7948L19.6842 21.2736L19.996 17.2275L22.4336 16.563Z" fill="#555555"/>
<path d="M24.4726 38.1655C24.6809 38.9075 24.5866 39.7019 24.2102 40.3743C23.8337 41.0468 23.2057 41.5425 22.4643 41.7529C21.7226 41.9631 20.9279 41.8703 20.2546 41.4948C19.5814 41.1193 19.0849 40.4919 18.874 39.7504L24.4726 38.1655Z" fill="#555555"/>
<path d="M17.6575 38.0336L14.9404 35.105L25.3907 32.1498L24.5382 36.0871L17.6575 38.0336Z" fill="#755ABA"/>
<path d="M16.227 32.2116L11.6223 33.5142L8.74962 31.7235H8.7232L8.35565 31.4794C5.58368 29.6101 3.56527 26.8176 2.66001 23.5991C2.66001 23.5726 2.65991 23.5491 2.63933 23.5285C2.05875 21.4574 1.95818 19.2812 2.34529 17.1654C3.34015 17.9623 4.47065 18.5729 5.68256 18.9679C5.65903 19.262 5.65033 19.556 5.65327 19.85C5.6627 20.7947 5.79727 21.734 6.05327 22.6435C6.72879 25.0092 8.20717 27.0657 10.2345 28.4596C10.3962 28.5684 10.5579 28.6772 10.7255 28.7772H10.7433L16.227 32.2116Z" fill="#755ABA"/>
<path d="M29.2976 25.3461V25.3755L28.9008 26.2135L27.5012 29.0187L22.8758 30.3272L25.7751 24.5081L26.0132 24.0023C27.0097 21.7438 27.1856 19.208 26.5103 16.8335C26.2534 15.9242 25.8765 15.053 25.3898 14.243C24.9606 13.5267 24.4472 12.8644 23.8607 12.27C22.6662 11.0592 21.1993 10.1518 19.5824 9.62362C19.603 9.3678 19.612 9.10315 19.612 8.84146C19.613 7.83157 19.4703 6.82669 19.1885 5.85693C21.7083 6.38572 24.0366 7.59079 25.9233 9.3428C27.81 11.0948 29.1839 13.3276 29.8975 15.8014C29.8975 15.825 29.8976 15.8485 29.9182 15.8691C30.8123 19.0049 30.593 22.3536 29.2976 25.3461Z" fill="#755ABA"/>
<path d="M16.0753 5.06856C16.3693 5.02739 16.6926 5.00094 16.9985 4.94507C17.0509 4.92634 17.1065 4.91845 17.1621 4.92186C17.2177 4.92528 17.272 4.93994 17.3218 4.96495C17.3715 4.98997 17.4157 5.02482 17.4516 5.06739C17.4875 5.10997 17.5146 5.15939 17.5308 5.21266C17.6661 5.55963 17.8041 5.90364 17.9541 6.24473C17.9752 6.28204 17.9885 6.32321 17.9934 6.36578C17.9983 6.40836 17.9946 6.45149 17.9825 6.49261C17.9705 6.53374 17.9505 6.57201 17.9234 6.6052C17.8962 6.63838 17.8628 6.66578 17.8249 6.6858C17.3809 7.02394 16.9425 7.35916 16.5103 7.72672C16.3915 7.8541 16.3192 8.01774 16.3047 8.19131C16.2253 8.89407 16.4782 9.39394 17.1868 9.64094C17.4632 9.73797 17.6982 9.93497 17.9687 10.0673C18.0291 10.0874 18.0847 10.1194 18.1324 10.1615C18.1801 10.2035 18.219 10.2548 18.2464 10.3121C18.2739 10.3695 18.2895 10.4318 18.2924 10.4953C18.2952 10.5588 18.285 10.6223 18.2628 10.6818C18.0158 11.9021 18.0217 11.9874 16.7926 11.9433C15.9104 11.9109 15.3665 12.1991 15.049 12.9783C14.9855 13.1261 14.9753 13.2913 15.0197 13.4459C15.2196 13.9516 15.4518 14.4485 15.687 14.9396C15.7136 14.9774 15.7323 15.0202 15.7422 15.0654C15.752 15.1106 15.753 15.1574 15.7445 15.2028C15.736 15.2483 15.7183 15.2916 15.6928 15.3303C15.6673 15.3689 15.6345 15.402 15.596 15.4277C15.576 15.4428 15.5572 15.4595 15.54 15.4777C14.5726 16.4039 14.5727 16.4039 13.4553 15.6894C12.4997 15.0807 12.4968 15.0748 11.453 15.5718C11.3326 15.6451 11.2452 15.762 11.2089 15.8982C11.0737 16.4274 10.9619 16.9596 10.8531 17.4948C10.8505 17.5441 10.8381 17.5925 10.8167 17.637C10.7952 17.6815 10.7651 17.7213 10.7282 17.7541C10.6913 17.7869 10.6483 17.8121 10.6016 17.8282C10.5549 17.8442 10.5053 17.8508 10.456 17.8477C10.0973 17.8614 9.73849 17.8879 9.37976 17.9271C9.32604 17.9405 9.27021 17.943 9.21551 17.9343C9.16082 17.9257 9.10854 17.9061 9.0616 17.8767C9.01465 17.8473 8.97413 17.8088 8.94243 17.7634C8.91073 17.718 8.88836 17.6666 8.87696 17.6124C8.70053 17.1096 8.51235 16.6097 8.28888 16.1246C8.18866 15.9699 8.04443 15.849 7.87452 15.7776C7.15411 15.4336 6.56304 15.6159 6.06317 16.2245C5.85402 16.4341 5.63186 16.6305 5.39841 16.8126C5.34085 16.8761 5.26197 16.916 5.17673 16.9247C5.0915 16.9334 5.00614 16.9102 4.93696 16.8597C3.65788 16.2187 3.65772 16.2216 4.03703 14.869C4.33107 13.8634 4.29594 13.7458 3.52849 13.0518C3.41003 12.9727 3.26686 12.9393 3.12561 12.9577C2.59242 13.0048 2.06211 13.0655 1.5348 13.14C1.43342 13.1702 1.32413 13.159 1.23099 13.1089C1.13786 13.0587 1.06863 12.9737 1.03803 12.8725C0.908647 12.5373 0.761361 12.2079 0.620221 11.8786C0.572786 11.7915 0.56168 11.6893 0.589209 11.594C0.616737 11.4988 0.680675 11.4182 0.767242 11.3699C1.19654 11.0553 1.60255 10.7083 2.03186 10.3907C2.1125 10.3283 2.17589 10.2465 2.21649 10.153C2.2571 10.0594 2.27362 9.95713 2.26416 9.85558C2.31711 9.54391 2.25126 9.2237 2.07981 8.95809C1.90836 8.69248 1.64364 8.50074 1.33781 8.42065C1.13331 8.32903 0.936624 8.22086 0.749726 8.09721C0.211628 7.80317 0.211743 7.80317 0.352883 7.17392C0.573415 6.19181 0.573323 6.19181 1.58189 6.14477H1.80529C2.98146 6.06244 2.99911 6.06537 3.56955 5.03916C3.59422 4.98 3.60688 4.91654 3.60688 4.85244C3.60688 4.78835 3.59422 4.72488 3.56955 4.66572C3.35784 4.16291 3.13442 3.66598 2.89331 3.17787C2.86334 3.13506 2.84247 3.08652 2.83214 3.0353C2.82182 2.98407 2.82225 2.93128 2.83329 2.8802C2.84434 2.82913 2.8659 2.78088 2.89647 2.73849C2.92703 2.69611 2.96607 2.6605 3.01104 2.6339C3.30508 2.41631 3.5724 2.18401 3.84292 1.94877C3.91112 1.87662 4.00477 1.8336 4.10394 1.82867C4.2031 1.82374 4.30027 1.85729 4.37529 1.92232C4.83694 2.23694 5.30728 2.53981 5.78951 2.80445C5.93883 2.86433 6.10271 2.87864 6.26015 2.8456C6.39247 2.8456 6.50694 2.71624 6.63632 2.69565C7.22441 2.6045 7.43329 2.21635 7.48916 1.66943C7.52739 1.30188 7.65384 0.943155 7.72147 0.578542C7.72754 0.478699 7.77245 0.385216 7.84666 0.31815C7.92088 0.251083 8.01836 0.215769 8.11831 0.2198H8.19182C9.52677 0.0433748 9.52704 0.0433827 10.0063 1.27542C10.418 2.33986 10.4177 2.34573 11.5233 2.51627C11.6656 2.517 11.8031 2.46457 11.9087 2.36925C12.3204 2.0311 12.7232 1.6812 13.1113 1.31365C13.1457 1.27067 13.1886 1.23505 13.2371 1.20889C13.2855 1.18273 13.3387 1.16656 13.3936 1.16135C13.4484 1.15614 13.5035 1.162 13.5561 1.17856C13.6086 1.19512 13.6574 1.22206 13.6994 1.25778C13.9699 1.43421 14.2464 1.60181 14.5287 1.75471C14.5892 1.77639 14.6442 1.8108 14.6903 1.85563C14.7365 1.90045 14.7726 1.95465 14.796 2.01457C14.8194 2.07448 14.8297 2.13873 14.8262 2.20296C14.8226 2.26718 14.8054 2.3299 14.7756 2.38689C14.6168 2.84266 14.5198 3.32196 14.3727 3.78067C14.2875 4.04237 14.2787 4.25995 14.5287 4.43049C14.538 4.43784 14.546 4.44681 14.5522 4.45696C14.9021 5.05681 15.396 5.29497 16.0753 5.06856ZM8.97718 4.94507C8.43639 4.9811 7.9081 5.12426 7.42312 5.36621C6.93813 5.60817 6.50592 5.94409 6.1519 6.35448C5.79787 6.76486 5.52901 7.24152 5.3608 7.75674C5.19259 8.27197 5.12847 8.81548 5.17214 9.35571C5.2094 9.89679 5.35329 10.4252 5.5954 10.9105C5.83751 11.3958 6.17305 11.8285 6.58291 12.1838C6.99277 12.539 7.46882 12.8097 7.98363 12.9804C8.49845 13.151 9.04189 13.2183 9.58278 13.1783C10.125 13.1382 10.6541 12.9911 11.1391 12.7454C11.6242 12.4998 12.0557 12.1605 12.4089 11.7471C12.7621 11.3338 13.0299 10.8545 13.1969 10.3371C13.3638 9.81961 13.4268 9.2742 13.3818 8.73234C13.345 8.19307 13.2014 7.66649 12.9594 7.18319C12.7173 6.6999 12.3817 6.26954 11.9719 5.91715C11.562 5.56475 11.0861 5.29734 10.572 5.13046C10.0579 4.96358 9.51586 4.90056 8.97718 4.94507Z" fill="#555555"/>
</svg>
