<svg width="28" height="41" viewBox="0 0 28 41" fill="none" xmlns="http://www.w3.org/2000/svg">
<path d="M10.7511 11.8252L8.64844 11.4211C9.77891 5.51151 13.3315 0.0117642 18.7323 1.03202C23.7262 1.98444 25.0885 8.14835 24.2236 13.8346L22.1068 13.5124C22.6014 10.2652 22.4488 3.92036 18.331 3.13468C14.4055 2.38292 11.6837 6.95851 10.7511 11.8252Z" fill="#00CDFF"/>
<path d="M5.97107 9.23346L0.273438 37.1307L24.8613 40.8726L27.7327 12.5458L5.97107 9.23346ZM19.0535 35.8674C18.5746 36.0026 18.0616 35.9426 17.6267 35.7006C17.1919 35.4586 16.8707 35.0542 16.7332 34.5759L20.3534 33.55C20.4882 34.0297 20.4271 34.5433 20.1833 34.9779C19.9395 35.4124 19.5331 35.7324 19.0535 35.8674V35.8674ZM20.3959 32.2075L15.9475 33.4652L14.1924 31.5716L20.947 29.6611L20.3959 32.2075ZM15.1306 24.8453L13.0846 25.4247L10.6569 22.1378L10.572 22.0248L10.5523 21.9965L12.1237 21.55L13.6639 23.6753L14.2291 21.4313L15.5631 21.0526L17.2588 22.6578L17.4595 20.0408L19.0336 19.5971L19.0196 19.7356L18.6663 23.8392L16.6201 24.4044L15.4359 22.9913L15.1306 24.8453ZM23.4708 25.2636V25.2834L23.2136 25.8232L22.3093 27.6376L19.3332 28.4854L21.2098 24.7266L21.3625 24.3988C22.0077 22.9398 22.1216 21.3009 21.6846 19.7667C21.5186 19.1785 21.2754 18.6149 20.9612 18.0907C20.6822 17.6288 20.3502 17.201 19.972 16.8161C19.3322 16.1676 18.57 15.6524 17.7298 15.3002C16.8896 14.948 15.988 14.7659 15.077 14.7643C14.4433 14.7636 13.8127 14.8511 13.2032 15.0243C12.0156 15.3581 10.94 16.0056 10.0891 16.8987C9.23816 17.7919 8.64352 18.8978 8.36767 20.1001C8.24634 20.6264 8.18837 21.1654 8.19518 21.7054C8.20514 22.3105 8.29743 22.9114 8.46938 23.4916C8.90021 25.0253 9.85269 26.3607 11.1627 27.2674V27.2674C11.2644 27.3389 11.3691 27.4068 11.4765 27.4708H11.4906L15.0318 29.6781L12.053 30.526L10.199 29.37H10.1821L9.94471 29.2146C8.15702 28.0067 6.85528 26.2043 6.27067 24.1275C6.26938 24.1124 6.26938 24.0973 6.27067 24.0823C5.62341 21.7498 5.92599 19.256 7.11231 17.146C8.29863 15.0361 10.2721 13.4817 12.6013 12.8227C14.9327 12.1598 17.4318 12.4482 19.5508 13.6248C21.6699 14.8015 23.2362 16.7703 23.906 19.0997C23.906 19.0997 23.906 19.1279 23.9201 19.1421C24.4821 21.1732 24.3234 23.3363 23.4708 25.2636V25.2636Z" fill="#555555"/>
</svg>
