<svg width="16" height="17" viewBox="0 0 16 17" fill="none" xmlns="http://www.w3.org/2000/svg">
<path d="M3.83678 0.600586L0.883545 15.0605L13.6281 17L15.1164 2.31744L3.83678 0.600586ZM10.6178 14.4057C10.3695 14.4758 10.1036 14.4447 9.87823 14.3192C9.65285 14.1938 9.48634 13.9841 9.41509 13.7362L11.2915 13.2045C11.3614 13.4531 11.3297 13.7193 11.2034 13.9446C11.077 14.1698 10.8664 14.3357 10.6178 14.4057ZM11.3136 12.5087L9.00781 13.1605L8.09812 12.1791L11.5992 11.1888L11.3136 12.5087ZM8.58444 8.69263L7.5239 8.99294L6.26558 7.28927L6.22159 7.23067L6.21136 7.21603L7.02585 6.98457L7.82417 8.08617L8.11715 6.92305L8.8086 6.72675L9.68754 7.5588L9.79154 6.20232L10.6075 5.97233L10.6002 6.04411L10.417 8.17113L9.35644 8.4641L8.74266 7.73166L8.58444 8.69263ZM12.9074 8.90944V8.91969L12.774 9.19948L12.3053 10.1399L10.7627 10.5794L11.7354 8.6311L11.8146 8.46118C12.149 7.70495 12.208 6.85548 11.9815 6.06023C11.8955 5.75535 11.7694 5.46324 11.6066 5.19155C11.462 4.95212 11.2899 4.73039 11.0938 4.53088C10.7622 4.19475 10.3672 3.92769 9.93166 3.74514C9.49617 3.5626 9.02882 3.46818 8.55661 3.46737C8.22819 3.467 7.90132 3.51235 7.58541 3.60214C6.96985 3.77514 6.41228 4.11076 5.97124 4.57371C5.5302 5.03666 5.22198 5.60986 5.07901 6.23308C5.01612 6.50587 4.98606 6.78521 4.9896 7.06514C4.99476 7.37876 5.04259 7.69022 5.13172 7.99095C5.35503 8.78594 5.84873 9.47809 6.52773 9.94804C6.58046 9.98515 6.63472 10.0203 6.69038 10.0535H6.69768L8.53322 11.1976L6.98922 11.6371L6.02825 11.0379H6.01945L5.89642 10.9573C4.96982 10.3312 4.29509 9.39701 3.99207 8.32055C3.9914 8.31275 3.9914 8.30491 3.99207 8.29711C3.65658 7.08814 3.81342 5.79551 4.42832 4.70187C5.04322 3.60823 6.06613 2.80255 7.27341 2.461C8.48184 2.11737 9.77716 2.26688 10.8755 2.87675C11.9739 3.48663 12.7857 4.50711 13.133 5.71452C13.133 5.71452 13.1329 5.72916 13.1403 5.73648C13.4315 6.78928 13.3493 7.91046 12.9074 8.90944Z" fill="#3B485E"/>
</svg>
