<svg width="17" height="24" viewBox="0 0 17 24" fill="none" xmlns="http://www.w3.org/2000/svg">
<path d="M11.3252 9.57056L11.3123 9.69148L11.0081 13.2346L9.24209 13.733L8.21801 12.5018L7.95412 14.0975L6.18809 14.5977L4.09215 11.7599L4.01701 11.6628C4.01701 11.6628 4.00605 11.6481 4.00055 11.6389L5.35812 11.2542L6.68814 13.0863L7.18104 11.1498L8.33341 10.8237L9.79904 12.2069L9.97294 9.94979L11.3252 9.57056Z" fill="#3B485E"/>
<path d="M12.465 21.62C12.5812 22.0344 12.5281 22.4781 12.3176 22.8535C12.107 23.2289 11.7562 23.5054 11.342 23.6224C10.9283 23.7388 10.4853 23.6865 10.11 23.4771C9.7347 23.2677 9.45757 22.9181 9.33942 22.5049L12.465 21.62Z" fill="#3B485E"/>
<path d="M8.6597 21.5472L7.14468 19.9112L12.9761 18.2623L12.4998 20.4608L8.6597 21.5472Z" fill="#3B485E"/>
<path d="M7.86276 18.2972L5.2979 19.03L3.69486 18.0315H3.68198L3.47677 17.8959C1.93004 16.8529 0.803729 15.2948 0.29824 13.499L0.287327 13.4587C-0.232593 11.5829 -0.0424672 9.58123 0.821554 7.83697C1.68557 6.0927 3.16269 4.72842 4.96995 4.00537L5.12561 6.10673C4.37478 6.50593 3.71848 7.06174 3.20106 7.73655C2.68365 8.41137 2.31736 9.18944 2.12671 10.0181C2.02022 10.4719 1.96971 10.9371 1.97642 11.4032C1.98096 11.9299 2.05608 12.4537 2.19988 12.9604C2.57367 14.2839 3.39629 15.4362 4.52661 16.2196C4.61455 16.2819 4.70986 16.3424 4.79963 16.4028H4.81054L7.86276 18.2972Z" fill="#3B485E"/>
<path d="M15.1558 14.4754V14.4883L14.9341 14.9573L14.1537 16.5237L11.5889 17.2565L13.2066 14.0083L13.3422 13.7261C13.8981 12.4654 13.9953 11.0499 13.617 9.72494C13.5968 9.648 13.5711 9.57105 13.5454 9.49227L15.5607 9.34204C16.0054 11.0501 15.8628 12.8582 15.1558 14.4754Z" fill="#3B485E"/>
<path d="M15.3723 0.00206817L7.18307 0.612142C7.03523 0.625495 6.89142 0.66783 6.75994 0.736742C6.62847 0.805655 6.51189 0.899793 6.41679 1.01377C6.3217 1.12776 6.24992 1.25935 6.20568 1.40105C6.16144 1.54275 6.14563 1.69177 6.15898 1.83961L6.58944 7.59955C6.59785 7.7476 6.63547 7.89254 6.70001 8.02604C6.76455 8.15954 6.85471 8.279 6.96551 8.37754C7.07631 8.47609 7.20557 8.5518 7.3457 8.60032C7.48582 8.64885 7.63404 8.66923 7.78206 8.66031L8.64137 8.59802C8.69633 9.23923 8.68723 9.03772 8.70739 9.45176C8.70761 9.46146 8.7108 9.47085 8.71651 9.47869C8.72222 9.48654 8.73007 9.49245 8.73923 9.49564C8.7484 9.49882 8.75833 9.49913 8.76768 9.49653C8.77703 9.49393 8.78546 9.48853 8.79165 9.48107C9.30646 9.23374 10.0062 8.90581 11.1475 8.40932L15.9713 8.04292C16.1192 8.02956 16.263 7.98722 16.3945 7.9183C16.5259 7.84939 16.6425 7.75526 16.7376 7.64128C16.8327 7.5273 16.9045 7.39571 16.9487 7.25401C16.993 7.11231 17.0088 6.96328 16.9954 6.81544L16.565 1.05549C16.5461 0.757791 16.41 0.479717 16.1864 0.282242C15.9628 0.0847675 15.6701 -0.0159897 15.3723 0.00206817ZM11.3583 1.39076C11.5544 1.37602 11.7515 1.40006 11.9383 1.46151C12.1251 1.52296 12.2979 1.62061 12.447 1.7489C12.596 1.87718 12.7184 2.03357 12.8069 2.20914C12.8955 2.38471 12.9485 2.57602 12.9631 2.77212C12.9924 3.16852 12.8632 3.56035 12.6039 3.86158C12.3446 4.16282 11.9763 4.34885 11.58 4.37883C11.1839 4.4076 10.7925 4.27816 10.4917 4.01888C10.1908 3.7596 10.0051 3.39164 9.97515 2.99563C9.95939 2.79871 9.98277 2.60062 10.0438 2.41275C10.1049 2.22489 10.2025 2.05095 10.331 1.90095C10.4595 1.75095 10.6165 1.62784 10.7928 1.53871C10.9691 1.44958 11.1613 1.39619 11.3583 1.3816V1.39076ZM14.3756 6.59743C14.3867 6.7461 14.3385 6.89309 14.2413 7.00611C14.1441 7.11913 14.0058 7.18893 13.8571 7.20017L9.74972 7.50613C9.60116 7.51674 9.45453 7.46819 9.34162 7.37107C9.22871 7.27395 9.15868 7.13613 9.14697 6.98766L9.11226 6.50216C9.09652 6.29615 9.12152 6.08906 9.18597 5.89276C9.25043 5.69646 9.353 5.51481 9.48779 5.35823C9.62259 5.20164 9.78703 5.07321 9.97157 4.98028C10.1561 4.88735 10.3572 4.83176 10.5632 4.81669L10.7573 4.80203C11.0332 4.90565 11.3282 4.94816 11.622 4.92661C11.9159 4.90393 12.2015 4.81833 12.4593 4.67562L12.6536 4.66096C13.0695 4.63016 13.4805 4.76567 13.7965 5.03772C14.1125 5.30977 14.3076 5.69613 14.339 6.11193L14.3756 6.59743Z" fill="#3B485E"/>
</svg>
