<svg width="32" height="44" viewBox="0 0 32 44" fill="none" xmlns="http://www.w3.org/2000/svg">
<path d="M20.817 17.5928L20.7934 17.815L20.2343 24.3278L16.9881 25.2438L15.1057 22.9808L14.6207 25.9139L11.3745 26.8333L7.52189 21.617L7.38377 21.4385C7.38377 21.4385 7.36362 21.4116 7.35352 21.3947L9.8489 20.6875L12.2936 24.0551L13.1997 20.4956L15.3178 19.8962L18.0119 22.4386L18.3315 18.2899L20.817 17.5928Z" fill="#555555"/>
<path d="M22.9122 39.7402C23.1257 40.502 23.0282 41.3175 22.6412 42.0075C22.2542 42.6976 21.6093 43.2059 20.8479 43.4209C20.0875 43.6348 19.2732 43.5388 18.5834 43.1538C17.8936 42.7688 17.3842 42.1263 17.167 41.3668L22.9122 39.7402Z" fill="#555555"/>
<path d="M15.9176 39.6063L13.1328 36.5991L23.8517 33.5684L22.9762 37.6094L15.9176 39.6063Z" fill="#6B8FE6"/>
<path d="M14.4527 33.6324L9.73819 34.9794L6.79161 33.1441H6.76793L6.39073 32.8949C3.54764 30.9776 1.47735 28.1137 0.548202 24.8128L0.528142 24.7387C-0.427535 21.2908 -0.0780599 17.6114 1.51012 14.4052C3.09829 11.1991 5.81342 8.69136 9.13539 7.3623L9.4215 11.2249C8.04139 11.9586 6.83502 12.9803 5.88395 14.2207C4.93289 15.4611 4.2596 16.8913 3.90915 18.4145C3.71341 19.2487 3.62057 20.1037 3.63291 20.9604C3.64124 21.9286 3.77933 22.8913 4.04365 23.8228C4.73073 26.2555 6.24279 28.3736 8.32047 29.8136C8.48212 29.9281 8.65731 30.0392 8.82232 30.1504H8.84238L14.4527 33.6324Z" fill="#6B8FE6"/>
<path d="M27.8582 26.6077V26.6313L27.4508 27.4933L26.0163 30.3726L21.3018 31.7196L24.2753 25.749L24.5246 25.2304C25.5464 22.913 25.7251 20.311 25.0297 17.8757C24.9927 17.7343 24.9453 17.5928 24.8982 17.448L28.6024 17.1719C29.4199 20.3116 29.1578 23.635 27.8582 26.6077Z" fill="#6B8FE6"/>
<path d="M28.2562 0.00380155L13.2033 1.12519C12.9316 1.14974 12.6673 1.22755 12.4256 1.35422C12.1839 1.48089 11.9696 1.65393 11.7948 1.86344C11.62 2.07295 11.4881 2.31484 11.4068 2.5753C11.3255 2.83576 11.2964 3.10969 11.3209 3.38144L12.1122 13.9689C12.1276 14.241 12.1968 14.5075 12.3154 14.7529C12.4341 14.9983 12.5998 15.2178 12.8034 15.399C13.0071 15.5801 13.2447 15.7193 13.5023 15.8085C13.7598 15.8976 14.0323 15.9351 14.3044 15.9187L15.8839 15.8042C15.9849 16.9829 15.9682 16.6124 16.0052 17.3735C16.0056 17.3913 16.0115 17.4086 16.022 17.423C16.0325 17.4374 16.0469 17.4483 16.0638 17.4542C16.0806 17.46 16.0989 17.4606 16.116 17.4558C16.1332 17.451 16.1487 17.4411 16.1601 17.4274C17.1064 16.9728 18.3926 16.37 20.4905 15.4574L29.3573 14.7839C29.629 14.7593 29.8933 14.6815 30.135 14.5548C30.3767 14.4282 30.591 14.2551 30.7658 14.0456C30.9406 13.8361 31.0725 13.5942 31.1538 13.3338C31.2351 13.0733 31.2642 12.7994 31.2397 12.5276L30.4484 1.94013C30.4138 1.39291 30.1635 0.881779 29.7525 0.518796C29.3416 0.155813 28.8035 -0.0293911 28.2562 0.00380155ZM20.8779 2.55639C21.2384 2.52929 21.6007 2.57348 21.9441 2.68643C22.2875 2.79939 22.6051 2.97888 22.8791 3.21469C23.153 3.45049 23.3779 3.73796 23.5407 4.06068C23.7035 4.3834 23.801 4.73504 23.8278 5.0955C23.8816 5.82414 23.6441 6.54436 23.1675 7.09807C22.6908 7.65177 22.0139 7.99371 21.2854 8.04882C20.5573 8.10171 19.8379 7.86378 19.2849 7.3872C18.732 6.91061 18.3907 6.23426 18.3355 5.50635C18.3066 5.14438 18.3495 4.78027 18.4618 4.43494C18.5741 4.08962 18.7533 3.7699 18.9896 3.49418C19.2259 3.21845 19.5144 2.99217 19.8384 2.82834C20.1625 2.66451 20.5158 2.56637 20.8779 2.53956V2.55639ZM26.4242 12.1269C26.4446 12.4002 26.3559 12.6703 26.1772 12.8781C25.9985 13.0858 25.7444 13.2141 25.4711 13.2348L17.9212 13.7972C17.6481 13.8167 17.3786 13.7275 17.171 13.5489C16.9635 13.3704 16.8348 13.1171 16.8132 12.8442L16.7494 11.9518C16.7205 11.5731 16.7664 11.1924 16.8849 10.8316C17.0034 10.4708 17.1919 10.1369 17.4397 9.84908C17.6875 9.56126 17.9898 9.32518 18.3289 9.15437C18.6681 8.98355 19.0377 8.88137 19.4165 8.85367L19.7733 8.82672C20.2803 9.0172 20.8225 9.09533 21.3627 9.05571C21.9028 9.01403 22.4278 8.85669 22.9017 8.59436L23.2589 8.56741C24.0233 8.51081 24.7788 8.75989 25.3596 9.25995C25.9405 9.76002 26.2991 10.4702 26.3567 11.2345L26.4242 12.1269Z" fill="#555555"/>
</svg>
